<svg width="50" height="50" viewBox="0 0 50 50" fill="none" xmlns="http://www.w3.org/2000/svg">
<g clip-path="url(#clip0_26_3492)">
<path d="M9 47V3L29.5706 3L41 15.0365L41 47H9Z" fill="#F87C36" stroke="#F87C36" stroke-width="2"/>
<mask id="mask0_26_3492" style="mask-type:alpha" maskUnits="userSpaceOnUse" x="8" y="2" width="34" height="46">
<path d="M9 47V3L29.5706 3L41 15.0365L41 47H9Z" fill="#FBFBFB" stroke="#FBFBFB" stroke-width="2"/>
</mask>
<g mask="url(#mask0_26_3492)">
<rect x="30" width="15" height="14" fill="#FBFBFB"/>
</g>
<path d="M29.6799 22.32C29.6799 22.32 30.7199 23.88 30.7199 26.48C30.7199 29.08 29.6799 30.64 29.6799 30.64" stroke="#FBFBFB" stroke-width="2.08" stroke-linecap="round" stroke-linejoin="round"/>
<path d="M32.8 17.64C32.8 17.64 35.4 20.7971 35.4 26.48C35.4 32.1629 32.8 35.32 32.8 35.32" stroke="#FBFBFB" stroke-width="2.08" stroke-linecap="round" stroke-linejoin="round"/>
<rect x="13.5601" y="22.32" width="10.4" height="9.36" rx="1.56" fill="#FBFBFB"/>
<path d="M15.4271 27.7639C14.9813 27.3522 14.9813 26.6478 15.4271 26.2361L24.5544 17.8046C25.2205 17.1893 26.3001 17.6617 26.3001 18.5685L26.3001 35.4315C26.3001 36.3383 25.2205 36.8107 24.5544 36.1954L15.4271 27.7639Z" fill="#FBFBFB"/>
</g>
<defs>
<clipPath id="clip0_26_3492">
<rect width="50" height="50" fill="white"/>
</clipPath>
</defs>
</svg>
