<svg width="50" height="50" viewBox="0 0 50 50" fill="none" xmlns="http://www.w3.org/2000/svg">
<g clip-path="url(#clip0_24_1743)">
<path d="M29.5703 3L41 15.0361V47H9V3H29.5703Z" fill="#3B6F9E" stroke="#3B6F9E" stroke-width="2"/>
<mask id="mask0_24_1743" style="mask-type:alpha" maskUnits="userSpaceOnUse" x="8" y="2" width="34" height="46">
<path d="M29.5703 3L41 15.0361V47H9V3H29.5703Z" fill="#FBFBFB" stroke="#FBFBFB" stroke-width="2"/>
</mask>
<g mask="url(#mask0_24_1743)">
<rect x="30" width="15" height="14" fill="#FBFBFB"/>
<g opacity="0.2">
<mask id="path-4-inside-1_24_1743" fill="white">
<path d="M40.276 30.8686L35.1472 26.9715L34.66 27.6126L31.4377 25.1641C31.2454 25.018 30.9977 24.9659 30.7629 25.0222L21.6578 27.2051C20.9972 27.3634 20.8175 28.2182 21.3583 28.6292L29.9426 35.1519L15.3282 54.3851C14.7902 55.0932 14.928 56.1035 15.6362 56.6416L16.9184 57.6159C17.6265 58.1539 18.6368 58.0161 19.1749 57.3079L33.7892 38.0747L38.9181 41.9719C39.2722 42.241 39.7773 42.172 40.0463 41.818L44.4306 36.048C44.6997 35.6939 44.6307 35.1888 44.2767 34.9197L39.7889 31.5097L40.276 30.8686Z"/>
</mask>
<path d="M35.1472 26.9715L42.293 17.5671L32.8887 10.4213L25.7428 19.8256L35.1472 26.9715ZM40.276 30.8686L49.6804 38.0145L56.8262 28.6101L47.4219 21.4643L40.276 30.8686ZM34.66 27.6126L27.5142 37.0169L36.9185 44.1627L44.0644 34.7584L34.66 27.6126ZM31.4377 25.1641L38.5836 15.7598L38.5836 15.7598L31.4377 25.1641ZM30.7629 25.0222L33.5165 36.5079L33.5165 36.5079L30.7629 25.0222ZM21.6578 27.2051L18.9042 15.7193L18.9042 15.7193L21.6578 27.2051ZM21.3583 28.6292L14.2125 38.0335H14.2125L21.3583 28.6292ZM29.9426 35.1519L39.3469 42.2977L46.4927 32.8934L37.0884 25.7475L29.9426 35.1519ZM15.3282 54.3851L5.92392 47.2392L15.3282 54.3851ZM15.6362 56.6416L8.49032 66.0459L8.49033 66.0459L15.6362 56.6416ZM16.9184 57.6159L24.0642 48.2115L24.0642 48.2115L16.9184 57.6159ZM19.1749 57.3079L9.77056 50.1621L19.1749 57.3079ZM33.7892 38.0747L40.9351 28.6704L31.5307 21.5245L24.3849 30.9289L33.7892 38.0747ZM38.9181 41.9719L31.7722 51.3762L38.9181 41.9719ZM40.0463 41.818L49.4507 48.9638V48.9638L40.0463 41.818ZM44.4306 36.048L35.0263 28.9021L35.0263 28.9021L44.4306 36.048ZM44.2767 34.9197L51.4225 25.5154V25.5154L44.2767 34.9197ZM39.7889 31.5097L30.3846 24.3638L23.2387 33.7682L32.643 40.914L39.7889 31.5097ZM28.0013 36.3758L33.1302 40.2729L47.4219 21.4643L42.293 17.5671L28.0013 36.3758ZM44.0644 34.7584L44.5515 34.1173L25.7428 19.8256L25.2557 20.4667L44.0644 34.7584ZM41.8059 18.2082L38.5836 15.7598L24.2919 34.5684L27.5142 37.0169L41.8059 18.2082ZM38.5836 15.7598C35.5706 13.4704 31.6891 12.6542 28.0092 13.5364L33.5165 36.5079C30.3063 37.2775 26.9203 36.5656 24.2919 34.5684L38.5836 15.7598ZM28.0093 13.5364L18.9042 15.7193L24.4113 38.6908L33.5165 36.5079L28.0093 13.5364ZM18.9042 15.7193C8.55396 18.2007 5.7379 31.5941 14.2125 38.0335L28.5042 19.2248C35.897 24.8423 33.4404 36.5262 24.4114 38.6908L18.9042 15.7193ZM14.2125 38.0335L22.7967 44.5562L37.0884 25.7475L28.5042 19.2248L14.2125 38.0335ZM20.5382 28.006L5.92392 47.2392L24.7326 61.5309L39.3469 42.2977L20.5382 28.006ZM5.92392 47.2392C1.43928 53.1412 2.58831 61.5613 8.49032 66.0459L22.782 47.2372C27.2677 50.6457 28.141 57.0452 24.7326 61.5309L5.92392 47.2392ZM8.49033 66.0459L9.77254 67.0202L24.0642 48.2115L22.782 47.2372L8.49033 66.0459ZM9.77253 67.0202C15.6745 71.5048 24.0946 70.3558 28.5792 64.4538L9.77056 50.1621C13.179 45.6764 19.5785 44.8031 24.0642 48.2115L9.77253 67.0202ZM28.5792 64.4538L43.1935 45.2206L24.3849 30.9289L9.77056 50.1621L28.5792 64.4538ZM26.6433 47.4791L31.7722 51.3762L46.064 32.5676L40.9351 28.6704L26.6433 47.4791ZM31.7722 51.3762C37.3202 55.5918 45.2351 54.5117 49.4507 48.9638L30.642 34.6721C34.3195 29.8323 41.2241 28.8901 46.064 32.5676L31.7722 51.3762ZM49.4507 48.9638L53.835 43.1938L35.0263 28.9021L30.642 34.6721L49.4507 48.9638ZM53.835 43.1938C58.0505 37.646 56.9705 29.731 51.4225 25.5154L37.1308 44.3241C32.291 40.6465 31.3488 33.7419 35.0263 28.9021L53.835 43.1938ZM51.4225 25.5154L46.9347 22.1054L32.643 40.914L37.1308 44.3241L51.4225 25.5154ZM30.8717 23.7228L30.3846 24.3638L49.1932 38.6556L49.6804 38.0145L30.8717 23.7228Z" fill="white" mask="url(#path-4-inside-1_24_1743)"/>
</g>
</g>
<g clip-path="url(#clip1_24_1743)">
<mask id="mask1_24_1743" style="mask-type:luminance" maskUnits="userSpaceOnUse" x="14" y="16" width="22" height="23">
<path d="M14.08 16.56H35.92V38.4H14.08V16.56Z" fill="white"/>
</mask>
<g mask="url(#mask1_24_1743)">
<path fill-rule="evenodd" clip-rule="evenodd" d="M25.1515 17.8401C28.3693 17.8727 30.9445 19.9652 30.9033 22.5139L19.2501 22.4548C19.2501 22.4351 19.2503 22.4155 19.2506 22.3958C19.2918 19.8471 21.9337 17.8075 25.1515 17.8401ZM23.1916 20.2796C23.1916 19.9592 22.9242 19.6995 22.5944 19.6995C22.2646 19.6995 21.9972 19.9592 21.9972 20.2796C21.9972 20.6 22.2646 20.8598 22.5944 20.8598C22.9242 20.8598 23.1916 20.6 23.1916 20.2796ZM28.1056 20.2796C28.1056 19.9592 27.8421 19.6995 27.517 19.6995C27.1919 19.6995 26.9283 19.9592 26.9283 20.2796C26.9283 20.6 27.1919 20.8598 27.517 20.8598C27.8421 20.8598 28.1056 20.6 28.1056 20.2796Z" fill="#FBFBFB"/>
<path fill-rule="evenodd" clip-rule="evenodd" d="M28.8643 16.8912C28.9206 16.8134 28.9032 16.7048 28.8255 16.6486C28.7477 16.5924 28.6391 16.6098 28.5829 16.6875L27.3601 18.3771C27.3038 18.4549 27.3212 18.5635 27.3989 18.6197C27.4767 18.676 27.5853 18.6586 27.6415 18.5808L28.8643 16.8912Z" fill="#FBFBFB"/>
<path fill-rule="evenodd" clip-rule="evenodd" d="M21.2649 16.8912C21.2087 16.8134 21.2261 16.7048 21.3038 16.6486C21.3815 16.5924 21.4901 16.6098 21.5464 16.6875L22.7692 18.3771C22.8255 18.4549 22.8081 18.5635 22.7303 18.6197C22.6526 18.676 22.544 18.6585 22.4878 18.5808L21.2649 16.8912Z" fill="#FBFBFB"/>
<path fill-rule="evenodd" clip-rule="evenodd" d="M20.369 33.9638H29.7849C30.4029 33.9638 30.9038 33.4628 30.9038 32.8449V23.4191H19.2501V32.8449C19.2501 33.4628 19.7511 33.9638 20.369 33.9638Z" fill="#FBFBFB"/>
<path fill-rule="evenodd" clip-rule="evenodd" d="M28.6516 32.9315C28.6516 32.2483 28.0978 31.6944 27.4146 31.6944C26.7314 31.6944 26.1775 32.2483 26.1775 32.9315V37.163C26.1775 37.8462 26.7314 38.4 27.4146 38.4C28.0978 38.4 28.6516 37.8462 28.6516 37.163V32.9315Z" fill="#FBFBFB"/>
<path fill-rule="evenodd" clip-rule="evenodd" d="M23.9082 32.9315C23.9082 32.2483 23.3544 31.6944 22.6712 31.6944C21.988 31.6944 21.4341 32.2483 21.4341 32.9315V37.163C21.4341 37.8462 21.988 38.4 22.6712 38.4C23.3544 38.4 23.9082 37.8462 23.9082 37.163V32.9315Z" fill="#FBFBFB"/>
<path fill-rule="evenodd" clip-rule="evenodd" d="M18.3289 24.6562C18.3289 23.973 17.775 23.4191 17.0918 23.4191C16.4086 23.4191 15.8548 23.973 15.8548 24.6562V30.1673C15.8548 30.8505 16.4086 31.4044 17.0918 31.4044C17.775 31.4044 18.3289 30.8505 18.3289 30.1673V24.6562Z" fill="#FBFBFB"/>
<path fill-rule="evenodd" clip-rule="evenodd" d="M34.214 24.6903C34.214 24.0071 33.6602 23.4532 32.977 23.4532C32.2938 23.4532 31.7399 24.0071 31.7399 24.6903L31.7399 30.2015C31.7399 30.8847 32.2938 31.4385 32.977 31.4385C33.6602 31.4385 34.214 30.8847 34.214 30.2015V24.6903Z" fill="#FBFBFB"/>
</g>
</g>
</g>
<defs>
<clipPath id="clip0_24_1743">
<rect width="50" height="50" fill="white"/>
</clipPath>
<clipPath id="clip1_24_1743">
<rect width="21.84" height="21.84" fill="white" transform="matrix(-1 0 0 1 35.92 16.56)"/>
</clipPath>
</defs>
</svg>
