<svg width="50" height="50" viewBox="0 0 50 50" fill="none" xmlns="http://www.w3.org/2000/svg">
<g clip-path="url(#clip0_24_1458)">
<path d="M9 47V3L29.5706 3L41 15.0365L41 47H9Z" fill="#3B6F9E" stroke="#3B6F9E" stroke-width="2"/>
<mask id="mask0_24_1458" style="mask-type:alpha" maskUnits="userSpaceOnUse" x="8" y="2" width="34" height="46">
<path d="M9 47V3L29.5706 3L41 15.0365L41 47H9Z" fill="#FBFBFB" stroke="#FBFBFB" stroke-width="2"/>
</mask>
<g mask="url(#mask0_24_1458)">
<rect x="30" width="15" height="14" fill="#FBFBFB"/>
<g opacity="0.2">
<mask id="path-4-inside-1_24_1458" fill="white">
<path d="M40.276 30.8686L35.1472 26.9715L34.66 27.6126L31.4377 25.1641C31.2454 25.018 30.9977 24.9659 30.7629 25.0222L21.6578 27.2051C20.9972 27.3634 20.8175 28.2182 21.3583 28.6292L29.9426 35.1519L15.3282 54.3851C14.7902 55.0932 14.928 56.1035 15.6362 56.6416L16.9184 57.6159C17.6265 58.1539 18.6368 58.0161 19.1749 57.3079L33.7892 38.0747L38.9181 41.9719C39.2722 42.241 39.7773 42.172 40.0463 41.818L44.4306 36.048C44.6997 35.6939 44.6307 35.1888 44.2767 34.9197L39.7889 31.5097L40.276 30.8686Z"/>
</mask>
<path d="M35.1472 26.9715L42.293 17.5671L32.8887 10.4213L25.7428 19.8256L35.1472 26.9715ZM40.276 30.8686L49.6804 38.0145L56.8262 28.6101L47.4219 21.4643L40.276 30.8686ZM34.66 27.6126L27.5142 37.0169L36.9185 44.1627L44.0644 34.7584L34.66 27.6126ZM31.4377 25.1641L38.5836 15.7598L38.5836 15.7598L31.4377 25.1641ZM30.7629 25.0222L33.5165 36.5079L33.5165 36.5079L30.7629 25.0222ZM21.6578 27.2051L18.9042 15.7193L18.9042 15.7193L21.6578 27.2051ZM21.3583 28.6292L14.2125 38.0335H14.2125L21.3583 28.6292ZM29.9426 35.1519L39.3469 42.2977L46.4927 32.8934L37.0884 25.7475L29.9426 35.1519ZM15.3282 54.3851L5.92392 47.2392L15.3282 54.3851ZM15.6362 56.6416L8.49032 66.0459L8.49033 66.0459L15.6362 56.6416ZM16.9184 57.6159L24.0642 48.2115L24.0642 48.2115L16.9184 57.6159ZM19.1749 57.3079L9.77056 50.1621L19.1749 57.3079ZM33.7892 38.0747L40.9351 28.6704L31.5307 21.5245L24.3849 30.9289L33.7892 38.0747ZM38.9181 41.9719L31.7722 51.3762L38.9181 41.9719ZM40.0463 41.818L49.4507 48.9638V48.9638L40.0463 41.818ZM44.4306 36.048L35.0263 28.9021L35.0263 28.9021L44.4306 36.048ZM44.2767 34.9197L51.4225 25.5154V25.5154L44.2767 34.9197ZM39.7889 31.5097L30.3846 24.3638L23.2387 33.7682L32.643 40.914L39.7889 31.5097ZM28.0013 36.3758L33.1302 40.2729L47.4219 21.4643L42.293 17.5671L28.0013 36.3758ZM44.0644 34.7584L44.5515 34.1173L25.7428 19.8256L25.2557 20.4667L44.0644 34.7584ZM41.8059 18.2082L38.5836 15.7598L24.2919 34.5684L27.5142 37.0169L41.8059 18.2082ZM38.5836 15.7598C35.5706 13.4704 31.6891 12.6542 28.0092 13.5364L33.5165 36.5079C30.3063 37.2775 26.9203 36.5656 24.2919 34.5684L38.5836 15.7598ZM28.0093 13.5364L18.9042 15.7193L24.4113 38.6908L33.5165 36.5079L28.0093 13.5364ZM18.9042 15.7193C8.55396 18.2007 5.7379 31.5941 14.2125 38.0335L28.5042 19.2248C35.897 24.8423 33.4404 36.5262 24.4114 38.6908L18.9042 15.7193ZM14.2125 38.0335L22.7967 44.5562L37.0884 25.7475L28.5042 19.2248L14.2125 38.0335ZM20.5382 28.006L5.92392 47.2392L24.7326 61.5309L39.3469 42.2977L20.5382 28.006ZM5.92392 47.2392C1.43928 53.1412 2.58831 61.5613 8.49032 66.0459L22.782 47.2372C27.2677 50.6457 28.141 57.0452 24.7326 61.5309L5.92392 47.2392ZM8.49033 66.0459L9.77254 67.0202L24.0642 48.2115L22.782 47.2372L8.49033 66.0459ZM9.77253 67.0202C15.6745 71.5048 24.0946 70.3558 28.5792 64.4538L9.77056 50.1621C13.179 45.6764 19.5785 44.8031 24.0642 48.2115L9.77253 67.0202ZM28.5792 64.4538L43.1935 45.2206L24.3849 30.9289L9.77056 50.1621L28.5792 64.4538ZM26.6433 47.4791L31.7722 51.3762L46.064 32.5676L40.9351 28.6704L26.6433 47.4791ZM31.7722 51.3762C37.3202 55.5918 45.2351 54.5117 49.4507 48.9638L30.642 34.6721C34.3195 29.8323 41.2241 28.8901 46.064 32.5676L31.7722 51.3762ZM49.4507 48.9638L53.835 43.1938L35.0263 28.9021L30.642 34.6721L49.4507 48.9638ZM53.835 43.1938C58.0505 37.646 56.9705 29.731 51.4225 25.5154L37.1308 44.3241C32.291 40.6465 31.3488 33.7419 35.0263 28.9021L53.835 43.1938ZM51.4225 25.5154L46.9347 22.1054L32.643 40.914L37.1308 44.3241L51.4225 25.5154ZM30.8717 23.7228L30.3846 24.3638L49.1932 38.6556L49.6804 38.0145L30.8717 23.7228Z" fill="white" mask="url(#path-4-inside-1_24_1458)"/>
</g>
</g>
<path d="M18.677 17.1474C16.5381 17.5272 14.8172 19.0991 14.2747 21.1657C14.0791 21.9119 14.0657 22.349 14.088 28.138C14.1013 33.4544 14.1057 33.5781 14.1947 33.9887C14.6883 36.201 16.2713 37.7773 18.5214 38.2984C18.8148 38.3646 19.1884 38.3779 21.5941 38.3911C24.0842 38.4088 24.3422 38.4044 24.4089 38.3381C24.4756 38.2719 24.48 37.4197 24.48 27.7582C24.48 20.596 24.4667 17.2225 24.4355 17.1607C24.3911 17.0812 24.3155 17.0768 21.7097 17.0812C19.593 17.0856 18.9571 17.0988 18.677 17.1474ZM22.7013 27.745V36.6911L20.8915 36.669C19.2239 36.6514 19.0461 36.6425 18.7126 36.5586C17.2807 36.1921 16.2179 35.097 15.92 33.6708C15.8222 33.2248 15.8222 22.2387 15.9156 21.8015C16.1824 20.5607 17.0495 19.5319 18.219 19.0682C18.806 18.8342 19.0772 18.8077 20.9804 18.8033L22.7013 18.7989V27.745Z" fill="#FBFBFB"/>
<path d="M19.0606 21.2797C18.7348 21.3348 18.2384 21.555 17.9746 21.7615C17.4317 22.179 17.1628 22.7709 17.2041 23.4683C17.2248 23.8308 17.2507 23.9271 17.4162 24.2208C17.6592 24.6658 18.0264 24.9916 18.5279 25.2118C18.8744 25.3632 18.9623 25.3816 19.4122 25.3953C19.8207 25.4091 19.9655 25.3953 20.2396 25.3128C21.3617 24.9778 22.0391 24.0097 21.8478 23.0186C21.6254 21.8395 20.3637 21.0503 19.0606 21.2797Z" fill="#FBFBFB"/>
<path d="M26.5908 17.1109C26.5732 17.1241 26.56 21.9092 26.56 27.7449C26.56 37.3724 26.5644 38.3479 26.6304 38.3744C26.7491 38.4186 30.162 38.4009 30.5842 38.3568C32.3697 38.1537 33.9442 37.0634 34.8018 35.4434C34.9118 35.2359 35.0569 34.8872 35.1317 34.6709C35.4088 33.841 35.4 34.0617 35.4 27.7184C35.4 22.6552 35.3912 21.9004 35.3296 21.5781C34.8942 19.2783 33.1482 17.5435 30.8524 17.1462C30.5446 17.0932 30.0696 17.08 28.5391 17.08C27.4836 17.08 26.604 17.0932 26.5908 17.1109ZM31.2878 26.7252C31.9739 26.9062 32.5369 27.4315 32.7656 28.1024C32.9107 28.5174 32.9063 29.1265 32.7612 29.5062C32.4929 30.2036 31.9651 30.6936 31.2878 30.8746C30.1883 31.1615 29.0185 30.495 28.6974 29.4002C28.6007 29.0647 28.6051 28.4997 28.715 28.1554C29.0449 27.0739 30.1883 26.4383 31.2878 26.7252Z" fill="#FBFBFB"/>
</g>
<defs>
<clipPath id="clip0_24_1458">
<rect width="50" height="50" fill="white"/>
</clipPath>
</defs>
</svg>
