<svg width="50" height="50" viewBox="0 0 50 50" fill="none" xmlns="http://www.w3.org/2000/svg">
<g clip-path="url(#clip0_26_3489)">
<path d="M9 47V3L29.5706 3L41 15.0365L41 47H9Z" fill="url(#paint0_linear_26_3489)" style="mix-blend-mode:lighten"/>
<path d="M9 47V3L29.5706 3L41 15.0365L41 47H9Z" stroke="url(#paint1_linear_26_3489)" stroke-width="2" style="mix-blend-mode:lighten"/>
<mask id="mask0_26_3489" style="mask-type:alpha" maskUnits="userSpaceOnUse" x="8" y="2" width="34" height="46">
<path d="M9 47V3L29.5706 3L41 15.0365L41 47H9Z" fill="#FBFBFB" stroke="#FBFBFB" stroke-width="2"/>
</mask>
<g mask="url(#mask0_26_3489)">
<rect x="30" width="15" height="14" fill="#FBFBFB"/>
</g>
<path d="M16.6369 21.368C16.6369 21.3213 16.6509 21.284 16.6789 21.256C16.7162 21.2187 16.7582 21.2 16.8049 21.2H18.0929C18.1395 21.2 18.1769 21.2187 18.2049 21.256C18.2422 21.284 18.2609 21.3213 18.2609 21.368V30.832C18.2609 30.8787 18.2422 30.9207 18.2049 30.958C18.1769 30.986 18.1395 31 18.0929 31H16.8049C16.7582 31 16.7162 30.986 16.6789 30.958C16.6509 30.9207 16.6369 30.8787 16.6369 30.832V26.87C16.6369 26.8233 16.6135 26.8 16.5669 26.8H14.7889C14.7422 26.8 14.7189 26.8233 14.7189 26.87V30.832C14.7189 30.8787 14.7002 30.9207 14.6629 30.958C14.6349 30.986 14.5975 31 14.5509 31H13.2629C13.2162 31 13.1742 30.986 13.1369 30.958C13.1089 30.9207 13.0949 30.8787 13.0949 30.832V21.368C13.0949 21.3213 13.1089 21.284 13.1369 21.256C13.1742 21.2187 13.2162 21.2 13.2629 21.2H14.5509C14.5975 21.2 14.6349 21.2187 14.6629 21.256C14.7002 21.284 14.7189 21.3213 14.7189 21.368V25.316C14.7189 25.3627 14.7422 25.386 14.7889 25.386H16.5669C16.6135 25.386 16.6369 25.3627 16.6369 25.316V21.368ZM19.9347 31C19.8881 31 19.8461 30.986 19.8087 30.958C19.7807 30.9207 19.7667 30.8787 19.7667 30.832V21.368C19.7667 21.3213 19.7807 21.284 19.8087 21.256C19.8461 21.2187 19.8881 21.2 19.9347 21.2H21.2227C21.2694 21.2 21.3067 21.2187 21.3347 21.256C21.3721 21.284 21.3907 21.3213 21.3907 21.368V29.53C21.3907 29.5767 21.4141 29.6 21.4607 29.6H24.4847C24.5314 29.6 24.5687 29.6187 24.5967 29.656C24.6341 29.684 24.6527 29.7213 24.6527 29.768V30.832C24.6527 30.8787 24.6341 30.9207 24.5967 30.958C24.5687 30.986 24.5314 31 24.4847 31H19.9347ZM27.8463 31.112C27.0716 31.112 26.4463 30.8787 25.9703 30.412C25.4943 29.9453 25.2563 29.334 25.2563 28.578V28.214C25.2563 28.1673 25.2703 28.13 25.2983 28.102C25.3356 28.0647 25.3776 28.046 25.4243 28.046H26.6983C26.7449 28.046 26.7823 28.0647 26.8103 28.102C26.8476 28.13 26.8663 28.1673 26.8663 28.214V28.494C26.8663 28.858 26.9549 29.152 27.1323 29.376C27.3189 29.6 27.5569 29.712 27.8463 29.712C28.1356 29.712 28.3736 29.6093 28.5603 29.404C28.7469 29.1893 28.8403 28.9093 28.8403 28.564C28.8403 28.3213 28.7889 28.1113 28.6863 27.934C28.5836 27.7567 28.4389 27.5887 28.2523 27.43C28.0656 27.2713 27.7669 27.0427 27.3563 26.744C26.8896 26.408 26.5116 26.1093 26.2223 25.848C25.9423 25.5867 25.7043 25.274 25.5083 24.91C25.3216 24.5367 25.2283 24.1073 25.2283 23.622C25.2283 22.8473 25.4616 22.2313 25.9283 21.774C26.3949 21.3167 27.0109 21.088 27.7763 21.088C28.5509 21.088 29.1763 21.3307 29.6523 21.816C30.1283 22.292 30.3663 22.9267 30.3663 23.72V24.056C30.3663 24.1027 30.3476 24.1447 30.3103 24.182C30.2823 24.21 30.2449 24.224 30.1983 24.224H28.9383C28.8916 24.224 28.8496 24.21 28.8123 24.182C28.7843 24.1447 28.7703 24.1027 28.7703 24.056V23.692C28.7703 23.328 28.6769 23.0387 28.4903 22.824C28.3129 22.6 28.0749 22.488 27.7763 22.488C27.4963 22.488 27.2676 22.5907 27.0903 22.796C26.9129 22.992 26.8243 23.2673 26.8243 23.622C26.8243 23.958 26.9176 24.2427 27.1043 24.476C27.3003 24.7093 27.6783 25.0313 28.2383 25.442C28.8076 25.862 29.2369 26.2073 29.5263 26.478C29.8156 26.7393 30.0396 27.0287 30.1983 27.346C30.3569 27.6633 30.4363 28.0413 30.4363 28.48C30.4363 29.2733 30.1983 29.9127 29.7223 30.398C29.2463 30.874 28.6209 31.112 27.8463 31.112ZM31.7746 31C31.7279 31 31.6859 30.986 31.6486 30.958C31.6206 30.9207 31.6066 30.8787 31.6066 30.832V21.368C31.6066 21.3213 31.6206 21.284 31.6486 21.256C31.6859 21.2187 31.7279 21.2 31.7746 21.2H33.0626C33.1093 21.2 33.1466 21.2187 33.1746 21.256C33.2119 21.284 33.2306 21.3213 33.2306 21.368V29.53C33.2306 29.5767 33.2539 29.6 33.3006 29.6H36.3246C36.3713 29.6 36.4086 29.6187 36.4366 29.656C36.4739 29.684 36.4926 29.7213 36.4926 29.768V30.832C36.4926 30.8787 36.4739 30.9207 36.4366 30.958C36.4086 30.986 36.3713 31 36.3246 31H31.7746Z" fill="#3B6F9E"/>
</g>
<defs>
<linearGradient id="paint0_linear_26_3489" x1="25" y1="2" x2="25" y2="48" gradientUnits="userSpaceOnUse">
<stop stop-color="#87F58B"/>
<stop offset="0.334" stop-color="#E3EE65"/>
<stop offset="0.704" stop-color="#F77F7F"/>
<stop offset="1" stop-color="#BF2DB9"/>
</linearGradient>
<linearGradient id="paint1_linear_26_3489" x1="25" y1="2" x2="25" y2="48" gradientUnits="userSpaceOnUse">
<stop stop-color="#87F58B"/>
<stop offset="0.334" stop-color="#E3EE65"/>
<stop offset="0.704" stop-color="#F77F7F"/>
<stop offset="1" stop-color="#BF2DB9"/>
</linearGradient>
<clipPath id="clip0_26_3489">
<rect width="50" height="50" fill="white"/>
</clipPath>
</defs>
</svg>
