<svg width="50" height="50" viewBox="0 0 50 50" fill="none" xmlns="http://www.w3.org/2000/svg">
<g clip-path="url(#clip0_26_3474)">
<path d="M29.5703 3L41 15.0361V47H9V3H29.5703Z" fill="#FBFBFB" stroke="#FBFBFB" stroke-width="2"/>
<mask id="mask0_26_3474" style="mask-type:alpha" maskUnits="userSpaceOnUse" x="8" y="2" width="34" height="46">
<path d="M29.5703 3L41 15.0361V47H9V3H29.5703Z" fill="#FBFBFB" stroke="#FBFBFB" stroke-width="2"/>
</mask>
<g mask="url(#mask0_26_3474)">
<rect x="30" width="15" height="14" fill="#D9D9D9"/>
<path opacity="0.5" d="M26.6465 41.2441H21.6074L29.3857 35.1943V39.5742L26.6465 41.2441ZM29.3857 47.3086L21.6074 41.2441H26.6465L29.3857 42.9141V47.3086ZM33.458 55.043H30.0449L34.5566 27.1816H37.9551L33.458 55.043ZM38.5996 35.1943L46.3779 41.2441H41.4121L38.5996 39.5742V35.1943ZM41.4121 41.2441H46.3779L38.5996 47.3086V42.9141L41.4121 41.2441Z" fill="#D9D9D9"/>
</g>
<path d="M14.8523 31C14.787 31 14.745 30.9813 14.7263 30.944C14.7076 30.9067 14.7076 30.86 14.7263 30.804L16.6303 26.142C16.6396 26.114 16.6396 26.086 16.6303 26.058L14.7263 21.396C14.717 21.3773 14.7123 21.3493 14.7123 21.312C14.7123 21.2373 14.759 21.2 14.8523 21.2H16.5323C16.6256 21.2 16.6863 21.2467 16.7143 21.34L17.6523 24.028C17.6616 24.056 17.6756 24.07 17.6943 24.07C17.713 24.07 17.727 24.056 17.7363 24.028L18.6743 21.34C18.7023 21.2467 18.763 21.2 18.8563 21.2H20.5223C20.5876 21.2 20.6296 21.2187 20.6483 21.256C20.667 21.2933 20.667 21.34 20.6483 21.396L18.7443 26.058C18.735 26.086 18.735 26.114 18.7443 26.142L20.6483 30.804C20.6576 30.8227 20.6623 30.8507 20.6623 30.888C20.6623 30.9627 20.6156 31 20.5223 31H18.8563C18.763 31 18.7023 30.9533 18.6743 30.86L17.7363 28.186C17.727 28.158 17.713 28.144 17.6943 28.144C17.6756 28.144 17.6616 28.158 17.6523 28.186L16.7003 30.86C16.6723 30.9533 16.6116 31 16.5183 31H14.8523ZM26.1028 21.312C26.1402 21.2373 26.2102 21.2 26.3128 21.2H27.9368C27.9835 21.2 28.0208 21.2187 28.0488 21.256C28.0862 21.284 28.1048 21.3213 28.1048 21.368V30.832C28.1048 30.8787 28.0862 30.9207 28.0488 30.958C28.0208 30.986 27.9835 31 27.9368 31H26.2988C26.2522 31 26.2102 30.986 26.1728 30.958C26.1448 30.9207 26.1308 30.8787 26.1308 30.832V24.546C26.1308 24.5087 26.1215 24.49 26.1028 24.49C26.0842 24.49 26.0655 24.504 26.0468 24.532L24.9548 26.464C24.9082 26.5387 24.8708 26.576 24.8428 26.576C24.8148 26.576 24.7775 26.5387 24.7308 26.464L23.6388 24.532C23.6202 24.504 23.6015 24.49 23.5828 24.49C23.5642 24.49 23.5548 24.5087 23.5548 24.546V30.832C23.5548 30.8787 23.5362 30.9207 23.4988 30.958C23.4708 30.986 23.4335 31 23.3868 31H21.7488C21.7022 31 21.6602 30.986 21.6228 30.958C21.5948 30.9207 21.5808 30.8787 21.5808 30.832V21.368C21.5808 21.3213 21.5948 21.284 21.6228 21.256C21.6602 21.2187 21.7022 21.2 21.7488 21.2H23.3588C23.4522 21.2 23.5222 21.2373 23.5688 21.312L24.8148 23.538C24.8428 23.5753 24.8708 23.5753 24.8988 23.538L26.1028 21.312ZM29.4608 31C29.4141 31 29.3721 30.986 29.3348 30.958C29.3068 30.9207 29.2928 30.8787 29.2928 30.832V21.368C29.2928 21.3213 29.3068 21.284 29.3348 21.256C29.3721 21.2187 29.4141 21.2 29.4608 21.2H31.0988C31.1454 21.2 31.1828 21.2187 31.2108 21.256C31.2481 21.284 31.2668 21.3213 31.2668 21.368V29.236C31.2668 29.2827 31.2901 29.306 31.3368 29.306H34.2768C34.3234 29.306 34.3608 29.3247 34.3888 29.362C34.4261 29.39 34.4448 29.4273 34.4448 29.474V30.832C34.4448 30.8787 34.4261 30.9207 34.3888 30.958C34.3608 30.986 34.3234 31 34.2768 31H29.4608Z" fill="#DD3131"/>
</g>
<defs>
<clipPath id="clip0_26_3474">
<rect width="50" height="50" fill="white"/>
</clipPath>
</defs>
</svg>
