<svg width="58" height="58" viewBox="0 0 58 58" fill="none" xmlns="http://www.w3.org/2000/svg">
<g clip-path="url(#clip0_26_3531)" filter="url(#filter0_d_26_3531)">
<g filter="url(#filter1_d_26_3531)">
<path d="M13 47V3L33.5706 3L45 15.0365L45 47H13Z" fill="#007CC1" stroke="#007CC1" stroke-width="2"/>
<mask id="mask0_26_3531" style="mask-type:alpha" maskUnits="userSpaceOnUse" x="12" y="2" width="34" height="46">
<path d="M13 47V3L33.5706 3L45 15.0365L45 47H13Z" fill="#FBFBFB" stroke="#FBFBFB" stroke-width="2"/>
</mask>
<g mask="url(#mask0_26_3531)">
<rect x="34" width="15" height="14" fill="#FBFBFB"/>
<path opacity="0.2" fill-rule="evenodd" clip-rule="evenodd" d="M51.44 39.09C51.44 47.0153 45.0153 53.44 37.09 53.44C29.1647 53.44 22.74 47.0153 22.74 39.09C22.74 31.1647 29.1647 24.74 37.09 24.74C45.0153 24.74 51.44 31.1647 51.44 39.09ZM49.3899 37.86L37.9099 51.39L32.1699 42.78L49.3899 37.86ZM31.76 41.96L43.24 28.43L26.0199 32.94L31.76 41.96Z" fill="#D9D9D9"/>
</g>
</g>
</g>
<defs>
<filter id="filter0_d_26_3531" x="0" y="0" width="58" height="58" filterUnits="userSpaceOnUse" color-interpolation-filters="sRGB">
<feFlood flood-opacity="0" result="BackgroundImageFix"/>
<feColorMatrix in="SourceAlpha" type="matrix" values="0 0 0 0 0 0 0 0 0 0 0 0 0 0 0 0 0 0 127 0" result="hardAlpha"/>
<feOffset dy="4"/>
<feGaussianBlur stdDeviation="2"/>
<feComposite in2="hardAlpha" operator="out"/>
<feColorMatrix type="matrix" values="0 0 0 0 0 0 0 0 0 0 0 0 0 0 0 0 0 0 0.25 0"/>
<feBlend mode="normal" in2="BackgroundImageFix" result="effect1_dropShadow_26_3531"/>
<feBlend mode="normal" in="SourceGraphic" in2="effect1_dropShadow_26_3531" result="shape"/>
</filter>
<filter id="filter1_d_26_3531" x="0" y="0" width="58" height="58" filterUnits="userSpaceOnUse" color-interpolation-filters="sRGB">
<feFlood flood-opacity="0" result="BackgroundImageFix"/>
<feColorMatrix in="SourceAlpha" type="matrix" values="0 0 0 0 0 0 0 0 0 0 0 0 0 0 0 0 0 0 127 0" result="hardAlpha"/>
<feOffset dy="4"/>
<feGaussianBlur stdDeviation="2"/>
<feComposite in2="hardAlpha" operator="out"/>
<feColorMatrix type="matrix" values="0 0 0 0 0 0 0 0 0 0 0 0 0 0 0 0 0 0 0.25 0"/>
<feBlend mode="normal" in2="BackgroundImageFix" result="effect1_dropShadow_26_3531"/>
<feBlend mode="normal" in="SourceGraphic" in2="effect1_dropShadow_26_3531" result="shape"/>
</filter>
<clipPath id="clip0_26_3531">
<rect width="50" height="50" fill="white" transform="translate(4)"/>
</clipPath>
</defs>
</svg>
