<svg width="58" height="58" viewBox="0 0 58 58" fill="none" xmlns="http://www.w3.org/2000/svg">
<g clip-path="url(#clip0_26_3483)" filter="url(#filter0_d_26_3483)">
<g filter="url(#filter1_d_26_3483)">
<path d="M13 47V3L33.5706 3L45 15.0365L45 47H13Z" fill="#FBFBFB" stroke="#FBFBFB" stroke-width="2"/>
<mask id="mask0_26_3483" style="mask-type:alpha" maskUnits="userSpaceOnUse" x="12" y="2" width="34" height="46">
<path d="M13 47V3L33.5706 3L45 15.0365L45 47H13Z" fill="#FBFBFB" stroke="#FBFBFB" stroke-width="2"/>
</mask>
<g mask="url(#mask0_26_3483)">
<rect x="34" width="15" height="14" fill="#D9D9D9"/>
<path opacity="0.5" d="M18.5643 46.576C18.4576 46.576 18.3723 46.544 18.3083 46.48C18.2443 46.3947 18.2229 46.2987 18.2443 46.192L18.6283 43.088C18.6496 42.9813 18.6923 42.896 18.7563 42.832C18.8416 42.7467 18.9376 42.704 19.0443 42.704H35.2043C35.3109 42.704 35.3963 42.7467 35.4603 42.832C35.5243 42.896 35.5456 42.9813 35.5243 43.088L35.1723 46.192C35.1509 46.2987 35.0976 46.3947 35.0123 46.48C34.9269 46.544 34.8309 46.576 34.7243 46.576H18.5643ZM36.9705 46.48C36.8638 46.48 36.7785 46.448 36.7145 46.384C36.6505 46.2987 36.6292 46.2027 36.6505 46.096L37.0345 42.992C37.0558 42.8853 37.0985 42.8 37.1625 42.736C37.2478 42.6507 37.3438 42.608 37.4505 42.608H45.4825C45.7172 42.608 45.8345 42.736 45.8345 42.992L45.4505 46.096C45.4292 46.2027 45.3758 46.2987 45.2905 46.384C45.2265 46.448 45.1412 46.48 45.0345 46.48H36.9705Z" fill="#D9D9D9"/>
<path opacity="0.5" d="M27.8143 40.576C27.7076 40.576 27.6223 40.544 27.5583 40.48C27.4943 40.3947 27.4729 40.2987 27.4943 40.192L27.8783 37.088C27.8996 36.9813 27.9423 36.896 28.0063 36.832C28.0916 36.7467 28.1876 36.704 28.2943 36.704H44.4543C44.5609 36.704 44.6463 36.7467 44.7103 36.832C44.7743 36.896 44.7956 36.9813 44.7743 37.088L44.4223 40.192C44.4009 40.2987 44.3476 40.3947 44.2623 40.48C44.1769 40.544 44.0809 40.576 43.9743 40.576H27.8143Z" fill="#D9D9D9"/>
</g>
</g>
<path d="M24.7322 21.2C24.7789 21.2 24.8162 21.2187 24.8442 21.256C24.8815 21.284 24.9002 21.3213 24.9002 21.368V22.432C24.9002 22.4787 24.8815 22.5207 24.8442 22.558C24.8162 22.586 24.7789 22.6 24.7322 22.6H22.9542C22.9075 22.6 22.8842 22.6233 22.8842 22.67V30.832C22.8842 30.8787 22.8655 30.9207 22.8282 30.958C22.8002 30.986 22.7629 31 22.7162 31H21.4282C21.3815 31 21.3395 30.986 21.3022 30.958C21.2742 30.9207 21.2602 30.8787 21.2602 30.832V22.67C21.2602 22.6233 21.2369 22.6 21.1902 22.6H19.5102C19.4635 22.6 19.4215 22.586 19.3842 22.558C19.3562 22.5207 19.3422 22.4787 19.3422 22.432V21.368C19.3422 21.3213 19.3562 21.284 19.3842 21.256C19.4215 21.2187 19.4635 21.2 19.5102 21.2H24.7322ZM25.8403 31C25.7749 31 25.7329 30.9813 25.7143 30.944C25.6956 30.9067 25.6956 30.86 25.7143 30.804L27.6323 26.142C27.6416 26.114 27.6416 26.086 27.6323 26.058L25.7143 21.396C25.7049 21.3773 25.7003 21.3493 25.7003 21.312C25.7003 21.2373 25.7469 21.2 25.8403 21.2H27.1703C27.2636 21.2 27.3243 21.2467 27.3523 21.34L28.4723 24.378C28.4816 24.406 28.4956 24.42 28.5143 24.42C28.5329 24.42 28.5469 24.406 28.5563 24.378L29.6623 21.34C29.6903 21.2467 29.7509 21.2 29.8443 21.2H31.1603C31.2256 21.2 31.2676 21.2187 31.2863 21.256C31.3049 21.2933 31.3049 21.34 31.2863 21.396L29.3683 26.058C29.3589 26.086 29.3589 26.114 29.3683 26.142L31.2863 30.804C31.2956 30.8227 31.3003 30.8507 31.3003 30.888C31.3003 30.9627 31.2536 31 31.1603 31H29.8583C29.7556 31 29.6903 30.9533 29.6623 30.86L28.5563 27.836C28.5469 27.808 28.5329 27.794 28.5143 27.794C28.4956 27.794 28.4816 27.808 28.4723 27.836L27.3523 30.86C27.3243 30.9533 27.2589 31 27.1563 31H25.8403ZM37.5017 21.2C37.5484 21.2 37.5857 21.2187 37.6137 21.256C37.6511 21.284 37.6697 21.3213 37.6697 21.368V22.432C37.6697 22.4787 37.6511 22.5207 37.6137 22.558C37.5857 22.586 37.5484 22.6 37.5017 22.6H35.7237C35.6771 22.6 35.6537 22.6233 35.6537 22.67V30.832C35.6537 30.8787 35.6351 30.9207 35.5977 30.958C35.5697 30.986 35.5324 31 35.4857 31H34.1977C34.1511 31 34.1091 30.986 34.0717 30.958C34.0437 30.9207 34.0297 30.8787 34.0297 30.832V22.67C34.0297 22.6233 34.0064 22.6 33.9597 22.6H32.2797C32.2331 22.6 32.1911 22.586 32.1537 22.558C32.1257 22.5207 32.1117 22.4787 32.1117 22.432V21.368C32.1117 21.3213 32.1257 21.284 32.1537 21.256C32.1911 21.2187 32.2331 21.2 32.2797 21.2H37.5017Z" fill="#808080"/>
</g>
<defs>
<filter id="filter0_d_26_3483" x="0" y="0" width="58" height="58" filterUnits="userSpaceOnUse" color-interpolation-filters="sRGB">
<feFlood flood-opacity="0" result="BackgroundImageFix"/>
<feColorMatrix in="SourceAlpha" type="matrix" values="0 0 0 0 0 0 0 0 0 0 0 0 0 0 0 0 0 0 127 0" result="hardAlpha"/>
<feOffset dy="4"/>
<feGaussianBlur stdDeviation="2"/>
<feComposite in2="hardAlpha" operator="out"/>
<feColorMatrix type="matrix" values="0 0 0 0 0 0 0 0 0 0 0 0 0 0 0 0 0 0 0.25 0"/>
<feBlend mode="normal" in2="BackgroundImageFix" result="effect1_dropShadow_26_3483"/>
<feBlend mode="normal" in="SourceGraphic" in2="effect1_dropShadow_26_3483" result="shape"/>
</filter>
<filter id="filter1_d_26_3483" x="0" y="0" width="58" height="58" filterUnits="userSpaceOnUse" color-interpolation-filters="sRGB">
<feFlood flood-opacity="0" result="BackgroundImageFix"/>
<feColorMatrix in="SourceAlpha" type="matrix" values="0 0 0 0 0 0 0 0 0 0 0 0 0 0 0 0 0 0 127 0" result="hardAlpha"/>
<feOffset dy="4"/>
<feGaussianBlur stdDeviation="2"/>
<feComposite in2="hardAlpha" operator="out"/>
<feColorMatrix type="matrix" values="0 0 0 0 0 0 0 0 0 0 0 0 0 0 0 0 0 0 0.25 0"/>
<feBlend mode="normal" in2="BackgroundImageFix" result="effect1_dropShadow_26_3483"/>
<feBlend mode="normal" in="SourceGraphic" in2="effect1_dropShadow_26_3483" result="shape"/>
</filter>
<clipPath id="clip0_26_3483">
<rect width="50" height="50" fill="white" transform="translate(4)"/>
</clipPath>
</defs>
</svg>
