<svg width="50" height="50" viewBox="0 0 50 50" fill="none" xmlns="http://www.w3.org/2000/svg">
<g clip-path="url(#clip0_25_2781)">
<path d="M29.5703 3L41 15.0361V47H9V3H29.5703Z" fill="#3B6F9E" stroke="#3B6F9E" stroke-width="2"/>
<mask id="mask0_25_2781" style="mask-type:alpha" maskUnits="userSpaceOnUse" x="8" y="2" width="34" height="46">
<path d="M29.5703 3L41 15.0361V47H9V3H29.5703Z" fill="#FBFBFB" stroke="#FBFBFB" stroke-width="2"/>
</mask>
<g mask="url(#mask0_25_2781)">
<rect x="30" width="15" height="14" fill="#FBFBFB"/>
<g opacity="0.2">
<mask id="path-4-inside-1_25_2781" fill="white">
<path d="M40.276 30.8686L35.1472 26.9715L34.66 27.6126L31.4377 25.1641C31.2454 25.018 30.9977 24.9659 30.7629 25.0222L21.6578 27.2051C20.9972 27.3634 20.8175 28.2182 21.3583 28.6292L29.9426 35.1519L15.3282 54.3851C14.7902 55.0932 14.928 56.1035 15.6362 56.6416L16.9184 57.6159C17.6265 58.1539 18.6368 58.0161 19.1749 57.3079L33.7892 38.0747L38.9181 41.9719C39.2722 42.241 39.7773 42.172 40.0463 41.818L44.4306 36.048C44.6997 35.6939 44.6307 35.1888 44.2767 34.9197L39.7889 31.5097L40.276 30.8686Z"/>
</mask>
<path d="M35.1472 26.9715L42.293 17.5671L32.8887 10.4213L25.7428 19.8256L35.1472 26.9715ZM40.276 30.8686L49.6804 38.0145L56.8262 28.6101L47.4219 21.4643L40.276 30.8686ZM34.66 27.6126L27.5142 37.0169L36.9185 44.1627L44.0644 34.7584L34.66 27.6126ZM31.4377 25.1641L38.5836 15.7598L38.5836 15.7598L31.4377 25.1641ZM30.7629 25.0222L33.5165 36.5079L33.5165 36.5079L30.7629 25.0222ZM21.6578 27.2051L18.9042 15.7193L18.9042 15.7193L21.6578 27.2051ZM21.3583 28.6292L14.2125 38.0335H14.2125L21.3583 28.6292ZM29.9426 35.1519L39.3469 42.2977L46.4927 32.8934L37.0884 25.7475L29.9426 35.1519ZM15.3282 54.3851L5.92392 47.2392L15.3282 54.3851ZM15.6362 56.6416L8.49032 66.0459L8.49033 66.0459L15.6362 56.6416ZM16.9184 57.6159L24.0642 48.2115L24.0642 48.2115L16.9184 57.6159ZM19.1749 57.3079L9.77056 50.1621L19.1749 57.3079ZM33.7892 38.0747L40.9351 28.6704L31.5307 21.5245L24.3849 30.9289L33.7892 38.0747ZM38.9181 41.9719L31.7722 51.3762L38.9181 41.9719ZM40.0463 41.818L49.4507 48.9638V48.9638L40.0463 41.818ZM44.4306 36.048L35.0263 28.9021L35.0263 28.9021L44.4306 36.048ZM44.2767 34.9197L51.4225 25.5154V25.5154L44.2767 34.9197ZM39.7889 31.5097L30.3846 24.3638L23.2387 33.7682L32.643 40.914L39.7889 31.5097ZM28.0013 36.3758L33.1302 40.2729L47.4219 21.4643L42.293 17.5671L28.0013 36.3758ZM44.0644 34.7584L44.5515 34.1173L25.7428 19.8256L25.2557 20.4667L44.0644 34.7584ZM41.8059 18.2082L38.5836 15.7598L24.2919 34.5684L27.5142 37.0169L41.8059 18.2082ZM38.5836 15.7598C35.5706 13.4704 31.6891 12.6542 28.0092 13.5364L33.5165 36.5079C30.3063 37.2775 26.9203 36.5656 24.2919 34.5684L38.5836 15.7598ZM28.0093 13.5364L18.9042 15.7193L24.4113 38.6908L33.5165 36.5079L28.0093 13.5364ZM18.9042 15.7193C8.55396 18.2007 5.7379 31.5941 14.2125 38.0335L28.5042 19.2248C35.897 24.8423 33.4404 36.5262 24.4114 38.6908L18.9042 15.7193ZM14.2125 38.0335L22.7967 44.5562L37.0884 25.7475L28.5042 19.2248L14.2125 38.0335ZM20.5382 28.006L5.92392 47.2392L24.7326 61.5309L39.3469 42.2977L20.5382 28.006ZM5.92392 47.2392C1.43928 53.1412 2.58831 61.5613 8.49032 66.0459L22.782 47.2372C27.2677 50.6457 28.141 57.0452 24.7326 61.5309L5.92392 47.2392ZM8.49033 66.0459L9.77254 67.0202L24.0642 48.2115L22.782 47.2372L8.49033 66.0459ZM9.77253 67.0202C15.6745 71.5048 24.0946 70.3558 28.5792 64.4538L9.77056 50.1621C13.179 45.6764 19.5785 44.8031 24.0642 48.2115L9.77253 67.0202ZM28.5792 64.4538L43.1935 45.2206L24.3849 30.9289L9.77056 50.1621L28.5792 64.4538ZM26.6433 47.4791L31.7722 51.3762L46.064 32.5676L40.9351 28.6704L26.6433 47.4791ZM31.7722 51.3762C37.3202 55.5918 45.2351 54.5117 49.4507 48.9638L30.642 34.6721C34.3195 29.8323 41.2241 28.8901 46.064 32.5676L31.7722 51.3762ZM49.4507 48.9638L53.835 43.1938L35.0263 28.9021L30.642 34.6721L49.4507 48.9638ZM53.835 43.1938C58.0505 37.646 56.9705 29.731 51.4225 25.5154L37.1308 44.3241C32.291 40.6465 31.3488 33.7419 35.0263 28.9021L53.835 43.1938ZM51.4225 25.5154L46.9347 22.1054L32.643 40.914L37.1308 44.3241L51.4225 25.5154ZM30.8717 23.7228L30.3846 24.3638L49.1932 38.6556L49.6804 38.0145L30.8717 23.7228Z" fill="white" mask="url(#path-4-inside-1_25_2781)"/>
</g>
</g>
<g clip-path="url(#clip1_25_2781)">
<g clip-path="url(#clip2_25_2781)">
<path d="M34.619 36.8209L32.1509 33.476L31.7463 33.4752V37.5448H32.2001V34.2763L34.6186 37.5475L35.0736 37.5478V33.4785H34.619V36.8209Z" fill="#FBFBFB"/>
<path d="M29.3866 33.384C28.2394 33.384 27.4376 34.2592 27.4376 35.5121C27.4376 36.767 28.2394 37.642 29.3866 37.642C30.5326 37.642 31.3317 36.767 31.3317 35.5121C31.3317 34.2592 30.5326 33.384 29.3866 33.384ZM29.3866 37.2109C28.5129 37.2109 27.9003 36.5123 27.9003 35.5121C27.9003 34.5128 28.5129 33.8142 29.3866 33.8142C30.2592 33.8142 30.8679 34.5128 30.8679 35.5121C30.8679 36.5123 30.2592 37.2109 29.3866 37.2109Z" fill="#FBFBFB"/>
<path d="M36.0415 33.8739H38.44V33.4758H35.5839V37.5482H38.4681V37.1499H36.0415V35.644H38.2873V35.2456H36.0415V33.8739Z" fill="#FBFBFB"/>
<path d="M23.1506 33.4784H23.6874L24.8549 35.0603L26.0213 33.4784H26.5577L25.1264 35.4178L26.6954 37.5517H26.1589L24.8549 35.7854L23.5515 37.5517H23.0143L24.5826 35.4178L23.1506 33.4784Z" fill="#FBFBFB"/>
<path d="M18.9793 35.5719C18.8941 35.4995 18.8017 35.4435 18.7119 35.402C19.0082 35.2416 19.2026 34.9383 19.2026 34.5866C19.2026 34.3259 19.1062 33.4786 17.8752 33.4786H16.2172V35.2345H15.6648C15.5929 35.3276 15.4304 35.5513 15.3683 35.6432H16.2172V37.5513L17.8752 37.5515C18.7734 37.5515 19.3316 37.0964 19.3316 36.3625C19.3316 36.0418 19.2101 35.7691 18.9793 35.5719ZM16.6756 33.9035H17.8752C18.2002 33.9035 18.7438 33.9841 18.7438 34.5508C18.7438 34.9792 18.4269 35.2345 17.8752 35.2345H16.6756V33.9035ZM17.8752 37.1267H16.6756V35.6438H17.8752C18.3302 35.6438 18.8743 35.7691 18.8743 36.3537C18.8743 37.0258 18.2487 37.1267 17.8752 37.1267Z" fill="#FBFBFB"/>
<path d="M21.4883 33.3843C20.3415 33.3843 19.5399 34.2595 19.5399 35.5124C19.5399 36.7672 20.3415 37.6418 21.4883 37.6418C22.6343 37.6418 23.4334 36.7672 23.4334 35.5124C23.4334 34.2595 22.6343 33.3843 21.4883 33.3843ZM21.4883 37.211C20.6146 37.211 20.0025 36.5125 20.0025 35.5124C20.0025 34.5131 20.6146 33.8148 21.4883 33.8148C22.3607 33.8148 22.9696 34.5131 22.9696 35.5124C22.9696 36.5125 22.3607 37.211 21.4883 37.211Z" fill="#FBFBFB"/>
<path d="M12.9862 33.4785H12.451L13.8824 35.4177L12.313 37.5513H12.8506L14.1535 35.7855L15.4572 37.5513H15.9942L14.4246 35.4177L15.8569 33.4785H15.3203L14.1527 35.0608L12.9862 33.4785Z" fill="#FBFBFB"/>
</g>
<g clip-path="url(#clip3_25_2781)">
<path d="M24.2935 30.9397C23.1969 30.8346 22.0867 30.4408 21.133 29.8185C20.3338 29.2974 20.1535 29.0828 20.1535 28.6551C20.1535 27.7959 21.0982 26.2907 22.7147 24.5753C23.6325 23.6008 24.9111 22.4591 25.0493 22.4899C25.3183 22.5499 27.4676 24.6464 28.2724 25.6335C29.5447 27.1938 30.1294 28.4717 29.8323 29.0414C29.6064 29.4744 28.2047 30.3209 27.1751 30.646C26.3263 30.914 25.2116 31.0275 24.2935 30.9397ZM19.0741 27.7618C18.4099 26.7429 18.0744 25.7399 17.9126 24.2892C17.859 23.8102 17.8778 23.5364 18.0339 22.5529C18.2279 21.3286 18.9257 19.9106 19.7645 19.0387C20.1216 18.6681 20.1533 18.6581 20.5888 18.8054C21.1166 18.9841 21.6808 19.3739 22.5561 20.1654L23.0673 20.6277L22.7877 20.9702C21.4925 22.5602 20.1255 24.8154 19.611 26.2101C19.3314 26.9679 19.2188 27.729 19.3396 28.0459C19.4207 28.26 19.3462 28.1802 19.0732 27.7623L19.0741 27.7618ZM30.7308 27.935C30.7965 27.6147 30.7135 27.0267 30.5191 26.4333C30.098 25.1486 28.6901 22.7586 27.3974 21.1335L26.9904 20.6219L27.4309 20.2177C28.0056 19.6899 28.4047 19.3739 28.8356 19.1054C29.1752 18.8936 29.6608 18.7061 29.8697 18.7061C29.9982 18.7061 30.4514 19.1777 30.817 19.6906C31.3836 20.4847 31.8002 21.4493 32.0113 22.452C32.1478 23.1006 32.1592 24.4871 32.0333 25.134C31.9291 25.6648 31.7107 26.3528 31.4989 26.8195C31.3384 27.1691 30.943 27.8483 30.7692 28.0693C30.6799 28.183 30.6799 28.1828 30.7295 27.9376L30.7308 27.935ZM24.411 18.4636C23.8143 18.1608 22.8941 17.8357 22.3858 17.748C22.2078 17.7174 21.9038 17.7 21.7108 17.7099C21.2912 17.7311 21.3099 17.7092 21.9826 17.3914C22.5418 17.1272 23.0084 16.9718 23.6421 16.8388C24.3544 16.6891 25.6937 16.6874 26.3948 16.8351C27.1517 16.9948 28.0434 17.3265 28.5457 17.6359L28.6953 17.7276L28.3528 17.7104C27.6718 17.676 26.6794 17.9511 25.6138 18.4693C25.2925 18.6259 25.0132 18.7506 24.9927 18.7473C24.9724 18.7433 24.7104 18.6158 24.4103 18.4636H24.411Z" fill="#FBFBFB"/>
</g>
</g>
</g>
<defs>
<clipPath id="clip0_25_2781">
<rect width="50" height="50" fill="white"/>
</clipPath>
<clipPath id="clip1_25_2781">
<rect width="26" height="26" fill="white" transform="translate(12 15)"/>
</clipPath>
<clipPath id="clip2_25_2781">
<rect width="41.08" height="9.63605" fill="white" transform="translate(-2.04004 30.6)"/>
</clipPath>
<clipPath id="clip3_25_2781">
<rect width="14.56" height="14.56" fill="white" transform="translate(17.72 16.56)"/>
</clipPath>
</defs>
</svg>
