<svg width="50" height="50" viewBox="0 0 50 50" fill="none" xmlns="http://www.w3.org/2000/svg">
<g clip-path="url(#clip0_26_3483)">
<path d="M29.5703 3L41 15.0361V47H9V3H29.5703Z" fill="#FBFBFB" stroke="#FBFBFB" stroke-width="2"/>
<mask id="mask0_26_3483" style="mask-type:alpha" maskUnits="userSpaceOnUse" x="8" y="2" width="34" height="46">
<path d="M29.5703 3L41 15.0361V47H9V3H29.5703Z" fill="#FBFBFB" stroke="#FBFBFB" stroke-width="2"/>
</mask>
<g mask="url(#mask0_26_3483)">
<rect x="30" width="15" height="14" fill="#D9D9D9"/>
<path opacity="0.5" d="M14.5643 46.576C14.4576 46.576 14.3723 46.544 14.3083 46.48C14.2443 46.3947 14.2229 46.2987 14.2443 46.192L14.6283 43.088C14.6496 42.9813 14.6923 42.896 14.7563 42.832C14.8416 42.7467 14.9376 42.704 15.0443 42.704H31.2043C31.3109 42.704 31.3963 42.7467 31.4603 42.832C31.5243 42.896 31.5456 42.9813 31.5243 43.088L31.1723 46.192C31.1509 46.2987 31.0976 46.3947 31.0123 46.48C30.9269 46.544 30.8309 46.576 30.7243 46.576H14.5643ZM32.9705 46.48C32.8638 46.48 32.7785 46.448 32.7145 46.384C32.6505 46.2987 32.6292 46.2027 32.6505 46.096L33.0345 42.992C33.0558 42.8853 33.0985 42.8 33.1625 42.736C33.2478 42.6507 33.3438 42.608 33.4505 42.608H41.4825C41.7172 42.608 41.8345 42.736 41.8345 42.992L41.4505 46.096C41.4292 46.2027 41.3758 46.2987 41.2905 46.384C41.2265 46.448 41.1412 46.48 41.0345 46.48H32.9705Z" fill="#D9D9D9"/>
<path opacity="0.5" d="M23.8143 40.576C23.7076 40.576 23.6223 40.544 23.5583 40.48C23.4943 40.3947 23.4729 40.2987 23.4943 40.192L23.8783 37.088C23.8996 36.9813 23.9423 36.896 24.0063 36.832C24.0916 36.7467 24.1876 36.704 24.2943 36.704H40.4543C40.5609 36.704 40.6463 36.7467 40.7103 36.832C40.7743 36.896 40.7956 36.9813 40.7743 37.088L40.4223 40.192C40.4009 40.2987 40.3476 40.3947 40.2623 40.48C40.1769 40.544 40.0809 40.576 39.9743 40.576H23.8143Z" fill="#D9D9D9"/>
</g>
<path d="M20.7322 21.2C20.7789 21.2 20.8162 21.2187 20.8442 21.256C20.8815 21.284 20.9002 21.3213 20.9002 21.368V22.432C20.9002 22.4787 20.8815 22.5207 20.8442 22.558C20.8162 22.586 20.7789 22.6 20.7322 22.6H18.9542C18.9075 22.6 18.8842 22.6233 18.8842 22.67V30.832C18.8842 30.8787 18.8655 30.9207 18.8282 30.958C18.8002 30.986 18.7629 31 18.7162 31H17.4282C17.3815 31 17.3395 30.986 17.3022 30.958C17.2742 30.9207 17.2602 30.8787 17.2602 30.832V22.67C17.2602 22.6233 17.2369 22.6 17.1902 22.6H15.5102C15.4635 22.6 15.4215 22.586 15.3842 22.558C15.3562 22.5207 15.3422 22.4787 15.3422 22.432V21.368C15.3422 21.3213 15.3562 21.284 15.3842 21.256C15.4215 21.2187 15.4635 21.2 15.5102 21.2H20.7322ZM21.8403 31C21.7749 31 21.7329 30.9813 21.7143 30.944C21.6956 30.9067 21.6956 30.86 21.7143 30.804L23.6323 26.142C23.6416 26.114 23.6416 26.086 23.6323 26.058L21.7143 21.396C21.7049 21.3773 21.7003 21.3493 21.7003 21.312C21.7003 21.2373 21.7469 21.2 21.8403 21.2H23.1703C23.2636 21.2 23.3243 21.2467 23.3523 21.34L24.4723 24.378C24.4816 24.406 24.4956 24.42 24.5143 24.42C24.5329 24.42 24.5469 24.406 24.5563 24.378L25.6623 21.34C25.6903 21.2467 25.7509 21.2 25.8443 21.2H27.1603C27.2256 21.2 27.2676 21.2187 27.2863 21.256C27.3049 21.2933 27.3049 21.34 27.2863 21.396L25.3683 26.058C25.3589 26.086 25.3589 26.114 25.3683 26.142L27.2863 30.804C27.2956 30.8227 27.3003 30.8507 27.3003 30.888C27.3003 30.9627 27.2536 31 27.1603 31H25.8583C25.7556 31 25.6903 30.9533 25.6623 30.86L24.5563 27.836C24.5469 27.808 24.5329 27.794 24.5143 27.794C24.4956 27.794 24.4816 27.808 24.4723 27.836L23.3523 30.86C23.3243 30.9533 23.2589 31 23.1563 31H21.8403ZM33.5017 21.2C33.5484 21.2 33.5857 21.2187 33.6137 21.256C33.6511 21.284 33.6697 21.3213 33.6697 21.368V22.432C33.6697 22.4787 33.6511 22.5207 33.6137 22.558C33.5857 22.586 33.5484 22.6 33.5017 22.6H31.7237C31.6771 22.6 31.6537 22.6233 31.6537 22.67V30.832C31.6537 30.8787 31.6351 30.9207 31.5977 30.958C31.5697 30.986 31.5324 31 31.4857 31H30.1977C30.1511 31 30.1091 30.986 30.0717 30.958C30.0437 30.9207 30.0297 30.8787 30.0297 30.832V22.67C30.0297 22.6233 30.0064 22.6 29.9597 22.6H28.2797C28.2331 22.6 28.1911 22.586 28.1537 22.558C28.1257 22.5207 28.1117 22.4787 28.1117 22.432V21.368C28.1117 21.3213 28.1257 21.284 28.1537 21.256C28.1911 21.2187 28.2331 21.2 28.2797 21.2H33.5017Z" fill="#808080"/>
</g>
<defs>
<clipPath id="clip0_26_3483">
<rect width="50" height="50" fill="white"/>
</clipPath>
</defs>
</svg>
