<svg width="58" height="58" viewBox="0 0 58 58" fill="none" xmlns="http://www.w3.org/2000/svg">
<g clip-path="url(#clip0_26_3468)" filter="url(#filter0_d_26_3468)">
<g filter="url(#filter1_d_26_3468)">
<path d="M13 47V3L33.5706 3L45 15.0365L45 47H13Z" fill="#FBFBFB" stroke="#FBFBFB" stroke-width="2"/>
<mask id="mask0_26_3468" style="mask-type:alpha" maskUnits="userSpaceOnUse" x="12" y="2" width="34" height="46">
<path d="M13 47V3L33.5706 3L45 15.0365L45 47H13Z" fill="#FBFBFB" stroke="#FBFBFB" stroke-width="2"/>
</mask>
<g mask="url(#mask0_26_3468)">
<rect x="34" width="15" height="14" fill="#D9D9D9"/>
<path opacity="0.5" d="M31.289 58.704C30.1797 58.704 29.3263 58.4267 28.729 57.872C28.153 57.3173 27.865 56.528 27.865 55.504C27.865 55.3333 27.8863 55.0773 27.929 54.736L28.729 48.112C28.7717 47.728 28.793 47.472 28.793 47.344C28.793 46.0853 28.3023 45.392 27.321 45.264C27.065 45.2427 26.9583 45.104 27.001 44.848L27.353 42.064C27.353 41.9573 27.385 41.872 27.449 41.808C27.5343 41.7227 27.6303 41.6693 27.737 41.648C28.953 41.4987 29.6677 40.56 29.881 38.832L30.681 32.336C30.8303 31.0987 31.2783 30.1387 32.025 29.456C32.793 28.752 33.785 28.4 35.001 28.4H37.593C37.6997 28.4 37.785 28.4427 37.849 28.528C37.913 28.592 37.9343 28.6773 37.913 28.784L37.529 31.888C37.5077 31.9947 37.4543 32.0907 37.369 32.176C37.305 32.24 37.2197 32.272 37.113 32.272H36.537C36.1103 32.272 35.737 32.464 35.417 32.848C35.097 33.2107 34.8943 33.6907 34.809 34.288L34.169 39.44C33.9557 41.4453 33.2197 42.7467 31.961 43.344C31.8757 43.408 31.8757 43.472 31.961 43.536C32.8143 44.048 33.241 45.008 33.241 46.416C33.241 46.8853 33.2197 47.248 33.177 47.504L32.537 52.784C32.5157 52.8693 32.505 53.008 32.505 53.2C32.505 53.6907 32.6223 54.0747 32.857 54.352C33.0917 54.6507 33.401 54.8 33.785 54.8H34.329C34.5637 54.8 34.681 54.928 34.681 55.184L34.297 58.32C34.2757 58.4267 34.2223 58.512 34.137 58.576C34.0517 58.6613 33.9557 58.704 33.849 58.704H31.289ZM36.3445 58.704C36.2378 58.704 36.1525 58.6613 36.0885 58.576C36.0245 58.512 36.0032 58.4267 36.0245 58.32L36.4085 55.184C36.4298 55.0773 36.4725 54.9813 36.5365 54.896C36.6218 54.832 36.7178 54.8 36.8245 54.8H37.4005C37.8272 54.8 38.2005 54.608 38.5205 54.224C38.8618 53.8613 39.0752 53.3813 39.1605 52.784L39.8005 47.504C40.0565 45.4773 40.7925 44.1547 42.0085 43.536C42.0938 43.472 42.0938 43.408 42.0085 43.344C41.1552 42.8747 40.7285 41.936 40.7285 40.528C40.7285 40.0587 40.7498 39.696 40.7925 39.44L41.4325 34.288C41.4538 34.2027 41.4645 34.0747 41.4645 33.904C41.4645 33.4133 41.3365 33.0187 41.0805 32.72C40.8458 32.4213 40.5365 32.272 40.1525 32.272H39.6085C39.5018 32.272 39.4165 32.24 39.3525 32.176C39.2885 32.0907 39.2672 31.9947 39.2885 31.888L39.6725 28.784C39.6725 28.6773 39.7152 28.592 39.8005 28.528C39.8858 28.4427 39.9818 28.4 40.0885 28.4H42.6805C43.7685 28.4 44.6112 28.6773 45.2085 29.232C45.8058 29.7867 46.1045 30.576 46.1045 31.6C46.1045 31.7493 46.0832 31.9947 46.0405 32.336L45.2405 38.832C45.2192 39.0027 45.2085 39.2373 45.2085 39.536C45.2085 40.816 45.6885 41.52 46.6485 41.648C46.9045 41.6693 47.0112 41.808 46.9685 42.064L46.6165 44.848C46.5738 45.104 46.4352 45.2427 46.2005 45.264C45.0058 45.4347 44.3125 46.384 44.1205 48.112L43.2885 54.736C43.1392 55.9947 42.6805 56.9653 41.9125 57.648C41.1658 58.352 40.1845 58.704 38.9685 58.704H36.3445Z" fill="#D9D9D9"/>
</g>
</g>
<path d="M19.769 34.16C18.689 34.16 17.8157 33.8333 17.149 33.18C16.4957 32.5133 16.169 31.6333 16.169 30.54V23.44C16.169 22.3467 16.4957 21.4733 17.149 20.82C17.8157 20.1667 18.689 19.84 19.769 19.84C20.8623 19.84 21.7357 20.1667 22.389 20.82C23.0557 21.4733 23.389 22.3467 23.389 23.44V23.76C23.389 23.8933 23.3223 23.96 23.189 23.96L21.669 24.04C21.5357 24.04 21.469 23.9733 21.469 23.84V23.32C21.469 22.7733 21.309 22.3333 20.989 22C20.6823 21.6667 20.2757 21.5 19.769 21.5C19.2623 21.5 18.8557 21.6667 18.549 22C18.2423 22.3333 18.089 22.7733 18.089 23.32V30.68C18.089 31.2267 18.2423 31.6667 18.549 32C18.8557 32.3333 19.2623 32.5 19.769 32.5C20.2757 32.5 20.6823 32.3333 20.989 32C21.309 31.6667 21.469 31.2267 21.469 30.68V30.16C21.469 30.0267 21.5357 29.96 21.669 29.96L23.189 30.04C23.3223 30.04 23.389 30.1067 23.389 30.24V30.54C23.389 31.6333 23.0557 32.5133 22.389 33.18C21.7357 33.8333 20.8623 34.16 19.769 34.16ZM32.312 26.72C32.3786 26.72 32.432 26.7467 32.472 26.8C32.5253 26.84 32.552 26.8933 32.552 26.96V28.6C32.552 28.6667 32.5253 28.7267 32.472 28.78C32.432 28.82 32.3786 28.84 32.312 28.84H29.792C29.7253 28.84 29.692 28.8733 29.692 28.94V31.44C29.692 31.5067 29.6653 31.5667 29.612 31.62C29.572 31.66 29.5186 31.68 29.452 31.68H27.812C27.7453 31.68 27.6853 31.66 27.632 31.62C27.592 31.5667 27.572 31.5067 27.572 31.44V28.94C27.572 28.8733 27.5386 28.84 27.472 28.84H24.972C24.9053 28.84 24.8453 28.82 24.792 28.78C24.752 28.7267 24.732 28.6667 24.732 28.6V26.96C24.732 26.8933 24.752 26.84 24.792 26.8C24.8453 26.7467 24.9053 26.72 24.972 26.72H27.472C27.5386 26.72 27.572 26.6867 27.572 26.62V24.1C27.572 24.0333 27.592 23.98 27.632 23.94C27.6853 23.8867 27.7453 23.86 27.812 23.86H29.452C29.5186 23.86 29.572 23.8867 29.612 23.94C29.6653 23.98 29.692 24.0333 29.692 24.1V26.62C29.692 26.6867 29.7253 26.72 29.792 26.72H32.312ZM41.0815 26.72C41.1482 26.72 41.2015 26.7467 41.2415 26.8C41.2948 26.84 41.3215 26.8933 41.3215 26.96V28.6C41.3215 28.6667 41.2948 28.7267 41.2415 28.78C41.2015 28.82 41.1482 28.84 41.0815 28.84H38.5615C38.4948 28.84 38.4615 28.8733 38.4615 28.94V31.44C38.4615 31.5067 38.4348 31.5667 38.3815 31.62C38.3415 31.66 38.2882 31.68 38.2215 31.68H36.5815C36.5148 31.68 36.4548 31.66 36.4015 31.62C36.3615 31.5667 36.3415 31.5067 36.3415 31.44V28.94C36.3415 28.8733 36.3082 28.84 36.2415 28.84H33.7415C33.6748 28.84 33.6148 28.82 33.5615 28.78C33.5215 28.7267 33.5015 28.6667 33.5015 28.6V26.96C33.5015 26.8933 33.5215 26.84 33.5615 26.8C33.6148 26.7467 33.6748 26.72 33.7415 26.72H36.2415C36.3082 26.72 36.3415 26.6867 36.3415 26.62V24.1C36.3415 24.0333 36.3615 23.98 36.4015 23.94C36.4548 23.8867 36.5148 23.86 36.5815 23.86H38.2215C38.2882 23.86 38.3415 23.8867 38.3815 23.94C38.4348 23.98 38.4615 24.0333 38.4615 24.1V26.62C38.4615 26.6867 38.4948 26.72 38.5615 26.72H41.0815Z" fill="#9747FF"/>
</g>
<defs>
<filter id="filter0_d_26_3468" x="0" y="0" width="58" height="58" filterUnits="userSpaceOnUse" color-interpolation-filters="sRGB">
<feFlood flood-opacity="0" result="BackgroundImageFix"/>
<feColorMatrix in="SourceAlpha" type="matrix" values="0 0 0 0 0 0 0 0 0 0 0 0 0 0 0 0 0 0 127 0" result="hardAlpha"/>
<feOffset dy="4"/>
<feGaussianBlur stdDeviation="2"/>
<feComposite in2="hardAlpha" operator="out"/>
<feColorMatrix type="matrix" values="0 0 0 0 0 0 0 0 0 0 0 0 0 0 0 0 0 0 0.25 0"/>
<feBlend mode="normal" in2="BackgroundImageFix" result="effect1_dropShadow_26_3468"/>
<feBlend mode="normal" in="SourceGraphic" in2="effect1_dropShadow_26_3468" result="shape"/>
</filter>
<filter id="filter1_d_26_3468" x="0" y="0" width="58" height="58" filterUnits="userSpaceOnUse" color-interpolation-filters="sRGB">
<feFlood flood-opacity="0" result="BackgroundImageFix"/>
<feColorMatrix in="SourceAlpha" type="matrix" values="0 0 0 0 0 0 0 0 0 0 0 0 0 0 0 0 0 0 127 0" result="hardAlpha"/>
<feOffset dy="4"/>
<feGaussianBlur stdDeviation="2"/>
<feComposite in2="hardAlpha" operator="out"/>
<feColorMatrix type="matrix" values="0 0 0 0 0 0 0 0 0 0 0 0 0 0 0 0 0 0 0.25 0"/>
<feBlend mode="normal" in2="BackgroundImageFix" result="effect1_dropShadow_26_3468"/>
<feBlend mode="normal" in="SourceGraphic" in2="effect1_dropShadow_26_3468" result="shape"/>
</filter>
<clipPath id="clip0_26_3468">
<rect width="50" height="50" fill="white" transform="translate(4)"/>
</clipPath>
</defs>
</svg>
