<svg width="50" height="50" viewBox="0 0 50 50" fill="none" xmlns="http://www.w3.org/2000/svg">
<path fill-rule="evenodd" clip-rule="evenodd" d="M8.6883 34.1033L22.2764 41.6522C22.9993 42.0539 23.8783 42.0539 24.6013 41.6522L27.8173 39.8656V35.417L25.3832 36.7693V25.6208L35.5318 19.9827L35.5318 24.8464H39.4205L39.4205 16.9425C39.4205 16.0733 38.9492 15.2723 38.1894 14.8502L24.6013 7.30121C23.8784 6.8996 22.9993 6.89959 22.2764 7.30121L8.68827 14.8502C7.9284 15.2723 7.45712 16.0733 7.45712 16.9425L7.45715 32.0109C7.45715 32.8802 7.92842 33.6811 8.6883 34.1033ZM11.3459 31.1312L21.4945 36.7693V25.6208L11.3459 19.9827L11.3459 31.1312ZM33.4724 16.6782L23.4389 22.2524L13.4052 16.6782L23.4388 11.104L33.4724 16.6782Z" fill="white"/>
<path d="M33.7023 42.624C32.9236 42.624 32.3263 42.4427 31.9103 42.08C31.5049 41.7173 31.3023 41.2053 31.3023 40.544V37.344C31.3023 36.896 31.2169 36.56 31.0463 36.336C30.8756 36.1013 30.6143 35.9627 30.2623 35.92C30.1023 35.8987 30.0223 35.8133 30.0223 35.664V33.808C30.0223 33.648 30.1023 33.5627 30.2623 33.552C30.6143 33.5093 30.8756 33.376 31.0463 33.152C31.2169 32.9173 31.3023 32.5813 31.3023 32.144V28.992C31.3023 28.3307 31.5049 27.8187 31.9103 27.456C32.3263 27.0933 32.9236 26.912 33.7023 26.912H35.4303C35.5049 26.912 35.5636 26.9333 35.6063 26.976C35.6489 27.0187 35.6703 27.0773 35.6703 27.152V29.248C35.6703 29.3227 35.6489 29.3813 35.6063 29.424C35.5636 29.4667 35.5049 29.488 35.4303 29.488H35.1423C34.9076 29.488 34.7103 29.5733 34.5503 29.744C34.3903 29.9147 34.3103 30.128 34.3103 30.384V32.608C34.3103 33.1627 34.2249 33.6053 34.0543 33.936C33.8943 34.2667 33.6329 34.5173 33.2703 34.688C33.2063 34.72 33.2063 34.752 33.2703 34.784C33.6329 34.9547 33.8943 35.2107 34.0543 35.552C34.2249 35.8827 34.3103 36.3253 34.3103 36.88V39.152C34.3103 39.408 34.3903 39.6213 34.5503 39.792C34.7103 39.9627 34.9076 40.048 35.1423 40.048H35.4303C35.5049 40.048 35.5636 40.0693 35.6063 40.112C35.6489 40.1547 35.6703 40.2133 35.6703 40.288V42.384C35.6703 42.4587 35.6489 42.5173 35.6063 42.56C35.5636 42.6027 35.5049 42.624 35.4303 42.624H33.7023ZM38.0191 42.624C37.9445 42.624 37.8858 42.6027 37.8431 42.56C37.8005 42.5173 37.7791 42.4587 37.7791 42.384V40.288C37.7791 40.2133 37.8005 40.1547 37.8431 40.112C37.8858 40.0693 37.9445 40.048 38.0191 40.048H38.3071C38.5418 40.048 38.7391 39.9627 38.8991 39.792C39.0591 39.6213 39.1391 39.408 39.1391 39.152V36.88C39.1391 36.3253 39.2191 35.8827 39.3791 35.552C39.5498 35.2107 39.8165 34.9547 40.1791 34.784C40.2431 34.752 40.2431 34.72 40.1791 34.688C39.8165 34.5173 39.5498 34.2667 39.3791 33.936C39.2191 33.6053 39.1391 33.1627 39.1391 32.608V30.384C39.1391 30.128 39.0591 29.9147 38.8991 29.744C38.7391 29.5733 38.5418 29.488 38.3071 29.488H38.0191C37.9445 29.488 37.8858 29.4667 37.8431 29.424C37.8005 29.3813 37.7791 29.3227 37.7791 29.248V27.152C37.7791 27.0773 37.8005 27.0187 37.8431 26.976C37.8858 26.9333 37.9445 26.912 38.0191 26.912H39.7471C40.5258 26.912 41.1178 27.0933 41.5231 27.456C41.9391 27.8187 42.1471 28.3307 42.1471 28.992V32.144C42.1471 32.5813 42.2325 32.9173 42.4031 33.152C42.5738 33.376 42.8351 33.5093 43.1871 33.552C43.3471 33.5627 43.4271 33.648 43.4271 33.808V35.664C43.4271 35.8133 43.3471 35.8987 43.1871 35.92C42.8351 35.9627 42.5738 36.1013 42.4031 36.336C42.2325 36.56 42.1471 36.896 42.1471 37.344V40.544C42.1471 41.2053 41.9391 41.7173 41.5231 42.08C41.1178 42.4427 40.5258 42.624 39.7471 42.624H38.0191Z" fill="#007CC1"/>
</svg>
