<svg width="50" height="50" viewBox="0 0 50 50" fill="none" xmlns="http://www.w3.org/2000/svg">
<g clip-path="url(#clip0_26_3471)">
<path d="M29.5703 3L41 15.0361V47H9V3H29.5703Z" fill="#FBFBFB" stroke="#FBFBFB" stroke-width="2"/>
<mask id="mask0_26_3471" style="mask-type:alpha" maskUnits="userSpaceOnUse" x="8" y="2" width="34" height="46">
<path d="M29.5703 3L41 15.0361V47H9V3H29.5703Z" fill="#FBFBFB" stroke="#FBFBFB" stroke-width="2"/>
</mask>
<g mask="url(#mask0_26_3471)">
<rect x="30" width="15" height="14" fill="#D9D9D9"/>
<path opacity="0.5" d="M26.6465 41.2441H21.6074L29.3857 35.1943V39.5742L26.6465 41.2441ZM29.3857 47.3086L21.6074 41.2441H26.6465L29.3857 42.9141V47.3086ZM33.458 55.043H30.0449L34.5566 27.1816H37.9551L33.458 55.043ZM38.5996 35.1943L46.3779 41.2441H41.4121L38.5996 39.5742V35.1943ZM41.4121 41.2441H46.3779L38.5996 47.3086V42.9141L41.4121 41.2441Z" fill="#D9D9D9"/>
</g>
<path d="M14.3739 31.112C13.5992 31.112 12.9739 30.8833 12.4979 30.426C12.0219 29.9593 11.7839 29.3433 11.7839 28.578V27.542C11.7839 27.4953 11.7979 27.458 11.8259 27.43C11.8632 27.3927 11.9052 27.374 11.9519 27.374H13.2399C13.2866 27.374 13.3239 27.3927 13.3519 27.43C13.3892 27.458 13.4079 27.4953 13.4079 27.542V28.606C13.4079 28.9327 13.4966 29.1987 13.6739 29.404C13.8512 29.6093 14.0846 29.712 14.3739 29.712C14.6632 29.712 14.8966 29.6093 15.0739 29.404C15.2606 29.1987 15.3539 28.9327 15.3539 28.606V21.368C15.3539 21.3213 15.3679 21.284 15.3959 21.256C15.4332 21.2187 15.4752 21.2 15.5219 21.2H16.8099C16.8566 21.2 16.8939 21.2187 16.9219 21.256C16.9592 21.284 16.9779 21.3213 16.9779 21.368V28.578C16.9779 29.3433 16.7352 29.9593 16.2499 30.426C15.7739 30.8833 15.1486 31.112 14.3739 31.112ZM20.8189 31.112C20.0443 31.112 19.4189 30.8787 18.9429 30.412C18.4669 29.9453 18.2289 29.334 18.2289 28.578V28.214C18.2289 28.1673 18.2429 28.13 18.2709 28.102C18.3083 28.0647 18.3503 28.046 18.3969 28.046H19.6709C19.7176 28.046 19.7549 28.0647 19.7829 28.102C19.8203 28.13 19.8389 28.1673 19.8389 28.214V28.494C19.8389 28.858 19.9276 29.152 20.1049 29.376C20.2916 29.6 20.5296 29.712 20.8189 29.712C21.1083 29.712 21.3463 29.6093 21.5329 29.404C21.7196 29.1893 21.8129 28.9093 21.8129 28.564C21.8129 28.3213 21.7616 28.1113 21.6589 27.934C21.5563 27.7567 21.4116 27.5887 21.2249 27.43C21.0383 27.2713 20.7396 27.0427 20.3289 26.744C19.8623 26.408 19.4843 26.1093 19.1949 25.848C18.9149 25.5867 18.6769 25.274 18.4809 24.91C18.2943 24.5367 18.2009 24.1073 18.2009 23.622C18.2009 22.8473 18.4343 22.2313 18.9009 21.774C19.3676 21.3167 19.9836 21.088 20.7489 21.088C21.5236 21.088 22.1489 21.3307 22.6249 21.816C23.1009 22.292 23.3389 22.9267 23.3389 23.72V24.056C23.3389 24.1027 23.3203 24.1447 23.2829 24.182C23.2549 24.21 23.2176 24.224 23.1709 24.224H21.9109C21.8643 24.224 21.8223 24.21 21.7849 24.182C21.7569 24.1447 21.7429 24.1027 21.7429 24.056V23.692C21.7429 23.328 21.6496 23.0387 21.4629 22.824C21.2856 22.6 21.0476 22.488 20.7489 22.488C20.4689 22.488 20.2403 22.5907 20.0629 22.796C19.8856 22.992 19.7969 23.2673 19.7969 23.622C19.7969 23.958 19.8903 24.2427 20.0769 24.476C20.2729 24.7093 20.6509 25.0313 21.2109 25.442C21.7803 25.862 22.2096 26.2073 22.4989 26.478C22.7883 26.7393 23.0123 27.0287 23.1709 27.346C23.3296 27.6633 23.4089 28.0413 23.4089 28.48C23.4089 29.2733 23.1709 29.9127 22.6949 30.398C22.2189 30.874 21.5936 31.112 20.8189 31.112ZM27.0852 31.112C26.2826 31.112 25.6339 30.8693 25.1392 30.384C24.6539 29.8987 24.4112 29.2547 24.4112 28.452V23.748C24.4112 22.9453 24.6539 22.3013 25.1392 21.816C25.6339 21.3307 26.2826 21.088 27.0852 21.088C27.8879 21.088 28.5366 21.3307 29.0312 21.816C29.5259 22.3013 29.7732 22.9453 29.7732 23.748V28.452C29.7732 29.2547 29.5259 29.8987 29.0312 30.384C28.5366 30.8693 27.8879 31.112 27.0852 31.112ZM27.0852 29.712C27.4026 29.712 27.6592 29.6047 27.8552 29.39C28.0512 29.166 28.1492 28.8767 28.1492 28.522V23.678C28.1492 23.3233 28.0512 23.0387 27.8552 22.824C27.6592 22.6 27.4026 22.488 27.0852 22.488C26.7679 22.488 26.5112 22.6 26.3152 22.824C26.1286 23.0387 26.0352 23.3233 26.0352 23.678V28.522C26.0352 28.8767 26.1286 29.166 26.3152 29.39C26.5112 29.6047 26.7679 29.712 27.0852 29.712ZM35.0904 21.368C35.0904 21.3213 35.1044 21.284 35.1324 21.256C35.1697 21.2187 35.2117 21.2 35.2584 21.2H36.5324C36.5791 21.2 36.6164 21.2187 36.6444 21.256C36.6817 21.284 36.7004 21.3213 36.7004 21.368V30.832C36.7004 30.8787 36.6817 30.9207 36.6444 30.958C36.6164 30.986 36.5791 31 36.5324 31H35.0624C34.9691 31 34.9084 30.9533 34.8804 30.86L32.7944 24.924C32.7851 24.896 32.7664 24.8867 32.7384 24.896C32.7197 24.896 32.7104 24.91 32.7104 24.938L32.7244 30.832C32.7244 30.8787 32.7057 30.9207 32.6684 30.958C32.6404 30.986 32.6031 31 32.5564 31H31.2824C31.2357 31 31.1937 30.986 31.1564 30.958C31.1284 30.9207 31.1144 30.8787 31.1144 30.832V21.368C31.1144 21.3213 31.1284 21.284 31.1564 21.256C31.1937 21.2187 31.2357 21.2 31.2824 21.2H32.7244C32.8177 21.2 32.8784 21.2467 32.9064 21.34L35.0064 27.234C35.0157 27.262 35.0297 27.276 35.0484 27.276C35.0764 27.2667 35.0904 27.248 35.0904 27.22V21.368Z" fill="#007CC1"/>
</g>
<defs>
<clipPath id="clip0_26_3471">
<rect width="50" height="50" fill="white"/>
</clipPath>
</defs>
</svg>
