<svg width="50" height="50" viewBox="0 0 50 50" fill="none" xmlns="http://www.w3.org/2000/svg">
<g clip-path="url(#clip0_25_2420)">
<path d="M9 47V3L29.5706 3L41 15.0365L41 47H9Z" fill="#3B6F9E" stroke="#3B6F9E" stroke-width="2"/>
<mask id="mask0_25_2420" style="mask-type:alpha" maskUnits="userSpaceOnUse" x="8" y="2" width="34" height="46">
<path d="M9 47V3L29.5706 3L41 15.0365L41 47H9Z" fill="#FBFBFB" stroke="#FBFBFB" stroke-width="2"/>
</mask>
<g mask="url(#mask0_25_2420)">
<rect x="30" width="15" height="14" fill="#FBFBFB"/>
<g opacity="0.2">
<mask id="path-4-inside-1_25_2420" fill="white">
<path d="M40.276 30.8686L35.1472 26.9715L34.66 27.6126L31.4377 25.1641C31.2454 25.018 30.9977 24.9659 30.7629 25.0222L21.6578 27.2051C20.9972 27.3634 20.8175 28.2182 21.3583 28.6292L29.9426 35.1519L15.3282 54.3851C14.7902 55.0932 14.928 56.1035 15.6362 56.6416L16.9184 57.6159C17.6265 58.1539 18.6368 58.0161 19.1749 57.3079L33.7892 38.0747L38.9181 41.9719C39.2722 42.241 39.7773 42.172 40.0463 41.818L44.4306 36.048C44.6997 35.6939 44.6307 35.1888 44.2767 34.9197L39.7889 31.5097L40.276 30.8686Z"/>
</mask>
<path d="M35.1472 26.9715L42.293 17.5671L32.8887 10.4213L25.7428 19.8256L35.1472 26.9715ZM40.276 30.8686L49.6804 38.0145L56.8262 28.6101L47.4219 21.4643L40.276 30.8686ZM34.66 27.6126L27.5142 37.0169L36.9185 44.1627L44.0644 34.7584L34.66 27.6126ZM31.4377 25.1641L38.5836 15.7598L38.5836 15.7598L31.4377 25.1641ZM30.7629 25.0222L33.5165 36.5079L33.5165 36.5079L30.7629 25.0222ZM21.6578 27.2051L18.9042 15.7193L18.9042 15.7193L21.6578 27.2051ZM21.3583 28.6292L14.2125 38.0335H14.2125L21.3583 28.6292ZM29.9426 35.1519L39.3469 42.2977L46.4927 32.8934L37.0884 25.7475L29.9426 35.1519ZM15.3282 54.3851L5.92392 47.2392L15.3282 54.3851ZM15.6362 56.6416L8.49032 66.0459L8.49033 66.0459L15.6362 56.6416ZM16.9184 57.6159L24.0642 48.2115L24.0642 48.2115L16.9184 57.6159ZM19.1749 57.3079L9.77056 50.1621L19.1749 57.3079ZM33.7892 38.0747L40.9351 28.6704L31.5307 21.5245L24.3849 30.9289L33.7892 38.0747ZM38.9181 41.9719L31.7722 51.3762L38.9181 41.9719ZM40.0463 41.818L49.4507 48.9638V48.9638L40.0463 41.818ZM44.4306 36.048L35.0263 28.9021L35.0263 28.9021L44.4306 36.048ZM44.2767 34.9197L51.4225 25.5154V25.5154L44.2767 34.9197ZM39.7889 31.5097L30.3846 24.3638L23.2387 33.7682L32.643 40.914L39.7889 31.5097ZM28.0013 36.3758L33.1302 40.2729L47.4219 21.4643L42.293 17.5671L28.0013 36.3758ZM44.0644 34.7584L44.5515 34.1173L25.7428 19.8256L25.2557 20.4667L44.0644 34.7584ZM41.8059 18.2082L38.5836 15.7598L24.2919 34.5684L27.5142 37.0169L41.8059 18.2082ZM38.5836 15.7598C35.5706 13.4704 31.6891 12.6542 28.0092 13.5364L33.5165 36.5079C30.3063 37.2775 26.9203 36.5656 24.2919 34.5684L38.5836 15.7598ZM28.0093 13.5364L18.9042 15.7193L24.4113 38.6908L33.5165 36.5079L28.0093 13.5364ZM18.9042 15.7193C8.55396 18.2007 5.7379 31.5941 14.2125 38.0335L28.5042 19.2248C35.897 24.8423 33.4404 36.5262 24.4114 38.6908L18.9042 15.7193ZM14.2125 38.0335L22.7967 44.5562L37.0884 25.7475L28.5042 19.2248L14.2125 38.0335ZM20.5382 28.006L5.92392 47.2392L24.7326 61.5309L39.3469 42.2977L20.5382 28.006ZM5.92392 47.2392C1.43928 53.1412 2.58831 61.5613 8.49032 66.0459L22.782 47.2372C27.2677 50.6457 28.141 57.0452 24.7326 61.5309L5.92392 47.2392ZM8.49033 66.0459L9.77254 67.0202L24.0642 48.2115L22.782 47.2372L8.49033 66.0459ZM9.77253 67.0202C15.6745 71.5048 24.0946 70.3558 28.5792 64.4538L9.77056 50.1621C13.179 45.6764 19.5785 44.8031 24.0642 48.2115L9.77253 67.0202ZM28.5792 64.4538L43.1935 45.2206L24.3849 30.9289L9.77056 50.1621L28.5792 64.4538ZM26.6433 47.4791L31.7722 51.3762L46.064 32.5676L40.9351 28.6704L26.6433 47.4791ZM31.7722 51.3762C37.3202 55.5918 45.2351 54.5117 49.4507 48.9638L30.642 34.6721C34.3195 29.8323 41.2241 28.8901 46.064 32.5676L31.7722 51.3762ZM49.4507 48.9638L53.835 43.1938L35.0263 28.9021L30.642 34.6721L49.4507 48.9638ZM53.835 43.1938C58.0505 37.646 56.9705 29.731 51.4225 25.5154L37.1308 44.3241C32.291 40.6465 31.3488 33.7419 35.0263 28.9021L53.835 43.1938ZM51.4225 25.5154L46.9347 22.1054L32.643 40.914L37.1308 44.3241L51.4225 25.5154ZM30.8717 23.7228L30.3846 24.3638L49.1932 38.6556L49.6804 38.0145L30.8717 23.7228Z" fill="white" mask="url(#path-4-inside-1_25_2420)"/>
</g>
</g>
<g clip-path="url(#clip1_25_2420)">
<g clip-path="url(#clip2_25_2420)">
<path d="M37.1116 38.3018H37.034V37.7308H36.8562V37.6509H37.2901V37.7308H37.1124L37.1116 38.3018ZM37.6494 38.1507L37.8154 37.6509H37.9366V38.3022H37.8558V37.7577L37.672 38.3018H37.6227L37.4396 37.7577V38.3018H37.3629V37.6505H37.4841L37.6494 38.1507ZM36.078 32.68H28.6434V34.8459C28.6434 34.8459 28.6208 35.6822 29.5833 35.6822H34.1276C34.3059 35.6806 34.4825 35.7192 34.646 35.7955C34.8998 35.9171 35.185 36.1646 35.185 36.6639C35.185 37.1121 34.983 37.3665 34.783 37.5089C34.6174 37.6239 34.4242 37.6843 34.227 37.6826H28.6434V38.2905H34.8695C34.8695 38.2905 36.2837 38.2289 36.2837 36.667C36.2837 35.8728 35.8521 35.4794 35.4638 35.2866C35.2129 35.1627 34.9399 35.0992 34.6638 35.1003H30.1598C30.0848 35.1014 30.0106 35.0824 29.9441 35.0452C29.8479 34.9892 29.742 34.878 29.742 34.6592V33.2796H36.078V32.68ZM19.286 37.6804V38.2884H22.4416C22.8188 38.2926 23.1847 38.1503 23.472 37.8876C23.6201 37.7524 23.7383 37.5834 23.8178 37.3929C23.8974 37.2024 23.9363 36.9952 23.9318 36.7864V34.2024C23.9301 34.0611 23.9584 33.9212 24.0144 33.7933C24.0704 33.6655 24.1527 33.5529 24.255 33.4642C24.4003 33.342 24.5801 33.2769 24.7645 33.2796H27.5157V32.68H24.2392C24.2392 32.68 22.8251 32.7043 22.8251 34.3118V36.7247C22.8276 36.9224 22.778 37.1167 22.682 37.2853C22.6126 37.41 22.5135 37.5125 22.3948 37.5822C22.2762 37.6519 22.1424 37.6863 22.0073 37.6817L19.286 37.6804ZM12.0001 32.68V33.2796H17.6245C17.7809 33.2782 17.9358 33.3139 18.0779 33.3843C18.3009 33.4968 18.5514 33.7282 18.5514 34.1976C18.5514 34.6535 18.3009 34.8815 18.0779 34.9944C17.9334 35.0656 17.7761 35.1018 17.6172 35.1003H13.4458C13.1989 35.0978 12.9548 35.1573 12.733 35.274C12.386 35.4612 12.0001 35.9019 12.0001 36.6288V38.2788H13.0825V36.6362C13.0818 36.5293 13.0998 36.4232 13.1355 36.3235C13.2248 36.0773 13.4506 35.6822 13.9787 35.6822H18.1849C18.3264 35.683 18.4673 35.6627 18.6035 35.6218C18.9898 35.5037 19.6339 35.1624 19.6339 34.1976C19.6339 32.6982 18.2451 32.68 18.2451 32.68H12.0001Z" fill="#FBFBFB"/>
</g>
<path d="M23.0496 16.56C23.7903 16.7063 24.5183 16.9153 25.2429 17.1331C25.6573 17.2607 26.0707 17.3926 26.4814 17.5332C27.1265 17.7509 27.7688 17.9974 28.3531 18.365C28.6149 18.5334 28.8663 18.7237 29.0811 18.9557C29.3139 19.1967 29.5044 19.4826 29.6443 19.7937C29.899 20.3575 29.9863 20.9873 30.0121 21.6065C30.0242 22.0106 30.0235 22.4182 29.9523 22.817C29.8931 23.1636 29.7879 23.5054 29.6129 23.8064C29.4584 24.0723 29.2436 24.3022 28.9828 24.4504C28.7327 24.5932 28.4463 24.6613 28.1627 24.6553C27.7325 24.6601 27.3152 24.5147 26.9291 24.3243C26.9222 22.9641 26.9281 21.6036 26.9261 20.2435C26.9233 19.9974 26.9391 19.7487 26.8923 19.506C26.8595 19.3179 26.787 19.1283 26.6477 19.0006C26.5552 18.9123 26.4355 18.8625 26.3151 18.8356C26.1933 18.811 26.0635 18.8658 25.9881 18.9694C25.8628 19.1353 25.8299 19.3555 25.8242 19.562C25.8232 23.2035 25.8255 26.8452 25.8232 30.4865C24.8987 30.1761 23.974 29.8654 23.0497 29.554C23.0487 25.2226 23.049 20.8914 23.0496 16.56Z" fill="#FBFBFB"/>
<path d="M18.8937 25.7752C20.0991 25.323 21.3032 24.8665 22.5091 24.4158C22.511 24.9173 22.5091 25.4189 22.5099 25.9208C22.5091 25.9888 22.5133 26.0572 22.5052 26.1248C21.552 26.4828 20.6008 26.8471 19.6486 27.2073C19.5165 27.2601 19.3811 27.32 19.2793 27.4268C19.2319 27.4769 19.1934 27.5508 19.2193 27.6227C19.2519 27.7072 19.3333 27.7531 19.4084 27.788C19.6173 27.878 19.8457 27.8907 20.0682 27.9016C20.3163 27.8974 20.5654 27.8777 20.8084 27.8209C20.9727 27.7868 21.1307 27.7281 21.2873 27.6658C21.6942 27.5097 22.1011 27.3527 22.5086 27.1982C22.5116 27.6224 22.5091 28.0468 22.5099 28.4714C22.5086 28.5562 22.5135 28.6415 22.5056 28.7261C22.0051 28.8213 21.4987 28.886 20.99 28.8945C19.9657 28.919 18.9389 28.751 17.966 28.4118C17.6468 28.3138 17.3297 28.1835 17.0633 27.9687C16.9166 27.8484 16.7853 27.6971 16.7186 27.5111C16.6627 27.3535 16.6667 27.1714 16.7364 27.0194C16.8036 26.8677 16.9209 26.7478 17.0501 26.6547C17.3492 26.4359 17.6789 26.2691 18.0131 26.1203C18.301 25.99 18.5997 25.8888 18.8937 25.7752Z" fill="#FBFBFB"/>
<path d="M28.5925 25.204C28.8658 25.1705 29.141 25.1626 29.4157 25.1522C30.3199 25.1558 31.2287 25.275 32.0936 25.5624C32.2633 25.6171 32.4276 25.6878 32.5967 25.7449C32.898 25.8616 33.1997 26.003 33.441 26.2325C33.586 26.3727 33.7109 26.5615 33.7127 26.777C33.7213 26.9524 33.6463 27.1207 33.539 27.2501C33.3346 27.4928 33.0645 27.6596 32.7933 27.8051C32.5046 27.9611 32.1944 28.0617 31.8916 28.1804C30.044 28.8834 28.1963 29.5861 26.3489 30.2898C26.3487 29.7415 26.3495 29.1932 26.3487 28.6452C26.3515 28.6233 26.3401 28.5851 26.3693 28.5794C27.7751 28.0494 29.1805 27.5179 30.5861 26.9866C30.7761 26.9113 30.9809 26.8567 31.1422 26.7201C31.2082 26.6651 31.2728 26.5778 31.2405 26.4836C31.2067 26.4012 31.126 26.3555 31.0518 26.3215C30.8414 26.2332 30.6123 26.2161 30.3885 26.2095C30.0381 26.212 29.6846 26.2579 29.3514 26.3768C28.3501 26.7486 27.3505 27.1249 26.3489 27.4955C26.3491 26.9067 26.3487 26.3183 26.3492 25.7296C27.0739 25.4602 27.8305 25.2969 28.5925 25.204Z" fill="#FBFBFB"/>
<path d="M32.6997 29.2602C32.9183 29.2313 33.1467 29.3351 33.2777 29.523C33.4207 29.7167 33.4468 29.9961 33.3458 30.2175C33.2439 30.4471 33.0107 30.608 32.7693 30.5996C32.5472 30.6048 32.332 30.4677 32.2226 30.2648C32.1237 30.0859 32.112 29.8569 32.1885 29.6667C32.2744 29.4471 32.477 29.2868 32.6997 29.2602ZM32.6521 29.3839C32.5297 29.4134 32.4186 29.492 32.3455 29.6001C32.2576 29.7273 32.2244 29.8955 32.2578 30.0495C32.2858 30.1924 32.3712 30.3201 32.4864 30.3993C32.6638 30.5228 32.9125 30.516 33.0822 30.3803C33.2573 30.2492 33.3405 29.9975 33.2803 29.7795C33.2431 29.6321 33.1438 29.5067 33.0186 29.4337C32.9073 29.371 32.7745 29.3529 32.6521 29.3839Z" fill="#FBFBFB"/>
<path d="M32.5004 29.5416C32.6144 29.5409 32.7287 29.5414 32.8427 29.5412C32.9072 29.5421 32.9783 29.558 33.0239 29.6104C33.0699 29.6655 33.0736 29.7455 33.061 29.8145C33.0539 29.86 33.0159 29.887 32.9885 29.9188C33.0124 29.9412 33.0429 29.9622 33.0486 29.9987C33.0617 30.0684 33.0478 30.1418 33.0689 30.2101C33.0822 30.2342 33.0957 30.2586 33.0967 30.2875C33.0495 30.2889 33.0023 30.2879 32.955 30.2887C32.9231 30.2093 32.9469 30.1199 32.9271 30.0381C32.9192 30.0047 32.8866 29.984 32.8555 29.985C32.7784 29.9815 32.701 29.984 32.6241 29.9838C32.623 30.0854 32.6269 30.1873 32.6218 30.2887C32.5816 30.2881 32.5413 30.2881 32.5011 30.2889C32.499 30.0394 32.5004 29.7906 32.5004 29.5416ZM32.6241 29.66C32.6242 29.7287 32.6242 29.7975 32.6241 29.8665C32.693 29.8669 32.762 29.8674 32.8312 29.8667C32.8655 29.8665 32.9053 29.8596 32.9276 29.8288C32.951 29.7896 32.9505 29.7373 32.9293 29.6974C32.9116 29.6659 32.8741 29.6628 32.8432 29.6608C32.7701 29.6585 32.6971 29.6599 32.6241 29.66Z" fill="#FBFBFB"/>
</g>
</g>
<defs>
<clipPath id="clip0_25_2420">
<rect width="50" height="50" fill="white"/>
</clipPath>
<clipPath id="clip1_25_2420">
<rect width="26" height="26" fill="white" transform="translate(12 15)"/>
</clipPath>
<clipPath id="clip2_25_2420">
<rect width="40.04" height="9.36" fill="white" transform="translate(-2.04001 31.12)"/>
</clipPath>
</defs>
</svg>
