<svg width="50" height="50" viewBox="0 0 50 50" fill="none" xmlns="http://www.w3.org/2000/svg">
<g filter="url(#filter0_d_5_271)">
<mask id="path-1-inside-1_5_271" fill="white">
<path fill-rule="evenodd" clip-rule="evenodd" d="M4 16V10C4 8.34315 5.34315 7 7 7H11.5723H17.5998C18.3173 7 19.0111 7.25719 19.5552 7.72491L23.3656 11L25.6176 11H41C43.7614 11 46 13.2386 46 16V37C46 39.7614 43.7614 42 41 42H9C6.23858 42 4 39.7614 4 37V18V16Z"/>
</mask>
<path fill-rule="evenodd" clip-rule="evenodd" d="M4 16V10C4 8.34315 5.34315 7 7 7H11.5723H17.5998C18.3173 7 19.0111 7.25719 19.5552 7.72491L23.3656 11L25.6176 11H41C43.7614 11 46 13.2386 46 16V37C46 39.7614 43.7614 42 41 42H9C6.23858 42 4 39.7614 4 37V18V16Z" fill="#FBFBFB"/>
<path d="M19.5552 7.72491L20.8589 6.20818L20.8589 6.20818L19.5552 7.72491ZM23.3656 11L22.062 12.5167L22.6242 13H23.3656V11ZM25.6176 11V9V11ZM2 10V16H6V10H2ZM7 5C4.23858 5 2 7.23858 2 10H6C6 9.44772 6.44772 9 7 9V5ZM11.5723 5H7V9H11.5723V5ZM17.5998 5H11.5723V9H17.5998V5ZM20.8589 6.20818C19.952 5.42865 18.7957 5 17.5998 5V9C17.8389 9 18.0702 9.08573 18.2516 9.24164L20.8589 6.20818ZM24.6693 9.48327L20.8589 6.20818L18.2516 9.24164L22.062 12.5167L24.6693 9.48327ZM25.6176 9L23.3656 9V13L25.6176 13V9ZM41 9H25.6176V13H41V9ZM48 16C48 12.134 44.866 9 41 9V13C42.6569 13 44 14.3431 44 16H48ZM48 37V16H44V37H48ZM41 44C44.866 44 48 40.866 48 37H44C44 38.6569 42.6569 40 41 40V44ZM9 44H41V40H9V44ZM2 37C2 40.866 5.13401 44 9 44V40C7.34315 40 6 38.6569 6 37H2ZM2 18V37H6V18H2ZM2 16V18H6V16H2Z" fill="#FBFBFB" mask="url(#path-1-inside-1_5_271)"/>
<mask id="mask0_5_271" style="mask-type:alpha" maskUnits="userSpaceOnUse" x="4" y="7" width="42" height="35">
<mask id="path-3-inside-2_5_271" fill="white">
<path fill-rule="evenodd" clip-rule="evenodd" d="M4 16V10C4 8.34315 5.34315 7 7 7H11.5723H17.5998C18.3173 7 19.0111 7.25719 19.5552 7.72491L23.3656 11L25.6176 11H41C43.7614 11 46 13.2386 46 16V37C46 39.7614 43.7614 42 41 42H9C6.23858 42 4 39.7614 4 37V18V16Z"/>
</mask>
<path fill-rule="evenodd" clip-rule="evenodd" d="M4 16V10C4 8.34315 5.34315 7 7 7H11.5723H17.5998C18.3173 7 19.0111 7.25719 19.5552 7.72491L23.3656 11L25.6176 11H41C43.7614 11 46 13.2386 46 16V37C46 39.7614 43.7614 42 41 42H9C6.23858 42 4 39.7614 4 37V18V16Z" fill="#FBFBFB"/>
<path d="M19.5552 7.72491L20.8589 6.20818L20.8589 6.20818L19.5552 7.72491ZM23.3656 11L22.062 12.5167L22.6242 13H23.3656V11ZM25.6176 11V9V11ZM2 10V16H6V10H2ZM7 5C4.23858 5 2 7.23858 2 10H6C6 9.44772 6.44772 9 7 9V5ZM11.5723 5H7V9H11.5723V5ZM17.5998 5H11.5723V9H17.5998V5ZM20.8589 6.20818C19.952 5.42865 18.7957 5 17.5998 5V9C17.8389 9 18.0702 9.08573 18.2516 9.24164L20.8589 6.20818ZM24.6693 9.48327L20.8589 6.20818L18.2516 9.24164L22.062 12.5167L24.6693 9.48327ZM25.6176 9L23.3656 9V13L25.6176 13V9ZM41 9H25.6176V13H41V9ZM48 16C48 12.134 44.866 9 41 9V13C42.6569 13 44 14.3431 44 16H48ZM48 37V16H44V37H48ZM41 44C44.866 44 48 40.866 48 37H44C44 38.6569 42.6569 40 41 40V44ZM9 44H41V40H9V44ZM2 37C2 40.866 5.13401 44 9 44V40C7.34315 40 6 38.6569 6 37H2ZM2 18V37H6V18H2ZM2 16V18H6V16H2Z" fill="#FBFBFB" mask="url(#path-3-inside-2_5_271)"/>
</mask>
<g mask="url(#mask0_5_271)">
<path d="M18.5 14L23.5 11L29.5 1L1 3L2 14H18.5Z" fill="#D9D9D9"/>
</g>
</g>
<defs>
<filter id="filter0_d_5_271" x="-4" y="0" width="58" height="58" filterUnits="userSpaceOnUse" color-interpolation-filters="sRGB">
<feFlood flood-opacity="0" result="BackgroundImageFix"/>
<feColorMatrix in="SourceAlpha" type="matrix" values="0 0 0 0 0 0 0 0 0 0 0 0 0 0 0 0 0 0 127 0" result="hardAlpha"/>
<feOffset dy="4"/>
<feGaussianBlur stdDeviation="2"/>
<feComposite in2="hardAlpha" operator="out"/>
<feColorMatrix type="matrix" values="0 0 0 0 0 0 0 0 0 0 0 0 0 0 0 0 0 0 0.25 0"/>
<feBlend mode="normal" in2="BackgroundImageFix" result="effect1_dropShadow_5_271"/>
<feBlend mode="normal" in="SourceGraphic" in2="effect1_dropShadow_5_271" result="shape"/>
</filter>
</defs>
</svg>
