<svg width="50" height="50" viewBox="0 0 50 50" fill="none" xmlns="http://www.w3.org/2000/svg">
<mask id="path-1-inside-1_235_2342" fill="white">
<path fill-rule="evenodd" clip-rule="evenodd" d="M4 16V10C4 8.34315 5.34315 7 7 7H11.5723H17.5998C18.3173 7 19.0111 7.25719 19.5552 7.72491L23.3656 11L25.6176 11H41C43.7614 11 46 13.2386 46 16V37C46 39.7614 43.7614 42 41 42H9C6.23858 42 4 39.7614 4 37V18V16Z"/>
</mask>
<path d="M19.5552 7.72491L22.8144 3.93308L22.8144 3.93308L19.5552 7.72491ZM23.3656 11L20.1065 14.7918L21.5121 16L23.3656 16L23.3656 11ZM25.6176 11L25.6176 6L25.6176 6L25.6176 11ZM-1 10V16H9V10H-1ZM7 2C2.58172 2 -1 5.58173 -1 10H9C9 11.1046 8.10457 12 7 12V2ZM11.5723 2H7V12H11.5723V2ZM17.5998 2H11.5723V12H17.5998V2ZM22.8144 3.93308C21.3633 2.68583 19.5132 2 17.5998 2V12C17.1214 12 16.6589 11.8285 16.2961 11.5167L22.8144 3.93308ZM26.6248 7.20818L22.8144 3.93308L16.2961 11.5167L20.1065 14.7918L26.6248 7.20818ZM25.6176 6L23.3656 6L23.3656 16L25.6176 16L25.6176 6ZM41 6H25.6176V16H41V6ZM51 16C51 10.4771 46.5228 6 41 6V16H41H51ZM51 37V16H41V37H51ZM41 47C46.5229 47 51 42.5228 51 37H41V37V47ZM9 47H41V37H9V47ZM-1 37C-1 42.5228 3.47715 47 9 47V37H9H-1ZM-1 18V37H9V18H-1ZM-1 16V18H9V16H-1Z" fill="#FBFBFB" mask="url(#path-1-inside-1_235_2342)"/>
<mask id="mask0_235_2342" style="mask-type:alpha" maskUnits="userSpaceOnUse" x="4" y="7" width="42" height="35">
<mask id="path-3-inside-2_235_2342" fill="white">
<path fill-rule="evenodd" clip-rule="evenodd" d="M4 16V10C4 8.34315 5.34315 7 7 7H11.5723H17.5998C18.3173 7 19.0111 7.25719 19.5552 7.72491L23.3656 11L25.6176 11H41C43.7614 11 46 13.2386 46 16V37C46 39.7614 43.7614 42 41 42H9C6.23858 42 4 39.7614 4 37V18V16Z"/>
</mask>
<path d="M19.5552 7.72491L22.8144 3.93308L22.8144 3.93308L19.5552 7.72491ZM23.3656 11L20.1065 14.7918L21.5121 16L23.3656 16L23.3656 11ZM25.6176 11L25.6176 6L25.6176 6L25.6176 11ZM-1 10V16H9V10H-1ZM7 2C2.58172 2 -1 5.58173 -1 10H9C9 11.1046 8.10457 12 7 12V2ZM11.5723 2H7V12H11.5723V2ZM17.5998 2H11.5723V12H17.5998V2ZM22.8144 3.93308C21.3633 2.68583 19.5132 2 17.5998 2V12C17.1214 12 16.6589 11.8285 16.2961 11.5167L22.8144 3.93308ZM26.6248 7.20818L22.8144 3.93308L16.2961 11.5167L20.1065 14.7918L26.6248 7.20818ZM25.6176 6L23.3656 6L23.3656 16L25.6176 16L25.6176 6ZM41 6H25.6176V16H41V6ZM51 16C51 10.4771 46.5228 6 41 6V16H41H51ZM51 37V16H41V37H51ZM41 47C46.5229 47 51 42.5228 51 37H41V37V47ZM9 47H41V37H9V47ZM-1 37C-1 42.5228 3.47715 47 9 47V37H9H-1ZM-1 18V37H9V18H-1ZM-1 16V18H9V16H-1Z" fill="#FBFBFB" mask="url(#path-3-inside-2_235_2342)"/>
</mask>
<g mask="url(#mask0_235_2342)">
</g>
</svg>
