<svg width="58" height="58" viewBox="0 0 58 58" fill="none" xmlns="http://www.w3.org/2000/svg">
<g clip-path="url(#clip0_24_1458)" filter="url(#filter0_d_24_1458)">
<g filter="url(#filter1_d_24_1458)">
<path d="M13 47V3L33.5706 3L45 15.0365L45 47H13Z" fill="#3B6F9E" stroke="#3B6F9E" stroke-width="2"/>
<mask id="mask0_24_1458" style="mask-type:alpha" maskUnits="userSpaceOnUse" x="12" y="2" width="34" height="46">
<path d="M13 47V3L33.5706 3L45 15.0365L45 47H13Z" fill="#FBFBFB" stroke="#FBFBFB" stroke-width="2"/>
</mask>
<g mask="url(#mask0_24_1458)">
<rect x="34" width="15" height="14" fill="#FBFBFB"/>
<g opacity="0.2">
<mask id="path-4-inside-1_24_1458" fill="white">
<path d="M44.276 30.8686L39.1472 26.9715L38.66 27.6126L35.4377 25.1641C35.2454 25.018 34.9977 24.9659 34.7629 25.0222L25.6578 27.2051C24.9972 27.3634 24.8175 28.2182 25.3583 28.6292L33.9426 35.1519L19.3282 54.3851C18.7902 55.0932 18.928 56.1035 19.6362 56.6416L20.9184 57.6159C21.6265 58.1539 22.6368 58.0161 23.1749 57.3079L37.7892 38.0747L42.9181 41.9719C43.2722 42.241 43.7773 42.172 44.0463 41.818L48.4306 36.048C48.6997 35.6939 48.6307 35.1888 48.2767 34.9197L43.7889 31.5097L44.276 30.8686Z"/>
</mask>
<path d="M39.1472 26.9715L46.293 17.5671L36.8887 10.4213L29.7428 19.8256L39.1472 26.9715ZM44.276 30.8686L53.6804 38.0145L60.8262 28.6101L51.4219 21.4643L44.276 30.8686ZM38.66 27.6126L31.5142 37.0169L40.9185 44.1627L48.0644 34.7584L38.66 27.6126ZM35.4377 25.1641L42.5836 15.7598L42.5836 15.7598L35.4377 25.1641ZM34.7629 25.0222L37.5165 36.5079L37.5165 36.5079L34.7629 25.0222ZM25.6578 27.2051L22.9042 15.7193L22.9042 15.7193L25.6578 27.2051ZM25.3583 28.6292L18.2125 38.0335H18.2125L25.3583 28.6292ZM33.9426 35.1519L43.3469 42.2977L50.4927 32.8934L41.0884 25.7475L33.9426 35.1519ZM19.3282 54.3851L9.92392 47.2392L19.3282 54.3851ZM19.6362 56.6416L12.4903 66.0459L12.4903 66.0459L19.6362 56.6416ZM20.9184 57.6159L28.0642 48.2115L28.0642 48.2115L20.9184 57.6159ZM23.1749 57.3079L13.7706 50.1621L23.1749 57.3079ZM37.7892 38.0747L44.9351 28.6704L35.5307 21.5245L28.3849 30.9289L37.7892 38.0747ZM42.9181 41.9719L35.7722 51.3762L42.9181 41.9719ZM44.0463 41.818L53.4507 48.9638V48.9638L44.0463 41.818ZM48.4306 36.048L39.0263 28.9021L39.0263 28.9021L48.4306 36.048ZM48.2767 34.9197L55.4225 25.5154V25.5154L48.2767 34.9197ZM43.7889 31.5097L34.3846 24.3638L27.2387 33.7682L36.643 40.914L43.7889 31.5097ZM32.0013 36.3758L37.1302 40.2729L51.4219 21.4643L46.293 17.5671L32.0013 36.3758ZM48.0644 34.7584L48.5515 34.1173L29.7428 19.8256L29.2557 20.4667L48.0644 34.7584ZM45.8059 18.2082L42.5836 15.7598L28.2919 34.5684L31.5142 37.0169L45.8059 18.2082ZM42.5836 15.7598C39.5706 13.4704 35.6891 12.6542 32.0092 13.5364L37.5165 36.5079C34.3063 37.2775 30.9203 36.5656 28.2919 34.5684L42.5836 15.7598ZM32.0093 13.5364L22.9042 15.7193L28.4113 38.6908L37.5165 36.5079L32.0093 13.5364ZM22.9042 15.7193C12.554 18.2007 9.7379 31.5941 18.2125 38.0335L32.5042 19.2248C39.897 24.8423 37.4404 36.5262 28.4114 38.6908L22.9042 15.7193ZM18.2125 38.0335L26.7967 44.5562L41.0884 25.7475L32.5042 19.2248L18.2125 38.0335ZM24.5382 28.006L9.92392 47.2392L28.7326 61.5309L43.3469 42.2977L24.5382 28.006ZM9.92392 47.2392C5.43928 53.1412 6.58831 61.5613 12.4903 66.0459L26.782 47.2372C31.2677 50.6457 32.141 57.0452 28.7326 61.5309L9.92392 47.2392ZM12.4903 66.0459L13.7725 67.0202L28.0642 48.2115L26.782 47.2372L12.4903 66.0459ZM13.7725 67.0202C19.6745 71.5048 28.0946 70.3558 32.5792 64.4538L13.7706 50.1621C17.179 45.6764 23.5785 44.8031 28.0642 48.2115L13.7725 67.0202ZM32.5792 64.4538L47.1935 45.2206L28.3849 30.9289L13.7706 50.1621L32.5792 64.4538ZM30.6433 47.4791L35.7722 51.3762L50.064 32.5676L44.9351 28.6704L30.6433 47.4791ZM35.7722 51.3762C41.3202 55.5918 49.2351 54.5117 53.4507 48.9638L34.642 34.6721C38.3195 29.8323 45.2241 28.8901 50.064 32.5676L35.7722 51.3762ZM53.4507 48.9638L57.835 43.1938L39.0263 28.9021L34.642 34.6721L53.4507 48.9638ZM57.835 43.1938C62.0505 37.646 60.9705 29.731 55.4225 25.5154L41.1308 44.3241C36.291 40.6465 35.3488 33.7419 39.0263 28.9021L57.835 43.1938ZM55.4225 25.5154L50.9347 22.1054L36.643 40.914L41.1308 44.3241L55.4225 25.5154ZM34.8717 23.7228L34.3846 24.3638L53.1932 38.6556L53.6804 38.0145L34.8717 23.7228Z" fill="white" mask="url(#path-4-inside-1_24_1458)"/>
</g>
</g>
</g>
<g filter="url(#filter2_d_24_1458)">
<path d="M22.6771 17.1474C20.5382 17.5272 18.8173 19.0991 18.2748 21.1657C18.0791 21.9119 18.0658 22.349 18.088 28.138C18.1014 33.4544 18.1058 33.5781 18.1947 33.9887C18.6883 36.201 20.2714 37.7773 22.5214 38.2984C22.8149 38.3646 23.1884 38.3779 25.5941 38.3911C28.0843 38.4088 28.3422 38.4044 28.4089 38.3381C28.4756 38.2719 28.4801 37.4197 28.4801 27.7582C28.4801 20.596 28.4667 17.2225 28.4356 17.1607C28.3911 17.0812 28.3155 17.0768 25.7098 17.0812C23.5931 17.0856 22.9572 17.0988 22.6771 17.1474ZM26.7014 27.745V36.6911L24.8916 36.669C23.224 36.6514 23.0462 36.6425 22.7126 36.5586C21.2808 36.1921 20.218 35.097 19.9201 33.6708C19.8223 33.2248 19.8223 22.2387 19.9156 21.8015C20.1824 20.5607 21.0496 19.5319 22.2191 19.0682C22.806 18.8342 23.0773 18.8077 24.9805 18.8033L26.7014 18.7989V27.745Z" fill="#FBFBFB"/>
<path d="M23.0605 21.2797C22.7347 21.3348 22.2383 21.555 21.9746 21.7615C21.4316 22.179 21.1627 22.7709 21.2041 23.4683C21.2248 23.8308 21.2506 23.9271 21.4161 24.2208C21.6592 24.6658 22.0263 24.9916 22.5279 25.2118C22.8744 25.3632 22.9623 25.3816 23.4122 25.3953C23.8207 25.4091 23.9655 25.3953 24.2395 25.3128C25.3617 24.9778 26.0391 24.0097 25.8478 23.0186C25.6254 21.8395 24.3636 21.0503 23.0605 21.2797Z" fill="#FBFBFB"/>
<path d="M30.5908 17.1109C30.5733 17.1241 30.5601 21.9092 30.5601 27.7449C30.5601 37.3724 30.5645 38.3479 30.6304 38.3744C30.7492 38.4186 34.162 38.4009 34.5842 38.3568C36.3698 38.1537 37.9443 37.0634 38.8019 35.4434C38.9118 35.2359 39.057 34.8872 39.1317 34.6709C39.4088 33.841 39.4 34.0617 39.4 27.7184C39.4 22.6552 39.3912 21.9004 39.3297 21.5781C38.8943 19.2783 37.1483 17.5435 34.8525 17.1462C34.5446 17.0932 34.0697 17.08 32.5392 17.08C31.4836 17.08 30.604 17.0932 30.5908 17.1109ZM35.2879 26.7252C35.974 26.9062 36.5369 27.4315 36.7656 28.1024C36.9108 28.5174 36.9064 29.1265 36.7612 29.5062C36.493 30.2036 35.9652 30.6936 35.2879 30.8746C34.1884 31.1615 33.0185 30.495 32.6975 29.4002C32.6007 29.0647 32.6051 28.4997 32.7151 28.1554C33.0449 27.0739 34.1884 26.4383 35.2879 26.7252Z" fill="#FBFBFB"/>
</g>
</g>
<defs>
<filter id="filter0_d_24_1458" x="0" y="0" width="58" height="58" filterUnits="userSpaceOnUse" color-interpolation-filters="sRGB">
<feFlood flood-opacity="0" result="BackgroundImageFix"/>
<feColorMatrix in="SourceAlpha" type="matrix" values="0 0 0 0 0 0 0 0 0 0 0 0 0 0 0 0 0 0 127 0" result="hardAlpha"/>
<feOffset dy="4"/>
<feGaussianBlur stdDeviation="2"/>
<feComposite in2="hardAlpha" operator="out"/>
<feColorMatrix type="matrix" values="0 0 0 0 0 0 0 0 0 0 0 0 0 0 0 0 0 0 0.25 0"/>
<feBlend mode="normal" in2="BackgroundImageFix" result="effect1_dropShadow_24_1458"/>
<feBlend mode="normal" in="SourceGraphic" in2="effect1_dropShadow_24_1458" result="shape"/>
</filter>
<filter id="filter1_d_24_1458" x="0" y="0" width="58" height="58" filterUnits="userSpaceOnUse" color-interpolation-filters="sRGB">
<feFlood flood-opacity="0" result="BackgroundImageFix"/>
<feColorMatrix in="SourceAlpha" type="matrix" values="0 0 0 0 0 0 0 0 0 0 0 0 0 0 0 0 0 0 127 0" result="hardAlpha"/>
<feOffset dy="4"/>
<feGaussianBlur stdDeviation="2"/>
<feComposite in2="hardAlpha" operator="out"/>
<feColorMatrix type="matrix" values="0 0 0 0 0 0 0 0 0 0 0 0 0 0 0 0 0 0 0.25 0"/>
<feBlend mode="normal" in2="BackgroundImageFix" result="effect1_dropShadow_24_1458"/>
<feBlend mode="normal" in="SourceGraphic" in2="effect1_dropShadow_24_1458" result="shape"/>
</filter>
<filter id="filter2_d_24_1458" x="13.92" y="15" width="30.16" height="30.16" filterUnits="userSpaceOnUse" color-interpolation-filters="sRGB">
<feFlood flood-opacity="0" result="BackgroundImageFix"/>
<feColorMatrix in="SourceAlpha" type="matrix" values="0 0 0 0 0 0 0 0 0 0 0 0 0 0 0 0 0 0 127 0" result="hardAlpha"/>
<feOffset dy="2.08"/>
<feGaussianBlur stdDeviation="1.04"/>
<feComposite in2="hardAlpha" operator="out"/>
<feColorMatrix type="matrix" values="0 0 0 0 0 0 0 0 0 0 0 0 0 0 0 0 0 0 0.25 0"/>
<feBlend mode="normal" in2="BackgroundImageFix" result="effect1_dropShadow_24_1458"/>
<feBlend mode="normal" in="SourceGraphic" in2="effect1_dropShadow_24_1458" result="shape"/>
</filter>
<clipPath id="clip0_24_1458">
<rect width="50" height="50" fill="white" transform="translate(4)"/>
</clipPath>
</defs>
</svg>
