<svg width="58" height="58" viewBox="0 0 58 58" fill="none" xmlns="http://www.w3.org/2000/svg">
<g clip-path="url(#clip0_26_3486)" filter="url(#filter0_d_26_3486)">
<g filter="url(#filter1_d_26_3486)">
<path d="M13 47V3L33.5706 3L45 15.0365L45 47H13Z" fill="#FBFBFB" stroke="#FBFBFB" stroke-width="2"/>
<mask id="mask0_26_3486" style="mask-type:alpha" maskUnits="userSpaceOnUse" x="12" y="2" width="34" height="46">
<path d="M13 47V3L33.5706 3L45 15.0365L45 47H13Z" fill="#FBFBFB" stroke="#FBFBFB" stroke-width="2"/>
</mask>
<g mask="url(#mask0_26_3486)">
<rect x="34" width="15" height="14" fill="#D9D9D9"/>
<path opacity="0.5" d="M27.7477 42.484C27.5611 44.2573 26.8984 45.62 25.7597 46.572C24.6397 47.524 23.2584 48 21.6157 48H16.4917C16.3984 48 16.3237 47.972 16.2677 47.916C16.2117 47.8413 16.1931 47.7573 16.2117 47.664L18.5357 28.736C18.5544 28.6427 18.5917 28.568 18.6477 28.512C18.7224 28.4373 18.8064 28.4 18.8997 28.4H23.4357C25.0784 28.4 26.3477 28.7733 27.2437 29.52C28.1584 30.248 28.6157 31.34 28.6157 32.796C28.6157 32.9827 28.5971 33.3 28.5597 33.748C28.3357 35.5773 27.5517 36.9213 26.2077 37.78C26.1331 37.836 26.1237 37.892 26.1797 37.948C27.2624 38.8067 27.8037 40.0293 27.8037 41.616C27.8037 41.784 27.7851 42.0733 27.7477 42.484ZM22.1197 31.788C22.0264 31.788 21.9797 31.8347 21.9797 31.928L21.4197 36.324C21.4197 36.4173 21.4571 36.464 21.5317 36.464H22.5117C23.2211 36.464 23.7717 36.212 24.1637 35.708C24.5744 35.204 24.7797 34.504 24.7797 33.608C24.7797 33.0107 24.6304 32.5627 24.3317 32.264C24.0517 31.9467 23.6411 31.788 23.0997 31.788H22.1197ZM21.7557 44.584C22.3531 44.584 22.8477 44.36 23.2397 43.912C23.6317 43.464 23.8837 42.8293 23.9957 42.008C24.0144 41.8773 24.0237 41.6813 24.0237 41.42C24.0237 40.7667 23.8837 40.2533 23.6037 39.88C23.3237 39.5067 22.9317 39.32 22.4277 39.32H21.1957C21.1211 39.32 21.0651 39.3667 21.0277 39.46L20.4397 44.444C20.4024 44.5373 20.4397 44.584 20.5517 44.584H21.7557ZM29.2613 48C29.1679 48 29.0933 47.972 29.0373 47.916C28.9813 47.8413 28.9626 47.7573 28.9813 47.664L31.3053 28.736C31.3239 28.6427 31.3613 28.568 31.4173 28.512C31.4919 28.4373 31.5759 28.4 31.6693 28.4H34.8333C35.0386 28.4 35.1413 28.512 35.1413 28.736L32.8173 47.664C32.7986 47.7573 32.7519 47.8413 32.6773 47.916C32.6026 47.972 32.5186 48 32.4253 48H29.2613ZM45.2956 28.736C45.3143 28.6427 45.3516 28.568 45.4076 28.512C45.4823 28.4373 45.5663 28.4 45.6596 28.4H48.8236C48.917 28.4 48.9916 28.4373 49.0476 28.512C49.1036 28.568 49.1223 28.6427 49.1036 28.736L46.7796 47.664C46.761 47.7573 46.7143 47.8413 46.6396 47.916C46.5836 47.972 46.509 48 46.4156 48H42.8316C42.6636 48 42.5516 47.9067 42.4956 47.72L40.4796 36.884C40.461 36.828 40.4236 36.8093 40.3676 36.828C40.3303 36.828 40.3116 36.856 40.3116 36.912L39.0236 47.664C39.005 47.7573 38.9583 47.8413 38.8836 47.916C38.809 47.972 38.725 48 38.6316 48H35.4956C35.4023 48 35.3276 47.972 35.2716 47.916C35.2156 47.8413 35.197 47.7573 35.2156 47.664L37.5396 28.736C37.5583 28.6427 37.5956 28.568 37.6516 28.512C37.7263 28.4373 37.8103 28.4 37.9036 28.4H41.4596C41.6276 28.4 41.7303 28.4933 41.7676 28.68L43.8396 39.516C43.8583 39.572 43.8863 39.6 43.9236 39.6C43.9796 39.5813 44.0076 39.544 44.0076 39.488L45.2956 28.736Z" fill="#D9D9D9"/>
</g>
</g>
</g>
<defs>
<filter id="filter0_d_26_3486" x="0" y="0" width="58" height="58" filterUnits="userSpaceOnUse" color-interpolation-filters="sRGB">
<feFlood flood-opacity="0" result="BackgroundImageFix"/>
<feColorMatrix in="SourceAlpha" type="matrix" values="0 0 0 0 0 0 0 0 0 0 0 0 0 0 0 0 0 0 127 0" result="hardAlpha"/>
<feOffset dy="4"/>
<feGaussianBlur stdDeviation="2"/>
<feComposite in2="hardAlpha" operator="out"/>
<feColorMatrix type="matrix" values="0 0 0 0 0 0 0 0 0 0 0 0 0 0 0 0 0 0 0.25 0"/>
<feBlend mode="normal" in2="BackgroundImageFix" result="effect1_dropShadow_26_3486"/>
<feBlend mode="normal" in="SourceGraphic" in2="effect1_dropShadow_26_3486" result="shape"/>
</filter>
<filter id="filter1_d_26_3486" x="0" y="0" width="58" height="58" filterUnits="userSpaceOnUse" color-interpolation-filters="sRGB">
<feFlood flood-opacity="0" result="BackgroundImageFix"/>
<feColorMatrix in="SourceAlpha" type="matrix" values="0 0 0 0 0 0 0 0 0 0 0 0 0 0 0 0 0 0 127 0" result="hardAlpha"/>
<feOffset dy="4"/>
<feGaussianBlur stdDeviation="2"/>
<feComposite in2="hardAlpha" operator="out"/>
<feColorMatrix type="matrix" values="0 0 0 0 0 0 0 0 0 0 0 0 0 0 0 0 0 0 0.25 0"/>
<feBlend mode="normal" in2="BackgroundImageFix" result="effect1_dropShadow_26_3486"/>
<feBlend mode="normal" in="SourceGraphic" in2="effect1_dropShadow_26_3486" result="shape"/>
</filter>
<clipPath id="clip0_26_3486">
<rect width="50" height="50" fill="white" transform="translate(4)"/>
</clipPath>
</defs>
</svg>
