<svg width="58" height="58" viewBox="0 0 58 58" fill="none" xmlns="http://www.w3.org/2000/svg">
<g clip-path="url(#clip0_26_3465)" filter="url(#filter0_d_26_3465)">
<g filter="url(#filter1_d_26_3465)">
<path d="M13 47V3L33.5706 3L45 15.0365L45 47H13Z" fill="#FBFBFB" stroke="#FBFBFB" stroke-width="2"/>
<mask id="mask0_26_3465" style="mask-type:alpha" maskUnits="userSpaceOnUse" x="12" y="2" width="34" height="46">
<path d="M13 47V3L33.5706 3L45 15.0365L45 47H13Z" fill="#FBFBFB" stroke="#FBFBFB" stroke-width="2"/>
</mask>
<g mask="url(#mask0_26_3465)">
<rect x="34" width="15" height="14" fill="#D9D9D9"/>
<path opacity="0.5" d="M31.289 58.704C30.1797 58.704 29.3263 58.4267 28.729 57.872C28.153 57.3173 27.865 56.528 27.865 55.504C27.865 55.3333 27.8863 55.0773 27.929 54.736L28.729 48.112C28.7717 47.728 28.793 47.472 28.793 47.344C28.793 46.0853 28.3023 45.392 27.321 45.264C27.065 45.2427 26.9583 45.104 27.001 44.848L27.353 42.064C27.353 41.9573 27.385 41.872 27.449 41.808C27.5343 41.7227 27.6303 41.6693 27.737 41.648C28.953 41.4987 29.6677 40.56 29.881 38.832L30.681 32.336C30.8303 31.0987 31.2783 30.1387 32.025 29.456C32.793 28.752 33.785 28.4 35.001 28.4H37.593C37.6997 28.4 37.785 28.4427 37.849 28.528C37.913 28.592 37.9343 28.6773 37.913 28.784L37.529 31.888C37.5077 31.9947 37.4543 32.0907 37.369 32.176C37.305 32.24 37.2197 32.272 37.113 32.272H36.537C36.1103 32.272 35.737 32.464 35.417 32.848C35.097 33.2107 34.8943 33.6907 34.809 34.288L34.169 39.44C33.9557 41.4453 33.2197 42.7467 31.961 43.344C31.8757 43.408 31.8757 43.472 31.961 43.536C32.8143 44.048 33.241 45.008 33.241 46.416C33.241 46.8853 33.2197 47.248 33.177 47.504L32.537 52.784C32.5157 52.8693 32.505 53.008 32.505 53.2C32.505 53.6907 32.6223 54.0747 32.857 54.352C33.0917 54.6507 33.401 54.8 33.785 54.8H34.329C34.5637 54.8 34.681 54.928 34.681 55.184L34.297 58.32C34.2757 58.4267 34.2223 58.512 34.137 58.576C34.0517 58.6613 33.9557 58.704 33.849 58.704H31.289ZM36.3445 58.704C36.2378 58.704 36.1525 58.6613 36.0885 58.576C36.0245 58.512 36.0032 58.4267 36.0245 58.32L36.4085 55.184C36.4298 55.0773 36.4725 54.9813 36.5365 54.896C36.6218 54.832 36.7178 54.8 36.8245 54.8H37.4005C37.8272 54.8 38.2005 54.608 38.5205 54.224C38.8618 53.8613 39.0752 53.3813 39.1605 52.784L39.8005 47.504C40.0565 45.4773 40.7925 44.1547 42.0085 43.536C42.0938 43.472 42.0938 43.408 42.0085 43.344C41.1552 42.8747 40.7285 41.936 40.7285 40.528C40.7285 40.0587 40.7498 39.696 40.7925 39.44L41.4325 34.288C41.4538 34.2027 41.4645 34.0747 41.4645 33.904C41.4645 33.4133 41.3365 33.0187 41.0805 32.72C40.8458 32.4213 40.5365 32.272 40.1525 32.272H39.6085C39.5018 32.272 39.4165 32.24 39.3525 32.176C39.2885 32.0907 39.2672 31.9947 39.2885 31.888L39.6725 28.784C39.6725 28.6773 39.7152 28.592 39.8005 28.528C39.8858 28.4427 39.9818 28.4 40.0885 28.4H42.6805C43.7685 28.4 44.6112 28.6773 45.2085 29.232C45.8058 29.7867 46.1045 30.576 46.1045 31.6C46.1045 31.7493 46.0832 31.9947 46.0405 32.336L45.2405 38.832C45.2192 39.0027 45.2085 39.2373 45.2085 39.536C45.2085 40.816 45.6885 41.52 46.6485 41.648C46.9045 41.6693 47.0112 41.808 46.9685 42.064L46.6165 44.848C46.5738 45.104 46.4352 45.2427 46.2005 45.264C45.0058 45.4347 44.3125 46.384 44.1205 48.112L43.2885 54.736C43.1392 55.9947 42.6805 56.9653 41.9125 57.648C41.1658 58.352 40.1845 58.704 38.9685 58.704H36.3445Z" fill="#D9D9D9"/>
</g>
</g>
<path d="M22.5522 34.16C21.4722 34.16 20.5989 33.8333 19.9322 33.18C19.2789 32.5133 18.9522 31.6333 18.9522 30.54V23.44C18.9522 22.3467 19.2789 21.4733 19.9322 20.82C20.5989 20.1667 21.4722 19.84 22.5522 19.84C23.6455 19.84 24.5189 20.1667 25.1722 20.82C25.8389 21.4733 26.1722 22.3467 26.1722 23.44V23.76C26.1722 23.8933 26.1055 23.96 25.9722 23.96L24.4522 24.04C24.3189 24.04 24.2522 23.9733 24.2522 23.84V23.32C24.2522 22.7733 24.0922 22.3333 23.7722 22C23.4655 21.6667 23.0589 21.5 22.5522 21.5C22.0455 21.5 21.6389 21.6667 21.3322 22C21.0255 22.3333 20.8722 22.7733 20.8722 23.32V30.68C20.8722 31.2267 21.0255 31.6667 21.3322 32C21.6389 32.3333 22.0455 32.5 22.5522 32.5C23.0589 32.5 23.4655 32.3333 23.7722 32C24.0922 31.6667 24.2522 31.2267 24.2522 30.68V30.16C24.2522 30.0267 24.3189 29.96 24.4522 29.96L25.9722 30.04C26.1055 30.04 26.1722 30.1067 26.1722 30.24V30.54C26.1722 31.6333 25.8389 32.5133 25.1722 33.18C24.5189 33.8333 23.6455 34.16 22.5522 34.16ZM38.0552 25.4C38.0552 25.5333 37.9885 25.6 37.8552 25.6H36.5752C36.5085 25.6 36.4752 25.6267 36.4752 25.68L36.0952 28.44C36.0952 28.4933 36.1152 28.52 36.1552 28.52H37.1952C37.3285 28.52 37.3952 28.5867 37.3952 28.72V29.98C37.3952 30.1133 37.3285 30.18 37.1952 30.18H35.8952C35.8285 30.18 35.7952 30.2067 35.7952 30.26L35.3352 33.42C35.3218 33.54 35.2552 33.6 35.1352 33.6L33.6152 33.58C33.5618 33.58 33.5152 33.56 33.4752 33.52C33.4352 33.48 33.4218 33.4267 33.4352 33.36L33.8752 30.26C33.8752 30.2067 33.8552 30.18 33.8152 30.18H31.3352C31.2685 30.18 31.2352 30.2067 31.2352 30.26L30.7752 33.42C30.7618 33.54 30.6952 33.6 30.5752 33.6L29.0552 33.58C29.0018 33.58 28.9552 33.56 28.9152 33.52C28.8752 33.48 28.8618 33.4267 28.8752 33.36L29.3152 30.26C29.3152 30.2067 29.2952 30.18 29.2552 30.18H28.1952C28.0618 30.18 27.9952 30.1133 27.9952 29.98V28.72C27.9952 28.5867 28.0618 28.52 28.1952 28.52H29.5152C29.5818 28.52 29.6152 28.4933 29.6152 28.44L29.9952 25.68C29.9952 25.6267 29.9752 25.6 29.9352 25.6H28.8552C28.7218 25.6 28.6552 25.5333 28.6552 25.4V24.12C28.6552 23.9867 28.7218 23.92 28.8552 23.92H30.1952C30.2618 23.92 30.2952 23.8933 30.2952 23.84L30.7552 20.68C30.7685 20.56 30.8352 20.5 30.9552 20.5L32.4752 20.52C32.5285 20.52 32.5752 20.54 32.6152 20.58C32.6552 20.62 32.6685 20.6733 32.6552 20.74L32.2152 23.84C32.2152 23.8933 32.2352 23.92 32.2752 23.92H34.7552C34.8218 23.92 34.8552 23.8933 34.8552 23.84L35.3152 20.68C35.3285 20.56 35.3952 20.5 35.5152 20.5L37.0352 20.52C37.0885 20.52 37.1352 20.54 37.1752 20.58C37.2152 20.62 37.2285 20.6733 37.2152 20.74L36.7752 23.84C36.7752 23.8933 36.7952 23.92 36.8352 23.92H37.8552C37.9885 23.92 38.0552 23.9867 38.0552 24.12V25.4ZM34.0752 28.52C34.1418 28.52 34.1752 28.4933 34.1752 28.44L34.5552 25.68C34.5552 25.6267 34.5352 25.6 34.4952 25.6H32.0152C31.9485 25.6 31.9152 25.6267 31.9152 25.68L31.5352 28.44C31.5352 28.4933 31.5552 28.52 31.5952 28.52H34.0752Z" fill="#0FA715"/>
</g>
<defs>
<filter id="filter0_d_26_3465" x="0" y="0" width="58" height="58" filterUnits="userSpaceOnUse" color-interpolation-filters="sRGB">
<feFlood flood-opacity="0" result="BackgroundImageFix"/>
<feColorMatrix in="SourceAlpha" type="matrix" values="0 0 0 0 0 0 0 0 0 0 0 0 0 0 0 0 0 0 127 0" result="hardAlpha"/>
<feOffset dy="4"/>
<feGaussianBlur stdDeviation="2"/>
<feComposite in2="hardAlpha" operator="out"/>
<feColorMatrix type="matrix" values="0 0 0 0 0 0 0 0 0 0 0 0 0 0 0 0 0 0 0.25 0"/>
<feBlend mode="normal" in2="BackgroundImageFix" result="effect1_dropShadow_26_3465"/>
<feBlend mode="normal" in="SourceGraphic" in2="effect1_dropShadow_26_3465" result="shape"/>
</filter>
<filter id="filter1_d_26_3465" x="0" y="0" width="58" height="58" filterUnits="userSpaceOnUse" color-interpolation-filters="sRGB">
<feFlood flood-opacity="0" result="BackgroundImageFix"/>
<feColorMatrix in="SourceAlpha" type="matrix" values="0 0 0 0 0 0 0 0 0 0 0 0 0 0 0 0 0 0 127 0" result="hardAlpha"/>
<feOffset dy="4"/>
<feGaussianBlur stdDeviation="2"/>
<feComposite in2="hardAlpha" operator="out"/>
<feColorMatrix type="matrix" values="0 0 0 0 0 0 0 0 0 0 0 0 0 0 0 0 0 0 0.25 0"/>
<feBlend mode="normal" in2="BackgroundImageFix" result="effect1_dropShadow_26_3465"/>
<feBlend mode="normal" in="SourceGraphic" in2="effect1_dropShadow_26_3465" result="shape"/>
</filter>
<clipPath id="clip0_26_3465">
<rect width="50" height="50" fill="white" transform="translate(4)"/>
</clipPath>
</defs>
</svg>
