<svg width="50" height="50" viewBox="0 0 50 50" fill="none" xmlns="http://www.w3.org/2000/svg">
<g clip-path="url(#clip0_25_3123)">
<path d="M9 47V3L29.5706 3L41 15.0365L41 47H9Z" fill="#3B6F9E" stroke="#3B6F9E" stroke-width="2"/>
<mask id="mask0_25_3123" style="mask-type:alpha" maskUnits="userSpaceOnUse" x="8" y="2" width="34" height="46">
<path d="M9 47V3L29.5706 3L41 15.0365L41 47H9Z" fill="#FBFBFB" stroke="#FBFBFB" stroke-width="2"/>
</mask>
<g mask="url(#mask0_25_3123)">
<rect x="30" width="15" height="14" fill="#FBFBFB"/>
<g opacity="0.2">
<mask id="path-4-inside-1_25_3123" fill="white">
<path d="M40.276 30.8686L35.1472 26.9715L34.66 27.6126L31.4377 25.1641C31.2454 25.018 30.9977 24.9659 30.7629 25.0222L21.6578 27.2051C20.9972 27.3634 20.8175 28.2182 21.3583 28.6292L29.9426 35.1519L15.3282 54.3851C14.7902 55.0932 14.928 56.1035 15.6362 56.6416L16.9184 57.6159C17.6265 58.1539 18.6368 58.0161 19.1749 57.3079L33.7892 38.0747L38.9181 41.9719C39.2722 42.241 39.7773 42.172 40.0463 41.818L44.4306 36.048C44.6997 35.6939 44.6307 35.1888 44.2767 34.9197L39.7889 31.5097L40.276 30.8686Z"/>
</mask>
<path d="M35.1472 26.9715L42.293 17.5671L32.8887 10.4213L25.7428 19.8256L35.1472 26.9715ZM40.276 30.8686L49.6804 38.0145L56.8262 28.6101L47.4219 21.4643L40.276 30.8686ZM34.66 27.6126L27.5142 37.0169L36.9185 44.1627L44.0644 34.7584L34.66 27.6126ZM31.4377 25.1641L38.5836 15.7598L38.5836 15.7598L31.4377 25.1641ZM30.7629 25.0222L33.5165 36.5079L33.5165 36.5079L30.7629 25.0222ZM21.6578 27.2051L18.9042 15.7193L18.9042 15.7193L21.6578 27.2051ZM21.3583 28.6292L14.2125 38.0335H14.2125L21.3583 28.6292ZM29.9426 35.1519L39.3469 42.2977L46.4927 32.8934L37.0884 25.7475L29.9426 35.1519ZM15.3282 54.3851L5.92392 47.2392L15.3282 54.3851ZM15.6362 56.6416L8.49032 66.0459L8.49033 66.0459L15.6362 56.6416ZM16.9184 57.6159L24.0642 48.2115L24.0642 48.2115L16.9184 57.6159ZM19.1749 57.3079L9.77056 50.1621L19.1749 57.3079ZM33.7892 38.0747L40.9351 28.6704L31.5307 21.5245L24.3849 30.9289L33.7892 38.0747ZM38.9181 41.9719L31.7722 51.3762L38.9181 41.9719ZM40.0463 41.818L49.4507 48.9638V48.9638L40.0463 41.818ZM44.4306 36.048L35.0263 28.9021L35.0263 28.9021L44.4306 36.048ZM44.2767 34.9197L51.4225 25.5154V25.5154L44.2767 34.9197ZM39.7889 31.5097L30.3846 24.3638L23.2387 33.7682L32.643 40.914L39.7889 31.5097ZM28.0013 36.3758L33.1302 40.2729L47.4219 21.4643L42.293 17.5671L28.0013 36.3758ZM44.0644 34.7584L44.5515 34.1173L25.7428 19.8256L25.2557 20.4667L44.0644 34.7584ZM41.8059 18.2082L38.5836 15.7598L24.2919 34.5684L27.5142 37.0169L41.8059 18.2082ZM38.5836 15.7598C35.5706 13.4704 31.6891 12.6542 28.0092 13.5364L33.5165 36.5079C30.3063 37.2775 26.9203 36.5656 24.2919 34.5684L38.5836 15.7598ZM28.0093 13.5364L18.9042 15.7193L24.4113 38.6908L33.5165 36.5079L28.0093 13.5364ZM18.9042 15.7193C8.55396 18.2007 5.7379 31.5941 14.2125 38.0335L28.5042 19.2248C35.897 24.8423 33.4404 36.5262 24.4114 38.6908L18.9042 15.7193ZM14.2125 38.0335L22.7967 44.5562L37.0884 25.7475L28.5042 19.2248L14.2125 38.0335ZM20.5382 28.006L5.92392 47.2392L24.7326 61.5309L39.3469 42.2977L20.5382 28.006ZM5.92392 47.2392C1.43928 53.1412 2.58831 61.5613 8.49032 66.0459L22.782 47.2372C27.2677 50.6457 28.141 57.0452 24.7326 61.5309L5.92392 47.2392ZM8.49033 66.0459L9.77254 67.0202L24.0642 48.2115L22.782 47.2372L8.49033 66.0459ZM9.77253 67.0202C15.6745 71.5048 24.0946 70.3558 28.5792 64.4538L9.77056 50.1621C13.179 45.6764 19.5785 44.8031 24.0642 48.2115L9.77253 67.0202ZM28.5792 64.4538L43.1935 45.2206L24.3849 30.9289L9.77056 50.1621L28.5792 64.4538ZM26.6433 47.4791L31.7722 51.3762L46.064 32.5676L40.9351 28.6704L26.6433 47.4791ZM31.7722 51.3762C37.3202 55.5918 45.2351 54.5117 49.4507 48.9638L30.642 34.6721C34.3195 29.8323 41.2241 28.8901 46.064 32.5676L31.7722 51.3762ZM49.4507 48.9638L53.835 43.1938L35.0263 28.9021L30.642 34.6721L49.4507 48.9638ZM53.835 43.1938C58.0505 37.646 56.9705 29.731 51.4225 25.5154L37.1308 44.3241C32.291 40.6465 31.3488 33.7419 35.0263 28.9021L53.835 43.1938ZM51.4225 25.5154L46.9347 22.1054L32.643 40.914L37.1308 44.3241L51.4225 25.5154ZM30.8717 23.7228L30.3846 24.3638L49.1932 38.6556L49.6804 38.0145L30.8717 23.7228Z" fill="white" mask="url(#path-4-inside-1_25_3123)"/>
</g>
</g>
<g clip-path="url(#clip1_25_3123)">
<g clip-path="url(#clip2_25_3123)">
<g clip-path="url(#clip3_25_3123)">
<path d="M25.7506 33.4784H26.2874L27.4549 35.0603L28.6212 33.4784H29.1577L27.7264 35.4178L29.2954 37.5517H28.7589L27.4549 35.7854L26.1515 37.5517H25.6143L27.1826 35.4178L25.7506 33.4784Z" fill="#FBFBFB"/>
<path d="M21.5793 35.5719C21.4941 35.4995 21.4016 35.4435 21.3118 35.402C21.6081 35.2416 21.8025 34.9383 21.8025 34.5866C21.8025 34.3259 21.7062 33.4786 20.4752 33.4786H18.8172V35.2345H18.2648C18.1928 35.3276 18.0304 35.5513 17.9683 35.6432H18.8172V37.5513L20.4752 37.5515C21.3734 37.5515 21.9316 37.0964 21.9316 36.3625C21.9316 36.0418 21.81 35.7691 21.5793 35.5719ZM19.2756 33.9035H20.4752C20.8002 33.9035 21.3438 33.9841 21.3438 34.5508C21.3438 34.9792 21.0269 35.2345 20.4752 35.2345H19.2756V33.9035ZM20.4752 37.1267H19.2756V35.6438H20.4752C20.9302 35.6438 21.4743 35.7691 21.4743 36.3537C21.4743 37.0258 20.8486 37.1267 20.4752 37.1267Z" fill="#FBFBFB"/>
<path d="M24.088 33.3843C22.9413 33.3843 22.1396 34.2595 22.1396 35.5124C22.1396 36.7672 22.9413 37.6418 24.088 37.6418C25.234 37.6418 26.0331 36.7672 26.0331 35.5124C26.0331 34.2595 25.234 33.3843 24.088 33.3843ZM24.088 37.211C23.2143 37.211 22.6023 36.5125 22.6023 35.5124C22.6023 34.5131 23.2143 33.8148 24.088 33.8148C24.9604 33.8148 25.5694 34.5131 25.5694 35.5124C25.5694 36.5125 24.9604 37.211 24.088 37.211Z" fill="#FBFBFB"/>
<path d="M15.586 33.4785H15.0509L16.4822 35.4177L14.9128 37.5513H15.4505L16.7534 35.7855L18.057 37.5513H18.5941L17.0245 35.4177L18.4568 33.4785H17.9201L16.7526 35.0608L15.586 33.4785Z" fill="#FBFBFB"/>
</g>
<g clip-path="url(#clip4_25_3123)">
<path d="M31.245 33.5314C31.2099 33.4843 31.1545 33.4578 31.0967 33.4605C31.0497 33.458 31.004 33.4765 30.9718 33.5116C30.9354 33.5611 30.9119 33.6193 30.9036 33.6807L30.8926 33.7386C30.8876 33.7745 30.8756 33.8089 30.8572 33.8399C30.8431 33.8586 30.8209 33.8691 30.7979 33.868C30.7745 33.8689 30.7523 33.8574 30.7392 33.8376C30.7238 33.811 30.7165 33.7802 30.7184 33.7493C30.7153 33.7113 30.7246 33.6733 30.7446 33.6412C30.7652 33.6172 30.7954 33.6035 30.8266 33.6038V33.4795H30.8256C30.7664 33.4789 30.7099 33.5052 30.6715 33.5512C30.6312 33.6094 30.6118 33.6801 30.6166 33.7513C30.6129 33.8159 30.6304 33.8798 30.6664 33.9331C30.6982 33.976 30.7483 34.0004 30.8009 33.9988C30.8493 34.0004 30.896 33.9808 30.9294 33.945C30.9668 33.8991 30.9909 33.8434 30.9986 33.784L31.0096 33.728C31.015 33.6906 31.027 33.6545 31.0451 33.6215C31.0581 33.6023 31.0799 33.5914 31.1027 33.5925C31.13 33.5911 31.156 33.6039 31.1719 33.6266C31.1897 33.6565 31.1981 33.6912 31.1959 33.726C31.1988 33.7687 31.1884 33.8113 31.1662 33.8476C31.1418 33.8771 31.105 33.8928 31.0674 33.8897H31.0665V34.0159H31.0675C31.1327 34.0191 31.1956 33.9912 31.2381 33.9403C31.3149 33.8162 31.3176 33.6583 31.245 33.5314Z" fill="#FBFBFB"/>
<path d="M30.9031 37.2661C30.9114 37.2047 30.9349 37.1465 30.9713 37.097C31.0036 37.0615 31.0494 37.0421 31.0967 37.0446C31.1545 37.0417 31.21 37.0683 31.245 37.1155C31.3176 37.2423 31.3149 37.4001 31.2381 37.5243C31.1957 37.5752 31.1328 37.6031 31.0676 37.5999H31.0666V37.4744H31.0675C31.1051 37.4775 31.1419 37.4618 31.1663 37.4323C31.1885 37.396 31.1989 37.3534 31.196 37.3107C31.1982 37.2759 31.1898 37.2412 31.172 37.2113C31.1561 37.1887 31.1301 37.1759 31.1027 37.177C31.0799 37.1759 31.0581 37.1867 31.0451 37.206C31.027 37.239 31.0151 37.2751 31.0096 37.3125L30.9986 37.3685C30.9909 37.4279 30.9668 37.4836 30.9294 37.5295C30.896 37.5654 30.8493 37.5849 30.8009 37.5834C30.7483 37.5851 30.6982 37.5606 30.6664 37.5177C30.6304 37.4645 30.6128 37.4005 30.6165 37.3359C30.6116 37.2647 30.631 37.194 30.6714 37.1358C30.7099 37.0898 30.7663 37.0635 30.8255 37.0641H30.8265V37.1891H30.8256C30.7945 37.1889 30.7648 37.2026 30.7442 37.2265C30.7241 37.2587 30.7149 37.2967 30.7179 37.3347C30.7161 37.3656 30.7233 37.3964 30.7387 37.423C30.7518 37.4428 30.774 37.4543 30.7974 37.4533C30.8205 37.4545 30.8426 37.444 30.8567 37.4253C30.8751 37.3943 30.8871 37.3599 30.8921 37.324L30.9031 37.2661Z" fill="#FBFBFB"/>
<path d="M31.2839 35.2035H30.6316V35.0754H31.2839V35.2035Z" fill="#FBFBFB"/>
<path d="M30.6316 34.2729H30.7439L30.7434 34.6376H30.8971V34.3078H31.0049V34.6376H31.1715V34.2729H31.2839V34.7654H30.6316V34.2729Z" fill="#FBFBFB"/>
<path d="M30.6316 36.2959H30.7439L30.7434 36.6606H30.8971V36.3308H31.0049V36.6606H31.1715V36.2959H31.2839V36.7883H30.6316V36.2959Z" fill="#FBFBFB"/>
<path d="M32.4318 37.6005H31.5666L32.6565 36.0654L33.0891 36.6748L32.4318 37.6005Z" fill="#FBFBFB"/>
<path d="M34.4923 33.4801H35.3575L34.3871 34.8467L33.9544 34.2374L34.4923 33.4801Z" fill="#FBFBFB"/>
<path d="M31.686 33.4801H32.5513L35.4769 37.5999H34.6117L31.686 33.4801Z" fill="#FBFBFB"/>
<path fill-rule="evenodd" clip-rule="evenodd" d="M31.283 35.4717V35.6038C31.2589 35.6165 31.232 35.6227 31.2049 35.6218L31.1337 35.6246C31.104 35.6231 31.0749 35.6328 31.0518 35.6519C31.0346 35.674 31.0264 35.702 31.0287 35.7302V35.8936H31.2834V36.0216H30.6311V35.7189C30.6311 35.7044 30.6318 35.69 30.6332 35.6756V35.6893C30.6345 35.6441 30.6475 35.6001 30.6704 35.5615L30.6651 35.5682C30.6697 35.5603 30.6748 35.5526 30.6806 35.5455C30.7136 35.5043 30.7635 35.4814 30.8155 35.4835C30.8856 35.4786 30.9498 35.5238 30.9707 35.5927C30.9783 35.5642 30.9954 35.5394 31.019 35.5224C31.0465 35.5063 31.0777 35.498 31.1094 35.4984L31.2061 35.4928C31.2326 35.4934 31.2587 35.4865 31.2814 35.4725L31.283 35.4717ZM30.7587 35.6459C30.7764 35.6251 30.8025 35.6139 30.8293 35.6155C30.8571 35.6134 30.8842 35.6236 30.9038 35.6439C30.9222 35.667 30.9314 35.6963 30.9296 35.726V35.8938H30.7343V35.7317C30.7324 35.701 30.7411 35.6707 30.7587 35.6459Z" fill="#FBFBFB"/>
</g>
</g>
<g clip-path="url(#clip5_25_3123)">
<path d="M24.2935 30.9397C23.1969 30.8346 22.0867 30.4408 21.133 29.8185C20.3338 29.2974 20.1535 29.0828 20.1535 28.6551C20.1535 27.7959 21.0982 26.2907 22.7147 24.5753C23.6325 23.6008 24.9111 22.4591 25.0493 22.4899C25.3183 22.5499 27.4676 24.6464 28.2724 25.6335C29.5447 27.1938 30.1294 28.4717 29.8323 29.0414C29.6064 29.4744 28.2047 30.3209 27.1751 30.646C26.3263 30.914 25.2116 31.0275 24.2935 30.9397ZM19.0741 27.7618C18.4099 26.7429 18.0744 25.7399 17.9126 24.2892C17.859 23.8102 17.8778 23.5364 18.0339 22.5529C18.2279 21.3286 18.9257 19.9106 19.7645 19.0387C20.1216 18.6681 20.1533 18.6581 20.5888 18.8054C21.1166 18.9841 21.6808 19.3739 22.5561 20.1654L23.0673 20.6277L22.7877 20.9702C21.4925 22.5602 20.1255 24.8154 19.611 26.2101C19.3314 26.9679 19.2188 27.729 19.3396 28.0459C19.4207 28.26 19.3462 28.1802 19.0732 27.7623L19.0741 27.7618ZM30.7308 27.935C30.7965 27.6147 30.7135 27.0267 30.5191 26.4333C30.098 25.1486 28.6901 22.7586 27.3974 21.1335L26.9904 20.6219L27.4309 20.2177C28.0056 19.6899 28.4047 19.3739 28.8356 19.1054C29.1752 18.8936 29.6608 18.7061 29.8697 18.7061C29.9982 18.7061 30.4514 19.1777 30.817 19.6906C31.3836 20.4847 31.8002 21.4493 32.0113 22.452C32.1478 23.1006 32.1592 24.4871 32.0333 25.134C31.9291 25.6648 31.7107 26.3528 31.4989 26.8195C31.3384 27.1691 30.943 27.8483 30.7692 28.0693C30.6799 28.183 30.6799 28.1828 30.7295 27.9376L30.7308 27.935ZM24.411 18.4636C23.8143 18.1608 22.8941 17.8357 22.3858 17.748C22.2078 17.7174 21.9038 17.7 21.7108 17.7099C21.2912 17.7311 21.3099 17.7092 21.9826 17.3914C22.5418 17.1272 23.0084 16.9718 23.6421 16.8388C24.3544 16.6891 25.6937 16.6874 26.3948 16.8351C27.1517 16.9948 28.0434 17.3265 28.5457 17.6359L28.6953 17.7276L28.3528 17.7104C27.6718 17.676 26.6794 17.9511 25.6138 18.4693C25.2925 18.6259 25.0132 18.7506 24.9927 18.7473C24.9724 18.7433 24.7104 18.6158 24.4103 18.4636H24.411Z" fill="#FBFBFB"/>
</g>
</g>
</g>
<defs>
<clipPath id="clip0_25_3123">
<rect width="50" height="50" fill="white"/>
</clipPath>
<clipPath id="clip1_25_3123">
<rect width="26" height="26" fill="white" transform="translate(12 15)"/>
</clipPath>
<clipPath id="clip2_25_3123">
<rect width="41.08" height="9.63605" fill="white" transform="translate(0.560059 30.6)"/>
</clipPath>
<clipPath id="clip3_25_3123">
<rect width="27.2088" height="6.95937" fill="white" transform="translate(14.4312 32.206)"/>
</clipPath>
<clipPath id="clip4_25_3123">
<rect width="9.568" height="4.3056" fill="white" transform="translate(30.616 33.3872)"/>
</clipPath>
<clipPath id="clip5_25_3123">
<rect width="14.56" height="14.56" fill="white" transform="translate(17.72 16.56)"/>
</clipPath>
</defs>
</svg>
