<svg width="58" height="58" viewBox="0 0 58 58" fill="none" xmlns="http://www.w3.org/2000/svg">
<g clip-path="url(#clip0_26_3489)" filter="url(#filter0_d_26_3489)">
<g filter="url(#filter1_d_26_3489)">
<path d="M13 47V3L33.5706 3L45 15.0365L45 47H13Z" fill="url(#paint0_linear_26_3489)" style="mix-blend-mode:lighten"/>
<path d="M13 47V3L33.5706 3L45 15.0365L45 47H13Z" stroke="url(#paint1_linear_26_3489)" stroke-width="2" style="mix-blend-mode:lighten"/>
<mask id="mask0_26_3489" style="mask-type:alpha" maskUnits="userSpaceOnUse" x="12" y="2" width="34" height="46">
<path d="M13 47V3L33.5706 3L45 15.0365L45 47H13Z" fill="#FBFBFB" stroke="#FBFBFB" stroke-width="2"/>
</mask>
<g mask="url(#mask0_26_3489)">
<rect x="34" width="15" height="14" fill="#FBFBFB"/>
</g>
</g>
<path d="M20.6369 21.368C20.6369 21.3213 20.6509 21.284 20.6789 21.256C20.7162 21.2187 20.7582 21.2 20.8049 21.2H22.0929C22.1395 21.2 22.1769 21.2187 22.2049 21.256C22.2422 21.284 22.2609 21.3213 22.2609 21.368V30.832C22.2609 30.8787 22.2422 30.9207 22.2049 30.958C22.1769 30.986 22.1395 31 22.0929 31H20.8049C20.7582 31 20.7162 30.986 20.6789 30.958C20.6509 30.9207 20.6369 30.8787 20.6369 30.832V26.87C20.6369 26.8233 20.6135 26.8 20.5669 26.8H18.7889C18.7422 26.8 18.7189 26.8233 18.7189 26.87V30.832C18.7189 30.8787 18.7002 30.9207 18.6629 30.958C18.6349 30.986 18.5975 31 18.5509 31H17.2629C17.2162 31 17.1742 30.986 17.1369 30.958C17.1089 30.9207 17.0949 30.8787 17.0949 30.832V21.368C17.0949 21.3213 17.1089 21.284 17.1369 21.256C17.1742 21.2187 17.2162 21.2 17.2629 21.2H18.5509C18.5975 21.2 18.6349 21.2187 18.6629 21.256C18.7002 21.284 18.7189 21.3213 18.7189 21.368V25.316C18.7189 25.3627 18.7422 25.386 18.7889 25.386H20.5669C20.6135 25.386 20.6369 25.3627 20.6369 25.316V21.368ZM23.9347 31C23.8881 31 23.8461 30.986 23.8087 30.958C23.7807 30.9207 23.7667 30.8787 23.7667 30.832V21.368C23.7667 21.3213 23.7807 21.284 23.8087 21.256C23.8461 21.2187 23.8881 21.2 23.9347 21.2H25.2227C25.2694 21.2 25.3067 21.2187 25.3347 21.256C25.3721 21.284 25.3907 21.3213 25.3907 21.368V29.53C25.3907 29.5767 25.4141 29.6 25.4607 29.6H28.4847C28.5314 29.6 28.5687 29.6187 28.5967 29.656C28.6341 29.684 28.6527 29.7213 28.6527 29.768V30.832C28.6527 30.8787 28.6341 30.9207 28.5967 30.958C28.5687 30.986 28.5314 31 28.4847 31H23.9347ZM31.8463 31.112C31.0716 31.112 30.4463 30.8787 29.9703 30.412C29.4943 29.9453 29.2563 29.334 29.2563 28.578V28.214C29.2563 28.1673 29.2703 28.13 29.2983 28.102C29.3356 28.0647 29.3776 28.046 29.4243 28.046H30.6983C30.7449 28.046 30.7823 28.0647 30.8103 28.102C30.8476 28.13 30.8663 28.1673 30.8663 28.214V28.494C30.8663 28.858 30.9549 29.152 31.1323 29.376C31.3189 29.6 31.5569 29.712 31.8463 29.712C32.1356 29.712 32.3736 29.6093 32.5603 29.404C32.7469 29.1893 32.8403 28.9093 32.8403 28.564C32.8403 28.3213 32.7889 28.1113 32.6863 27.934C32.5836 27.7567 32.4389 27.5887 32.2523 27.43C32.0656 27.2713 31.7669 27.0427 31.3563 26.744C30.8896 26.408 30.5116 26.1093 30.2223 25.848C29.9423 25.5867 29.7043 25.274 29.5083 24.91C29.3216 24.5367 29.2283 24.1073 29.2283 23.622C29.2283 22.8473 29.4616 22.2313 29.9283 21.774C30.3949 21.3167 31.0109 21.088 31.7763 21.088C32.5509 21.088 33.1763 21.3307 33.6523 21.816C34.1283 22.292 34.3663 22.9267 34.3663 23.72V24.056C34.3663 24.1027 34.3476 24.1447 34.3103 24.182C34.2823 24.21 34.2449 24.224 34.1983 24.224H32.9383C32.8916 24.224 32.8496 24.21 32.8123 24.182C32.7843 24.1447 32.7703 24.1027 32.7703 24.056V23.692C32.7703 23.328 32.6769 23.0387 32.4903 22.824C32.3129 22.6 32.0749 22.488 31.7763 22.488C31.4963 22.488 31.2676 22.5907 31.0903 22.796C30.9129 22.992 30.8243 23.2673 30.8243 23.622C30.8243 23.958 30.9176 24.2427 31.1043 24.476C31.3003 24.7093 31.6783 25.0313 32.2383 25.442C32.8076 25.862 33.2369 26.2073 33.5263 26.478C33.8156 26.7393 34.0396 27.0287 34.1983 27.346C34.3569 27.6633 34.4363 28.0413 34.4363 28.48C34.4363 29.2733 34.1983 29.9127 33.7223 30.398C33.2463 30.874 32.6209 31.112 31.8463 31.112ZM35.7746 31C35.7279 31 35.6859 30.986 35.6486 30.958C35.6206 30.9207 35.6066 30.8787 35.6066 30.832V21.368C35.6066 21.3213 35.6206 21.284 35.6486 21.256C35.6859 21.2187 35.7279 21.2 35.7746 21.2H37.0626C37.1093 21.2 37.1466 21.2187 37.1746 21.256C37.2119 21.284 37.2306 21.3213 37.2306 21.368V29.53C37.2306 29.5767 37.2539 29.6 37.3006 29.6H40.3246C40.3713 29.6 40.4086 29.6187 40.4366 29.656C40.4739 29.684 40.4926 29.7213 40.4926 29.768V30.832C40.4926 30.8787 40.4739 30.9207 40.4366 30.958C40.4086 30.986 40.3713 31 40.3246 31H35.7746Z" fill="#3B6F9E"/>
</g>
<defs>
<filter id="filter0_d_26_3489" x="0" y="0" width="58" height="58" filterUnits="userSpaceOnUse" color-interpolation-filters="sRGB">
<feFlood flood-opacity="0" result="BackgroundImageFix"/>
<feColorMatrix in="SourceAlpha" type="matrix" values="0 0 0 0 0 0 0 0 0 0 0 0 0 0 0 0 0 0 127 0" result="hardAlpha"/>
<feOffset dy="4"/>
<feGaussianBlur stdDeviation="2"/>
<feComposite in2="hardAlpha" operator="out"/>
<feColorMatrix type="matrix" values="0 0 0 0 0 0 0 0 0 0 0 0 0 0 0 0 0 0 0.25 0"/>
<feBlend mode="normal" in2="BackgroundImageFix" result="effect1_dropShadow_26_3489"/>
<feBlend mode="normal" in="SourceGraphic" in2="effect1_dropShadow_26_3489" result="shape"/>
</filter>
<filter id="filter1_d_26_3489" x="0" y="0" width="58" height="58" filterUnits="userSpaceOnUse" color-interpolation-filters="sRGB">
<feFlood flood-opacity="0" result="BackgroundImageFix"/>
<feColorMatrix in="SourceAlpha" type="matrix" values="0 0 0 0 0 0 0 0 0 0 0 0 0 0 0 0 0 0 127 0" result="hardAlpha"/>
<feOffset dy="4"/>
<feGaussianBlur stdDeviation="2"/>
<feComposite in2="hardAlpha" operator="out"/>
<feColorMatrix type="matrix" values="0 0 0 0 0 0 0 0 0 0 0 0 0 0 0 0 0 0 0.25 0"/>
<feBlend mode="normal" in2="BackgroundImageFix" result="effect1_dropShadow_26_3489"/>
<feBlend mode="normal" in="SourceGraphic" in2="effect1_dropShadow_26_3489" result="shape"/>
</filter>
<linearGradient id="paint0_linear_26_3489" x1="29" y1="2" x2="29" y2="48" gradientUnits="userSpaceOnUse">
<stop stop-color="#87F58B"/>
<stop offset="0.334" stop-color="#E3EE65"/>
<stop offset="0.704" stop-color="#F77F7F"/>
<stop offset="1" stop-color="#BF2DB9"/>
</linearGradient>
<linearGradient id="paint1_linear_26_3489" x1="29" y1="2" x2="29" y2="48" gradientUnits="userSpaceOnUse">
<stop stop-color="#87F58B"/>
<stop offset="0.334" stop-color="#E3EE65"/>
<stop offset="0.704" stop-color="#F77F7F"/>
<stop offset="1" stop-color="#BF2DB9"/>
</linearGradient>
<clipPath id="clip0_26_3489">
<rect width="50" height="50" fill="white" transform="translate(4)"/>
</clipPath>
</defs>
</svg>
