<svg width="50" height="50" viewBox="0 0 50 50" fill="none" xmlns="http://www.w3.org/2000/svg">
<g clip-path="url(#clip0_26_3468)">
<path d="M9 47V3L29.5706 3L41 15.0365L41 47H9Z" fill="#FBFBFB" stroke="#FBFBFB" stroke-width="2"/>
<mask id="mask0_26_3468" style="mask-type:alpha" maskUnits="userSpaceOnUse" x="8" y="2" width="34" height="46">
<path d="M9 47V3L29.5706 3L41 15.0365L41 47H9Z" fill="#FBFBFB" stroke="#FBFBFB" stroke-width="2"/>
</mask>
<g mask="url(#mask0_26_3468)">
<rect x="30" width="15" height="14" fill="#D9D9D9"/>
<path opacity="0.5" d="M27.289 58.704C26.1797 58.704 25.3263 58.4267 24.729 57.872C24.153 57.3173 23.865 56.528 23.865 55.504C23.865 55.3333 23.8863 55.0773 23.929 54.736L24.729 48.112C24.7717 47.728 24.793 47.472 24.793 47.344C24.793 46.0853 24.3023 45.392 23.321 45.264C23.065 45.2427 22.9583 45.104 23.001 44.848L23.353 42.064C23.353 41.9573 23.385 41.872 23.449 41.808C23.5343 41.7227 23.6303 41.6693 23.737 41.648C24.953 41.4987 25.6677 40.56 25.881 38.832L26.681 32.336C26.8303 31.0987 27.2783 30.1387 28.025 29.456C28.793 28.752 29.785 28.4 31.001 28.4H33.593C33.6997 28.4 33.785 28.4427 33.849 28.528C33.913 28.592 33.9343 28.6773 33.913 28.784L33.529 31.888C33.5077 31.9947 33.4543 32.0907 33.369 32.176C33.305 32.24 33.2197 32.272 33.113 32.272H32.537C32.1103 32.272 31.737 32.464 31.417 32.848C31.097 33.2107 30.8943 33.6907 30.809 34.288L30.169 39.44C29.9557 41.4453 29.2197 42.7467 27.961 43.344C27.8757 43.408 27.8757 43.472 27.961 43.536C28.8143 44.048 29.241 45.008 29.241 46.416C29.241 46.8853 29.2197 47.248 29.177 47.504L28.537 52.784C28.5157 52.8693 28.505 53.008 28.505 53.2C28.505 53.6907 28.6223 54.0747 28.857 54.352C29.0917 54.6507 29.401 54.8 29.785 54.8H30.329C30.5637 54.8 30.681 54.928 30.681 55.184L30.297 58.32C30.2757 58.4267 30.2223 58.512 30.137 58.576C30.0517 58.6613 29.9557 58.704 29.849 58.704H27.289ZM32.3445 58.704C32.2378 58.704 32.1525 58.6613 32.0885 58.576C32.0245 58.512 32.0032 58.4267 32.0245 58.32L32.4085 55.184C32.4298 55.0773 32.4725 54.9813 32.5365 54.896C32.6218 54.832 32.7178 54.8 32.8245 54.8H33.4005C33.8272 54.8 34.2005 54.608 34.5205 54.224C34.8618 53.8613 35.0752 53.3813 35.1605 52.784L35.8005 47.504C36.0565 45.4773 36.7925 44.1547 38.0085 43.536C38.0938 43.472 38.0938 43.408 38.0085 43.344C37.1552 42.8747 36.7285 41.936 36.7285 40.528C36.7285 40.0587 36.7498 39.696 36.7925 39.44L37.4325 34.288C37.4538 34.2027 37.4645 34.0747 37.4645 33.904C37.4645 33.4133 37.3365 33.0187 37.0805 32.72C36.8458 32.4213 36.5365 32.272 36.1525 32.272H35.6085C35.5018 32.272 35.4165 32.24 35.3525 32.176C35.2885 32.0907 35.2672 31.9947 35.2885 31.888L35.6725 28.784C35.6725 28.6773 35.7152 28.592 35.8005 28.528C35.8858 28.4427 35.9818 28.4 36.0885 28.4H38.6805C39.7685 28.4 40.6112 28.6773 41.2085 29.232C41.8058 29.7867 42.1045 30.576 42.1045 31.6C42.1045 31.7493 42.0832 31.9947 42.0405 32.336L41.2405 38.832C41.2192 39.0027 41.2085 39.2373 41.2085 39.536C41.2085 40.816 41.6885 41.52 42.6485 41.648C42.9045 41.6693 43.0112 41.808 42.9685 42.064L42.6165 44.848C42.5738 45.104 42.4352 45.2427 42.2005 45.264C41.0058 45.4347 40.3125 46.384 40.1205 48.112L39.2885 54.736C39.1392 55.9947 38.6805 56.9653 37.9125 57.648C37.1658 58.352 36.1845 58.704 34.9685 58.704H32.3445Z" fill="#D9D9D9"/>
</g>
<path d="M15.769 34.16C14.689 34.16 13.8157 33.8333 13.149 33.18C12.4957 32.5133 12.169 31.6333 12.169 30.54V23.44C12.169 22.3467 12.4957 21.4733 13.149 20.82C13.8157 20.1667 14.689 19.84 15.769 19.84C16.8623 19.84 17.7357 20.1667 18.389 20.82C19.0557 21.4733 19.389 22.3467 19.389 23.44V23.76C19.389 23.8933 19.3223 23.96 19.189 23.96L17.669 24.04C17.5357 24.04 17.469 23.9733 17.469 23.84V23.32C17.469 22.7733 17.309 22.3333 16.989 22C16.6823 21.6667 16.2757 21.5 15.769 21.5C15.2623 21.5 14.8557 21.6667 14.549 22C14.2423 22.3333 14.089 22.7733 14.089 23.32V30.68C14.089 31.2267 14.2423 31.6667 14.549 32C14.8557 32.3333 15.2623 32.5 15.769 32.5C16.2757 32.5 16.6823 32.3333 16.989 32C17.309 31.6667 17.469 31.2267 17.469 30.68V30.16C17.469 30.0267 17.5357 29.96 17.669 29.96L19.189 30.04C19.3223 30.04 19.389 30.1067 19.389 30.24V30.54C19.389 31.6333 19.0557 32.5133 18.389 33.18C17.7357 33.8333 16.8623 34.16 15.769 34.16ZM28.312 26.72C28.3786 26.72 28.432 26.7467 28.472 26.8C28.5253 26.84 28.552 26.8933 28.552 26.96V28.6C28.552 28.6667 28.5253 28.7267 28.472 28.78C28.432 28.82 28.3786 28.84 28.312 28.84H25.792C25.7253 28.84 25.692 28.8733 25.692 28.94V31.44C25.692 31.5067 25.6653 31.5667 25.612 31.62C25.572 31.66 25.5186 31.68 25.452 31.68H23.812C23.7453 31.68 23.6853 31.66 23.632 31.62C23.592 31.5667 23.572 31.5067 23.572 31.44V28.94C23.572 28.8733 23.5386 28.84 23.472 28.84H20.972C20.9053 28.84 20.8453 28.82 20.792 28.78C20.752 28.7267 20.732 28.6667 20.732 28.6V26.96C20.732 26.8933 20.752 26.84 20.792 26.8C20.8453 26.7467 20.9053 26.72 20.972 26.72H23.472C23.5386 26.72 23.572 26.6867 23.572 26.62V24.1C23.572 24.0333 23.592 23.98 23.632 23.94C23.6853 23.8867 23.7453 23.86 23.812 23.86H25.452C25.5186 23.86 25.572 23.8867 25.612 23.94C25.6653 23.98 25.692 24.0333 25.692 24.1V26.62C25.692 26.6867 25.7253 26.72 25.792 26.72H28.312ZM37.0815 26.72C37.1482 26.72 37.2015 26.7467 37.2415 26.8C37.2948 26.84 37.3215 26.8933 37.3215 26.96V28.6C37.3215 28.6667 37.2948 28.7267 37.2415 28.78C37.2015 28.82 37.1482 28.84 37.0815 28.84H34.5615C34.4948 28.84 34.4615 28.8733 34.4615 28.94V31.44C34.4615 31.5067 34.4348 31.5667 34.3815 31.62C34.3415 31.66 34.2882 31.68 34.2215 31.68H32.5815C32.5148 31.68 32.4548 31.66 32.4015 31.62C32.3615 31.5667 32.3415 31.5067 32.3415 31.44V28.94C32.3415 28.8733 32.3082 28.84 32.2415 28.84H29.7415C29.6748 28.84 29.6148 28.82 29.5615 28.78C29.5215 28.7267 29.5015 28.6667 29.5015 28.6V26.96C29.5015 26.8933 29.5215 26.84 29.5615 26.8C29.6148 26.7467 29.6748 26.72 29.7415 26.72H32.2415C32.3082 26.72 32.3415 26.6867 32.3415 26.62V24.1C32.3415 24.0333 32.3615 23.98 32.4015 23.94C32.4548 23.8867 32.5148 23.86 32.5815 23.86H34.2215C34.2882 23.86 34.3415 23.8867 34.3815 23.94C34.4348 23.98 34.4615 24.0333 34.4615 24.1V26.62C34.4615 26.6867 34.4948 26.72 34.5615 26.72H37.0815Z" fill="#9747FF"/>
</g>
<defs>
<clipPath id="clip0_26_3468">
<rect width="50" height="50" fill="white"/>
</clipPath>
</defs>
</svg>
