<svg width="50" height="50" viewBox="0 0 50 50" fill="none" xmlns="http://www.w3.org/2000/svg">
<g clip-path="url(#clip0_26_3465)">
<path d="M9 47V3L29.5706 3L41 15.0365L41 47H9Z" fill="#FBFBFB" stroke="#FBFBFB" stroke-width="2"/>
<mask id="mask0_26_3465" style="mask-type:alpha" maskUnits="userSpaceOnUse" x="8" y="2" width="34" height="46">
<path d="M9 47V3L29.5706 3L41 15.0365L41 47H9Z" fill="#FBFBFB" stroke="#FBFBFB" stroke-width="2"/>
</mask>
<g mask="url(#mask0_26_3465)">
<rect x="30" width="15" height="14" fill="#D9D9D9"/>
<path opacity="0.5" d="M27.289 58.704C26.1797 58.704 25.3263 58.4267 24.729 57.872C24.153 57.3173 23.865 56.528 23.865 55.504C23.865 55.3333 23.8863 55.0773 23.929 54.736L24.729 48.112C24.7717 47.728 24.793 47.472 24.793 47.344C24.793 46.0853 24.3023 45.392 23.321 45.264C23.065 45.2427 22.9583 45.104 23.001 44.848L23.353 42.064C23.353 41.9573 23.385 41.872 23.449 41.808C23.5343 41.7227 23.6303 41.6693 23.737 41.648C24.953 41.4987 25.6677 40.56 25.881 38.832L26.681 32.336C26.8303 31.0987 27.2783 30.1387 28.025 29.456C28.793 28.752 29.785 28.4 31.001 28.4H33.593C33.6997 28.4 33.785 28.4427 33.849 28.528C33.913 28.592 33.9343 28.6773 33.913 28.784L33.529 31.888C33.5077 31.9947 33.4543 32.0907 33.369 32.176C33.305 32.24 33.2197 32.272 33.113 32.272H32.537C32.1103 32.272 31.737 32.464 31.417 32.848C31.097 33.2107 30.8943 33.6907 30.809 34.288L30.169 39.44C29.9557 41.4453 29.2197 42.7467 27.961 43.344C27.8757 43.408 27.8757 43.472 27.961 43.536C28.8143 44.048 29.241 45.008 29.241 46.416C29.241 46.8853 29.2197 47.248 29.177 47.504L28.537 52.784C28.5157 52.8693 28.505 53.008 28.505 53.2C28.505 53.6907 28.6223 54.0747 28.857 54.352C29.0917 54.6507 29.401 54.8 29.785 54.8H30.329C30.5637 54.8 30.681 54.928 30.681 55.184L30.297 58.32C30.2757 58.4267 30.2223 58.512 30.137 58.576C30.0517 58.6613 29.9557 58.704 29.849 58.704H27.289ZM32.3445 58.704C32.2378 58.704 32.1525 58.6613 32.0885 58.576C32.0245 58.512 32.0032 58.4267 32.0245 58.32L32.4085 55.184C32.4298 55.0773 32.4725 54.9813 32.5365 54.896C32.6218 54.832 32.7178 54.8 32.8245 54.8H33.4005C33.8272 54.8 34.2005 54.608 34.5205 54.224C34.8618 53.8613 35.0752 53.3813 35.1605 52.784L35.8005 47.504C36.0565 45.4773 36.7925 44.1547 38.0085 43.536C38.0938 43.472 38.0938 43.408 38.0085 43.344C37.1552 42.8747 36.7285 41.936 36.7285 40.528C36.7285 40.0587 36.7498 39.696 36.7925 39.44L37.4325 34.288C37.4538 34.2027 37.4645 34.0747 37.4645 33.904C37.4645 33.4133 37.3365 33.0187 37.0805 32.72C36.8458 32.4213 36.5365 32.272 36.1525 32.272H35.6085C35.5018 32.272 35.4165 32.24 35.3525 32.176C35.2885 32.0907 35.2672 31.9947 35.2885 31.888L35.6725 28.784C35.6725 28.6773 35.7152 28.592 35.8005 28.528C35.8858 28.4427 35.9818 28.4 36.0885 28.4H38.6805C39.7685 28.4 40.6112 28.6773 41.2085 29.232C41.8058 29.7867 42.1045 30.576 42.1045 31.6C42.1045 31.7493 42.0832 31.9947 42.0405 32.336L41.2405 38.832C41.2192 39.0027 41.2085 39.2373 41.2085 39.536C41.2085 40.816 41.6885 41.52 42.6485 41.648C42.9045 41.6693 43.0112 41.808 42.9685 42.064L42.6165 44.848C42.5738 45.104 42.4352 45.2427 42.2005 45.264C41.0058 45.4347 40.3125 46.384 40.1205 48.112L39.2885 54.736C39.1392 55.9947 38.6805 56.9653 37.9125 57.648C37.1658 58.352 36.1845 58.704 34.9685 58.704H32.3445Z" fill="#D9D9D9"/>
</g>
<path d="M18.5522 34.16C17.4722 34.16 16.5989 33.8333 15.9322 33.18C15.2789 32.5133 14.9522 31.6333 14.9522 30.54V23.44C14.9522 22.3467 15.2789 21.4733 15.9322 20.82C16.5989 20.1667 17.4722 19.84 18.5522 19.84C19.6455 19.84 20.5189 20.1667 21.1722 20.82C21.8389 21.4733 22.1722 22.3467 22.1722 23.44V23.76C22.1722 23.8933 22.1055 23.96 21.9722 23.96L20.4522 24.04C20.3189 24.04 20.2522 23.9733 20.2522 23.84V23.32C20.2522 22.7733 20.0922 22.3333 19.7722 22C19.4655 21.6667 19.0589 21.5 18.5522 21.5C18.0455 21.5 17.6389 21.6667 17.3322 22C17.0255 22.3333 16.8722 22.7733 16.8722 23.32V30.68C16.8722 31.2267 17.0255 31.6667 17.3322 32C17.6389 32.3333 18.0455 32.5 18.5522 32.5C19.0589 32.5 19.4655 32.3333 19.7722 32C20.0922 31.6667 20.2522 31.2267 20.2522 30.68V30.16C20.2522 30.0267 20.3189 29.96 20.4522 29.96L21.9722 30.04C22.1055 30.04 22.1722 30.1067 22.1722 30.24V30.54C22.1722 31.6333 21.8389 32.5133 21.1722 33.18C20.5189 33.8333 19.6455 34.16 18.5522 34.16ZM34.0552 25.4C34.0552 25.5333 33.9885 25.6 33.8552 25.6H32.5752C32.5085 25.6 32.4752 25.6267 32.4752 25.68L32.0952 28.44C32.0952 28.4933 32.1152 28.52 32.1552 28.52H33.1952C33.3285 28.52 33.3952 28.5867 33.3952 28.72V29.98C33.3952 30.1133 33.3285 30.18 33.1952 30.18H31.8952C31.8285 30.18 31.7952 30.2067 31.7952 30.26L31.3352 33.42C31.3218 33.54 31.2552 33.6 31.1352 33.6L29.6152 33.58C29.5618 33.58 29.5152 33.56 29.4752 33.52C29.4352 33.48 29.4218 33.4267 29.4352 33.36L29.8752 30.26C29.8752 30.2067 29.8552 30.18 29.8152 30.18H27.3352C27.2685 30.18 27.2352 30.2067 27.2352 30.26L26.7752 33.42C26.7618 33.54 26.6952 33.6 26.5752 33.6L25.0552 33.58C25.0018 33.58 24.9552 33.56 24.9152 33.52C24.8752 33.48 24.8618 33.4267 24.8752 33.36L25.3152 30.26C25.3152 30.2067 25.2952 30.18 25.2552 30.18H24.1952C24.0618 30.18 23.9952 30.1133 23.9952 29.98V28.72C23.9952 28.5867 24.0618 28.52 24.1952 28.52H25.5152C25.5818 28.52 25.6152 28.4933 25.6152 28.44L25.9952 25.68C25.9952 25.6267 25.9752 25.6 25.9352 25.6H24.8552C24.7218 25.6 24.6552 25.5333 24.6552 25.4V24.12C24.6552 23.9867 24.7218 23.92 24.8552 23.92H26.1952C26.2618 23.92 26.2952 23.8933 26.2952 23.84L26.7552 20.68C26.7685 20.56 26.8352 20.5 26.9552 20.5L28.4752 20.52C28.5285 20.52 28.5752 20.54 28.6152 20.58C28.6552 20.62 28.6685 20.6733 28.6552 20.74L28.2152 23.84C28.2152 23.8933 28.2352 23.92 28.2752 23.92H30.7552C30.8218 23.92 30.8552 23.8933 30.8552 23.84L31.3152 20.68C31.3285 20.56 31.3952 20.5 31.5152 20.5L33.0352 20.52C33.0885 20.52 33.1352 20.54 33.1752 20.58C33.2152 20.62 33.2285 20.6733 33.2152 20.74L32.7752 23.84C32.7752 23.8933 32.7952 23.92 32.8352 23.92H33.8552C33.9885 23.92 34.0552 23.9867 34.0552 24.12V25.4ZM30.0752 28.52C30.1418 28.52 30.1752 28.4933 30.1752 28.44L30.5552 25.68C30.5552 25.6267 30.5352 25.6 30.4952 25.6H28.0152C27.9485 25.6 27.9152 25.6267 27.9152 25.68L27.5352 28.44C27.5352 28.4933 27.5552 28.52 27.5952 28.52H30.0752Z" fill="#0FA715"/>
</g>
<defs>
<clipPath id="clip0_26_3465">
<rect width="50" height="50" fill="white"/>
</clipPath>
</defs>
</svg>
