<svg width="58" height="58" viewBox="0 0 58 58" fill="none" xmlns="http://www.w3.org/2000/svg">
<g clip-path="url(#clip0_25_2781)" filter="url(#filter0_d_25_2781)">
<g filter="url(#filter1_d_25_2781)">
<path d="M13 47V3L33.5706 3L45 15.0365L45 47H13Z" fill="#3B6F9E" stroke="#3B6F9E" stroke-width="2"/>
<mask id="mask0_25_2781" style="mask-type:alpha" maskUnits="userSpaceOnUse" x="12" y="2" width="34" height="46">
<path d="M13 47V3L33.5706 3L45 15.0365L45 47H13Z" fill="#FBFBFB" stroke="#FBFBFB" stroke-width="2"/>
</mask>
<g mask="url(#mask0_25_2781)">
<rect x="34" width="15" height="14" fill="#FBFBFB"/>
<g opacity="0.2">
<mask id="path-4-inside-1_25_2781" fill="white">
<path d="M44.276 30.8686L39.1472 26.9715L38.66 27.6126L35.4377 25.1641C35.2454 25.018 34.9977 24.9659 34.7629 25.0222L25.6578 27.2051C24.9972 27.3634 24.8175 28.2182 25.3583 28.6292L33.9426 35.1519L19.3282 54.3851C18.7902 55.0932 18.928 56.1035 19.6362 56.6416L20.9184 57.6159C21.6265 58.1539 22.6368 58.0161 23.1749 57.3079L37.7892 38.0747L42.9181 41.9719C43.2722 42.241 43.7773 42.172 44.0463 41.818L48.4306 36.048C48.6997 35.6939 48.6307 35.1888 48.2767 34.9197L43.7889 31.5097L44.276 30.8686Z"/>
</mask>
<path d="M39.1472 26.9715L46.293 17.5671L36.8887 10.4213L29.7428 19.8256L39.1472 26.9715ZM44.276 30.8686L53.6804 38.0145L60.8262 28.6101L51.4219 21.4643L44.276 30.8686ZM38.66 27.6126L31.5142 37.0169L40.9185 44.1627L48.0644 34.7584L38.66 27.6126ZM35.4377 25.1641L42.5836 15.7598L42.5836 15.7598L35.4377 25.1641ZM34.7629 25.0222L37.5165 36.5079L37.5165 36.5079L34.7629 25.0222ZM25.6578 27.2051L22.9042 15.7193L22.9042 15.7193L25.6578 27.2051ZM25.3583 28.6292L18.2125 38.0335H18.2125L25.3583 28.6292ZM33.9426 35.1519L43.3469 42.2977L50.4927 32.8934L41.0884 25.7475L33.9426 35.1519ZM19.3282 54.3851L9.92392 47.2392L19.3282 54.3851ZM19.6362 56.6416L12.4903 66.0459L12.4903 66.0459L19.6362 56.6416ZM20.9184 57.6159L28.0642 48.2115L28.0642 48.2115L20.9184 57.6159ZM23.1749 57.3079L13.7706 50.1621L23.1749 57.3079ZM37.7892 38.0747L44.9351 28.6704L35.5307 21.5245L28.3849 30.9289L37.7892 38.0747ZM42.9181 41.9719L35.7722 51.3762L42.9181 41.9719ZM44.0463 41.818L53.4507 48.9638V48.9638L44.0463 41.818ZM48.4306 36.048L39.0263 28.9021L39.0263 28.9021L48.4306 36.048ZM48.2767 34.9197L55.4225 25.5154V25.5154L48.2767 34.9197ZM43.7889 31.5097L34.3846 24.3638L27.2387 33.7682L36.643 40.914L43.7889 31.5097ZM32.0013 36.3758L37.1302 40.2729L51.4219 21.4643L46.293 17.5671L32.0013 36.3758ZM48.0644 34.7584L48.5515 34.1173L29.7428 19.8256L29.2557 20.4667L48.0644 34.7584ZM45.8059 18.2082L42.5836 15.7598L28.2919 34.5684L31.5142 37.0169L45.8059 18.2082ZM42.5836 15.7598C39.5706 13.4704 35.6891 12.6542 32.0092 13.5364L37.5165 36.5079C34.3063 37.2775 30.9203 36.5656 28.2919 34.5684L42.5836 15.7598ZM32.0093 13.5364L22.9042 15.7193L28.4113 38.6908L37.5165 36.5079L32.0093 13.5364ZM22.9042 15.7193C12.554 18.2007 9.7379 31.5941 18.2125 38.0335L32.5042 19.2248C39.897 24.8423 37.4404 36.5262 28.4114 38.6908L22.9042 15.7193ZM18.2125 38.0335L26.7967 44.5562L41.0884 25.7475L32.5042 19.2248L18.2125 38.0335ZM24.5382 28.006L9.92392 47.2392L28.7326 61.5309L43.3469 42.2977L24.5382 28.006ZM9.92392 47.2392C5.43928 53.1412 6.58831 61.5613 12.4903 66.0459L26.782 47.2372C31.2677 50.6457 32.141 57.0452 28.7326 61.5309L9.92392 47.2392ZM12.4903 66.0459L13.7725 67.0202L28.0642 48.2115L26.782 47.2372L12.4903 66.0459ZM13.7725 67.0202C19.6745 71.5048 28.0946 70.3558 32.5792 64.4538L13.7706 50.1621C17.179 45.6764 23.5785 44.8031 28.0642 48.2115L13.7725 67.0202ZM32.5792 64.4538L47.1935 45.2206L28.3849 30.9289L13.7706 50.1621L32.5792 64.4538ZM30.6433 47.4791L35.7722 51.3762L50.064 32.5676L44.9351 28.6704L30.6433 47.4791ZM35.7722 51.3762C41.3202 55.5918 49.2351 54.5117 53.4507 48.9638L34.642 34.6721C38.3195 29.8323 45.2241 28.8901 50.064 32.5676L35.7722 51.3762ZM53.4507 48.9638L57.835 43.1938L39.0263 28.9021L34.642 34.6721L53.4507 48.9638ZM57.835 43.1938C62.0505 37.646 60.9705 29.731 55.4225 25.5154L41.1308 44.3241C36.291 40.6465 35.3488 33.7419 39.0263 28.9021L57.835 43.1938ZM55.4225 25.5154L50.9347 22.1054L36.643 40.914L41.1308 44.3241L55.4225 25.5154ZM34.8717 23.7228L34.3846 24.3638L53.1932 38.6556L53.6804 38.0145L34.8717 23.7228Z" fill="white" mask="url(#path-4-inside-1_25_2781)"/>
</g>
</g>
</g>
<g clip-path="url(#clip1_25_2781)" filter="url(#filter2_d_25_2781)">
<g clip-path="url(#clip2_25_2781)">
<path d="M38.6188 36.8209L36.1507 33.476L35.7461 33.4752V37.5448H36.1999V34.2763L38.6184 37.5475L39.0733 37.5478V33.4785H38.6188V36.8209Z" fill="#FBFBFB"/>
<path d="M33.3865 33.384C32.2393 33.384 31.4375 34.2592 31.4375 35.5121C31.4375 36.767 32.2393 37.642 33.3865 37.642C34.5325 37.642 35.3316 36.767 35.3316 35.5121C35.3316 34.2592 34.5325 33.384 33.3865 33.384ZM33.3865 37.2109C32.5127 37.2109 31.9001 36.5123 31.9001 35.5121C31.9001 34.5128 32.5127 33.8142 33.3865 33.8142C34.259 33.8142 34.8678 34.5128 34.8678 35.5121C34.8678 36.5123 34.259 37.2109 33.3865 37.2109Z" fill="#FBFBFB"/>
<path d="M40.0414 33.8739H42.4399V33.4758H39.5837V37.5482H42.468V37.1499H40.0414V35.644H42.2872V35.2456H40.0414V33.8739Z" fill="#FBFBFB"/>
<path d="M27.1505 33.4784H27.6873L28.8548 35.0603L30.0211 33.4784H30.5576L29.1263 35.4178L30.6953 37.5517H30.1588L28.8548 35.7854L27.5514 37.5517H27.0142L28.5825 35.4178L27.1505 33.4784Z" fill="#FBFBFB"/>
<path d="M22.9792 35.5719C22.894 35.4995 22.8015 35.4435 22.7117 35.402C23.008 35.2416 23.2024 34.9383 23.2024 34.5866C23.2024 34.3259 23.1061 33.4786 21.8751 33.4786H20.2171V35.2345H19.6647C19.5927 35.3276 19.4303 35.5513 19.3682 35.6432H20.2171V37.5513L21.8751 37.5515C22.7733 37.5515 23.3315 37.0964 23.3315 36.3625C23.3315 36.0418 23.2099 35.7691 22.9792 35.5719ZM20.6755 33.9035H21.8751C22.2001 33.9035 22.7437 33.9841 22.7437 34.5508C22.7437 34.9792 22.4268 35.2345 21.8751 35.2345H20.6755V33.9035ZM21.8751 37.1267H20.6755V35.6438H21.8751C22.3301 35.6438 22.8742 35.7691 22.8742 36.3537C22.8742 37.0258 22.2485 37.1267 21.8751 37.1267Z" fill="#FBFBFB"/>
<path d="M25.4882 33.3843C24.3414 33.3843 23.5398 34.2595 23.5398 35.5124C23.5398 36.7672 24.3414 37.6418 25.4882 37.6418C26.6342 37.6418 27.4333 36.7672 27.4333 35.5124C27.4333 34.2595 26.6342 33.3843 25.4882 33.3843ZM25.4882 37.211C24.6145 37.211 24.0024 36.5125 24.0024 35.5124C24.0024 34.5131 24.6145 33.8148 25.4882 33.8148C26.3606 33.8148 26.9695 34.5131 26.9695 35.5124C26.9695 36.5125 26.3606 37.211 25.4882 37.211Z" fill="#FBFBFB"/>
<path d="M16.9859 33.4785H16.4508L17.8821 35.4177L16.3127 37.5513H16.8504L18.1533 35.7855L19.4569 37.5513H19.994L18.4244 35.4177L19.8567 33.4785H19.32L18.1525 35.0608L16.9859 33.4785Z" fill="#FBFBFB"/>
</g>
<g clip-path="url(#clip3_25_2781)">
<path d="M28.2935 30.9397C27.1969 30.8346 26.0867 30.4408 25.133 29.8185C24.3338 29.2974 24.1535 29.0828 24.1535 28.6551C24.1535 27.7959 25.0982 26.2907 26.7147 24.5753C27.6325 23.6008 28.9111 22.4591 29.0493 22.4899C29.3183 22.5499 31.4676 24.6464 32.2724 25.6335C33.5447 27.1938 34.1294 28.4717 33.8323 29.0414C33.6064 29.4744 32.2047 30.3209 31.1751 30.646C30.3263 30.914 29.2116 31.0275 28.2935 30.9397ZM23.0741 27.7618C22.4099 26.7429 22.0744 25.7399 21.9126 24.2892C21.859 23.8102 21.8778 23.5364 22.0339 22.5529C22.2279 21.3286 22.9257 19.9106 23.7645 19.0387C24.1216 18.6681 24.1533 18.6581 24.5888 18.8054C25.1166 18.9841 25.6808 19.3739 26.5561 20.1654L27.0673 20.6277L26.7877 20.9702C25.4925 22.5602 24.1255 24.8154 23.611 26.2101C23.3314 26.9679 23.2188 27.729 23.3396 28.0459C23.4207 28.26 23.3462 28.1802 23.0732 27.7623L23.0741 27.7618ZM34.7308 27.935C34.7965 27.6147 34.7135 27.0267 34.5191 26.4333C34.098 25.1486 32.6901 22.7586 31.3974 21.1335L30.9904 20.6219L31.4309 20.2177C32.0056 19.6899 32.4047 19.3739 32.8356 19.1054C33.1752 18.8936 33.6608 18.7061 33.8697 18.7061C33.9982 18.7061 34.4514 19.1777 34.817 19.6906C35.3836 20.4847 35.8002 21.4493 36.0113 22.452C36.1478 23.1006 36.1592 24.4871 36.0333 25.134C35.9291 25.6648 35.7107 26.3528 35.4989 26.8195C35.3384 27.1691 34.943 27.8483 34.7692 28.0693C34.6799 28.183 34.6799 28.1828 34.7295 27.9376L34.7308 27.935ZM28.411 18.4636C27.8143 18.1608 26.8941 17.8357 26.3858 17.748C26.2078 17.7174 25.9038 17.7 25.7108 17.7099C25.2912 17.7311 25.3099 17.7092 25.9826 17.3914C26.5418 17.1272 27.0084 16.9718 27.6421 16.8388C28.3544 16.6891 29.6937 16.6874 30.3948 16.8351C31.1517 16.9948 32.0434 17.3265 32.5457 17.6359L32.6953 17.7276L32.3528 17.7104C31.6718 17.676 30.6794 17.9511 29.6138 18.4693C29.2925 18.6259 29.0132 18.7506 28.9927 18.7473C28.9724 18.7433 28.7104 18.6158 28.4103 18.4636H28.411Z" fill="#FBFBFB"/>
</g>
</g>
</g>
<defs>
<filter id="filter0_d_25_2781" x="0" y="0" width="58" height="58" filterUnits="userSpaceOnUse" color-interpolation-filters="sRGB">
<feFlood flood-opacity="0" result="BackgroundImageFix"/>
<feColorMatrix in="SourceAlpha" type="matrix" values="0 0 0 0 0 0 0 0 0 0 0 0 0 0 0 0 0 0 127 0" result="hardAlpha"/>
<feOffset dy="4"/>
<feGaussianBlur stdDeviation="2"/>
<feComposite in2="hardAlpha" operator="out"/>
<feColorMatrix type="matrix" values="0 0 0 0 0 0 0 0 0 0 0 0 0 0 0 0 0 0 0.25 0"/>
<feBlend mode="normal" in2="BackgroundImageFix" result="effect1_dropShadow_25_2781"/>
<feBlend mode="normal" in="SourceGraphic" in2="effect1_dropShadow_25_2781" result="shape"/>
</filter>
<filter id="filter1_d_25_2781" x="0" y="0" width="58" height="58" filterUnits="userSpaceOnUse" color-interpolation-filters="sRGB">
<feFlood flood-opacity="0" result="BackgroundImageFix"/>
<feColorMatrix in="SourceAlpha" type="matrix" values="0 0 0 0 0 0 0 0 0 0 0 0 0 0 0 0 0 0 127 0" result="hardAlpha"/>
<feOffset dy="4"/>
<feGaussianBlur stdDeviation="2"/>
<feComposite in2="hardAlpha" operator="out"/>
<feColorMatrix type="matrix" values="0 0 0 0 0 0 0 0 0 0 0 0 0 0 0 0 0 0 0.25 0"/>
<feBlend mode="normal" in2="BackgroundImageFix" result="effect1_dropShadow_25_2781"/>
<feBlend mode="normal" in="SourceGraphic" in2="effect1_dropShadow_25_2781" result="shape"/>
</filter>
<filter id="filter2_d_25_2781" x="13.92" y="15" width="30.16" height="30.16" filterUnits="userSpaceOnUse" color-interpolation-filters="sRGB">
<feFlood flood-opacity="0" result="BackgroundImageFix"/>
<feColorMatrix in="SourceAlpha" type="matrix" values="0 0 0 0 0 0 0 0 0 0 0 0 0 0 0 0 0 0 127 0" result="hardAlpha"/>
<feOffset dy="2.08"/>
<feGaussianBlur stdDeviation="1.04"/>
<feComposite in2="hardAlpha" operator="out"/>
<feColorMatrix type="matrix" values="0 0 0 0 0 0 0 0 0 0 0 0 0 0 0 0 0 0 0.25 0"/>
<feBlend mode="normal" in2="BackgroundImageFix" result="effect1_dropShadow_25_2781"/>
<feBlend mode="normal" in="SourceGraphic" in2="effect1_dropShadow_25_2781" result="shape"/>
</filter>
<clipPath id="clip0_25_2781">
<rect width="50" height="50" fill="white" transform="translate(4)"/>
</clipPath>
<clipPath id="clip1_25_2781">
<rect width="26" height="26" fill="white" transform="translate(16 15)"/>
</clipPath>
<clipPath id="clip2_25_2781">
<rect width="41.08" height="9.63605" fill="white" transform="translate(1.95996 30.6)"/>
</clipPath>
<clipPath id="clip3_25_2781">
<rect width="14.56" height="14.56" fill="white" transform="translate(21.72 16.56)"/>
</clipPath>
</defs>
</svg>
