<svg width="58" height="58" viewBox="0 0 58 58" fill="none" xmlns="http://www.w3.org/2000/svg">
<g clip-path="url(#clip0_26_3474)" filter="url(#filter0_d_26_3474)">
<g filter="url(#filter1_d_26_3474)">
<path d="M13 47V3L33.5706 3L45 15.0365L45 47H13Z" fill="#FBFBFB" stroke="#FBFBFB" stroke-width="2"/>
<mask id="mask0_26_3474" style="mask-type:alpha" maskUnits="userSpaceOnUse" x="12" y="2" width="34" height="46">
<path d="M13 47V3L33.5706 3L45 15.0365L45 47H13Z" fill="#FBFBFB" stroke="#FBFBFB" stroke-width="2"/>
</mask>
<g mask="url(#mask0_26_3474)">
<rect x="34" width="15" height="14" fill="#D9D9D9"/>
<path opacity="0.5" d="M30.6465 41.2441H25.6074L33.3857 35.1943V39.5742L30.6465 41.2441ZM33.3857 47.3086L25.6074 41.2441H30.6465L33.3857 42.9141V47.3086ZM37.458 55.043H34.0449L38.5566 27.1816H41.9551L37.458 55.043ZM42.5996 35.1943L50.3779 41.2441H45.4121L42.5996 39.5742V35.1943ZM45.4121 41.2441H50.3779L42.5996 47.3086V42.9141L45.4121 41.2441Z" fill="#D9D9D9"/>
</g>
</g>
<path d="M18.8523 31C18.787 31 18.745 30.9813 18.7263 30.944C18.7076 30.9067 18.7076 30.86 18.7263 30.804L20.6303 26.142C20.6396 26.114 20.6396 26.086 20.6303 26.058L18.7263 21.396C18.717 21.3773 18.7123 21.3493 18.7123 21.312C18.7123 21.2373 18.759 21.2 18.8523 21.2H20.5323C20.6256 21.2 20.6863 21.2467 20.7143 21.34L21.6523 24.028C21.6616 24.056 21.6756 24.07 21.6943 24.07C21.713 24.07 21.727 24.056 21.7363 24.028L22.6743 21.34C22.7023 21.2467 22.763 21.2 22.8563 21.2H24.5223C24.5876 21.2 24.6296 21.2187 24.6483 21.256C24.667 21.2933 24.667 21.34 24.6483 21.396L22.7443 26.058C22.735 26.086 22.735 26.114 22.7443 26.142L24.6483 30.804C24.6576 30.8227 24.6623 30.8507 24.6623 30.888C24.6623 30.9627 24.6156 31 24.5223 31H22.8563C22.763 31 22.7023 30.9533 22.6743 30.86L21.7363 28.186C21.727 28.158 21.713 28.144 21.6943 28.144C21.6756 28.144 21.6616 28.158 21.6523 28.186L20.7003 30.86C20.6723 30.9533 20.6116 31 20.5183 31H18.8523ZM30.1028 21.312C30.1402 21.2373 30.2102 21.2 30.3128 21.2H31.9368C31.9835 21.2 32.0208 21.2187 32.0488 21.256C32.0862 21.284 32.1048 21.3213 32.1048 21.368V30.832C32.1048 30.8787 32.0862 30.9207 32.0488 30.958C32.0208 30.986 31.9835 31 31.9368 31H30.2988C30.2522 31 30.2102 30.986 30.1728 30.958C30.1448 30.9207 30.1308 30.8787 30.1308 30.832V24.546C30.1308 24.5087 30.1215 24.49 30.1028 24.49C30.0842 24.49 30.0655 24.504 30.0468 24.532L28.9548 26.464C28.9082 26.5387 28.8708 26.576 28.8428 26.576C28.8148 26.576 28.7775 26.5387 28.7308 26.464L27.6388 24.532C27.6202 24.504 27.6015 24.49 27.5828 24.49C27.5642 24.49 27.5548 24.5087 27.5548 24.546V30.832C27.5548 30.8787 27.5362 30.9207 27.4988 30.958C27.4708 30.986 27.4335 31 27.3868 31H25.7488C25.7022 31 25.6602 30.986 25.6228 30.958C25.5948 30.9207 25.5808 30.8787 25.5808 30.832V21.368C25.5808 21.3213 25.5948 21.284 25.6228 21.256C25.6602 21.2187 25.7022 21.2 25.7488 21.2H27.3588C27.4522 21.2 27.5222 21.2373 27.5688 21.312L28.8148 23.538C28.8428 23.5753 28.8708 23.5753 28.8988 23.538L30.1028 21.312ZM33.4608 31C33.4141 31 33.3721 30.986 33.3348 30.958C33.3068 30.9207 33.2928 30.8787 33.2928 30.832V21.368C33.2928 21.3213 33.3068 21.284 33.3348 21.256C33.3721 21.2187 33.4141 21.2 33.4608 21.2H35.0988C35.1454 21.2 35.1828 21.2187 35.2108 21.256C35.2481 21.284 35.2668 21.3213 35.2668 21.368V29.236C35.2668 29.2827 35.2901 29.306 35.3368 29.306H38.2768C38.3234 29.306 38.3608 29.3247 38.3888 29.362C38.4261 29.39 38.4448 29.4273 38.4448 29.474V30.832C38.4448 30.8787 38.4261 30.9207 38.3888 30.958C38.3608 30.986 38.3234 31 38.2768 31H33.4608Z" fill="#DD3131"/>
</g>
<defs>
<filter id="filter0_d_26_3474" x="0" y="0" width="58" height="58" filterUnits="userSpaceOnUse" color-interpolation-filters="sRGB">
<feFlood flood-opacity="0" result="BackgroundImageFix"/>
<feColorMatrix in="SourceAlpha" type="matrix" values="0 0 0 0 0 0 0 0 0 0 0 0 0 0 0 0 0 0 127 0" result="hardAlpha"/>
<feOffset dy="4"/>
<feGaussianBlur stdDeviation="2"/>
<feComposite in2="hardAlpha" operator="out"/>
<feColorMatrix type="matrix" values="0 0 0 0 0 0 0 0 0 0 0 0 0 0 0 0 0 0 0.25 0"/>
<feBlend mode="normal" in2="BackgroundImageFix" result="effect1_dropShadow_26_3474"/>
<feBlend mode="normal" in="SourceGraphic" in2="effect1_dropShadow_26_3474" result="shape"/>
</filter>
<filter id="filter1_d_26_3474" x="0" y="0" width="58" height="58" filterUnits="userSpaceOnUse" color-interpolation-filters="sRGB">
<feFlood flood-opacity="0" result="BackgroundImageFix"/>
<feColorMatrix in="SourceAlpha" type="matrix" values="0 0 0 0 0 0 0 0 0 0 0 0 0 0 0 0 0 0 127 0" result="hardAlpha"/>
<feOffset dy="4"/>
<feGaussianBlur stdDeviation="2"/>
<feComposite in2="hardAlpha" operator="out"/>
<feColorMatrix type="matrix" values="0 0 0 0 0 0 0 0 0 0 0 0 0 0 0 0 0 0 0.25 0"/>
<feBlend mode="normal" in2="BackgroundImageFix" result="effect1_dropShadow_26_3474"/>
<feBlend mode="normal" in="SourceGraphic" in2="effect1_dropShadow_26_3474" result="shape"/>
</filter>
<clipPath id="clip0_26_3474">
<rect width="50" height="50" fill="white" transform="translate(4)"/>
</clipPath>
</defs>
</svg>
