<svg width="50" height="50" viewBox="0 0 50 50" fill="none" xmlns="http://www.w3.org/2000/svg">
<g clip-path="url(#clip0_25_2391)">
<path d="M29.5703 3L41 15.0361V47H9V3H29.5703Z" fill="#3B6F9E" stroke="#3B6F9E" stroke-width="2"/>
<mask id="mask0_25_2391" style="mask-type:alpha" maskUnits="userSpaceOnUse" x="8" y="2" width="34" height="46">
<path d="M29.5703 3L41 15.0361V47H9V3H29.5703Z" fill="#FBFBFB" stroke="#FBFBFB" stroke-width="2"/>
</mask>
<g mask="url(#mask0_25_2391)">
<rect x="30" width="15" height="14" fill="#FBFBFB"/>
<g opacity="0.2">
<mask id="path-4-inside-1_25_2391" fill="white">
<path d="M40.276 30.8686L35.1472 26.9715L34.66 27.6126L31.4377 25.1641C31.2454 25.018 30.9977 24.9659 30.7629 25.0222L21.6578 27.2051C20.9972 27.3634 20.8175 28.2182 21.3583 28.6292L29.9426 35.1519L15.3282 54.3851C14.7902 55.0932 14.928 56.1035 15.6362 56.6416L16.9184 57.6159C17.6265 58.1539 18.6368 58.0161 19.1749 57.3079L33.7892 38.0747L38.9181 41.9719C39.2722 42.241 39.7773 42.172 40.0463 41.818L44.4306 36.048C44.6997 35.6939 44.6307 35.1888 44.2767 34.9197L39.7889 31.5097L40.276 30.8686Z"/>
</mask>
<path d="M35.1472 26.9715L42.293 17.5671L32.8887 10.4213L25.7428 19.8256L35.1472 26.9715ZM40.276 30.8686L49.6804 38.0145L56.8262 28.6101L47.4219 21.4643L40.276 30.8686ZM34.66 27.6126L27.5142 37.0169L36.9185 44.1627L44.0644 34.7584L34.66 27.6126ZM31.4377 25.1641L38.5836 15.7598L38.5836 15.7598L31.4377 25.1641ZM30.7629 25.0222L33.5165 36.5079L33.5165 36.5079L30.7629 25.0222ZM21.6578 27.2051L18.9042 15.7193L18.9042 15.7193L21.6578 27.2051ZM21.3583 28.6292L14.2125 38.0335H14.2125L21.3583 28.6292ZM29.9426 35.1519L39.3469 42.2977L46.4927 32.8934L37.0884 25.7475L29.9426 35.1519ZM15.3282 54.3851L5.92392 47.2392L15.3282 54.3851ZM15.6362 56.6416L8.49032 66.0459L8.49033 66.0459L15.6362 56.6416ZM16.9184 57.6159L24.0642 48.2115L24.0642 48.2115L16.9184 57.6159ZM19.1749 57.3079L9.77056 50.1621L19.1749 57.3079ZM33.7892 38.0747L40.9351 28.6704L31.5307 21.5245L24.3849 30.9289L33.7892 38.0747ZM38.9181 41.9719L31.7722 51.3762L38.9181 41.9719ZM40.0463 41.818L49.4507 48.9638V48.9638L40.0463 41.818ZM44.4306 36.048L35.0263 28.9021L35.0263 28.9021L44.4306 36.048ZM44.2767 34.9197L51.4225 25.5154V25.5154L44.2767 34.9197ZM39.7889 31.5097L30.3846 24.3638L23.2387 33.7682L32.643 40.914L39.7889 31.5097ZM28.0013 36.3758L33.1302 40.2729L47.4219 21.4643L42.293 17.5671L28.0013 36.3758ZM44.0644 34.7584L44.5515 34.1173L25.7428 19.8256L25.2557 20.4667L44.0644 34.7584ZM41.8059 18.2082L38.5836 15.7598L24.2919 34.5684L27.5142 37.0169L41.8059 18.2082ZM38.5836 15.7598C35.5706 13.4704 31.6891 12.6542 28.0092 13.5364L33.5165 36.5079C30.3063 37.2775 26.9203 36.5656 24.2919 34.5684L38.5836 15.7598ZM28.0093 13.5364L18.9042 15.7193L24.4113 38.6908L33.5165 36.5079L28.0093 13.5364ZM18.9042 15.7193C8.55396 18.2007 5.7379 31.5941 14.2125 38.0335L28.5042 19.2248C35.897 24.8423 33.4404 36.5262 24.4114 38.6908L18.9042 15.7193ZM14.2125 38.0335L22.7967 44.5562L37.0884 25.7475L28.5042 19.2248L14.2125 38.0335ZM20.5382 28.006L5.92392 47.2392L24.7326 61.5309L39.3469 42.2977L20.5382 28.006ZM5.92392 47.2392C1.43928 53.1412 2.58831 61.5613 8.49032 66.0459L22.782 47.2372C27.2677 50.6457 28.141 57.0452 24.7326 61.5309L5.92392 47.2392ZM8.49033 66.0459L9.77254 67.0202L24.0642 48.2115L22.782 47.2372L8.49033 66.0459ZM9.77253 67.0202C15.6745 71.5048 24.0946 70.3558 28.5792 64.4538L9.77056 50.1621C13.179 45.6764 19.5785 44.8031 24.0642 48.2115L9.77253 67.0202ZM28.5792 64.4538L43.1935 45.2206L24.3849 30.9289L9.77056 50.1621L28.5792 64.4538ZM26.6433 47.4791L31.7722 51.3762L46.064 32.5676L40.9351 28.6704L26.6433 47.4791ZM31.7722 51.3762C37.3202 55.5918 45.2351 54.5117 49.4507 48.9638L30.642 34.6721C34.3195 29.8323 41.2241 28.8901 46.064 32.5676L31.7722 51.3762ZM49.4507 48.9638L53.835 43.1938L35.0263 28.9021L30.642 34.6721L49.4507 48.9638ZM53.835 43.1938C58.0505 37.646 56.9705 29.731 51.4225 25.5154L37.1308 44.3241C32.291 40.6465 31.3488 33.7419 35.0263 28.9021L53.835 43.1938ZM51.4225 25.5154L46.9347 22.1054L32.643 40.914L37.1308 44.3241L51.4225 25.5154ZM30.8717 23.7228L30.3846 24.3638L49.1932 38.6556L49.6804 38.0145L30.8717 23.7228Z" fill="white" mask="url(#path-4-inside-1_25_2391)"/>
</g>
</g>
<path d="M23.0496 16.56C23.7903 16.7063 24.5184 16.9153 25.2429 17.1331C25.6574 17.2607 26.0707 17.3926 26.4814 17.5332C27.1265 17.7509 27.7689 17.9974 28.3532 18.365C28.6149 18.5334 28.8663 18.7237 29.0811 18.9557C29.3139 19.1967 29.5044 19.4826 29.6443 19.7937C29.8991 20.3575 29.9863 20.9873 30.0121 21.6065C30.0243 22.0106 30.0235 22.4182 29.9523 22.817C29.8931 23.1636 29.7879 23.5054 29.6129 23.8064C29.4584 24.0723 29.2436 24.3022 28.9829 24.4504C28.7328 24.5932 28.4464 24.6613 28.1627 24.6553C27.7326 24.6601 27.3152 24.5147 26.9292 24.3243C26.9222 22.9641 26.9281 21.6036 26.9261 20.2435C26.9233 19.9974 26.9391 19.7487 26.8924 19.506C26.8595 19.3179 26.787 19.1283 26.6477 19.0006C26.5553 18.9123 26.4355 18.8625 26.3151 18.8356C26.1934 18.811 26.0635 18.8658 25.9882 18.9694C25.8628 19.1353 25.83 19.3555 25.8243 19.562C25.8233 23.2035 25.8255 26.8452 25.8233 30.4865C24.8987 30.1761 23.974 29.8654 23.0497 29.554C23.0487 25.2226 23.0491 20.8914 23.0496 16.56Z" fill="#FBFBFB"/>
<path d="M18.8938 25.7752C20.0992 25.323 21.3033 24.8665 22.5092 24.4158C22.5111 24.9173 22.5092 25.4189 22.51 25.9208C22.5092 25.9888 22.5134 26.0572 22.5053 26.1248C21.5522 26.4828 20.6009 26.8471 19.6487 27.2073C19.5167 27.2601 19.3812 27.32 19.2795 27.4268C19.232 27.4769 19.1935 27.5508 19.2194 27.6227C19.252 27.7072 19.3334 27.7531 19.4086 27.788C19.6174 27.878 19.8458 27.8907 20.0683 27.9016C20.3164 27.8974 20.5655 27.8777 20.8086 27.8209C20.9728 27.7868 21.1309 27.7281 21.2874 27.6658C21.6943 27.5097 22.1012 27.3527 22.5087 27.1982C22.5118 27.6224 22.5092 28.0468 22.51 28.4714C22.5087 28.5562 22.5137 28.6415 22.5057 28.7261C22.0052 28.8213 21.4988 28.886 20.9901 28.8945C19.9658 28.919 18.9391 28.751 17.9661 28.4118C17.6469 28.3138 17.3298 28.1835 17.0634 27.9687C16.9167 27.8484 16.7855 27.6971 16.7187 27.5111C16.6628 27.3535 16.6669 27.1714 16.7365 27.0194C16.8037 26.8677 16.921 26.7478 17.0502 26.6547C17.3493 26.4359 17.6791 26.2691 18.0132 26.1203C18.3012 25.99 18.5998 25.8888 18.8938 25.7752Z" fill="#FBFBFB"/>
<path d="M28.5925 25.204C28.8659 25.1705 29.141 25.1626 29.4158 25.1522C30.32 25.1558 31.2288 25.275 32.0936 25.5624C32.2633 25.6171 32.4277 25.6878 32.5968 25.7449C32.8981 25.8616 33.1998 26.003 33.441 26.2325C33.5861 26.3727 33.711 26.5615 33.7128 26.777C33.7214 26.9524 33.6464 27.1207 33.539 27.2501C33.3347 27.4928 33.0646 27.6596 32.7934 27.8051C32.5047 27.9611 32.1944 28.0617 31.8917 28.1804C30.0441 28.8834 28.1964 29.5861 26.349 30.2898C26.3488 29.7415 26.3495 29.1932 26.3488 28.6452C26.3515 28.6233 26.3402 28.5851 26.3694 28.5794C27.7752 28.0494 29.1806 27.5179 30.5862 26.9866C30.7762 26.9113 30.9809 26.8567 31.1423 26.7201C31.2083 26.6651 31.2729 26.5778 31.2405 26.4836C31.2068 26.4012 31.1261 26.3555 31.0519 26.3215C30.8415 26.2332 30.6123 26.2161 30.3885 26.2095C30.0382 26.212 29.6846 26.2579 29.3514 26.3768C28.3501 26.7486 27.3506 27.1249 26.349 27.4955C26.3491 26.9067 26.3488 26.3183 26.3493 25.7296C27.0739 25.4602 27.8306 25.2969 28.5925 25.204Z" fill="#FBFBFB"/>
<path d="M32.6997 29.2602C32.9183 29.2313 33.1467 29.3351 33.2777 29.523C33.4207 29.7167 33.4469 29.9961 33.3458 30.2175C33.2439 30.4471 33.0108 30.608 32.7694 30.5996C32.5472 30.6048 32.332 30.4677 32.2226 30.2648C32.1238 30.0859 32.112 29.8569 32.1885 29.6667C32.2745 29.4471 32.477 29.2868 32.6997 29.2602ZM32.6522 29.3839C32.5298 29.4134 32.4186 29.492 32.3455 29.6001C32.2577 29.7273 32.2244 29.8955 32.2578 30.0495C32.2859 30.1924 32.3712 30.3201 32.4864 30.3993C32.6638 30.5228 32.9125 30.516 33.0822 30.3803C33.2573 30.2492 33.3405 29.9975 33.2803 29.7795C33.2432 29.6321 33.1438 29.5067 33.0186 29.4337C32.9073 29.371 32.7746 29.3529 32.6522 29.3839Z" fill="#FBFBFB"/>
<path d="M32.5005 29.5416C32.6144 29.5409 32.7287 29.5414 32.8428 29.5412C32.9072 29.5421 32.9783 29.558 33.0239 29.6104C33.07 29.6655 33.0736 29.7455 33.061 29.8145C33.0539 29.86 33.016 29.887 32.9885 29.9188C33.0124 29.9412 33.0429 29.9622 33.0486 29.9987C33.0618 30.0684 33.0478 30.1418 33.069 30.2101C33.0822 30.2342 33.0958 30.2586 33.0968 30.2875C33.0495 30.2889 33.0023 30.2879 32.955 30.2887C32.9232 30.2093 32.9469 30.1199 32.9271 30.0381C32.9193 30.0047 32.8866 29.984 32.8555 29.985C32.7784 29.9815 32.701 29.984 32.6241 29.9838C32.623 30.0854 32.6269 30.1873 32.6219 30.2887C32.5816 30.2881 32.5413 30.2881 32.5011 30.2889C32.4991 30.0394 32.5005 29.7906 32.5005 29.5416ZM32.6241 29.66C32.6243 29.7287 32.6243 29.7975 32.6241 29.8665C32.693 29.8669 32.7621 29.8674 32.8312 29.8667C32.8655 29.8665 32.9053 29.8596 32.9276 29.8288C32.951 29.7896 32.9505 29.7373 32.9294 29.6974C32.9117 29.6659 32.8741 29.6628 32.8433 29.6608C32.7702 29.6585 32.6971 29.6599 32.6241 29.66Z" fill="#FBFBFB"/>
<path d="M36.9309 38.0427H37.008V37.5083H37.1905V37.4391H36.7483V37.5083H36.9309V38.0427Z" fill="#FBFBFB"/>
<path d="M37.3383 37.5522L37.4918 38.0427H37.5681L37.7216 37.5522V38.0427H37.7852V37.4391H37.6924L37.5326 37.9546L37.3675 37.4391H37.2612V38.0427H37.3383V37.5522Z" fill="#FBFBFB"/>
<path d="M24.6663 36.5967V34.1008C24.6663 33.5917 24.8906 33.227 25.3689 33.227H28.3196C28.3376 33.227 28.355 33.2081 28.355 33.1892V32.6926C28.355 32.6883 28.3538 32.6841 28.3523 32.68H24.7445C23.9625 32.7853 23.5805 33.3628 23.5805 34.1008V36.5966C23.5805 37.1058 23.3499 37.4705 22.8779 37.4705H19.7619C19.7442 37.4705 19.7264 37.483 19.7264 37.5082V38.0049C19.7264 38.0254 19.7384 38.0412 19.7524 38.0464H23.2902C24.2123 38.0208 24.6663 37.397 24.6663 36.5967Z" fill="#FBFBFB"/>
<path d="M12.5443 38.0465H13.5803C13.5943 38.0412 13.6062 38.0255 13.6062 38.0049V36.4143C13.6062 35.9052 13.8777 35.553 14.2731 35.553H18.5404C19.5024 35.553 19.9687 34.9244 19.9687 34.1008C19.9687 33.3628 19.587 32.7853 18.8046 32.68H12.5251C12.5233 32.6842 12.5203 32.6874 12.5203 32.6926V33.1892C12.5203 33.2144 12.5321 33.227 12.5556 33.227H18.1803C18.6584 33.227 18.8827 33.5917 18.8827 34.1008C18.8827 34.6101 18.6584 34.9747 18.1803 34.9747H13.7302C13.0396 34.9747 12.5203 35.5972 12.5203 36.4143V38.0049C12.5202 38.0255 12.5285 38.0412 12.5443 38.0465Z" fill="#FBFBFB"/>
<path d="M28.3379 37.4706H34.0039C34.0212 37.4706 34.033 37.4831 34.033 37.4957V38.0049C34.033 38.0301 34.0511 38.0427 34.0685 38.0427H35.0898C35.1078 38.0427 35.1251 38.0301 35.1251 38.0049V37.5083C35.1251 37.4894 35.1431 37.4706 35.1605 37.4706H36.1755C36.1992 37.4706 36.2109 37.4516 36.2109 37.4329V36.9299C36.2109 36.911 36.1992 36.8922 36.1755 36.8922H35.1605C35.1431 36.8922 35.1251 36.8733 35.1251 36.8545V33.227C35.1251 32.931 35.0212 32.7425 34.8467 32.68H34.5512C34.4591 32.7051 34.359 32.7499 34.2517 32.8183L28.1491 36.8104C27.913 36.9675 27.8302 37.1435 27.8893 37.2755C27.9365 37.3888 28.0719 37.4706 28.3379 37.4706ZM29.223 36.8042L33.9504 33.7048C33.9802 33.6797 34.0393 33.686 34.0393 33.7551V36.8545C34.0393 36.8734 34.0212 36.8922 34.0039 36.8922H29.2522C29.2113 36.8922 29.1931 36.8797 29.1876 36.867C29.1813 36.8419 29.1931 36.823 29.223 36.8042Z" fill="#FBFBFB"/>
</g>
<defs>
<clipPath id="clip0_25_2391">
<rect width="50" height="50" fill="white"/>
</clipPath>
</defs>
</svg>
