<svg width="58" height="58" viewBox="0 0 58 58" fill="none" xmlns="http://www.w3.org/2000/svg">
<g clip-path="url(#clip0_26_3471)" filter="url(#filter0_d_26_3471)">
<g filter="url(#filter1_d_26_3471)">
<path d="M13 47V3L33.5706 3L45 15.0365L45 47H13Z" fill="#FBFBFB" stroke="#FBFBFB" stroke-width="2"/>
<mask id="mask0_26_3471" style="mask-type:alpha" maskUnits="userSpaceOnUse" x="12" y="2" width="34" height="46">
<path d="M13 47V3L33.5706 3L45 15.0365L45 47H13Z" fill="#FBFBFB" stroke="#FBFBFB" stroke-width="2"/>
</mask>
<g mask="url(#mask0_26_3471)">
<rect x="34" width="15" height="14" fill="#D9D9D9"/>
<path opacity="0.5" d="M30.6465 41.2441H25.6074L33.3857 35.1943V39.5742L30.6465 41.2441ZM33.3857 47.3086L25.6074 41.2441H30.6465L33.3857 42.9141V47.3086ZM37.458 55.043H34.0449L38.5566 27.1816H41.9551L37.458 55.043ZM42.5996 35.1943L50.3779 41.2441H45.4121L42.5996 39.5742V35.1943ZM45.4121 41.2441H50.3779L42.5996 47.3086V42.9141L45.4121 41.2441Z" fill="#D9D9D9"/>
</g>
</g>
<path d="M18.3739 31.112C17.5992 31.112 16.9739 30.8833 16.4979 30.426C16.0219 29.9593 15.7839 29.3433 15.7839 28.578V27.542C15.7839 27.4953 15.7979 27.458 15.8259 27.43C15.8632 27.3927 15.9052 27.374 15.9519 27.374H17.2399C17.2866 27.374 17.3239 27.3927 17.3519 27.43C17.3892 27.458 17.4079 27.4953 17.4079 27.542V28.606C17.4079 28.9327 17.4966 29.1987 17.6739 29.404C17.8512 29.6093 18.0846 29.712 18.3739 29.712C18.6632 29.712 18.8966 29.6093 19.0739 29.404C19.2606 29.1987 19.3539 28.9327 19.3539 28.606V21.368C19.3539 21.3213 19.3679 21.284 19.3959 21.256C19.4332 21.2187 19.4752 21.2 19.5219 21.2H20.8099C20.8566 21.2 20.8939 21.2187 20.9219 21.256C20.9592 21.284 20.9779 21.3213 20.9779 21.368V28.578C20.9779 29.3433 20.7352 29.9593 20.2499 30.426C19.7739 30.8833 19.1486 31.112 18.3739 31.112ZM24.8189 31.112C24.0443 31.112 23.4189 30.8787 22.9429 30.412C22.4669 29.9453 22.2289 29.334 22.2289 28.578V28.214C22.2289 28.1673 22.2429 28.13 22.2709 28.102C22.3083 28.0647 22.3503 28.046 22.3969 28.046H23.6709C23.7176 28.046 23.7549 28.0647 23.7829 28.102C23.8203 28.13 23.8389 28.1673 23.8389 28.214V28.494C23.8389 28.858 23.9276 29.152 24.1049 29.376C24.2916 29.6 24.5296 29.712 24.8189 29.712C25.1083 29.712 25.3463 29.6093 25.5329 29.404C25.7196 29.1893 25.8129 28.9093 25.8129 28.564C25.8129 28.3213 25.7616 28.1113 25.6589 27.934C25.5563 27.7567 25.4116 27.5887 25.2249 27.43C25.0383 27.2713 24.7396 27.0427 24.3289 26.744C23.8623 26.408 23.4843 26.1093 23.1949 25.848C22.9149 25.5867 22.6769 25.274 22.4809 24.91C22.2943 24.5367 22.2009 24.1073 22.2009 23.622C22.2009 22.8473 22.4343 22.2313 22.9009 21.774C23.3676 21.3167 23.9836 21.088 24.7489 21.088C25.5236 21.088 26.1489 21.3307 26.6249 21.816C27.1009 22.292 27.3389 22.9267 27.3389 23.72V24.056C27.3389 24.1027 27.3203 24.1447 27.2829 24.182C27.2549 24.21 27.2176 24.224 27.1709 24.224H25.9109C25.8643 24.224 25.8223 24.21 25.7849 24.182C25.7569 24.1447 25.7429 24.1027 25.7429 24.056V23.692C25.7429 23.328 25.6496 23.0387 25.4629 22.824C25.2856 22.6 25.0476 22.488 24.7489 22.488C24.4689 22.488 24.2403 22.5907 24.0629 22.796C23.8856 22.992 23.7969 23.2673 23.7969 23.622C23.7969 23.958 23.8903 24.2427 24.0769 24.476C24.2729 24.7093 24.6509 25.0313 25.2109 25.442C25.7803 25.862 26.2096 26.2073 26.4989 26.478C26.7883 26.7393 27.0123 27.0287 27.1709 27.346C27.3296 27.6633 27.4089 28.0413 27.4089 28.48C27.4089 29.2733 27.1709 29.9127 26.6949 30.398C26.2189 30.874 25.5936 31.112 24.8189 31.112ZM31.0852 31.112C30.2826 31.112 29.6339 30.8693 29.1392 30.384C28.6539 29.8987 28.4112 29.2547 28.4112 28.452V23.748C28.4112 22.9453 28.6539 22.3013 29.1392 21.816C29.6339 21.3307 30.2826 21.088 31.0852 21.088C31.8879 21.088 32.5366 21.3307 33.0312 21.816C33.5259 22.3013 33.7732 22.9453 33.7732 23.748V28.452C33.7732 29.2547 33.5259 29.8987 33.0312 30.384C32.5366 30.8693 31.8879 31.112 31.0852 31.112ZM31.0852 29.712C31.4026 29.712 31.6592 29.6047 31.8552 29.39C32.0512 29.166 32.1492 28.8767 32.1492 28.522V23.678C32.1492 23.3233 32.0512 23.0387 31.8552 22.824C31.6592 22.6 31.4026 22.488 31.0852 22.488C30.7679 22.488 30.5112 22.6 30.3152 22.824C30.1286 23.0387 30.0352 23.3233 30.0352 23.678V28.522C30.0352 28.8767 30.1286 29.166 30.3152 29.39C30.5112 29.6047 30.7679 29.712 31.0852 29.712ZM39.0904 21.368C39.0904 21.3213 39.1044 21.284 39.1324 21.256C39.1697 21.2187 39.2117 21.2 39.2584 21.2H40.5324C40.5791 21.2 40.6164 21.2187 40.6444 21.256C40.6817 21.284 40.7004 21.3213 40.7004 21.368V30.832C40.7004 30.8787 40.6817 30.9207 40.6444 30.958C40.6164 30.986 40.5791 31 40.5324 31H39.0624C38.9691 31 38.9084 30.9533 38.8804 30.86L36.7944 24.924C36.7851 24.896 36.7664 24.8867 36.7384 24.896C36.7197 24.896 36.7104 24.91 36.7104 24.938L36.7244 30.832C36.7244 30.8787 36.7057 30.9207 36.6684 30.958C36.6404 30.986 36.6031 31 36.5564 31H35.2824C35.2357 31 35.1937 30.986 35.1564 30.958C35.1284 30.9207 35.1144 30.8787 35.1144 30.832V21.368C35.1144 21.3213 35.1284 21.284 35.1564 21.256C35.1937 21.2187 35.2357 21.2 35.2824 21.2H36.7244C36.8177 21.2 36.8784 21.2467 36.9064 21.34L39.0064 27.234C39.0157 27.262 39.0297 27.276 39.0484 27.276C39.0764 27.2667 39.0904 27.248 39.0904 27.22V21.368Z" fill="#007CC1"/>
</g>
<defs>
<filter id="filter0_d_26_3471" x="0" y="0" width="58" height="58" filterUnits="userSpaceOnUse" color-interpolation-filters="sRGB">
<feFlood flood-opacity="0" result="BackgroundImageFix"/>
<feColorMatrix in="SourceAlpha" type="matrix" values="0 0 0 0 0 0 0 0 0 0 0 0 0 0 0 0 0 0 127 0" result="hardAlpha"/>
<feOffset dy="4"/>
<feGaussianBlur stdDeviation="2"/>
<feComposite in2="hardAlpha" operator="out"/>
<feColorMatrix type="matrix" values="0 0 0 0 0 0 0 0 0 0 0 0 0 0 0 0 0 0 0.25 0"/>
<feBlend mode="normal" in2="BackgroundImageFix" result="effect1_dropShadow_26_3471"/>
<feBlend mode="normal" in="SourceGraphic" in2="effect1_dropShadow_26_3471" result="shape"/>
</filter>
<filter id="filter1_d_26_3471" x="0" y="0" width="58" height="58" filterUnits="userSpaceOnUse" color-interpolation-filters="sRGB">
<feFlood flood-opacity="0" result="BackgroundImageFix"/>
<feColorMatrix in="SourceAlpha" type="matrix" values="0 0 0 0 0 0 0 0 0 0 0 0 0 0 0 0 0 0 127 0" result="hardAlpha"/>
<feOffset dy="4"/>
<feGaussianBlur stdDeviation="2"/>
<feComposite in2="hardAlpha" operator="out"/>
<feColorMatrix type="matrix" values="0 0 0 0 0 0 0 0 0 0 0 0 0 0 0 0 0 0 0.25 0"/>
<feBlend mode="normal" in2="BackgroundImageFix" result="effect1_dropShadow_26_3471"/>
<feBlend mode="normal" in="SourceGraphic" in2="effect1_dropShadow_26_3471" result="shape"/>
</filter>
<clipPath id="clip0_26_3471">
<rect width="50" height="50" fill="white" transform="translate(4)"/>
</clipPath>
</defs>
</svg>
