<svg width="50" height="50" viewBox="0 0 50 50" fill="none" xmlns="http://www.w3.org/2000/svg">
<g clip-path="url(#clip0_26_3486)">
<path d="M9 47V3L29.5706 3L41 15.0365L41 47H9Z" fill="#FBFBFB" stroke="#FBFBFB" stroke-width="2"/>
<mask id="mask0_26_3486" style="mask-type:alpha" maskUnits="userSpaceOnUse" x="8" y="2" width="34" height="46">
<path d="M9 47V3L29.5706 3L41 15.0365L41 47H9Z" fill="#FBFBFB" stroke="#FBFBFB" stroke-width="2"/>
</mask>
<g mask="url(#mask0_26_3486)">
<rect x="30" width="15" height="14" fill="#D9D9D9"/>
<path opacity="0.5" d="M23.7477 42.484C23.5611 44.2573 22.8984 45.62 21.7597 46.572C20.6397 47.524 19.2584 48 17.6157 48H12.4917C12.3984 48 12.3237 47.972 12.2677 47.916C12.2117 47.8413 12.1931 47.7573 12.2117 47.664L14.5357 28.736C14.5544 28.6427 14.5917 28.568 14.6477 28.512C14.7224 28.4373 14.8064 28.4 14.8997 28.4H19.4357C21.0784 28.4 22.3477 28.7733 23.2437 29.52C24.1584 30.248 24.6157 31.34 24.6157 32.796C24.6157 32.9827 24.5971 33.3 24.5597 33.748C24.3357 35.5773 23.5517 36.9213 22.2077 37.78C22.1331 37.836 22.1237 37.892 22.1797 37.948C23.2624 38.8067 23.8037 40.0293 23.8037 41.616C23.8037 41.784 23.7851 42.0733 23.7477 42.484ZM18.1197 31.788C18.0264 31.788 17.9797 31.8347 17.9797 31.928L17.4197 36.324C17.4197 36.4173 17.4571 36.464 17.5317 36.464H18.5117C19.2211 36.464 19.7717 36.212 20.1637 35.708C20.5744 35.204 20.7797 34.504 20.7797 33.608C20.7797 33.0107 20.6304 32.5627 20.3317 32.264C20.0517 31.9467 19.6411 31.788 19.0997 31.788H18.1197ZM17.7557 44.584C18.3531 44.584 18.8477 44.36 19.2397 43.912C19.6317 43.464 19.8837 42.8293 19.9957 42.008C20.0144 41.8773 20.0237 41.6813 20.0237 41.42C20.0237 40.7667 19.8837 40.2533 19.6037 39.88C19.3237 39.5067 18.9317 39.32 18.4277 39.32H17.1957C17.1211 39.32 17.0651 39.3667 17.0277 39.46L16.4397 44.444C16.4024 44.5373 16.4397 44.584 16.5517 44.584H17.7557ZM25.2613 48C25.1679 48 25.0933 47.972 25.0373 47.916C24.9813 47.8413 24.9626 47.7573 24.9813 47.664L27.3053 28.736C27.3239 28.6427 27.3613 28.568 27.4173 28.512C27.4919 28.4373 27.5759 28.4 27.6693 28.4H30.8333C31.0386 28.4 31.1413 28.512 31.1413 28.736L28.8173 47.664C28.7986 47.7573 28.7519 47.8413 28.6773 47.916C28.6026 47.972 28.5186 48 28.4253 48H25.2613ZM41.2956 28.736C41.3143 28.6427 41.3516 28.568 41.4076 28.512C41.4823 28.4373 41.5663 28.4 41.6596 28.4H44.8236C44.917 28.4 44.9916 28.4373 45.0476 28.512C45.1036 28.568 45.1223 28.6427 45.1036 28.736L42.7796 47.664C42.761 47.7573 42.7143 47.8413 42.6396 47.916C42.5836 47.972 42.509 48 42.4156 48H38.8316C38.6636 48 38.5516 47.9067 38.4956 47.72L36.4796 36.884C36.461 36.828 36.4236 36.8093 36.3676 36.828C36.3303 36.828 36.3116 36.856 36.3116 36.912L35.0236 47.664C35.005 47.7573 34.9583 47.8413 34.8836 47.916C34.809 47.972 34.725 48 34.6316 48H31.4956C31.4023 48 31.3276 47.972 31.2716 47.916C31.2156 47.8413 31.197 47.7573 31.2156 47.664L33.5396 28.736C33.5583 28.6427 33.5956 28.568 33.6516 28.512C33.7263 28.4373 33.8103 28.4 33.9036 28.4H37.4596C37.6276 28.4 37.7303 28.4933 37.7676 28.68L39.8396 39.516C39.8583 39.572 39.8863 39.6 39.9236 39.6C39.9796 39.5813 40.0076 39.544 40.0076 39.488L41.2956 28.736Z" fill="#D9D9D9"/>
</g>
</g>
<defs>
<clipPath id="clip0_26_3486">
<rect width="50" height="50" fill="white"/>
</clipPath>
</defs>
</svg>
