<svg width="58" height="58" viewBox="0 0 58 58" fill="none" xmlns="http://www.w3.org/2000/svg">
<g clip-path="url(#clip0_25_2420)" filter="url(#filter0_d_25_2420)">
<g filter="url(#filter1_d_25_2420)">
<path d="M13 47V3L33.5706 3L45 15.0365L45 47H13Z" fill="#3B6F9E" stroke="#3B6F9E" stroke-width="2"/>
<mask id="mask0_25_2420" style="mask-type:alpha" maskUnits="userSpaceOnUse" x="12" y="2" width="34" height="46">
<path d="M13 47V3L33.5706 3L45 15.0365L45 47H13Z" fill="#FBFBFB" stroke="#FBFBFB" stroke-width="2"/>
</mask>
<g mask="url(#mask0_25_2420)">
<rect x="34" width="15" height="14" fill="#FBFBFB"/>
<g opacity="0.2">
<mask id="path-4-inside-1_25_2420" fill="white">
<path d="M44.276 30.8686L39.1472 26.9715L38.66 27.6126L35.4377 25.1641C35.2454 25.018 34.9977 24.9659 34.7629 25.0222L25.6578 27.2051C24.9972 27.3634 24.8175 28.2182 25.3583 28.6292L33.9426 35.1519L19.3282 54.3851C18.7902 55.0932 18.928 56.1035 19.6362 56.6416L20.9184 57.6159C21.6265 58.1539 22.6368 58.0161 23.1749 57.3079L37.7892 38.0747L42.9181 41.9719C43.2722 42.241 43.7773 42.172 44.0463 41.818L48.4306 36.048C48.6997 35.6939 48.6307 35.1888 48.2767 34.9197L43.7889 31.5097L44.276 30.8686Z"/>
</mask>
<path d="M39.1472 26.9715L46.293 17.5671L36.8887 10.4213L29.7428 19.8256L39.1472 26.9715ZM44.276 30.8686L53.6804 38.0145L60.8262 28.6101L51.4219 21.4643L44.276 30.8686ZM38.66 27.6126L31.5142 37.0169L40.9185 44.1627L48.0644 34.7584L38.66 27.6126ZM35.4377 25.1641L42.5836 15.7598L42.5836 15.7598L35.4377 25.1641ZM34.7629 25.0222L37.5165 36.5079L37.5165 36.5079L34.7629 25.0222ZM25.6578 27.2051L22.9042 15.7193L22.9042 15.7193L25.6578 27.2051ZM25.3583 28.6292L18.2125 38.0335H18.2125L25.3583 28.6292ZM33.9426 35.1519L43.3469 42.2977L50.4927 32.8934L41.0884 25.7475L33.9426 35.1519ZM19.3282 54.3851L9.92392 47.2392L19.3282 54.3851ZM19.6362 56.6416L12.4903 66.0459L12.4903 66.0459L19.6362 56.6416ZM20.9184 57.6159L28.0642 48.2115L28.0642 48.2115L20.9184 57.6159ZM23.1749 57.3079L13.7706 50.1621L23.1749 57.3079ZM37.7892 38.0747L44.9351 28.6704L35.5307 21.5245L28.3849 30.9289L37.7892 38.0747ZM42.9181 41.9719L35.7722 51.3762L42.9181 41.9719ZM44.0463 41.818L53.4507 48.9638V48.9638L44.0463 41.818ZM48.4306 36.048L39.0263 28.9021L39.0263 28.9021L48.4306 36.048ZM48.2767 34.9197L55.4225 25.5154V25.5154L48.2767 34.9197ZM43.7889 31.5097L34.3846 24.3638L27.2387 33.7682L36.643 40.914L43.7889 31.5097ZM32.0013 36.3758L37.1302 40.2729L51.4219 21.4643L46.293 17.5671L32.0013 36.3758ZM48.0644 34.7584L48.5515 34.1173L29.7428 19.8256L29.2557 20.4667L48.0644 34.7584ZM45.8059 18.2082L42.5836 15.7598L28.2919 34.5684L31.5142 37.0169L45.8059 18.2082ZM42.5836 15.7598C39.5706 13.4704 35.6891 12.6542 32.0092 13.5364L37.5165 36.5079C34.3063 37.2775 30.9203 36.5656 28.2919 34.5684L42.5836 15.7598ZM32.0093 13.5364L22.9042 15.7193L28.4113 38.6908L37.5165 36.5079L32.0093 13.5364ZM22.9042 15.7193C12.554 18.2007 9.7379 31.5941 18.2125 38.0335L32.5042 19.2248C39.897 24.8423 37.4404 36.5262 28.4114 38.6908L22.9042 15.7193ZM18.2125 38.0335L26.7967 44.5562L41.0884 25.7475L32.5042 19.2248L18.2125 38.0335ZM24.5382 28.006L9.92392 47.2392L28.7326 61.5309L43.3469 42.2977L24.5382 28.006ZM9.92392 47.2392C5.43928 53.1412 6.58831 61.5613 12.4903 66.0459L26.782 47.2372C31.2677 50.6457 32.141 57.0452 28.7326 61.5309L9.92392 47.2392ZM12.4903 66.0459L13.7725 67.0202L28.0642 48.2115L26.782 47.2372L12.4903 66.0459ZM13.7725 67.0202C19.6745 71.5048 28.0946 70.3558 32.5792 64.4538L13.7706 50.1621C17.179 45.6764 23.5785 44.8031 28.0642 48.2115L13.7725 67.0202ZM32.5792 64.4538L47.1935 45.2206L28.3849 30.9289L13.7706 50.1621L32.5792 64.4538ZM30.6433 47.4791L35.7722 51.3762L50.064 32.5676L44.9351 28.6704L30.6433 47.4791ZM35.7722 51.3762C41.3202 55.5918 49.2351 54.5117 53.4507 48.9638L34.642 34.6721C38.3195 29.8323 45.2241 28.8901 50.064 32.5676L35.7722 51.3762ZM53.4507 48.9638L57.835 43.1938L39.0263 28.9021L34.642 34.6721L53.4507 48.9638ZM57.835 43.1938C62.0505 37.646 60.9705 29.731 55.4225 25.5154L41.1308 44.3241C36.291 40.6465 35.3488 33.7419 39.0263 28.9021L57.835 43.1938ZM55.4225 25.5154L50.9347 22.1054L36.643 40.914L41.1308 44.3241L55.4225 25.5154ZM34.8717 23.7228L34.3846 24.3638L53.1932 38.6556L53.6804 38.0145L34.8717 23.7228Z" fill="white" mask="url(#path-4-inside-1_25_2420)"/>
</g>
</g>
</g>
<g clip-path="url(#clip1_25_2420)" filter="url(#filter2_d_25_2420)">
<g clip-path="url(#clip2_25_2420)">
<path d="M41.1115 38.3018H41.0339V37.7308H40.8561V37.6509H41.2901V37.7308H41.1123L41.1115 38.3018ZM41.6493 38.1507L41.8153 37.6509H41.9365V38.3022H41.8557V37.7577L41.6719 38.3018H41.6226L41.4396 37.7577V38.3018H41.3628V37.6505H41.484L41.6493 38.1507ZM40.0779 32.68H32.6433V34.8459C32.6433 34.8459 32.6207 35.6822 33.5832 35.6822H38.1275C38.3058 35.6806 38.4824 35.7192 38.6459 35.7955C38.8997 35.9171 39.1849 36.1646 39.1849 36.6639C39.1849 37.1121 38.9829 37.3665 38.7829 37.5089C38.6173 37.6239 38.4241 37.6843 38.2269 37.6826H32.6433V38.2905H38.8694C38.8694 38.2905 40.2836 38.2289 40.2836 36.667C40.2836 35.8728 39.852 35.4794 39.4637 35.2866C39.2128 35.1627 38.9398 35.0992 38.6637 35.1003H34.1597C34.0847 35.1014 34.0106 35.0824 33.944 35.0452C33.8478 34.9892 33.742 34.878 33.742 34.6592V33.2796H40.0779V32.68ZM23.2859 37.6804V38.2884H26.4415C26.8187 38.2926 27.1846 38.1503 27.4719 37.8876C27.62 37.7524 27.7382 37.5834 27.8177 37.3929C27.8973 37.2024 27.9362 36.9952 27.9317 36.7864V34.2024C27.9301 34.0611 27.9583 33.9212 28.0143 33.7933C28.0703 33.6655 28.1526 33.5529 28.2549 33.4642C28.4002 33.342 28.58 33.2769 28.7644 33.2796H31.5156V32.68H28.2392C28.2392 32.68 26.825 32.7043 26.825 34.3118V36.7247C26.8275 36.9224 26.7779 37.1167 26.6819 37.2853C26.6125 37.41 26.5134 37.5125 26.3947 37.5822C26.2761 37.6519 26.1423 37.6863 26.0072 37.6817L23.2859 37.6804ZM16 32.68V33.2796H21.6244C21.7809 33.2782 21.9357 33.3139 22.0778 33.3843C22.3008 33.4968 22.5513 33.7282 22.5513 34.1976C22.5513 34.6535 22.3008 34.8815 22.0778 34.9944C21.9333 35.0656 21.7761 35.1018 21.6171 35.1003H17.4457C17.1988 35.0978 16.9547 35.1573 16.733 35.274C16.3859 35.4612 16 35.9019 16 36.6288V38.2788H17.0825V36.6362C17.0817 36.5293 17.0997 36.4232 17.1354 36.3235C17.2247 36.0773 17.4505 35.6822 17.9786 35.6822H22.1848C22.3263 35.683 22.4672 35.6627 22.6034 35.6218C22.9897 35.5037 23.6338 35.1624 23.6338 34.1976C23.6338 32.6982 22.245 32.68 22.245 32.68H16Z" fill="#FBFBFB"/>
</g>
<path d="M27.0496 16.56C27.7903 16.7063 28.5184 16.9153 29.2429 17.1331C29.6574 17.2607 30.0707 17.3926 30.4814 17.5332C31.1265 17.7509 31.7689 17.9974 32.3532 18.365C32.6149 18.5334 32.8663 18.7237 33.0811 18.9557C33.3139 19.1967 33.5044 19.4826 33.6443 19.7937C33.8991 20.3575 33.9863 20.9873 34.0121 21.6065C34.0243 22.0106 34.0235 22.4182 33.9523 22.817C33.8931 23.1636 33.7879 23.5054 33.6129 23.8064C33.4584 24.0723 33.2436 24.3022 32.9829 24.4504C32.7328 24.5932 32.4464 24.6613 32.1627 24.6553C31.7326 24.6601 31.3152 24.5147 30.9292 24.3243C30.9222 22.9641 30.9281 21.6036 30.9261 20.2435C30.9233 19.9974 30.9391 19.7487 30.8924 19.506C30.8595 19.3179 30.787 19.1283 30.6477 19.0006C30.5553 18.9123 30.4355 18.8625 30.3151 18.8356C30.1934 18.811 30.0635 18.8658 29.9882 18.9694C29.8628 19.1353 29.83 19.3555 29.8243 19.562C29.8233 23.2035 29.8255 26.8452 29.8233 30.4865C28.8987 30.1761 27.974 29.8654 27.0497 29.554C27.0487 25.2226 27.0491 20.8914 27.0496 16.56Z" fill="#FBFBFB"/>
<path d="M22.8936 25.7752C24.099 25.323 25.3031 24.8665 26.509 24.4158C26.5109 24.9173 26.509 25.4189 26.5097 25.9208C26.509 25.9888 26.5132 26.0572 26.5051 26.1248C25.5519 26.4828 24.6007 26.8471 23.6484 27.2073C23.5164 27.2601 23.381 27.32 23.2792 27.4268C23.2318 27.4769 23.1932 27.5508 23.2192 27.6227C23.2518 27.7072 23.3332 27.7531 23.4083 27.788C23.6172 27.878 23.8456 27.8907 24.0681 27.9016C24.3162 27.8974 24.5653 27.8777 24.8083 27.8209C24.9726 27.7868 25.1306 27.7281 25.2872 27.6658C25.6941 27.5097 26.1009 27.3527 26.5085 27.1982C26.5115 27.6224 26.509 28.0468 26.5097 28.4714C26.5085 28.5562 26.5134 28.6415 26.5054 28.7261C26.005 28.8213 25.4986 28.886 24.9899 28.8945C23.9656 28.919 22.9388 28.751 21.9658 28.4118C21.6467 28.3138 21.3296 28.1835 21.0631 27.9687C20.9165 27.8484 20.7852 27.6971 20.7185 27.5111C20.6626 27.3535 20.6666 27.1714 20.7363 27.0194C20.8034 26.8677 20.9208 26.7478 21.05 26.6547C21.349 26.4359 21.6788 26.2691 22.013 26.1203C22.3009 25.99 22.5996 25.8888 22.8936 25.7752Z" fill="#FBFBFB"/>
<path d="M32.5924 25.204C32.8658 25.1705 33.1409 25.1626 33.4157 25.1522C34.3199 25.1558 35.2286 25.275 36.0935 25.5624C36.2632 25.6171 36.4276 25.6878 36.5966 25.7449C36.898 25.8616 37.1996 26.003 37.4409 26.2325C37.5859 26.3727 37.7109 26.5615 37.7126 26.777C37.7212 26.9524 37.6463 27.1207 37.5389 27.2501C37.3346 27.4928 37.0645 27.6596 36.7933 27.8051C36.5046 27.9611 36.1943 28.0617 35.8916 28.1804C34.044 28.8834 32.1962 29.5861 30.3489 30.2898C30.3486 29.7415 30.3494 29.1932 30.3486 28.6452C30.3514 28.6233 30.34 28.5851 30.3692 28.5794C31.7751 28.0494 33.1805 27.5179 34.586 26.9866C34.7761 26.9113 34.9808 26.8567 35.1421 26.7201C35.2081 26.6651 35.2728 26.5778 35.2404 26.4836C35.2066 26.4012 35.126 26.3555 35.0517 26.3215C34.8413 26.2332 34.6122 26.2161 34.3884 26.2095C34.038 26.212 33.6845 26.2579 33.3513 26.3768C32.35 26.7486 31.3505 27.1249 30.3489 27.4955C30.349 26.9067 30.3486 26.3183 30.3491 25.7296C31.0738 25.4602 31.8304 25.2969 32.5924 25.204Z" fill="#FBFBFB"/>
<path d="M36.6997 29.2602C36.9183 29.2313 37.1467 29.3351 37.2777 29.523C37.4207 29.7167 37.4469 29.9961 37.3458 30.2175C37.2439 30.4471 37.0108 30.608 36.7694 30.5996C36.5472 30.6048 36.332 30.4677 36.2226 30.2648C36.1238 30.0859 36.112 29.8569 36.1885 29.6667C36.2745 29.4471 36.477 29.2868 36.6997 29.2602ZM36.6522 29.3839C36.5298 29.4134 36.4186 29.492 36.3455 29.6001C36.2577 29.7273 36.2244 29.8955 36.2578 30.0495C36.2859 30.1924 36.3712 30.3201 36.4864 30.3993C36.6638 30.5228 36.9125 30.516 37.0822 30.3803C37.2573 30.2492 37.3405 29.9975 37.2803 29.7795C37.2432 29.6321 37.1438 29.5067 37.0186 29.4337C36.9073 29.371 36.7746 29.3529 36.6522 29.3839Z" fill="#FBFBFB"/>
<path d="M36.5005 29.5416C36.6144 29.5409 36.7287 29.5414 36.8428 29.5412C36.9072 29.5421 36.9783 29.558 37.0239 29.6104C37.07 29.6655 37.0736 29.7455 37.061 29.8145C37.0539 29.86 37.016 29.887 36.9885 29.9188C37.0124 29.9412 37.0429 29.9622 37.0486 29.9987C37.0618 30.0684 37.0478 30.1418 37.069 30.2101C37.0822 30.2342 37.0958 30.2586 37.0968 30.2875C37.0495 30.2889 37.0023 30.2879 36.955 30.2887C36.9232 30.2093 36.9469 30.1199 36.9271 30.0381C36.9193 30.0047 36.8866 29.984 36.8555 29.985C36.7784 29.9815 36.701 29.984 36.6241 29.9838C36.623 30.0854 36.6269 30.1873 36.6219 30.2887C36.5816 30.2881 36.5413 30.2881 36.5011 30.2889C36.4991 30.0394 36.5005 29.7906 36.5005 29.5416ZM36.6241 29.66C36.6243 29.7287 36.6243 29.7975 36.6241 29.8665C36.693 29.8669 36.7621 29.8674 36.8312 29.8667C36.8655 29.8665 36.9053 29.8596 36.9276 29.8288C36.951 29.7896 36.9505 29.7373 36.9294 29.6974C36.9117 29.6659 36.8741 29.6628 36.8433 29.6608C36.7702 29.6585 36.6971 29.6599 36.6241 29.66Z" fill="#FBFBFB"/>
</g>
</g>
<defs>
<filter id="filter0_d_25_2420" x="0" y="0" width="58" height="58" filterUnits="userSpaceOnUse" color-interpolation-filters="sRGB">
<feFlood flood-opacity="0" result="BackgroundImageFix"/>
<feColorMatrix in="SourceAlpha" type="matrix" values="0 0 0 0 0 0 0 0 0 0 0 0 0 0 0 0 0 0 127 0" result="hardAlpha"/>
<feOffset dy="4"/>
<feGaussianBlur stdDeviation="2"/>
<feComposite in2="hardAlpha" operator="out"/>
<feColorMatrix type="matrix" values="0 0 0 0 0 0 0 0 0 0 0 0 0 0 0 0 0 0 0.25 0"/>
<feBlend mode="normal" in2="BackgroundImageFix" result="effect1_dropShadow_25_2420"/>
<feBlend mode="normal" in="SourceGraphic" in2="effect1_dropShadow_25_2420" result="shape"/>
</filter>
<filter id="filter1_d_25_2420" x="0" y="0" width="58" height="58" filterUnits="userSpaceOnUse" color-interpolation-filters="sRGB">
<feFlood flood-opacity="0" result="BackgroundImageFix"/>
<feColorMatrix in="SourceAlpha" type="matrix" values="0 0 0 0 0 0 0 0 0 0 0 0 0 0 0 0 0 0 127 0" result="hardAlpha"/>
<feOffset dy="4"/>
<feGaussianBlur stdDeviation="2"/>
<feComposite in2="hardAlpha" operator="out"/>
<feColorMatrix type="matrix" values="0 0 0 0 0 0 0 0 0 0 0 0 0 0 0 0 0 0 0.25 0"/>
<feBlend mode="normal" in2="BackgroundImageFix" result="effect1_dropShadow_25_2420"/>
<feBlend mode="normal" in="SourceGraphic" in2="effect1_dropShadow_25_2420" result="shape"/>
</filter>
<filter id="filter2_d_25_2420" x="13.92" y="15" width="30.16" height="30.16" filterUnits="userSpaceOnUse" color-interpolation-filters="sRGB">
<feFlood flood-opacity="0" result="BackgroundImageFix"/>
<feColorMatrix in="SourceAlpha" type="matrix" values="0 0 0 0 0 0 0 0 0 0 0 0 0 0 0 0 0 0 127 0" result="hardAlpha"/>
<feOffset dy="2.08"/>
<feGaussianBlur stdDeviation="1.04"/>
<feComposite in2="hardAlpha" operator="out"/>
<feColorMatrix type="matrix" values="0 0 0 0 0 0 0 0 0 0 0 0 0 0 0 0 0 0 0.25 0"/>
<feBlend mode="normal" in2="BackgroundImageFix" result="effect1_dropShadow_25_2420"/>
<feBlend mode="normal" in="SourceGraphic" in2="effect1_dropShadow_25_2420" result="shape"/>
</filter>
<clipPath id="clip0_25_2420">
<rect width="50" height="50" fill="white" transform="translate(4)"/>
</clipPath>
<clipPath id="clip1_25_2420">
<rect width="26" height="26" fill="white" transform="translate(16 15)"/>
</clipPath>
<clipPath id="clip2_25_2420">
<rect width="40.04" height="9.36" fill="white" transform="translate(1.95996 31.12)"/>
</clipPath>
</defs>
</svg>
