<svg width="58" height="58" viewBox="0 0 58 58" fill="none" xmlns="http://www.w3.org/2000/svg">
<g clip-path="url(#clip0_25_3123)" filter="url(#filter0_d_25_3123)">
<g filter="url(#filter1_d_25_3123)">
<path d="M13 47V3L33.5706 3L45 15.0365L45 47H13Z" fill="#3B6F9E" stroke="#3B6F9E" stroke-width="2"/>
<mask id="mask0_25_3123" style="mask-type:alpha" maskUnits="userSpaceOnUse" x="12" y="2" width="34" height="46">
<path d="M13 47V3L33.5706 3L45 15.0365L45 47H13Z" fill="#FBFBFB" stroke="#FBFBFB" stroke-width="2"/>
</mask>
<g mask="url(#mask0_25_3123)">
<rect x="34" width="15" height="14" fill="#FBFBFB"/>
<g opacity="0.2">
<mask id="path-4-inside-1_25_3123" fill="white">
<path d="M44.276 30.8686L39.1472 26.9715L38.66 27.6126L35.4377 25.1641C35.2454 25.018 34.9977 24.9659 34.7629 25.0222L25.6578 27.2051C24.9972 27.3634 24.8175 28.2182 25.3583 28.6292L33.9426 35.1519L19.3282 54.3851C18.7902 55.0932 18.928 56.1035 19.6362 56.6416L20.9184 57.6159C21.6265 58.1539 22.6368 58.0161 23.1749 57.3079L37.7892 38.0747L42.9181 41.9719C43.2722 42.241 43.7773 42.172 44.0463 41.818L48.4306 36.048C48.6997 35.6939 48.6307 35.1888 48.2767 34.9197L43.7889 31.5097L44.276 30.8686Z"/>
</mask>
<path d="M39.1472 26.9715L46.293 17.5671L36.8887 10.4213L29.7428 19.8256L39.1472 26.9715ZM44.276 30.8686L53.6804 38.0145L60.8262 28.6101L51.4219 21.4643L44.276 30.8686ZM38.66 27.6126L31.5142 37.0169L40.9185 44.1627L48.0644 34.7584L38.66 27.6126ZM35.4377 25.1641L42.5836 15.7598L42.5836 15.7598L35.4377 25.1641ZM34.7629 25.0222L37.5165 36.5079L37.5165 36.5079L34.7629 25.0222ZM25.6578 27.2051L22.9042 15.7193L22.9042 15.7193L25.6578 27.2051ZM25.3583 28.6292L18.2125 38.0335H18.2125L25.3583 28.6292ZM33.9426 35.1519L43.3469 42.2977L50.4927 32.8934L41.0884 25.7475L33.9426 35.1519ZM19.3282 54.3851L9.92392 47.2392L19.3282 54.3851ZM19.6362 56.6416L12.4903 66.0459L12.4903 66.0459L19.6362 56.6416ZM20.9184 57.6159L28.0642 48.2115L28.0642 48.2115L20.9184 57.6159ZM23.1749 57.3079L13.7706 50.1621L23.1749 57.3079ZM37.7892 38.0747L44.9351 28.6704L35.5307 21.5245L28.3849 30.9289L37.7892 38.0747ZM42.9181 41.9719L35.7722 51.3762L42.9181 41.9719ZM44.0463 41.818L53.4507 48.9638V48.9638L44.0463 41.818ZM48.4306 36.048L39.0263 28.9021L39.0263 28.9021L48.4306 36.048ZM48.2767 34.9197L55.4225 25.5154V25.5154L48.2767 34.9197ZM43.7889 31.5097L34.3846 24.3638L27.2387 33.7682L36.643 40.914L43.7889 31.5097ZM32.0013 36.3758L37.1302 40.2729L51.4219 21.4643L46.293 17.5671L32.0013 36.3758ZM48.0644 34.7584L48.5515 34.1173L29.7428 19.8256L29.2557 20.4667L48.0644 34.7584ZM45.8059 18.2082L42.5836 15.7598L28.2919 34.5684L31.5142 37.0169L45.8059 18.2082ZM42.5836 15.7598C39.5706 13.4704 35.6891 12.6542 32.0092 13.5364L37.5165 36.5079C34.3063 37.2775 30.9203 36.5656 28.2919 34.5684L42.5836 15.7598ZM32.0093 13.5364L22.9042 15.7193L28.4113 38.6908L37.5165 36.5079L32.0093 13.5364ZM22.9042 15.7193C12.554 18.2007 9.7379 31.5941 18.2125 38.0335L32.5042 19.2248C39.897 24.8423 37.4404 36.5262 28.4114 38.6908L22.9042 15.7193ZM18.2125 38.0335L26.7967 44.5562L41.0884 25.7475L32.5042 19.2248L18.2125 38.0335ZM24.5382 28.006L9.92392 47.2392L28.7326 61.5309L43.3469 42.2977L24.5382 28.006ZM9.92392 47.2392C5.43928 53.1412 6.58831 61.5613 12.4903 66.0459L26.782 47.2372C31.2677 50.6457 32.141 57.0452 28.7326 61.5309L9.92392 47.2392ZM12.4903 66.0459L13.7725 67.0202L28.0642 48.2115L26.782 47.2372L12.4903 66.0459ZM13.7725 67.0202C19.6745 71.5048 28.0946 70.3558 32.5792 64.4538L13.7706 50.1621C17.179 45.6764 23.5785 44.8031 28.0642 48.2115L13.7725 67.0202ZM32.5792 64.4538L47.1935 45.2206L28.3849 30.9289L13.7706 50.1621L32.5792 64.4538ZM30.6433 47.4791L35.7722 51.3762L50.064 32.5676L44.9351 28.6704L30.6433 47.4791ZM35.7722 51.3762C41.3202 55.5918 49.2351 54.5117 53.4507 48.9638L34.642 34.6721C38.3195 29.8323 45.2241 28.8901 50.064 32.5676L35.7722 51.3762ZM53.4507 48.9638L57.835 43.1938L39.0263 28.9021L34.642 34.6721L53.4507 48.9638ZM57.835 43.1938C62.0505 37.646 60.9705 29.731 55.4225 25.5154L41.1308 44.3241C36.291 40.6465 35.3488 33.7419 39.0263 28.9021L57.835 43.1938ZM55.4225 25.5154L50.9347 22.1054L36.643 40.914L41.1308 44.3241L55.4225 25.5154ZM34.8717 23.7228L34.3846 24.3638L53.1932 38.6556L53.6804 38.0145L34.8717 23.7228Z" fill="white" mask="url(#path-4-inside-1_25_3123)"/>
</g>
</g>
</g>
<g clip-path="url(#clip1_25_3123)" filter="url(#filter2_d_25_3123)">
<g clip-path="url(#clip2_25_3123)">
<g clip-path="url(#clip3_25_3123)">
<path d="M29.7506 33.4784H30.2874L31.4549 35.0603L32.6212 33.4784H33.1577L31.7264 35.4178L33.2954 37.5517H32.7589L31.4549 35.7854L30.1515 37.5517H29.6143L31.1826 35.4178L29.7506 33.4784Z" fill="#FBFBFB"/>
<path d="M25.5793 35.5719C25.4941 35.4995 25.4016 35.4435 25.3118 35.402C25.6081 35.2416 25.8025 34.9383 25.8025 34.5866C25.8025 34.3259 25.7062 33.4786 24.4752 33.4786H22.8172V35.2345H22.2648C22.1928 35.3276 22.0304 35.5513 21.9683 35.6432H22.8172V37.5513L24.4752 37.5515C25.3734 37.5515 25.9316 37.0964 25.9316 36.3625C25.9316 36.0418 25.81 35.7691 25.5793 35.5719ZM23.2756 33.9035H24.4752C24.8002 33.9035 25.3438 33.9841 25.3438 34.5508C25.3438 34.9792 25.0269 35.2345 24.4752 35.2345H23.2756V33.9035ZM24.4752 37.1267H23.2756V35.6438H24.4752C24.9302 35.6438 25.4743 35.7691 25.4743 36.3537C25.4743 37.0258 24.8486 37.1267 24.4752 37.1267Z" fill="#FBFBFB"/>
<path d="M28.088 33.3843C26.9413 33.3843 26.1396 34.2595 26.1396 35.5124C26.1396 36.7672 26.9413 37.6418 28.088 37.6418C29.234 37.6418 30.0331 36.7672 30.0331 35.5124C30.0331 34.2595 29.234 33.3843 28.088 33.3843ZM28.088 37.211C27.2143 37.211 26.6023 36.5125 26.6023 35.5124C26.6023 34.5131 27.2143 33.8148 28.088 33.8148C28.9604 33.8148 29.5694 34.5131 29.5694 35.5124C29.5694 36.5125 28.9604 37.211 28.088 37.211Z" fill="#FBFBFB"/>
<path d="M19.586 33.4785H19.0509L20.4822 35.4177L18.9128 37.5513H19.4505L20.7534 35.7855L22.057 37.5513H22.5941L21.0245 35.4177L22.4568 33.4785H21.9201L20.7526 35.0608L19.586 33.4785Z" fill="#FBFBFB"/>
</g>
<g clip-path="url(#clip4_25_3123)">
<path d="M35.245 33.5314C35.2099 33.4843 35.1545 33.4578 35.0967 33.4605C35.0497 33.458 35.004 33.4765 34.9718 33.5116C34.9354 33.5611 34.9119 33.6193 34.9036 33.6807L34.8926 33.7386C34.8876 33.7745 34.8756 33.8089 34.8572 33.8399C34.8431 33.8586 34.8209 33.8691 34.7979 33.868C34.7745 33.8689 34.7523 33.8574 34.7392 33.8376C34.7238 33.811 34.7165 33.7802 34.7184 33.7493C34.7153 33.7113 34.7246 33.6733 34.7446 33.6412C34.7652 33.6172 34.7954 33.6035 34.8266 33.6038V33.4795H34.8256C34.7664 33.4789 34.7099 33.5052 34.6715 33.5512C34.6312 33.6094 34.6118 33.6801 34.6166 33.7513C34.6129 33.8159 34.6304 33.8798 34.6664 33.9331C34.6982 33.976 34.7483 34.0004 34.8009 33.9988C34.8493 34.0004 34.896 33.9808 34.9294 33.945C34.9668 33.8991 34.9909 33.8434 34.9986 33.784L35.0096 33.728C35.015 33.6906 35.027 33.6545 35.0451 33.6215C35.0581 33.6023 35.0799 33.5914 35.1027 33.5925C35.13 33.5911 35.156 33.6039 35.1719 33.6266C35.1897 33.6565 35.1981 33.6912 35.1959 33.726C35.1988 33.7687 35.1884 33.8113 35.1662 33.8476C35.1418 33.8771 35.105 33.8928 35.0674 33.8897H35.0665V34.0159H35.0675C35.1327 34.0191 35.1956 33.9912 35.2381 33.9403C35.3149 33.8162 35.3176 33.6583 35.245 33.5314Z" fill="#FBFBFB"/>
<path d="M34.9031 37.2661C34.9114 37.2047 34.9349 37.1465 34.9713 37.097C35.0036 37.0615 35.0494 37.0421 35.0967 37.0446C35.1545 37.0417 35.21 37.0683 35.245 37.1155C35.3176 37.2423 35.3149 37.4001 35.2381 37.5243C35.1957 37.5752 35.1328 37.6031 35.0676 37.5999H35.0666V37.4744H35.0675C35.1051 37.4775 35.1419 37.4618 35.1663 37.4323C35.1885 37.396 35.1989 37.3534 35.196 37.3107C35.1982 37.2759 35.1898 37.2412 35.172 37.2113C35.1561 37.1887 35.1301 37.1759 35.1027 37.177C35.0799 37.1759 35.0581 37.1867 35.0451 37.206C35.027 37.239 35.0151 37.2751 35.0096 37.3125L34.9986 37.3685C34.9909 37.4279 34.9668 37.4836 34.9294 37.5295C34.896 37.5654 34.8493 37.5849 34.8009 37.5834C34.7483 37.5851 34.6982 37.5606 34.6664 37.5177C34.6304 37.4645 34.6128 37.4005 34.6165 37.3359C34.6116 37.2647 34.631 37.194 34.6714 37.1358C34.7099 37.0898 34.7663 37.0635 34.8255 37.0641H34.8265V37.1891H34.8256C34.7945 37.1889 34.7648 37.2026 34.7442 37.2265C34.7241 37.2587 34.7149 37.2967 34.7179 37.3347C34.7161 37.3656 34.7233 37.3964 34.7387 37.423C34.7518 37.4428 34.774 37.4543 34.7974 37.4533C34.8205 37.4545 34.8426 37.444 34.8567 37.4253C34.8751 37.3943 34.8871 37.3599 34.8921 37.324L34.9031 37.2661Z" fill="#FBFBFB"/>
<path d="M35.2839 35.2035H34.6316V35.0754H35.2839V35.2035Z" fill="#FBFBFB"/>
<path d="M34.6316 34.2729H34.7439L34.7434 34.6376H34.8971V34.3078H35.0049V34.6376H35.1715V34.2729H35.2839V34.7654H34.6316V34.2729Z" fill="#FBFBFB"/>
<path d="M34.6316 36.2959H34.7439L34.7434 36.6606H34.8971V36.3308H35.0049V36.6606H35.1715V36.2959H35.2839V36.7883H34.6316V36.2959Z" fill="#FBFBFB"/>
<path d="M36.4318 37.6005H35.5666L36.6565 36.0654L37.0891 36.6748L36.4318 37.6005Z" fill="#FBFBFB"/>
<path d="M38.4923 33.4801H39.3575L38.3871 34.8467L37.9544 34.2374L38.4923 33.4801Z" fill="#FBFBFB"/>
<path d="M35.686 33.4801H36.5513L39.4769 37.5999H38.6117L35.686 33.4801Z" fill="#FBFBFB"/>
<path fill-rule="evenodd" clip-rule="evenodd" d="M35.283 35.4717V35.6038C35.2589 35.6165 35.232 35.6227 35.2049 35.6218L35.1337 35.6246C35.104 35.6231 35.0749 35.6328 35.0518 35.6519C35.0346 35.674 35.0264 35.702 35.0287 35.7302V35.8936H35.2834V36.0216H34.6311V35.7189C34.6311 35.7044 34.6318 35.69 34.6332 35.6756V35.6893C34.6345 35.6441 34.6475 35.6001 34.6704 35.5615L34.6651 35.5682C34.6697 35.5603 34.6748 35.5526 34.6806 35.5455C34.7136 35.5043 34.7635 35.4814 34.8155 35.4835C34.8856 35.4786 34.9498 35.5238 34.9707 35.5927C34.9783 35.5642 34.9954 35.5394 35.019 35.5224C35.0465 35.5063 35.0777 35.498 35.1094 35.4984L35.2061 35.4928C35.2326 35.4934 35.2587 35.4865 35.2814 35.4725L35.283 35.4717ZM34.7587 35.6459C34.7764 35.6251 34.8025 35.6139 34.8293 35.6155C34.8571 35.6134 34.8842 35.6236 34.9038 35.6439C34.9222 35.667 34.9314 35.6963 34.9296 35.726V35.8938H34.7343V35.7317C34.7324 35.701 34.7411 35.6707 34.7587 35.6459Z" fill="#FBFBFB"/>
</g>
</g>
<g clip-path="url(#clip5_25_3123)">
<path d="M28.2935 30.9397C27.1969 30.8346 26.0867 30.4408 25.133 29.8185C24.3338 29.2974 24.1535 29.0828 24.1535 28.6551C24.1535 27.7959 25.0982 26.2907 26.7147 24.5753C27.6325 23.6008 28.9111 22.4591 29.0493 22.4899C29.3183 22.5499 31.4676 24.6464 32.2724 25.6335C33.5447 27.1938 34.1294 28.4717 33.8323 29.0414C33.6064 29.4744 32.2047 30.3209 31.1751 30.646C30.3263 30.914 29.2116 31.0275 28.2935 30.9397ZM23.0741 27.7618C22.4099 26.7429 22.0744 25.7399 21.9126 24.2892C21.859 23.8102 21.8778 23.5364 22.0339 22.5529C22.2279 21.3286 22.9257 19.9106 23.7645 19.0387C24.1216 18.6681 24.1533 18.6581 24.5888 18.8054C25.1166 18.9841 25.6808 19.3739 26.5561 20.1654L27.0673 20.6277L26.7877 20.9702C25.4925 22.5602 24.1255 24.8154 23.611 26.2101C23.3314 26.9679 23.2188 27.729 23.3396 28.0459C23.4207 28.26 23.3462 28.1802 23.0732 27.7623L23.0741 27.7618ZM34.7308 27.935C34.7965 27.6147 34.7135 27.0267 34.5191 26.4333C34.098 25.1486 32.6901 22.7586 31.3974 21.1335L30.9904 20.6219L31.4309 20.2177C32.0056 19.6899 32.4047 19.3739 32.8356 19.1054C33.1752 18.8936 33.6608 18.7061 33.8697 18.7061C33.9982 18.7061 34.4514 19.1777 34.817 19.6906C35.3836 20.4847 35.8002 21.4493 36.0113 22.452C36.1478 23.1006 36.1592 24.4871 36.0333 25.134C35.9291 25.6648 35.7107 26.3528 35.4989 26.8195C35.3384 27.1691 34.943 27.8483 34.7692 28.0693C34.6799 28.183 34.6799 28.1828 34.7295 27.9376L34.7308 27.935ZM28.411 18.4636C27.8143 18.1608 26.8941 17.8357 26.3858 17.748C26.2078 17.7174 25.9038 17.7 25.7108 17.7099C25.2912 17.7311 25.3099 17.7092 25.9826 17.3914C26.5418 17.1272 27.0084 16.9718 27.6421 16.8388C28.3544 16.6891 29.6937 16.6874 30.3948 16.8351C31.1517 16.9948 32.0434 17.3265 32.5457 17.6359L32.6953 17.7276L32.3528 17.7104C31.6718 17.676 30.6794 17.9511 29.6138 18.4693C29.2925 18.6259 29.0132 18.7506 28.9927 18.7473C28.9724 18.7433 28.7104 18.6158 28.4103 18.4636H28.411Z" fill="#FBFBFB"/>
</g>
</g>
</g>
<defs>
<filter id="filter0_d_25_3123" x="0" y="0" width="58" height="58" filterUnits="userSpaceOnUse" color-interpolation-filters="sRGB">
<feFlood flood-opacity="0" result="BackgroundImageFix"/>
<feColorMatrix in="SourceAlpha" type="matrix" values="0 0 0 0 0 0 0 0 0 0 0 0 0 0 0 0 0 0 127 0" result="hardAlpha"/>
<feOffset dy="4"/>
<feGaussianBlur stdDeviation="2"/>
<feComposite in2="hardAlpha" operator="out"/>
<feColorMatrix type="matrix" values="0 0 0 0 0 0 0 0 0 0 0 0 0 0 0 0 0 0 0.25 0"/>
<feBlend mode="normal" in2="BackgroundImageFix" result="effect1_dropShadow_25_3123"/>
<feBlend mode="normal" in="SourceGraphic" in2="effect1_dropShadow_25_3123" result="shape"/>
</filter>
<filter id="filter1_d_25_3123" x="0" y="0" width="58" height="58" filterUnits="userSpaceOnUse" color-interpolation-filters="sRGB">
<feFlood flood-opacity="0" result="BackgroundImageFix"/>
<feColorMatrix in="SourceAlpha" type="matrix" values="0 0 0 0 0 0 0 0 0 0 0 0 0 0 0 0 0 0 127 0" result="hardAlpha"/>
<feOffset dy="4"/>
<feGaussianBlur stdDeviation="2"/>
<feComposite in2="hardAlpha" operator="out"/>
<feColorMatrix type="matrix" values="0 0 0 0 0 0 0 0 0 0 0 0 0 0 0 0 0 0 0.25 0"/>
<feBlend mode="normal" in2="BackgroundImageFix" result="effect1_dropShadow_25_3123"/>
<feBlend mode="normal" in="SourceGraphic" in2="effect1_dropShadow_25_3123" result="shape"/>
</filter>
<filter id="filter2_d_25_3123" x="13.92" y="15" width="30.16" height="30.16" filterUnits="userSpaceOnUse" color-interpolation-filters="sRGB">
<feFlood flood-opacity="0" result="BackgroundImageFix"/>
<feColorMatrix in="SourceAlpha" type="matrix" values="0 0 0 0 0 0 0 0 0 0 0 0 0 0 0 0 0 0 127 0" result="hardAlpha"/>
<feOffset dy="2.08"/>
<feGaussianBlur stdDeviation="1.04"/>
<feComposite in2="hardAlpha" operator="out"/>
<feColorMatrix type="matrix" values="0 0 0 0 0 0 0 0 0 0 0 0 0 0 0 0 0 0 0.25 0"/>
<feBlend mode="normal" in2="BackgroundImageFix" result="effect1_dropShadow_25_3123"/>
<feBlend mode="normal" in="SourceGraphic" in2="effect1_dropShadow_25_3123" result="shape"/>
</filter>
<clipPath id="clip0_25_3123">
<rect width="50" height="50" fill="white" transform="translate(4)"/>
</clipPath>
<clipPath id="clip1_25_3123">
<rect width="26" height="26" fill="white" transform="translate(16 15)"/>
</clipPath>
<clipPath id="clip2_25_3123">
<rect width="41.08" height="9.63605" fill="white" transform="translate(4.56006 30.6)"/>
</clipPath>
<clipPath id="clip3_25_3123">
<rect width="27.2088" height="6.95937" fill="white" transform="translate(18.4312 32.206)"/>
</clipPath>
<clipPath id="clip4_25_3123">
<rect width="9.568" height="4.3056" fill="white" transform="translate(34.616 33.3872)"/>
</clipPath>
<clipPath id="clip5_25_3123">
<rect width="14.56" height="14.56" fill="white" transform="translate(21.72 16.56)"/>
</clipPath>
</defs>
</svg>
