<svg width="50" height="50" viewBox="0 0 50 50" fill="none" xmlns="http://www.w3.org/2000/svg">
<g clip-path="url(#clip0_24_907)">
<path d="M29.5703 3L41 15.0361V47H9V3H29.5703Z" fill="#3B6F9E" stroke="#3B6F9E" stroke-width="2"/>
<mask id="mask0_24_907" style="mask-type:alpha" maskUnits="userSpaceOnUse" x="8" y="2" width="34" height="46">
<path d="M29.5703 3L41 15.0361V47H9V3H29.5703Z" fill="#FBFBFB" stroke="#FBFBFB" stroke-width="2"/>
</mask>
<g mask="url(#mask0_24_907)">
<rect x="30" width="15" height="14" fill="#FBFBFB"/>
<g opacity="0.2">
<mask id="path-4-inside-1_24_907" fill="white">
<path d="M40.276 30.8686L35.1472 26.9715L34.66 27.6126L31.4377 25.1641C31.2454 25.018 30.9977 24.9659 30.7629 25.0222L21.6578 27.2051C20.9972 27.3634 20.8175 28.2182 21.3583 28.6292L29.9426 35.1519L15.3282 54.3851C14.7902 55.0932 14.928 56.1035 15.6362 56.6416L16.9184 57.6159C17.6265 58.1539 18.6368 58.0161 19.1749 57.3079L33.7892 38.0747L38.9181 41.9719C39.2722 42.241 39.7773 42.172 40.0463 41.818L44.4306 36.048C44.6997 35.6939 44.6307 35.1888 44.2767 34.9197L39.7889 31.5097L40.276 30.8686Z"/>
</mask>
<path d="M35.1472 26.9715L42.293 17.5671L32.8887 10.4213L25.7428 19.8256L35.1472 26.9715ZM40.276 30.8686L49.6804 38.0145L56.8262 28.6101L47.4219 21.4643L40.276 30.8686ZM34.66 27.6126L27.5142 37.0169L36.9185 44.1627L44.0644 34.7584L34.66 27.6126ZM31.4377 25.1641L38.5836 15.7598L38.5836 15.7598L31.4377 25.1641ZM30.7629 25.0222L33.5165 36.5079L33.5165 36.5079L30.7629 25.0222ZM21.6578 27.2051L18.9042 15.7193L18.9042 15.7193L21.6578 27.2051ZM21.3583 28.6292L14.2125 38.0335H14.2125L21.3583 28.6292ZM29.9426 35.1519L39.3469 42.2977L46.4927 32.8934L37.0884 25.7475L29.9426 35.1519ZM15.3282 54.3851L5.92392 47.2392L15.3282 54.3851ZM15.6362 56.6416L8.49032 66.0459L8.49033 66.0459L15.6362 56.6416ZM16.9184 57.6159L24.0642 48.2115L24.0642 48.2115L16.9184 57.6159ZM19.1749 57.3079L9.77056 50.1621L19.1749 57.3079ZM33.7892 38.0747L40.9351 28.6704L31.5307 21.5245L24.3849 30.9289L33.7892 38.0747ZM38.9181 41.9719L31.7722 51.3762L38.9181 41.9719ZM40.0463 41.818L49.4507 48.9638V48.9638L40.0463 41.818ZM44.4306 36.048L35.0263 28.9021L35.0263 28.9021L44.4306 36.048ZM44.2767 34.9197L51.4225 25.5154V25.5154L44.2767 34.9197ZM39.7889 31.5097L30.3846 24.3638L23.2387 33.7682L32.643 40.914L39.7889 31.5097ZM28.0013 36.3758L33.1302 40.2729L47.4219 21.4643L42.293 17.5671L28.0013 36.3758ZM44.0644 34.7584L44.5515 34.1173L25.7428 19.8256L25.2557 20.4667L44.0644 34.7584ZM41.8059 18.2082L38.5836 15.7598L24.2919 34.5684L27.5142 37.0169L41.8059 18.2082ZM38.5836 15.7598C35.5706 13.4704 31.6891 12.6542 28.0092 13.5364L33.5165 36.5079C30.3063 37.2775 26.9203 36.5656 24.2919 34.5684L38.5836 15.7598ZM28.0093 13.5364L18.9042 15.7193L24.4113 38.6908L33.5165 36.5079L28.0093 13.5364ZM18.9042 15.7193C8.55396 18.2007 5.7379 31.5941 14.2125 38.0335L28.5042 19.2248C35.897 24.8423 33.4404 36.5262 24.4114 38.6908L18.9042 15.7193ZM14.2125 38.0335L22.7967 44.5562L37.0884 25.7475L28.5042 19.2248L14.2125 38.0335ZM20.5382 28.006L5.92392 47.2392L24.7326 61.5309L39.3469 42.2977L20.5382 28.006ZM5.92392 47.2392C1.43928 53.1412 2.58831 61.5613 8.49032 66.0459L22.782 47.2372C27.2677 50.6457 28.141 57.0452 24.7326 61.5309L5.92392 47.2392ZM8.49033 66.0459L9.77254 67.0202L24.0642 48.2115L22.782 47.2372L8.49033 66.0459ZM9.77253 67.0202C15.6745 71.5048 24.0946 70.3558 28.5792 64.4538L9.77056 50.1621C13.179 45.6764 19.5785 44.8031 24.0642 48.2115L9.77253 67.0202ZM28.5792 64.4538L43.1935 45.2206L24.3849 30.9289L9.77056 50.1621L28.5792 64.4538ZM26.6433 47.4791L31.7722 51.3762L46.064 32.5676L40.9351 28.6704L26.6433 47.4791ZM31.7722 51.3762C37.3202 55.5918 45.2351 54.5117 49.4507 48.9638L30.642 34.6721C34.3195 29.8323 41.2241 28.8901 46.064 32.5676L31.7722 51.3762ZM49.4507 48.9638L53.835 43.1938L35.0263 28.9021L30.642 34.6721L49.4507 48.9638ZM53.835 43.1938C58.0505 37.646 56.9705 29.731 51.4225 25.5154L37.1308 44.3241C32.291 40.6465 31.3488 33.7419 35.0263 28.9021L53.835 43.1938ZM51.4225 25.5154L46.9347 22.1054L32.643 40.914L37.1308 44.3241L51.4225 25.5154ZM30.8717 23.7228L30.3846 24.3638L49.1932 38.6556L49.6804 38.0145L30.8717 23.7228Z" fill="white" mask="url(#path-4-inside-1_24_907)"/>
</g>
</g>
<path d="M19.3332 38.3081H20.2792V34.2498H19.3332V38.3081ZM19.8043 33.7175C20.1007 33.7175 20.3324 33.4878 20.3324 33.2007C20.3324 32.9097 20.1007 32.68 19.8043 32.68C19.5118 32.68 19.28 32.9097 19.28 33.2007C19.28 33.4878 19.5118 33.7175 19.8043 33.7175ZM23.429 32.6915C21.8295 32.6915 20.8265 33.7903 20.8265 35.5476C20.8265 37.305 21.8294 38.4 23.429 38.4C25.0247 38.4 26.0277 37.305 26.0277 35.5476C26.0277 33.7903 25.0248 32.6915 23.429 32.6915ZM23.429 33.5338C24.4054 33.5338 25.0285 34.3148 25.0285 35.5476C25.0285 36.7766 24.4054 37.5577 23.429 37.5577C22.4488 37.5577 21.8295 36.7766 21.8295 35.5476C21.8295 34.3148 22.4488 33.5338 23.429 33.5338ZM26.4268 36.7537C26.4686 37.7721 27.2968 38.4 28.5582 38.4C29.8842 38.4 30.72 37.7414 30.72 36.6924C30.72 35.8693 30.2489 35.406 29.1357 35.1495L28.505 35.004C27.8326 34.8432 27.5552 34.6288 27.5552 34.2612C27.5552 33.8018 27.9731 33.4955 28.5924 33.4955C29.2193 33.4955 29.6486 33.8056 29.6942 34.3225H30.6288C30.606 33.35 29.8082 32.6915 28.6001 32.6915C27.407 32.6915 26.5598 33.3538 26.5598 34.334C26.5598 35.1227 27.0385 35.6127 28.0491 35.8463L28.7595 36.0148C29.451 36.1794 29.7322 36.4091 29.7322 36.8073C29.7322 37.2667 29.2724 37.596 28.6114 37.596C27.9427 37.596 27.4375 37.2629 27.3767 36.7537H26.4268L26.4268 36.7537Z" fill="#FBFBFB"/>
<g clip-path="url(#clip1_24_907)">
<path d="M30.356 21.689C30.2745 21.7498 28.8354 22.5299 28.8354 24.2645C28.8354 26.2709 30.6666 26.9807 30.7214 26.9983C30.713 27.0415 30.4305 27.9704 29.7559 28.9168C29.1544 29.7496 28.5262 30.5811 27.5705 30.5811C26.6148 30.5811 26.3689 30.047 25.2657 30.047C24.1905 30.047 23.8082 30.5986 22.9341 30.5986C22.0599 30.5986 21.45 29.828 20.7487 28.8816C19.9364 27.7703 19.28 26.0438 19.28 24.4051C19.28 21.7768 21.0565 20.3829 22.8048 20.3829C23.7338 20.3829 24.5081 20.9697 25.0914 20.9697C25.6465 20.9697 26.5122 20.3478 27.5691 20.3478C27.9697 20.3478 29.4088 20.3829 30.356 21.689ZM27.0674 19.2351C27.5045 18.7362 27.8137 18.044 27.8137 17.3518C27.8137 17.2558 27.8052 17.1584 27.7869 17.08C27.0758 17.1057 26.2298 17.5356 25.7196 18.1048C25.3191 18.5429 24.9452 19.2351 24.9452 19.9368C24.9452 20.0422 24.9635 20.1477 24.9719 20.1815C25.0169 20.1896 25.09 20.1991 25.1631 20.1991C25.8011 20.1991 26.6036 19.7881 27.0674 19.2351Z" fill="#FBFBFB"/>
</g>
</g>
<defs>
<clipPath id="clip0_24_907">
<rect width="50" height="50" fill="white"/>
</clipPath>
<clipPath id="clip1_24_907">
<rect width="11.44" height="13.52" fill="white" transform="translate(19.28 17.08)"/>
</clipPath>
</defs>
</svg>
