<svg width="50" height="50" viewBox="0 0 50 50" fill="none" xmlns="http://www.w3.org/2000/svg">
<g clip-path="url(#clip0_24_1179)">
<path d="M29.5703 3L41 15.0361V47H9V3H29.5703Z" fill="#3B6F9E" stroke="#3B6F9E" stroke-width="2"/>
<mask id="mask0_24_1179" style="mask-type:alpha" maskUnits="userSpaceOnUse" x="8" y="2" width="34" height="46">
<path d="M29.5703 3L41 15.0361V47H9V3H29.5703Z" fill="#FBFBFB" stroke="#FBFBFB" stroke-width="2"/>
</mask>
<g mask="url(#mask0_24_1179)">
<rect x="30" width="15" height="14" fill="#FBFBFB"/>
<g opacity="0.2">
<mask id="path-4-inside-1_24_1179" fill="white">
<path d="M40.276 30.8686L35.1472 26.9715L34.66 27.6126L31.4377 25.1641C31.2454 25.018 30.9977 24.9659 30.7629 25.0222L21.6578 27.2051C20.9972 27.3634 20.8175 28.2182 21.3583 28.6292L29.9426 35.1519L15.3282 54.3851C14.7902 55.0932 14.928 56.1035 15.6362 56.6416L16.9184 57.6159C17.6265 58.1539 18.6368 58.0161 19.1749 57.3079L33.7892 38.0747L38.9181 41.9719C39.2722 42.241 39.7773 42.172 40.0463 41.818L44.4306 36.048C44.6997 35.6939 44.6307 35.1888 44.2767 34.9197L39.7889 31.5097L40.276 30.8686Z"/>
</mask>
<path d="M35.1472 26.9715L42.293 17.5671L32.8887 10.4213L25.7428 19.8256L35.1472 26.9715ZM40.276 30.8686L49.6804 38.0145L56.8262 28.6101L47.4219 21.4643L40.276 30.8686ZM34.66 27.6126L27.5142 37.0169L36.9185 44.1627L44.0644 34.7584L34.66 27.6126ZM31.4377 25.1641L38.5836 15.7598L38.5836 15.7598L31.4377 25.1641ZM30.7629 25.0222L33.5165 36.5079L33.5165 36.5079L30.7629 25.0222ZM21.6578 27.2051L18.9042 15.7193L18.9042 15.7193L21.6578 27.2051ZM21.3583 28.6292L14.2125 38.0335H14.2125L21.3583 28.6292ZM29.9426 35.1519L39.3469 42.2977L46.4927 32.8934L37.0884 25.7475L29.9426 35.1519ZM15.3282 54.3851L5.92392 47.2392L15.3282 54.3851ZM15.6362 56.6416L8.49032 66.0459L8.49033 66.0459L15.6362 56.6416ZM16.9184 57.6159L24.0642 48.2115L24.0642 48.2115L16.9184 57.6159ZM19.1749 57.3079L9.77056 50.1621L19.1749 57.3079ZM33.7892 38.0747L40.9351 28.6704L31.5307 21.5245L24.3849 30.9289L33.7892 38.0747ZM38.9181 41.9719L31.7722 51.3762L38.9181 41.9719ZM40.0463 41.818L49.4507 48.9638V48.9638L40.0463 41.818ZM44.4306 36.048L35.0263 28.9021L35.0263 28.9021L44.4306 36.048ZM44.2767 34.9197L51.4225 25.5154V25.5154L44.2767 34.9197ZM39.7889 31.5097L30.3846 24.3638L23.2387 33.7682L32.643 40.914L39.7889 31.5097ZM28.0013 36.3758L33.1302 40.2729L47.4219 21.4643L42.293 17.5671L28.0013 36.3758ZM44.0644 34.7584L44.5515 34.1173L25.7428 19.8256L25.2557 20.4667L44.0644 34.7584ZM41.8059 18.2082L38.5836 15.7598L24.2919 34.5684L27.5142 37.0169L41.8059 18.2082ZM38.5836 15.7598C35.5706 13.4704 31.6891 12.6542 28.0092 13.5364L33.5165 36.5079C30.3063 37.2775 26.9203 36.5656 24.2919 34.5684L38.5836 15.7598ZM28.0093 13.5364L18.9042 15.7193L24.4113 38.6908L33.5165 36.5079L28.0093 13.5364ZM18.9042 15.7193C8.55396 18.2007 5.7379 31.5941 14.2125 38.0335L28.5042 19.2248C35.897 24.8423 33.4404 36.5262 24.4114 38.6908L18.9042 15.7193ZM14.2125 38.0335L22.7967 44.5562L37.0884 25.7475L28.5042 19.2248L14.2125 38.0335ZM20.5382 28.006L5.92392 47.2392L24.7326 61.5309L39.3469 42.2977L20.5382 28.006ZM5.92392 47.2392C1.43928 53.1412 2.58831 61.5613 8.49032 66.0459L22.782 47.2372C27.2677 50.6457 28.141 57.0452 24.7326 61.5309L5.92392 47.2392ZM8.49033 66.0459L9.77254 67.0202L24.0642 48.2115L22.782 47.2372L8.49033 66.0459ZM9.77253 67.0202C15.6745 71.5048 24.0946 70.3558 28.5792 64.4538L9.77056 50.1621C13.179 45.6764 19.5785 44.8031 24.0642 48.2115L9.77253 67.0202ZM28.5792 64.4538L43.1935 45.2206L24.3849 30.9289L9.77056 50.1621L28.5792 64.4538ZM26.6433 47.4791L31.7722 51.3762L46.064 32.5676L40.9351 28.6704L26.6433 47.4791ZM31.7722 51.3762C37.3202 55.5918 45.2351 54.5117 49.4507 48.9638L30.642 34.6721C34.3195 29.8323 41.2241 28.8901 46.064 32.5676L31.7722 51.3762ZM49.4507 48.9638L53.835 43.1938L35.0263 28.9021L30.642 34.6721L49.4507 48.9638ZM53.835 43.1938C58.0505 37.646 56.9705 29.731 51.4225 25.5154L37.1308 44.3241C32.291 40.6465 31.3488 33.7419 35.0263 28.9021L53.835 43.1938ZM51.4225 25.5154L46.9347 22.1054L32.643 40.914L37.1308 44.3241L51.4225 25.5154ZM30.8717 23.7228L30.3846 24.3638L49.1932 38.6556L49.6804 38.0145L30.8717 23.7228Z" fill="white" mask="url(#path-4-inside-1_24_1179)"/>
</g>
</g>
<path d="M13.04 38.3079H13.978V35.8181C13.978 35.327 14.2944 34.9702 14.7464 34.9702C15.1834 34.9702 15.4546 35.2503 15.4546 35.703V38.3078H16.3662V35.795C16.3662 35.3078 16.675 34.9702 17.1271 34.9702C17.5866 34.9702 17.8428 35.2541 17.8428 35.7528V38.3078H18.7807V35.5189C18.7807 34.7056 18.2646 34.1647 17.4773 34.1647C16.901 34.1647 16.4264 34.4792 16.2343 34.9818H16.2117C16.0648 34.4601 15.6617 34.1647 15.0967 34.1647C14.5543 34.1647 14.1324 34.4754 13.9591 34.9473H13.9403V34.2414H13.04V38.3079ZM20.8338 37.6519C20.4269 37.6519 20.1557 37.4409 20.1557 37.1071C20.1557 36.7849 20.4156 36.5777 20.8677 36.547L21.7905 36.4895V36.8002C21.7905 37.2912 21.3649 37.6519 20.8338 37.6519ZM20.5512 38.3731C21.0635 38.3731 21.5645 38.1007 21.7943 37.6595H21.8132V38.3079H22.7172V35.5073C22.7172 34.6902 22.0731 34.157 21.0824 34.157C20.0654 34.157 19.4288 34.7017 19.3874 35.4613H20.2575C20.3178 35.1237 20.6003 34.905 21.0448 34.905C21.5081 34.905 21.7906 35.1505 21.7906 35.5764V35.8679L20.7358 35.9293C19.764 35.9907 19.2178 36.4242 19.2178 37.1454C19.2178 37.8782 19.7791 38.3731 20.5512 38.3731ZM26.8345 35.6915C26.7704 34.836 26.1188 34.157 25.0641 34.157C23.9039 34.157 23.1505 34.9741 23.1505 36.2745C23.1505 37.5943 23.9039 38.3883 25.0716 38.3883C26.0736 38.3883 26.7629 37.7898 26.8382 36.8806H25.953C25.8664 37.341 25.5575 37.6172 25.0829 37.6172C24.4877 37.6172 24.1035 37.1261 24.1035 36.2745C24.1035 35.4381 24.484 34.9317 25.0754 34.9317C25.5763 34.9317 25.8739 35.2578 25.9493 35.6913H26.8345L26.8345 35.6915ZM29.7313 32.68C28.1455 32.68 27.151 33.781 27.151 35.5419C27.151 37.3028 28.1454 38.4 29.7313 38.4C31.3134 38.4 32.3078 37.3028 32.3078 35.5419C32.3078 33.781 31.3135 32.68 29.7313 32.68ZM29.7313 33.524C30.6994 33.524 31.3171 34.3066 31.3171 35.5419C31.3171 36.7733 30.6994 37.556 29.7313 37.556C28.7595 37.556 28.1455 36.7734 28.1455 35.5419C28.1455 34.3066 28.7595 33.524 29.7313 33.524ZM32.7035 36.7504C32.7449 37.7708 33.5661 38.4 34.8167 38.4C36.1313 38.4 36.96 37.7401 36.96 36.689C36.96 35.8642 36.4929 35.4 35.3893 35.143L34.764 34.9972C34.0973 34.8361 33.8223 34.6212 33.8223 34.2529C33.8223 33.7926 34.2366 33.4857 34.8506 33.4857C35.4721 33.4857 35.8978 33.7964 35.943 34.3143H36.8696C36.847 33.3399 36.056 32.68 34.8582 32.68C33.6754 32.68 32.8354 33.3437 32.8354 34.3258C32.8354 35.1161 33.31 35.6071 34.3119 35.8412L35.0163 36.01C35.7019 36.1749 35.9806 36.4051 35.9806 36.8041C35.9806 37.2644 35.5248 37.5944 34.8694 37.5944C34.2065 37.5944 33.7055 37.2606 33.6453 36.7504H32.7036L32.7035 36.7504Z" fill="#FBFBFB"/>
<g clip-path="url(#clip1_24_1179)">
<path d="M30.356 21.689C30.2745 21.7498 28.8354 22.5299 28.8354 24.2645C28.8354 26.2709 30.6666 26.9807 30.7214 26.9983C30.713 27.0415 30.4305 27.9704 29.7559 28.9168C29.1544 29.7496 28.5262 30.5811 27.5705 30.5811C26.6148 30.5811 26.3689 30.047 25.2657 30.047C24.1905 30.047 23.8082 30.5986 22.9341 30.5986C22.0599 30.5986 21.45 29.828 20.7487 28.8816C19.9364 27.7703 19.28 26.0438 19.28 24.4051C19.28 21.7768 21.0565 20.3829 22.8048 20.3829C23.7338 20.3829 24.5081 20.9697 25.0914 20.9697C25.6465 20.9697 26.5122 20.3478 27.5691 20.3478C27.9697 20.3478 29.4088 20.3829 30.356 21.689ZM27.0674 19.2351C27.5045 18.7362 27.8137 18.044 27.8137 17.3518C27.8137 17.2558 27.8052 17.1584 27.7869 17.08C27.0758 17.1057 26.2298 17.5356 25.7196 18.1048C25.3191 18.5429 24.9452 19.2351 24.9452 19.9368C24.9452 20.0422 24.9635 20.1477 24.9719 20.1815C25.0169 20.1896 25.09 20.1991 25.1631 20.1991C25.8011 20.1991 26.6036 19.7881 27.0674 19.2351Z" fill="#FBFBFB"/>
</g>
</g>
<defs>
<clipPath id="clip0_24_1179">
<rect width="50" height="50" fill="white"/>
</clipPath>
<clipPath id="clip1_24_1179">
<rect width="11.44" height="13.52" fill="white" transform="translate(19.28 17.08)"/>
</clipPath>
</defs>
</svg>
