<svg width="58" height="58" viewBox="0 0 58 58" fill="none" xmlns="http://www.w3.org/2000/svg">
<g clip-path="url(#clip0_26_3477)" filter="url(#filter0_d_26_3477)">
<g filter="url(#filter1_d_26_3477)">
<path d="M13 47V3L33.5706 3L45 15.0365L45 47H13Z" fill="#FBFBFB" stroke="#FBFBFB" stroke-width="2"/>
<mask id="mask0_26_3477" style="mask-type:alpha" maskUnits="userSpaceOnUse" x="12" y="2" width="34" height="46">
<path d="M13 47V3L33.5706 3L45 15.0365L45 47H13Z" fill="#FBFBFB" stroke="#FBFBFB" stroke-width="2"/>
</mask>
<g mask="url(#mask0_26_3477)">
<rect x="34" width="15" height="14" fill="#D9D9D9"/>
<path opacity="0.5" d="M18.5643 46.576C18.4576 46.576 18.3723 46.544 18.3083 46.48C18.2443 46.3947 18.2229 46.2987 18.2443 46.192L18.6283 43.088C18.6496 42.9813 18.6923 42.896 18.7563 42.832C18.8416 42.7467 18.9376 42.704 19.0443 42.704H35.2043C35.3109 42.704 35.3963 42.7467 35.4603 42.832C35.5243 42.896 35.5456 42.9813 35.5243 43.088L35.1723 46.192C35.1509 46.2987 35.0976 46.3947 35.0123 46.48C34.9269 46.544 34.8309 46.576 34.7243 46.576H18.5643ZM36.9705 46.48C36.8638 46.48 36.7785 46.448 36.7145 46.384C36.6505 46.2987 36.6292 46.2027 36.6505 46.096L37.0345 42.992C37.0558 42.8853 37.0985 42.8 37.1625 42.736C37.2478 42.6507 37.3438 42.608 37.4505 42.608H45.4825C45.7172 42.608 45.8345 42.736 45.8345 42.992L45.4505 46.096C45.4292 46.2027 45.3758 46.2987 45.2905 46.384C45.2265 46.448 45.1412 46.48 45.0345 46.48H36.9705Z" fill="#D9D9D9"/>
<path opacity="0.5" d="M27.8143 40.576C27.7076 40.576 27.6223 40.544 27.5583 40.48C27.4943 40.3947 27.4729 40.2987 27.4943 40.192L27.8783 37.088C27.8996 36.9813 27.9423 36.896 28.0063 36.832C28.0916 36.7467 28.1876 36.704 28.2943 36.704H44.4543C44.5609 36.704 44.6463 36.7467 44.7103 36.832C44.7743 36.896 44.7956 36.9813 44.7743 37.088L44.4223 40.192C44.4009 40.2987 44.3476 40.3947 44.2623 40.48C44.1769 40.544 44.0809 40.576 43.9743 40.576H27.8143Z" fill="#D9D9D9"/>
</g>
</g>
<g opacity="0.5" clip-path="url(#clip1_26_3477)">
<path d="M37.7208 20.9688H20.8793C20.3567 20.9688 19.9331 21.3885 19.9331 21.9062V31.0938C19.9331 31.6115 20.3567 32.0312 20.8793 32.0312H37.7208C38.2433 32.0312 38.667 31.6115 38.667 31.0938V21.9062C38.667 21.3885 38.2433 20.9688 37.7208 20.9688Z" stroke="black" stroke-width="2.4"/>
<path d="M22.2983 29.6875V23.3125H24.1906L26.083 25.6562L27.9753 23.3125H29.8676V29.6875H27.9753V26.0312L26.083 28.375L24.1906 26.0312V29.6875H22.2983ZM34.1253 29.6875L31.2868 26.5938H33.1791V23.3125H35.0714V26.5938H36.9637L34.1253 29.6875Z" fill="black"/>
</g>
</g>
<defs>
<filter id="filter0_d_26_3477" x="0" y="0" width="58" height="58" filterUnits="userSpaceOnUse" color-interpolation-filters="sRGB">
<feFlood flood-opacity="0" result="BackgroundImageFix"/>
<feColorMatrix in="SourceAlpha" type="matrix" values="0 0 0 0 0 0 0 0 0 0 0 0 0 0 0 0 0 0 127 0" result="hardAlpha"/>
<feOffset dy="4"/>
<feGaussianBlur stdDeviation="2"/>
<feComposite in2="hardAlpha" operator="out"/>
<feColorMatrix type="matrix" values="0 0 0 0 0 0 0 0 0 0 0 0 0 0 0 0 0 0 0.25 0"/>
<feBlend mode="normal" in2="BackgroundImageFix" result="effect1_dropShadow_26_3477"/>
<feBlend mode="normal" in="SourceGraphic" in2="effect1_dropShadow_26_3477" result="shape"/>
</filter>
<filter id="filter1_d_26_3477" x="0" y="0" width="58" height="58" filterUnits="userSpaceOnUse" color-interpolation-filters="sRGB">
<feFlood flood-opacity="0" result="BackgroundImageFix"/>
<feColorMatrix in="SourceAlpha" type="matrix" values="0 0 0 0 0 0 0 0 0 0 0 0 0 0 0 0 0 0 127 0" result="hardAlpha"/>
<feOffset dy="4"/>
<feGaussianBlur stdDeviation="2"/>
<feComposite in2="hardAlpha" operator="out"/>
<feColorMatrix type="matrix" values="0 0 0 0 0 0 0 0 0 0 0 0 0 0 0 0 0 0 0.25 0"/>
<feBlend mode="normal" in2="BackgroundImageFix" result="effect1_dropShadow_26_3477"/>
<feBlend mode="normal" in="SourceGraphic" in2="effect1_dropShadow_26_3477" result="shape"/>
</filter>
<clipPath id="clip0_26_3477">
<rect width="50" height="50" fill="white" transform="translate(4)"/>
</clipPath>
<clipPath id="clip1_26_3477">
<rect width="19.68" height="12" fill="white" transform="translate(19.46 20.5)"/>
</clipPath>
</defs>
</svg>
