<svg width="50" height="50" viewBox="0 0 50 50" fill="none" xmlns="http://www.w3.org/2000/svg">
<path d="M21.249 3C22.6735 3.28135 24.0736 3.68327 25.4669 4.1022C26.264 4.34747 27.0589 4.60125 27.8487 4.87152C29.0893 5.29019 30.3246 5.76425 31.4482 6.47122C31.9516 6.79508 32.435 7.16093 32.8481 7.60717C33.2958 8.07067 33.6622 8.62048 33.9312 9.21873C34.4211 10.3029 34.5889 11.5141 34.6385 12.7049C34.6619 13.4819 34.6604 14.2657 34.5235 15.0327C34.4097 15.6992 34.2074 16.3565 33.8709 16.9354C33.5737 17.4468 33.1606 17.8889 32.6592 18.1739C32.1782 18.4485 31.6274 18.5794 31.082 18.5678C30.2548 18.5771 29.4521 18.2975 28.7097 17.9314C28.6964 15.3156 28.7078 12.6992 28.7039 10.0836C28.6986 9.61034 28.7289 9.13216 28.639 8.66531C28.5758 8.30358 28.4364 7.93901 28.1685 7.69348C27.9907 7.52369 27.7604 7.42785 27.5289 7.37606C27.2948 7.32892 27.045 7.43429 26.9001 7.63345C26.6591 7.95241 26.5959 8.37598 26.585 8.773C26.583 15.776 26.5874 22.7792 26.583 29.7817C24.805 29.1848 23.0268 28.5873 21.2493 27.9885C21.2473 19.6589 21.2481 11.3296 21.249 3Z" fill="#FBFBFB"/>
<path d="M13.257 20.7214C15.575 19.8519 17.8907 18.9741 20.2097 18.1074C20.2134 19.0717 20.2097 20.0364 20.2112 21.0015C20.2097 21.1324 20.2177 21.2638 20.2022 21.3939C18.3692 22.0823 16.5399 22.7828 14.7087 23.4756C14.4548 23.5771 14.1944 23.6923 13.9986 23.8977C13.9074 23.994 13.8333 24.1362 13.8831 24.2743C13.9459 24.4369 14.1024 24.5253 14.2469 24.5923C14.6486 24.7654 15.0877 24.7899 15.5157 24.8107C15.9928 24.8028 16.4718 24.7649 16.9392 24.6556C17.2551 24.5899 17.559 24.4771 17.86 24.3573C18.6425 24.0571 19.425 23.7552 20.2087 23.4581C20.2146 24.2738 20.2097 25.09 20.2112 25.9065C20.2087 26.0696 20.2182 26.2337 20.2029 26.3963C19.2405 26.5795 18.2666 26.7039 17.2884 26.7201C15.3185 26.7673 13.344 26.4442 11.4729 25.7918C10.8591 25.6035 10.2493 25.3528 9.73695 24.9398C9.45489 24.7085 9.20248 24.4176 9.07409 24.0597C8.96661 23.7567 8.9744 23.4066 9.10838 23.1142C9.2375 22.8225 9.46315 22.5919 9.71166 22.4129C10.2867 21.9921 10.9209 21.6714 11.5636 21.3851C12.1173 21.1347 12.6916 20.9399 13.257 20.7214Z" fill="#FBFBFB"/>
<path d="M31.9084 19.6231C32.4341 19.5587 32.9633 19.5435 33.4917 19.5234C35.2305 19.5304 36.9781 19.7597 38.6414 20.3123C38.9677 20.4174 39.2838 20.5535 39.6089 20.6632C40.1884 20.8876 40.7685 21.1597 41.2325 21.601C41.5114 21.8705 41.7516 22.2336 41.755 22.6481C41.7716 22.9854 41.6274 23.309 41.4209 23.5578C41.028 24.0247 40.5086 24.3454 39.987 24.6252C39.4319 24.9251 38.8352 25.1186 38.253 25.3469C34.6999 26.6988 31.1466 28.0501 27.594 29.4035C27.5935 28.349 27.595 27.2947 27.5935 26.2407C27.5989 26.1987 27.577 26.1252 27.6331 26.1142C30.3366 25.0949 33.0394 24.0729 35.7424 23.0511C36.1078 22.9063 36.5015 22.8014 36.8118 22.5386C36.9387 22.433 37.063 22.265 37.0007 22.0839C36.9358 21.9254 36.7807 21.8376 36.6379 21.7721C36.2333 21.6023 35.7927 21.5693 35.3623 21.5567C34.6885 21.5616 34.0086 21.6497 33.3679 21.8785C31.4423 22.5935 29.5201 23.3172 27.594 24.0298C27.5942 22.8975 27.5935 21.7659 27.5945 20.6338C28.988 20.1157 30.4431 19.8017 31.9084 19.6231Z" fill="#FBFBFB"/>
<path d="M39.8069 27.4235C40.2274 27.3679 40.6665 27.5675 40.9184 27.9288C41.1935 28.3013 41.2438 28.8387 41.0495 29.2644C40.8535 29.706 40.4051 30.0154 39.9409 29.9992C39.5137 30.0092 39.0998 29.7456 38.8895 29.3553C38.6993 29.0114 38.6767 28.5711 38.8238 28.2052C38.9892 27.7829 39.3787 27.4745 39.8069 27.4235ZM39.7155 27.6613C39.4801 27.718 39.2664 27.8692 39.1258 28.0772C38.9568 28.3217 38.8929 28.6453 38.9571 28.9413C39.0111 29.2162 39.1752 29.4617 39.3967 29.614C39.7379 29.8515 40.2162 29.8384 40.5425 29.5774C40.8793 29.3254 41.0393 28.8413 40.9235 28.4221C40.8521 28.1387 40.6609 27.8976 40.4202 27.7572C40.2062 27.6366 39.9509 27.6018 39.7155 27.6613Z" fill="#FBFBFB"/>
<path d="M39.424 27.9646C39.6431 27.9633 39.8629 27.9643 40.0822 27.9638C40.2062 27.9656 40.3429 27.9963 40.4307 28.097C40.5192 28.2029 40.5262 28.3567 40.5019 28.4894C40.4883 28.577 40.4154 28.6288 40.3626 28.6901C40.4086 28.7331 40.4672 28.7736 40.4781 28.8436C40.5034 28.9776 40.4766 29.1188 40.5173 29.2502C40.5428 29.2966 40.5688 29.3435 40.5707 29.3991C40.4798 29.4017 40.3891 29.3999 40.2982 29.4014C40.2369 29.2487 40.2826 29.0768 40.2444 28.9194C40.2293 28.8552 40.1666 28.8153 40.1068 28.8174C39.9585 28.8107 39.8096 28.8153 39.6618 28.815C39.6596 29.0103 39.6672 29.2064 39.6574 29.4014C39.5801 29.4002 39.5025 29.4002 39.4252 29.4017C39.4213 28.922 39.424 28.4435 39.424 27.9646ZM39.6618 28.1923C39.662 28.3245 39.662 28.4567 39.6618 28.5893C39.7943 28.5901 39.9271 28.5912 40.0601 28.5899C40.126 28.5893 40.2026 28.5762 40.2454 28.517C40.2904 28.4415 40.2894 28.341 40.2488 28.2642C40.2148 28.2037 40.1425 28.1977 40.0832 28.1939C39.9427 28.1895 39.8021 28.1921 39.6618 28.1923Z" fill="#FBFBFB"/>
<path d="M47.944 44.3128H48.0922V43.2851H48.4432V43.1521H47.5928V43.2851H47.944V44.3128Z" fill="#FBFBFB"/>
<path d="M48.7276 43.3697L49.0228 44.3128H49.1695L49.4646 43.3697V44.3128H49.587V43.1521H49.4086L49.1012 44.1434L48.7837 43.1521H48.5793V44.3128H48.7276V43.3697Z" fill="#FBFBFB"/>
<path d="M24.3584 41.5321V36.7324C24.3584 35.7532 24.7897 35.052 25.7096 35.052H31.3839C31.4186 35.052 31.452 35.0155 31.452 34.9793V34.0243C31.452 34.016 31.4498 34.0078 31.4467 34H24.5087C23.0049 34.2026 22.2703 35.313 22.2703 36.7324V41.5319C22.2703 42.5111 21.8269 43.2125 20.9192 43.2125H14.9268C14.8928 43.2125 14.8586 43.2366 14.8586 43.285V44.2401C14.8586 44.2797 14.8816 44.3099 14.9085 44.32H21.712C23.4853 44.2707 24.3584 43.0712 24.3584 41.5321Z" fill="#FBFBFB"/>
<path d="M1.04673 44.3202H3.03902C3.06592 44.3101 3.08889 44.2798 3.08889 44.2403V41.1814C3.08889 40.2023 3.61087 39.5251 4.37133 39.5251H12.5776C14.4277 39.5251 15.3244 38.3162 15.3244 36.7324C15.3244 35.313 14.5904 34.2026 13.0858 34H1.00986C1.00638 34.008 1.00049 34.0143 1.00049 34.0243V34.9793C1.00049 35.0277 1.02316 35.052 1.0685 35.052H11.8851C12.8046 35.052 13.2359 35.7532 13.2359 36.7324C13.2359 37.7117 12.8046 38.4129 11.8851 38.4129H3.32721C1.99927 38.4129 1.00049 39.61 1.00049 41.1814V44.2403C1.00034 44.2798 1.01636 44.3099 1.04673 44.3202Z" fill="#FBFBFB"/>
<path d="M31.4189 43.2126H42.3151C42.3484 43.2126 42.3711 43.2368 42.3711 43.261V44.2403C42.3711 44.2886 42.4059 44.3128 42.4393 44.3128H44.4033C44.4381 44.3128 44.4712 44.2886 44.4712 44.2403V43.2851C44.4712 43.2488 44.5059 43.2126 44.5393 43.2126H46.4912C46.5367 43.2126 46.5594 43.1763 46.5594 43.1402V42.1729C46.5594 42.1366 46.5367 42.1004 46.4912 42.1004H44.5393C44.5059 42.1004 44.4712 42.064 44.4712 42.0278V35.052C44.4712 34.4828 44.2715 34.1203 43.9359 34H43.3676C43.1905 34.0482 42.998 34.1345 42.7916 34.266L31.0558 41.9431C30.6018 42.2453 30.4427 42.5836 30.5563 42.8376C30.647 43.0554 30.9074 43.2126 31.4189 43.2126ZM33.1211 41.9311L42.2123 35.9708C42.2696 35.9225 42.3832 35.9346 42.3832 36.0675V42.0278C42.3832 42.0642 42.3484 42.1004 42.3151 42.1004H33.1773C33.0985 42.1004 33.0636 42.0764 33.053 42.052C33.0408 42.0037 33.0635 41.9673 33.1211 41.9311Z" fill="#FBFBFB"/>
</svg>
