<svg width="58" height="57" viewBox="0 0 58 57" fill="none" xmlns="http://www.w3.org/2000/svg">
<g clip-path="url(#clip0_25_2085)" filter="url(#filter0_d_25_2085)">
<path d="M30.4433 35.5354H31.4757L33.7208 38.5775L35.9638 35.5354H36.9955L34.2429 39.2649L37.2602 43.3686H36.2286L33.7208 39.972L31.2143 43.3686H30.1812L33.1972 39.2649L30.4433 35.5354Z" fill="#FBFBFB"/>
<path d="M22.4216 39.5613C22.2578 39.4221 22.0799 39.3143 21.9072 39.2347C22.4771 38.9261 22.8509 38.343 22.8509 37.6665C22.8509 37.1652 22.6656 35.5358 20.2984 35.5358H17.1098V38.9125H16.0475C15.9092 39.0916 15.5967 39.5217 15.4773 39.6985H17.1098V43.3679L20.2984 43.3682C22.0256 43.3682 23.099 42.493 23.099 41.0817C23.099 40.465 22.8653 39.9407 22.4216 39.5613ZM17.9914 36.3528H20.2984C20.9233 36.3528 21.9686 36.5079 21.9686 37.5977C21.9686 38.4215 21.3592 38.9125 20.2984 38.9125H17.9914V36.3528ZM20.2984 42.5513H17.9914V39.6996H20.2984C21.1733 39.6996 22.2197 39.9407 22.2197 41.0648C22.2197 42.3572 21.0165 42.5513 20.2984 42.5513Z" fill="#FBFBFB"/>
<path d="M27.2464 35.3545C25.0411 35.3545 23.4995 37.0376 23.4995 39.4469C23.4995 41.86 25.0411 43.542 27.2464 43.542C29.4502 43.542 30.987 41.86 30.987 39.4469C30.987 37.0376 29.4502 35.3545 27.2464 35.3545ZM27.2464 42.7135C25.5662 42.7135 24.3892 41.3702 24.3892 39.4469C24.3892 37.5252 25.5662 36.1822 27.2464 36.1822C28.9241 36.1822 30.0951 37.5252 30.0951 39.4469C30.0951 41.3702 28.9241 42.7135 27.2464 42.7135Z" fill="#FBFBFB"/>
<path d="M10.8961 35.5356H9.86706L12.6196 39.2647L9.60156 43.3679H10.6354L13.141 39.9722L15.6481 43.3679H16.6808L13.6624 39.2647L16.4168 35.5356H15.3848L13.1395 38.5785L10.8961 35.5356Z" fill="#FBFBFB"/>
<g clip-path="url(#clip1_25_2085)">
<path d="M41.0099 35.6374C40.9424 35.5467 40.8359 35.4958 40.7247 35.501C40.6344 35.4961 40.5464 35.5318 40.4846 35.5993C40.4145 35.6943 40.3694 35.8063 40.3534 35.9244L40.3322 36.0358C40.3227 36.1048 40.2995 36.171 40.2642 36.2306C40.2371 36.2666 40.1944 36.2868 40.1501 36.2845C40.1052 36.2864 40.0625 36.2642 40.0373 36.2261C40.0077 36.175 39.9937 36.1158 39.9972 36.0564C39.9913 35.9832 40.0091 35.9102 40.0476 35.8484C40.0873 35.8024 40.1453 35.776 40.2053 35.7765V35.5374H40.2034C40.0896 35.5363 39.981 35.5868 39.907 35.6755C39.8296 35.7873 39.7922 35.9233 39.8014 36.0602C39.7944 36.1844 39.8281 36.3074 39.8973 36.4098C39.9584 36.4923 40.0548 36.5393 40.156 36.5361C40.2489 36.5393 40.3389 36.5016 40.4031 36.4328C40.475 36.3445 40.5212 36.2372 40.5361 36.1231L40.5573 36.0155C40.5676 35.9434 40.5908 35.874 40.6255 35.8105C40.6506 35.7737 40.6925 35.7526 40.7363 35.7549C40.7888 35.752 40.8388 35.7767 40.8693 35.8205C40.9036 35.8778 40.9198 35.9446 40.9155 36.0115C40.921 36.0937 40.9012 36.1756 40.8585 36.2453C40.8116 36.3021 40.7407 36.3323 40.6684 36.3264H40.6668V36.5691H40.6686C40.7939 36.5751 40.915 36.5216 40.9967 36.4237C41.1444 36.185 41.1496 35.8814 41.0099 35.6374Z" fill="#FBFBFB"/>
<path d="M40.3525 42.8194C40.3685 42.7013 40.4136 42.5895 40.4837 42.4943C40.5457 42.426 40.6338 42.3887 40.7247 42.3934C40.8359 42.3879 40.9426 42.439 41.0099 42.5297C41.1496 42.7737 41.1444 43.0771 40.9967 43.316C40.9152 43.4139 40.7941 43.4675 40.6688 43.4614H40.6669V43.2201H40.6686C40.7409 43.2259 40.8118 43.1957 40.8587 43.139C40.9014 43.0692 40.9212 42.9874 40.9157 42.9052C40.9199 42.8382 40.9038 42.7715 40.8695 42.7141C40.839 42.6706 40.7889 42.6459 40.7363 42.6481C40.6925 42.6459 40.6506 42.6668 40.6255 42.7038C40.5908 42.7673 40.5678 42.8367 40.5573 42.9087L40.5361 43.0164C40.5212 43.1305 40.475 43.2378 40.4031 43.326C40.3389 43.3951 40.2489 43.4326 40.156 43.4296C40.0548 43.433 39.9584 43.3858 39.8973 43.3032C39.8281 43.201 39.7942 43.0779 39.8012 42.9536C39.7918 42.8167 39.8292 42.6808 39.9068 42.5689C39.981 42.4803 40.0894 42.4298 40.2033 42.4309H40.2051V42.6713H40.2034C40.1436 42.671 40.0864 42.6974 40.0469 42.7434C40.0082 42.8052 39.9906 42.8782 39.9963 42.9514C39.9928 43.0108 40.0068 43.07 40.0364 43.1211C40.0616 43.1592 40.1043 43.1814 40.1492 43.1795C40.1935 43.1818 40.2362 43.1616 40.2632 43.1256C40.2986 43.066 40.3218 42.9998 40.3313 42.9308L40.3525 42.8194Z" fill="#FBFBFB"/>
<path d="M41.0848 38.8528H39.8303V38.6066H41.0848V38.8528Z" fill="#FBFBFB"/>
<path d="M39.8303 37.0633H40.0463L40.0454 37.7646H40.3409V37.1305H40.5483V37.7646H40.8686V37.0633H41.0848V38.0103H39.8303V37.0633Z" fill="#FBFBFB"/>
<path d="M39.8303 40.9537H40.0463L40.0454 41.6549H40.3409V41.0208H40.5483V41.6549H40.8686V40.9537H41.0848V41.9007H39.8303V40.9537Z" fill="#FBFBFB"/>
<path d="M43.2923 43.4626H41.6283L43.7243 40.5103L44.5563 41.6823L43.2923 43.4626Z" fill="#FBFBFB"/>
<path d="M47.2547 35.5386H48.9186L47.0525 38.1668L46.2204 36.9951L47.2547 35.5386Z" fill="#FBFBFB"/>
<path d="M41.858 35.5386H43.5221L49.1482 43.4614H47.4843L41.858 35.5386Z" fill="#FBFBFB"/>
<path fill-rule="evenodd" clip-rule="evenodd" d="M41.083 39.3686V39.6228C41.0366 39.6471 40.9849 39.659 40.9328 39.6573L40.7959 39.6627C40.7389 39.6597 40.6828 39.6784 40.6384 39.7152C40.6053 39.7578 40.5895 39.8115 40.5941 39.8658V40.18H41.0839V40.4262H39.8294V39.8441C39.8294 39.8162 39.8307 39.7885 39.8334 39.7608V39.7872C39.836 39.7003 39.8608 39.6156 39.905 39.5413L39.8947 39.5543C39.9035 39.539 39.9135 39.5243 39.9245 39.5106C39.988 39.4314 40.084 39.3872 40.1839 39.3914C40.3188 39.382 40.4423 39.4689 40.4824 39.6013C40.4971 39.5466 40.53 39.4989 40.5753 39.4662C40.6283 39.4351 40.6883 39.4193 40.7492 39.42L40.9352 39.4093C40.9862 39.4104 41.0362 39.397 41.08 39.3703L41.083 39.3686ZM40.0748 39.7037C40.1089 39.6637 40.1589 39.6422 40.2104 39.6452C40.264 39.6412 40.3161 39.6608 40.3538 39.6999C40.3891 39.7442 40.407 39.8006 40.4035 39.8577V40.1804H40.0279V39.8686C40.0242 39.8096 40.041 39.7514 40.0748 39.7037Z" fill="#FBFBFB"/>
</g>
<g clip-path="url(#clip2_25_2085)">
<path d="M27.6414 30.6532C25.5325 30.4511 23.3975 29.6939 21.5635 28.4972C20.0267 27.4949 19.6799 27.0822 19.6799 26.2597C19.6799 24.6074 21.4967 21.7129 24.6054 18.414C26.3703 16.5399 28.8292 14.3445 29.0949 14.4036C29.6123 14.5191 33.7454 18.5508 35.2931 20.4491C37.7399 23.4495 38.8644 25.9072 38.2929 27.0027C37.8586 27.8354 35.1629 29.4632 33.1829 30.0884C31.5506 30.6039 29.407 30.8221 27.6414 30.6532ZM17.6041 24.5419C16.3269 22.5825 15.6816 20.6537 15.3704 17.8639C15.2674 16.9427 15.3036 16.4161 15.6037 14.5249C15.9769 12.1703 17.3187 9.4435 18.9319 7.76668C19.6185 7.05395 19.6796 7.03486 20.517 7.31804C21.532 7.66168 22.617 8.41132 24.3002 9.9335L25.2834 10.8225L24.7457 11.4811C22.2549 14.5389 19.6261 18.8757 18.6366 21.558C18.0989 23.0152 17.8825 24.4789 18.1148 25.0882C18.2707 25.4999 18.1275 25.3465 17.6025 24.5428L17.6041 24.5419ZM40.0209 24.875C40.1473 24.259 39.9875 23.1282 39.6137 21.9872C38.8039 19.5165 36.0965 14.9204 33.6105 11.7952L32.8278 10.8114L33.6748 10.034C34.7802 9.01904 35.5476 8.41132 36.3762 7.89491C37.0294 7.48764 37.9633 7.12714 38.3648 7.12714C38.612 7.12714 39.4835 8.03395 40.1867 9.02032C41.2762 10.5476 42.0774 12.4026 42.4834 14.3308C42.7459 15.578 42.7678 18.2444 42.5257 19.4885C42.3252 20.5092 41.9052 21.8322 41.4979 22.7298C41.1893 23.4021 40.4289 24.7083 40.0948 25.1334C39.9229 25.352 39.9229 25.3516 40.0184 24.8801L40.0209 24.875ZM27.8674 6.66068C26.72 6.07841 24.9503 5.45318 23.9728 5.28454C23.6304 5.22568 23.0459 5.19227 22.6746 5.21136C21.8677 5.25209 21.9037 5.21009 23.1974 4.59886C24.2729 4.09073 25.1701 3.79195 26.3888 3.53614C27.7585 3.24818 30.3342 3.245 31.6824 3.52914C33.138 3.83618 34.8527 4.47414 35.8187 5.06914L36.1064 5.24541L35.4477 5.21232C34.1381 5.14614 32.2296 5.67527 30.1805 6.67182C29.5626 6.97282 29.0255 7.21273 28.9861 7.20636C28.9469 7.19873 28.4433 6.95341 27.8661 6.66068H27.8674Z" fill="#FBFBFB"/>
</g>
</g>
<defs>
<filter id="filter0_d_25_2085" x="0" y="0" width="58" height="58" filterUnits="userSpaceOnUse" color-interpolation-filters="sRGB">
<feFlood flood-opacity="0" result="BackgroundImageFix"/>
<feColorMatrix in="SourceAlpha" type="matrix" values="0 0 0 0 0 0 0 0 0 0 0 0 0 0 0 0 0 0 127 0" result="hardAlpha"/>
<feOffset dy="4"/>
<feGaussianBlur stdDeviation="2"/>
<feComposite in2="hardAlpha" operator="out"/>
<feColorMatrix type="matrix" values="0 0 0 0 0 0 0 0 0 0 0 0 0 0 0 0 0 0 0.25 0"/>
<feBlend mode="normal" in2="BackgroundImageFix" result="effect1_dropShadow_25_2085"/>
<feBlend mode="normal" in="SourceGraphic" in2="effect1_dropShadow_25_2085" result="shape"/>
</filter>
<clipPath id="clip0_25_2085">
<rect width="50" height="50" fill="white" transform="translate(4)"/>
</clipPath>
<clipPath id="clip1_25_2085">
<rect width="18.4" height="8.28" fill="white" transform="translate(39.8 35.36)"/>
</clipPath>
<clipPath id="clip2_25_2085">
<rect width="28" height="28" fill="white" transform="translate(15 3)"/>
</clipPath>
</defs>
</svg>
