<svg width="50" height="50" viewBox="0 0 50 50" fill="none" xmlns="http://www.w3.org/2000/svg">
<g clip-path="url(#clip0_22_267)">
<g clip-path="url(#clip1_22_267)">
<path d="M7 7H23.5918V23.5846H7V7ZM25.4082 7H42V23.5846H25.4082V7ZM7 25.4082H23.5918V42H7V25.4082ZM25.4082 25.4082H42V42H25.4082" fill="white"/>
</g>
<g clip-path="url(#clip2_22_267)">
<path d="M-2414 -2415H-103V-105H-2414V-2415ZM150 -2415H2461V-105H150V-2415ZM-2414 149H-103V2460H-2414V149ZM150 149H2461V2460H150" fill="white"/>
<g clip-path="url(#clip3_22_267)">
<path d="M-2416 -2414H-105V-104H-2416V-2414ZM148 -2414H2459V-104H148V-2414ZM-2416 150H-105V2461H-2416V150ZM148 150H2459V2461H148" fill="white"/>
</g>
</g>
</g>
<defs>
<clipPath id="clip0_22_267">
<rect width="50" height="50" fill="white"/>
</clipPath>
<clipPath id="clip1_22_267">
<rect width="35" height="35" fill="white" transform="translate(7 7)"/>
</clipPath>
<clipPath id="clip2_22_267">
<rect width="4875" height="4875" fill="white" transform="translate(-2414 -2415)"/>
</clipPath>
<clipPath id="clip3_22_267">
<rect width="4875" height="4875" fill="white" transform="translate(-2416 -2414)"/>
</clipPath>
</defs>
</svg>
