<svg width="50" height="50" viewBox="0 0 50 50" fill="none" xmlns="http://www.w3.org/2000/svg">
<g clip-path="url(#clip0_25_2015)">
<path d="M43.4976 41.9633L38.7513 35.5308L37.9733 35.5293V43.3553H38.8459V37.0698L43.4969 43.3605L44.3718 43.3612V35.5356H43.4976V41.9633Z" fill="#FBFBFB"/>
<path d="M33.4354 35.3539C31.2293 35.3539 29.6874 37.037 29.6874 39.4464C29.6874 41.8596 31.2293 43.5424 33.4354 43.5424C35.6392 43.5424 37.176 41.8596 37.176 39.4464C37.176 37.037 35.6392 35.3539 33.4354 35.3539ZM33.4354 42.7132C31.7551 42.7132 30.5771 41.3698 30.5771 39.4464C30.5771 37.5247 31.7551 36.1811 33.4354 36.1811C35.1134 36.1811 36.2841 37.5247 36.2841 39.4464C36.2841 41.3698 35.1134 42.7132 33.4354 42.7132Z" fill="#FBFBFB"/>
<path d="M46.2334 36.296H50.8459V35.5304H45.3533V43.362H50.8999V42.5959H46.2334V39.7H50.5523V38.9339H46.2334V36.296Z" fill="#FBFBFB"/>
<path d="M21.4433 35.5354H22.4757L24.7208 38.5775L26.9638 35.5354H27.9955L25.2429 39.2649L28.2602 43.3686H27.2286L24.7208 39.972L22.2143 43.3686H21.1812L24.1972 39.2649L21.4433 35.5354Z" fill="#FBFBFB"/>
<path d="M13.4215 39.5613C13.2577 39.4221 13.0798 39.3143 12.9071 39.2347C13.4769 38.9261 13.8508 38.343 13.8508 37.6665C13.8508 37.1652 13.6655 35.5358 11.2983 35.5358H8.10971V38.9125H7.04736C6.90907 39.0916 6.59661 39.5217 6.47717 39.6985H8.10971V43.3679L11.2983 43.3682C13.0255 43.3682 14.0989 42.493 14.0989 41.0817C14.0989 40.465 13.8652 39.9407 13.4215 39.5613ZM8.99125 36.3528H11.2982C11.9232 36.3528 12.9685 36.5079 12.9685 37.5977C12.9685 38.4215 12.3591 38.9125 11.2982 38.9125H8.99125V36.3528ZM11.2983 42.5513H8.99125V39.6996H11.2983C12.1731 39.6996 13.2196 39.9407 13.2196 41.0648C13.2196 42.3572 12.0163 42.5513 11.2983 42.5513Z" fill="#FBFBFB"/>
<path d="M18.2463 35.3545C16.041 35.3545 14.4994 37.0376 14.4994 39.4469C14.4994 41.86 16.041 43.542 18.2463 43.542C20.4501 43.542 21.9869 41.86 21.9869 39.4469C21.9869 37.0376 20.4501 35.3545 18.2463 35.3545ZM18.2463 42.7135C16.566 42.7135 15.3891 41.3702 15.3891 39.4469C15.3891 37.5252 16.566 36.1822 18.2463 36.1822C19.9239 36.1822 21.095 37.5252 21.095 39.4469C21.095 41.3702 19.9239 42.7135 18.2463 42.7135Z" fill="#FBFBFB"/>
<path d="M1.89613 35.5356H0.867058L3.61963 39.2647L0.601562 43.3679H1.63544L4.14101 39.9722L6.64806 43.3679H7.68083L4.66239 39.2647L7.41682 35.5356H6.38478L4.13953 38.5785L1.89613 35.5356Z" fill="#FBFBFB"/>
<g clip-path="url(#clip1_25_2015)">
<path d="M23.6413 30.6532C21.5324 30.4511 19.3974 29.6939 17.5634 28.4972C16.0266 27.4949 15.6798 27.0822 15.6798 26.2597C15.6798 24.6074 17.4966 21.7129 20.6052 18.414C22.3702 16.5399 24.8291 14.3445 25.0948 14.4036C25.6121 14.5191 29.7453 18.5508 31.293 20.4491C33.7398 23.4495 34.8642 25.9072 34.2928 27.0027C33.8585 27.8354 31.1628 29.4632 29.1828 30.0884C27.5505 30.6039 25.4069 30.8221 23.6413 30.6532ZM13.604 24.5419C12.3268 22.5825 11.6815 20.6537 11.3703 17.8639C11.2672 16.9427 11.3035 16.4161 11.6035 14.5249C11.9768 12.1703 13.3185 9.4435 14.9317 7.76668C15.6184 7.05395 15.6795 7.03486 16.5169 7.31804C17.5319 7.66168 18.6169 8.41132 20.3001 9.9335L21.2833 10.8225L20.7455 11.4811C18.2548 14.5389 15.626 18.8757 14.6365 21.558C14.0987 23.0152 13.8824 24.4789 14.1146 25.0882C14.2705 25.4999 14.1274 25.3465 13.6024 24.5428L13.604 24.5419ZM36.0208 24.875C36.1471 24.259 35.9874 23.1282 35.6136 21.9872C34.8038 19.5165 32.0964 14.9204 29.6104 11.7952L28.8277 10.8114L29.6747 10.034C30.78 9.01904 31.5475 8.41132 32.376 7.89491C33.0293 7.48764 33.9631 7.12714 34.3647 7.12714C34.6119 7.12714 35.4834 8.03395 36.1866 9.02032C37.276 10.5476 38.0772 12.4026 38.4832 14.3308C38.7457 15.578 38.7677 18.2444 38.5255 19.4885C38.3251 20.5092 37.9051 21.8322 37.4978 22.7298C37.1892 23.4021 36.4287 24.7083 36.0946 25.1334C35.9228 25.352 35.9228 25.3516 36.0183 24.8801L36.0208 24.875ZM23.8672 6.66068C22.7199 6.07841 20.9501 5.45318 19.9727 5.28454C19.6303 5.22568 19.0458 5.19227 18.6745 5.21136C17.8676 5.25209 17.9035 5.21009 19.1973 4.59886C20.2727 4.09073 21.17 3.79195 22.3886 3.53614C23.7584 3.24818 26.3341 3.245 27.6822 3.52914C29.1379 3.83618 30.8526 4.47414 31.8186 5.06914L32.1062 5.24541L31.4476 5.21232C30.138 5.14614 28.2295 5.67527 26.1804 6.67182C25.5625 6.97282 25.0254 7.21273 24.986 7.20636C24.9468 7.19873 24.4431 6.95341 23.866 6.66068H23.8672Z" fill="#FBFBFB"/>
</g>
</g>
<defs>
<clipPath id="clip0_25_2015">
<rect width="50" height="50" fill="white"/>
</clipPath>
<clipPath id="clip1_25_2015">
<rect width="28" height="28" fill="white" transform="translate(11 3)"/>
</clipPath>
</defs>
</svg>
