<svg width="50" height="50" viewBox="0 0 50 50" fill="none" xmlns="http://www.w3.org/2000/svg">
<g clip-path="url(#clip0_25_2085)">
<path d="M26.4432 35.5354H27.4756L29.7207 38.5775L31.9637 35.5354H32.9954L30.2428 39.2649L33.2602 43.3686H32.2285L29.7207 39.972L27.2142 43.3686H26.1811L29.1971 39.2649L26.4432 35.5354Z" fill="#FBFBFB"/>
<path d="M18.4215 39.5613C18.2577 39.4221 18.0798 39.3143 17.9071 39.2347C18.4769 38.9261 18.8508 38.343 18.8508 37.6665C18.8508 37.1652 18.6655 35.5358 16.2983 35.5358H13.1097V38.9125H12.0474C11.9091 39.0916 11.5966 39.5217 11.4772 39.6985H13.1097V43.3679L16.2983 43.3682C18.0255 43.3682 19.0989 42.493 19.0989 41.0817C19.0989 40.465 18.8652 39.9407 18.4215 39.5613ZM13.9912 36.3528H16.2982C16.9232 36.3528 17.9685 36.5079 17.9685 37.5977C17.9685 38.4215 17.3591 38.9125 16.2982 38.9125H13.9912V36.3528ZM16.2983 42.5513H13.9912V39.6996H16.2983C17.1731 39.6996 18.2196 39.9407 18.2196 41.0648C18.2196 42.3572 17.0163 42.5513 16.2983 42.5513Z" fill="#FBFBFB"/>
<path d="M23.2463 35.3545C21.041 35.3545 19.4995 37.0376 19.4995 39.4469C19.4995 41.86 21.041 43.542 23.2463 43.542C25.4502 43.542 26.987 41.86 26.987 39.4469C26.987 37.0376 25.4502 35.3545 23.2463 35.3545ZM23.2463 42.7135C21.5661 42.7135 20.3891 41.3702 20.3891 39.4469C20.3891 37.5252 21.5661 36.1822 23.2463 36.1822C24.924 36.1822 26.0951 37.5252 26.0951 39.4469C26.0951 41.3702 24.924 42.7135 23.2463 42.7135Z" fill="#FBFBFB"/>
<path d="M6.89607 35.5356H5.867L8.61957 39.2647L5.6015 43.3679H6.63538L9.14095 39.9722L11.648 43.3679H12.6808L9.66233 39.2647L12.4168 35.5356H11.3847L9.13947 38.5785L6.89607 35.5356Z" fill="#FBFBFB"/>
<g clip-path="url(#clip1_25_2085)">
<path d="M37.0099 35.6374C36.9424 35.5467 36.8359 35.4958 36.7247 35.501C36.6344 35.4961 36.5464 35.5318 36.4846 35.5993C36.4145 35.6943 36.3694 35.8063 36.3534 35.9244L36.3322 36.0358C36.3227 36.1048 36.2995 36.171 36.2642 36.2306C36.2371 36.2666 36.1944 36.2868 36.1501 36.2845C36.1052 36.2864 36.0625 36.2642 36.0373 36.2261C36.0077 36.175 35.9937 36.1158 35.9972 36.0564C35.9913 35.9832 36.0091 35.9102 36.0476 35.8484C36.0873 35.8024 36.1453 35.776 36.2053 35.7765V35.5374H36.2034C36.0896 35.5363 35.981 35.5868 35.907 35.6755C35.8296 35.7873 35.7922 35.9233 35.8014 36.0602C35.7944 36.1844 35.8281 36.3074 35.8973 36.4098C35.9584 36.4923 36.0548 36.5393 36.156 36.5361C36.2489 36.5393 36.3389 36.5016 36.4031 36.4328C36.475 36.3445 36.5212 36.2372 36.5361 36.1231L36.5573 36.0155C36.5676 35.9434 36.5908 35.874 36.6255 35.8105C36.6506 35.7737 36.6925 35.7526 36.7363 35.7549C36.7888 35.752 36.8388 35.7767 36.8693 35.8205C36.9036 35.8778 36.9198 35.9446 36.9155 36.0115C36.921 36.0937 36.9012 36.1756 36.8585 36.2453C36.8116 36.3021 36.7407 36.3323 36.6684 36.3264H36.6668V36.5691H36.6686C36.7939 36.5751 36.915 36.5216 36.9967 36.4237C37.1444 36.185 37.1496 35.8814 37.0099 35.6374Z" fill="#FBFBFB"/>
<path d="M36.3525 42.8194C36.3685 42.7013 36.4136 42.5895 36.4837 42.4943C36.5457 42.426 36.6338 42.3887 36.7247 42.3934C36.8359 42.3879 36.9426 42.439 37.0099 42.5297C37.1496 42.7737 37.1444 43.0771 36.9967 43.316C36.9152 43.4139 36.7941 43.4675 36.6688 43.4614H36.6669V43.2201H36.6686C36.7409 43.2259 36.8118 43.1957 36.8587 43.139C36.9014 43.0692 36.9212 42.9874 36.9157 42.9052C36.9199 42.8382 36.9038 42.7715 36.8695 42.7141C36.839 42.6706 36.7889 42.6459 36.7363 42.6481C36.6925 42.6459 36.6506 42.6668 36.6255 42.7038C36.5908 42.7673 36.5678 42.8367 36.5573 42.9087L36.5361 43.0164C36.5212 43.1305 36.475 43.2378 36.4031 43.326C36.3389 43.3951 36.2489 43.4326 36.156 43.4296C36.0548 43.433 35.9584 43.3858 35.8973 43.3032C35.8281 43.201 35.7942 43.0779 35.8012 42.9536C35.7918 42.8167 35.8292 42.6808 35.9068 42.5689C35.981 42.4803 36.0894 42.4298 36.2033 42.4309H36.2051V42.6713H36.2034C36.1436 42.671 36.0864 42.6974 36.0469 42.7434C36.0082 42.8052 35.9906 42.8782 35.9963 42.9514C35.9928 43.0108 36.0068 43.07 36.0364 43.1211C36.0616 43.1592 36.1043 43.1814 36.1492 43.1795C36.1935 43.1818 36.2362 43.1616 36.2632 43.1256C36.2986 43.066 36.3218 42.9998 36.3313 42.9308L36.3525 42.8194Z" fill="#FBFBFB"/>
<path d="M37.0848 38.8528H35.8303V38.6066H37.0848V38.8528Z" fill="#FBFBFB"/>
<path d="M35.8303 37.0633H36.0463L36.0454 37.7646H36.3409V37.1305H36.5483V37.7646H36.8686V37.0633H37.0848V38.0103H35.8303V37.0633Z" fill="#FBFBFB"/>
<path d="M35.8303 40.9537H36.0463L36.0454 41.6549H36.3409V41.0208H36.5483V41.6549H36.8686V40.9537H37.0848V41.9007H35.8303V40.9537Z" fill="#FBFBFB"/>
<path d="M39.2923 43.4626H37.6283L39.7243 40.5103L40.5563 41.6823L39.2923 43.4626Z" fill="#FBFBFB"/>
<path d="M43.2547 35.5386H44.9186L43.0525 38.1668L42.2204 36.9951L43.2547 35.5386Z" fill="#FBFBFB"/>
<path d="M37.858 35.5386H39.5221L45.1482 43.4614H43.4843L37.858 35.5386Z" fill="#FBFBFB"/>
<path fill-rule="evenodd" clip-rule="evenodd" d="M37.083 39.3686V39.6228C37.0366 39.6471 36.9849 39.659 36.9328 39.6573L36.7959 39.6627C36.7389 39.6597 36.6828 39.6784 36.6384 39.7152C36.6053 39.7578 36.5895 39.8115 36.5941 39.8658V40.18H37.0839V40.4262H35.8294V39.8441C35.8294 39.8162 35.8307 39.7885 35.8334 39.7608V39.7872C35.836 39.7003 35.8608 39.6156 35.905 39.5413L35.8947 39.5543C35.9035 39.539 35.9135 39.5243 35.9245 39.5106C35.988 39.4314 36.084 39.3872 36.1839 39.3914C36.3188 39.382 36.4423 39.4689 36.4824 39.6013C36.4971 39.5466 36.53 39.4989 36.5753 39.4662C36.6283 39.4351 36.6883 39.4193 36.7492 39.42L36.9352 39.4093C36.9862 39.4104 37.0362 39.397 37.08 39.3703L37.083 39.3686ZM36.0748 39.7037C36.1089 39.6637 36.1589 39.6422 36.2104 39.6452C36.264 39.6412 36.3161 39.6608 36.3538 39.6999C36.3891 39.7442 36.407 39.8006 36.4035 39.8577V40.1804H36.0279V39.8686C36.0242 39.8096 36.041 39.7514 36.0748 39.7037Z" fill="#FBFBFB"/>
</g>
<g clip-path="url(#clip2_25_2085)">
<path d="M23.6414 30.6532C21.5325 30.4511 19.3975 29.6939 17.5635 28.4972C16.0267 27.4949 15.6798 27.0822 15.6798 26.2597C15.6798 24.6074 17.4967 21.7129 20.6053 18.414C22.3702 16.5399 24.8292 14.3445 25.0948 14.4036C25.6122 14.5191 29.7454 18.5508 31.293 20.4491C33.7398 23.4495 34.8643 25.9072 34.2928 27.0027C33.8585 27.8354 31.1629 29.4632 29.1828 30.0884C27.5506 30.6039 25.407 30.8221 23.6414 30.6532ZM13.604 24.5419C12.3268 22.5825 11.6816 20.6537 11.3704 17.8639C11.2673 16.9427 11.3036 16.4161 11.6036 14.5249C11.9768 12.1703 13.3186 9.4435 14.9318 7.76668C15.6184 7.05395 15.6795 7.03486 16.517 7.31804C17.532 7.66168 18.617 8.41132 20.3002 9.9335L21.2833 10.8225L20.7456 11.4811C18.2549 14.5389 15.6261 18.8757 14.6365 21.558C14.0988 23.0152 13.8824 24.4789 14.1147 25.0882C14.2706 25.4999 14.1274 25.3465 13.6024 24.5428L13.604 24.5419ZM36.0209 24.875C36.1472 24.259 35.9875 23.1282 35.6136 21.9872C34.8038 19.5165 32.0964 14.9204 29.6105 11.7952L28.8277 10.8114L29.6747 10.034C30.7801 9.01904 31.5476 8.41132 32.3761 7.89491C33.0293 7.48764 33.9632 7.12714 34.3647 7.12714C34.612 7.12714 35.4835 8.03395 36.1867 9.02032C37.2761 10.5476 38.0773 12.4026 38.4833 14.3308C38.7458 15.578 38.7677 18.2444 38.5256 19.4885C38.3252 20.5092 37.9052 21.8322 37.4979 22.7298C37.1892 23.4021 36.4288 24.7083 36.0947 25.1334C35.9229 25.352 35.9229 25.3516 36.0183 24.8801L36.0209 24.875ZM23.8673 6.66068C22.7199 6.07841 20.9502 5.45318 19.9727 5.28454C19.6304 5.22568 19.0459 5.19227 18.6746 5.21136C17.8677 5.25209 17.9036 5.21009 19.1973 4.59886C20.2728 4.09073 21.1701 3.79195 22.3887 3.53614C23.7585 3.24818 26.3342 3.245 27.6823 3.52914C29.138 3.83618 30.8527 4.47414 31.8187 5.06914L32.1063 5.24541L31.4477 5.21232C30.138 5.14614 28.2296 5.67527 26.1805 6.67182C25.5626 6.97282 25.0255 7.21273 24.986 7.20636C24.9469 7.19873 24.4432 6.95341 23.866 6.66068H23.8673Z" fill="#FBFBFB"/>
</g>
</g>
<defs>
<clipPath id="clip0_25_2085">
<rect width="50" height="50" fill="white"/>
</clipPath>
<clipPath id="clip1_25_2085">
<rect width="18.4" height="8.28" fill="white" transform="translate(35.8 35.36)"/>
</clipPath>
<clipPath id="clip2_25_2085">
<rect width="28" height="28" fill="white" transform="translate(11 3)"/>
</clipPath>
</defs>
</svg>
