<svg width="50" height="50" viewBox="0 0 50 50" fill="none" xmlns="http://www.w3.org/2000/svg">
<g clip-path="url(#clip0_25_2015)">
<path d="M43.4976 41.9633L38.7513 35.5308L37.9733 35.5293V43.3553H38.8459V37.0698L43.4969 43.3605L44.3718 43.3612V35.5356H43.4976V41.9633Z" fill="#FBFBFB"/>
<path d="M33.4354 35.3539C31.2294 35.3539 29.6874 37.037 29.6874 39.4464C29.6874 41.8596 31.2294 43.5424 33.4354 43.5424C35.6393 43.5424 37.176 41.8596 37.176 39.4464C37.176 37.037 35.6393 35.3539 33.4354 35.3539ZM33.4354 42.7132C31.7552 42.7132 30.5771 41.3698 30.5771 39.4464C30.5771 37.5247 31.7552 36.1811 33.4354 36.1811C35.1135 36.1811 36.2842 37.5247 36.2842 39.4464C36.2842 41.3698 35.1135 42.7132 33.4354 42.7132Z" fill="#FBFBFB"/>
<path d="M46.2334 36.296H50.8459V35.5304H45.3533V43.362H50.8999V42.5959H46.2334V39.7H50.5523V38.9339H46.2334V36.296Z" fill="#FBFBFB"/>
<path d="M21.4432 35.5354H22.4756L24.7207 38.5775L26.9637 35.5354H27.9954L25.2428 39.2649L28.2602 43.3686H27.2285L24.7207 39.972L22.2142 43.3686H21.1811L24.1971 39.2649L21.4432 35.5354Z" fill="#FBFBFB"/>
<path d="M13.4215 39.5613C13.2577 39.4221 13.0798 39.3143 12.9071 39.2347C13.4769 38.9261 13.8508 38.343 13.8508 37.6665C13.8508 37.1652 13.6655 35.5358 11.2983 35.5358H8.10971V38.9125H7.04736C6.90907 39.0916 6.59661 39.5217 6.47717 39.6985H8.10971V43.3679L11.2983 43.3682C13.0255 43.3682 14.0989 42.493 14.0989 41.0817C14.0989 40.465 13.8652 39.9407 13.4215 39.5613ZM8.99125 36.3528H11.2982C11.9232 36.3528 12.9685 36.5079 12.9685 37.5977C12.9685 38.4215 12.3591 38.9125 11.2982 38.9125H8.99125V36.3528ZM11.2983 42.5513H8.99125V39.6996H11.2983C12.1731 39.6996 13.2196 39.9407 13.2196 41.0648C13.2196 42.3572 12.0163 42.5513 11.2983 42.5513Z" fill="#FBFBFB"/>
<path d="M18.2463 35.3545C16.041 35.3545 14.4995 37.0376 14.4995 39.4469C14.4995 41.86 16.041 43.542 18.2463 43.542C20.4502 43.542 21.987 41.86 21.987 39.4469C21.987 37.0376 20.4502 35.3545 18.2463 35.3545ZM18.2463 42.7135C16.5661 42.7135 15.3891 41.3702 15.3891 39.4469C15.3891 37.5252 16.5661 36.1822 18.2463 36.1822C19.924 36.1822 21.0951 37.5252 21.0951 39.4469C21.0951 41.3702 19.924 42.7135 18.2463 42.7135Z" fill="#FBFBFB"/>
<path d="M1.89607 35.5356H0.866997L3.61957 39.2647L0.601501 43.3679H1.63538L4.14095 39.9722L6.648 43.3679H7.68077L4.66233 39.2647L7.41675 35.5356H6.38472L4.13947 38.5785L1.89607 35.5356Z" fill="#FBFBFB"/>
<g clip-path="url(#clip1_25_2015)">
<path d="M23.6414 30.6532C21.5325 30.4511 19.3975 29.6939 17.5635 28.4972C16.0267 27.4949 15.6798 27.0822 15.6798 26.2597C15.6798 24.6074 17.4967 21.7129 20.6053 18.414C22.3702 16.5399 24.8292 14.3445 25.0948 14.4036C25.6122 14.5191 29.7454 18.5508 31.293 20.4491C33.7398 23.4495 34.8643 25.9072 34.2928 27.0027C33.8585 27.8354 31.1629 29.4632 29.1828 30.0884C27.5506 30.6039 25.407 30.8221 23.6414 30.6532ZM13.604 24.5419C12.3268 22.5825 11.6816 20.6537 11.3704 17.8639C11.2673 16.9427 11.3036 16.4161 11.6036 14.5249C11.9768 12.1703 13.3186 9.4435 14.9318 7.76668C15.6184 7.05395 15.6795 7.03486 16.517 7.31804C17.532 7.66168 18.617 8.41132 20.3002 9.9335L21.2833 10.8225L20.7456 11.4811C18.2549 14.5389 15.6261 18.8757 14.6365 21.558C14.0988 23.0152 13.8824 24.4789 14.1147 25.0882C14.2706 25.4999 14.1274 25.3465 13.6024 24.5428L13.604 24.5419ZM36.0209 24.875C36.1472 24.259 35.9875 23.1282 35.6136 21.9872C34.8038 19.5165 32.0964 14.9204 29.6105 11.7952L28.8277 10.8114L29.6747 10.034C30.7801 9.01904 31.5476 8.41132 32.3761 7.89491C33.0293 7.48764 33.9632 7.12714 34.3647 7.12714C34.612 7.12714 35.4835 8.03395 36.1867 9.02032C37.2761 10.5476 38.0773 12.4026 38.4833 14.3308C38.7458 15.578 38.7677 18.2444 38.5256 19.4885C38.3252 20.5092 37.9052 21.8322 37.4979 22.7298C37.1892 23.4021 36.4288 24.7083 36.0947 25.1334C35.9229 25.352 35.9229 25.3516 36.0183 24.8801L36.0209 24.875ZM23.8673 6.66068C22.7199 6.07841 20.9502 5.45318 19.9727 5.28454C19.6304 5.22568 19.0459 5.19227 18.6746 5.21136C17.8677 5.25209 17.9036 5.21009 19.1973 4.59886C20.2728 4.09073 21.1701 3.79195 22.3887 3.53614C23.7585 3.24818 26.3342 3.245 27.6823 3.52914C29.138 3.83618 30.8527 4.47414 31.8187 5.06914L32.1063 5.24541L31.4477 5.21232C30.138 5.14614 28.2296 5.67527 26.1805 6.67182C25.5626 6.97282 25.0255 7.21273 24.986 7.20636C24.9469 7.19873 24.4432 6.95341 23.866 6.66068H23.8673Z" fill="#FBFBFB"/>
</g>
</g>
<defs>
<clipPath id="clip0_25_2015">
<rect width="50" height="50" fill="white"/>
</clipPath>
<clipPath id="clip1_25_2015">
<rect width="28" height="28" fill="white" transform="translate(11 3)"/>
</clipPath>
</defs>
</svg>
