<svg width="50" height="50" viewBox="0 0 50 50" fill="none" xmlns="http://www.w3.org/2000/svg">
<path d="M14.1023 44.8232H15.9216V37.0188H14.1023V44.8232ZM15.0083 35.9953C15.5782 35.9953 16.0239 35.5535 16.0239 35.0013C16.0239 34.4418 15.5782 34 15.0083 34C14.4457 34 14 34.4418 14 35.0013C14 35.5535 14.4457 35.9953 15.0083 35.9953ZM21.9788 34.022C18.9029 34.022 16.9739 36.1351 16.9739 39.5147C16.9739 42.8942 18.9027 45 21.9788 45C25.0474 45 26.9763 42.8942 26.9763 39.5147C26.9763 36.1351 25.0476 34.022 21.9788 34.022ZM21.9788 35.6418C23.8565 35.6418 25.0547 37.1438 25.0547 39.5147C25.0547 41.8781 23.8564 43.3801 21.9788 43.3801C20.0938 43.3801 18.9029 41.8781 18.9029 39.5147C18.9029 37.1439 20.0938 35.6418 21.9788 35.6418ZM27.7438 41.834C27.8241 43.7925 29.4169 45 31.8426 45C34.3926 45 36 43.7336 36 41.7162C36 40.1332 35.094 39.2423 32.9533 38.749L31.7404 38.4692C30.4472 38.16 29.9138 37.7477 29.9138 37.0409C29.9138 36.1573 30.7175 35.5683 31.9085 35.5683C33.114 35.5683 33.9395 36.1647 34.0273 37.1587H35.8246C35.7808 35.2885 34.2465 34.0221 31.9231 34.0221C29.6289 34.0221 27.9995 35.2958 27.9995 37.1807C27.9995 38.6975 28.9201 39.6399 30.8635 40.0891L32.2298 40.413C33.5596 40.7296 34.1002 41.1714 34.1002 41.9371C34.1002 42.8206 33.2162 43.4538 31.9449 43.4538C30.659 43.4538 29.6873 42.8133 29.5704 41.834H27.7439L27.7438 41.834Z" fill="#FBFBFB"/>
<g clip-path="url(#clip0_22_288)">
<path d="M35.3 12.8634C35.1432 12.9804 32.3757 14.4806 32.3757 17.8164C32.3757 21.6748 35.8973 23.0398 36.0027 23.0736C35.9865 23.1568 35.4432 24.943 34.1459 26.763C32.9892 28.3646 31.7811 29.9636 29.9432 29.9636C28.1054 29.9636 27.6324 28.9366 25.5108 28.9366C23.4432 28.9366 22.7081 29.9974 21.027 29.9974C19.3459 29.9974 18.173 28.5154 16.8243 26.6954C15.2622 24.5582 14 21.238 14 18.0868C14 13.0324 17.4162 10.3518 20.7784 10.3518C22.5649 10.3518 24.0541 11.4802 25.1757 11.4802C26.2432 11.4802 27.9081 10.2842 29.9405 10.2842C30.7108 10.2842 33.4784 10.3518 35.3 12.8634ZM28.9757 8.1444C29.8162 7.185 30.4108 5.8538 30.4108 4.5226C30.4108 4.338 30.3946 4.1508 30.3595 4C28.9919 4.0494 27.3649 4.8762 26.3838 5.9708C25.6135 6.8132 24.8946 8.1444 24.8946 9.4938C24.8946 9.6966 24.9297 9.8994 24.9459 9.9644C25.0324 9.98 25.173 9.9982 25.3135 9.9982C26.5405 9.9982 28.0838 9.2078 28.9757 8.1444Z" fill="#FBFBFB"/>
</g>
<defs>
<clipPath id="clip0_22_288">
<rect width="22" height="26" fill="white" transform="translate(14 4)"/>
</clipPath>
</defs>
</svg>
