<svg width="50" height="53" viewBox="0 0 50 53" fill="none" xmlns="http://www.w3.org/2000/svg">
<g filter="url(#filter0_d_24_407)">
<g clip-path="url(#clip0_24_407)">
<mask id="mask0_24_407" style="mask-type:luminance" maskUnits="userSpaceOnUse" x="4" y="3" width="42" height="42">
<path d="M4 3H46V45H4V3Z" fill="white"/>
</mask>
<g mask="url(#mask0_24_407)">
<path fill-rule="evenodd" clip-rule="evenodd" d="M25.2909 5.46166C31.479 5.52437 36.4313 9.54846 36.3521 14.4498L13.9421 14.3362C13.9421 14.2984 13.9424 14.2605 13.943 14.2227C14.0222 9.3214 19.1028 5.39896 25.2909 5.46166ZM30.9719 10.1531C30.9719 9.53698 30.4651 9.03751 29.8399 9.03751C29.2147 9.03751 28.7079 9.53698 28.7079 10.1531C28.7079 10.7693 29.2147 11.2688 29.8399 11.2688C30.4651 11.2688 30.9719 10.7693 30.9719 10.1531ZM21.522 10.1531C21.522 9.53698 21.0078 9.03751 20.3735 9.03751C19.7393 9.03751 19.2251 9.53698 19.2251 10.1531C19.2251 10.7693 19.7393 11.2688 20.3735 11.2688C21.0078 11.2688 21.522 10.7693 21.522 10.1531Z" fill="#FBFBFB"/>
<path fill-rule="evenodd" clip-rule="evenodd" d="M32.4309 3.63685C32.5391 3.48739 32.5056 3.27854 32.3562 3.17038C32.2067 3.06221 31.9978 3.09569 31.8897 3.24515L29.5381 6.4945C29.4299 6.64396 29.4634 6.85281 29.6128 6.96096C29.7623 7.06915 29.9711 7.03568 30.0793 6.88622L32.4309 3.63685Z" fill="#FBFBFB"/>
<path fill-rule="evenodd" clip-rule="evenodd" d="M17.8167 3.63684C17.7085 3.48739 17.742 3.27854 17.8915 3.17037C18.0409 3.06221 18.2498 3.09568 18.3579 3.24514L20.7096 6.49451C20.8177 6.64397 20.7842 6.85282 20.6348 6.96098C20.4853 7.06915 20.2765 7.03565 20.1683 6.88621L17.8167 3.63684Z" fill="#FBFBFB"/>
<path fill-rule="evenodd" clip-rule="evenodd" d="M16.0938 36.4688H34.2013C35.3897 36.4688 36.353 35.5054 36.353 34.317V16.1906H13.9421V34.317C13.9421 35.5054 14.9054 36.4688 16.0938 36.4688Z" fill="#FBFBFB"/>
<path fill-rule="evenodd" clip-rule="evenodd" d="M32.022 34.4836C32.022 33.1698 30.9569 32.1047 29.6431 32.1047C28.3292 32.1047 27.2642 33.1698 27.2642 34.4836V42.6211C27.2642 43.9349 28.3292 45 29.6431 45C30.9569 45 32.022 43.9349 32.022 42.6211V34.4836Z" fill="#FBFBFB"/>
<path fill-rule="evenodd" clip-rule="evenodd" d="M22.8999 34.4836C22.8999 33.1698 21.8348 32.1047 20.521 32.1047C19.2072 32.1047 18.1421 33.1698 18.1421 34.4836V42.6211C18.1421 43.9349 19.2072 45 20.521 45C21.8348 45 22.8999 43.9349 22.8999 42.6211V34.4836Z" fill="#FBFBFB"/>
<path fill-rule="evenodd" clip-rule="evenodd" d="M12.1704 18.5695C12.1704 17.2557 11.1053 16.1906 9.7915 16.1906C8.47769 16.1906 7.4126 17.2557 7.4126 18.5695V29.168C7.4126 30.4818 8.47769 31.5469 9.7915 31.5469C11.1053 31.5469 12.1704 30.4818 12.1704 29.168V18.5695Z" fill="#FBFBFB"/>
<path fill-rule="evenodd" clip-rule="evenodd" d="M42.7188 18.6352C42.7188 17.3213 41.6537 16.2563 40.3398 16.2563C39.026 16.2563 37.9609 17.3213 37.9609 18.6352L37.9609 29.2336C37.9609 30.5474 39.026 31.6125 40.3398 31.6125C41.6537 31.6125 42.7188 30.5474 42.7188 29.2336V18.6352Z" fill="#FBFBFB"/>
</g>
</g>
</g>
<defs>
<filter id="filter0_d_24_407" x="-4" y="0" width="58" height="58" filterUnits="userSpaceOnUse" color-interpolation-filters="sRGB">
<feFlood flood-opacity="0" result="BackgroundImageFix"/>
<feColorMatrix in="SourceAlpha" type="matrix" values="0 0 0 0 0 0 0 0 0 0 0 0 0 0 0 0 0 0 127 0" result="hardAlpha"/>
<feOffset dy="4"/>
<feGaussianBlur stdDeviation="2"/>
<feComposite in2="hardAlpha" operator="out"/>
<feColorMatrix type="matrix" values="0 0 0 0 0 0 0 0 0 0 0 0 0 0 0 0 0 0 0.25 0"/>
<feBlend mode="normal" in2="BackgroundImageFix" result="effect1_dropShadow_24_407"/>
<feBlend mode="normal" in="SourceGraphic" in2="effect1_dropShadow_24_407" result="shape"/>
</filter>
<clipPath id="clip0_24_407">
<rect width="42" height="42" fill="white" transform="matrix(-1 0 0 1 46 3)"/>
</clipPath>
</defs>
</svg>
