<svg width="50" height="50" viewBox="0 0 50 50" fill="none" xmlns="http://www.w3.org/2000/svg">
<path d="M6 37V12C6 8.68629 8.68629 6 12 6H38C41.3137 6 44 8.68629 44 12V37C44 40.3137 41.3137 43 38 43H12C8.68629 43 6 40.3137 6 37Z" stroke="#FBFBFB" stroke-width="4" stroke-linecap="round" stroke-linejoin="round"/>
<path d="M32 6C32 6 22 6 22 24.5C25.3333 24.5 25.3333 24.5 27.5556 24.5C27.5556 43 32 43 32 43" stroke="#FBFBFB" stroke-width="4" stroke-linecap="round" stroke-linejoin="round"/>
<path d="M35 30C35 30 31.8333 33 25.5 33C19.1667 33 16 30 16 30" stroke="#FBFBFB" stroke-width="4" stroke-linecap="round" stroke-linejoin="round"/>
<path d="M15 18V22" stroke="#FBFBFB" stroke-width="4" stroke-linecap="round" stroke-linejoin="round"/>
<path d="M35 18V22" stroke="#FBFBFB" stroke-width="4" stroke-linecap="round" stroke-linejoin="round"/>
</svg>
