<svg width="50" height="50" viewBox="0 0 50 50" fill="none" xmlns="http://www.w3.org/2000/svg">
<path d="M2 44.8228H3.80377V40.0347C3.80377 39.0904 4.41224 38.4043 5.28153 38.4043C6.12181 38.4043 6.64338 38.9429 6.64338 39.8134V44.8227H8.39639V39.9904C8.39639 39.0535 8.99039 38.4042 9.85965 38.4042C10.7434 38.4042 11.236 38.9502 11.236 39.9092V44.8227H13.0397V39.4594C13.0397 37.8954 12.0473 36.8551 10.5333 36.8551C9.42496 36.8551 8.51232 37.4601 8.14273 38.4265H8.09926C7.81676 37.4232 7.04166 36.8551 5.95517 36.8551C4.91205 36.8551 4.10074 37.4527 3.7675 38.3601H3.73128V37.0027H2V44.8228ZM16.9879 43.5613C16.2056 43.5613 15.684 43.1555 15.684 42.5137C15.684 41.894 16.1839 41.4956 17.0531 41.4366L18.8279 41.3259V41.9235C18.8279 42.8678 18.0093 43.5613 16.9879 43.5613ZM16.4446 44.9483C17.4298 44.9483 18.3933 44.4245 18.8352 43.576H18.8714V44.8228H20.6099V39.4372C20.6099 37.8658 19.3712 36.8403 17.4661 36.8403C15.5102 36.8403 14.2861 37.8879 14.2064 39.3486H15.8797C15.9956 38.6994 16.5389 38.2789 17.3937 38.2789C18.2847 38.2789 18.828 38.751 18.828 39.5699V40.1306L16.7996 40.2487C14.9307 40.3667 13.8804 41.2004 13.8804 42.5874C13.8804 43.9965 14.9597 44.9483 16.4446 44.9483ZM28.5277 39.7913C28.4046 38.1461 27.1514 36.8403 25.1232 36.8403C22.8921 36.8403 21.4432 38.4117 21.4432 40.9126C21.4432 43.4506 22.892 44.9775 25.1376 44.9775C27.0646 44.9775 28.3901 43.8266 28.535 42.0781H26.8326C26.666 42.9634 26.072 43.4946 25.1593 43.4946C24.0148 43.4946 23.276 42.5502 23.276 40.9124C23.276 39.3041 24.0076 38.3303 25.1449 38.3303C26.1083 38.3303 26.6805 38.9574 26.8254 39.791H28.5277L28.5277 39.7913ZM34.0986 34C31.049 34 29.1365 36.1174 29.1365 39.5037C29.1365 42.89 31.0488 45 34.0986 45C37.141 45 39.0535 42.89 39.0535 39.5037C39.0535 36.1174 37.1412 34 34.0986 34ZM34.0986 35.6231C35.9603 35.6231 37.1482 37.1281 37.1482 39.5036C37.1482 41.8718 35.9603 43.3769 34.0986 43.3769C32.2297 43.3769 31.049 41.8718 31.049 39.5036C31.049 37.1281 32.2298 35.6231 34.0986 35.6231ZM39.8144 41.8276C39.894 43.7901 41.4732 45 43.8782 45C46.4063 45 48 43.731 48 41.7096C48 40.1234 47.1017 39.2307 44.9793 38.7365L43.7768 38.4561C42.4947 38.1463 41.9659 37.7331 41.9659 37.0249C41.9659 36.1396 42.7627 35.5494 43.9434 35.5494C45.1387 35.5494 45.9572 36.147 46.0441 37.1429H47.8261C47.7827 35.2691 46.2615 34.0001 43.958 34.0001C41.6833 34.0001 40.0679 35.2764 40.0679 37.165C40.0679 38.6848 40.9807 39.6291 42.9074 40.0792L44.262 40.4038C45.5804 40.7211 46.1165 41.1637 46.1165 41.931C46.1165 42.8163 45.24 43.4507 43.9796 43.4507C42.7047 43.4507 41.7413 42.8089 41.6254 41.8277H39.8144L39.8144 41.8276Z" fill="#FBFBFB"/>
<g clip-path="url(#clip0_22_320)">
<path d="M35.3 12.8634C35.1432 12.9804 32.3757 14.4806 32.3757 17.8164C32.3757 21.6748 35.8973 23.0398 36.0027 23.0736C35.9865 23.1568 35.4432 24.943 34.1459 26.763C32.9892 28.3646 31.7811 29.9636 29.9432 29.9636C28.1054 29.9636 27.6324 28.9366 25.5108 28.9366C23.4432 28.9366 22.7081 29.9974 21.027 29.9974C19.3459 29.9974 18.173 28.5154 16.8243 26.6954C15.2622 24.5582 14 21.238 14 18.0868C14 13.0324 17.4162 10.3518 20.7784 10.3518C22.5649 10.3518 24.0541 11.4802 25.1757 11.4802C26.2432 11.4802 27.9081 10.2842 29.9405 10.2842C30.7108 10.2842 33.4784 10.3518 35.3 12.8634ZM28.9757 8.1444C29.8162 7.185 30.4108 5.8538 30.4108 4.5226C30.4108 4.338 30.3946 4.1508 30.3595 4C28.9919 4.0494 27.3649 4.8762 26.3838 5.9708C25.6135 6.8132 24.8946 8.1444 24.8946 9.4938C24.8946 9.6966 24.9297 9.8994 24.9459 9.9644C25.0324 9.98 25.173 9.9982 25.3135 9.9982C26.5405 9.9982 28.0838 9.2078 28.9757 8.1444Z" fill="#FBFBFB"/>
</g>
<defs>
<clipPath id="clip0_22_320">
<rect width="22" height="26" fill="white" transform="translate(14 4)"/>
</clipPath>
</defs>
</svg>
