<svg width="50" height="50" viewBox="0 0 50 50" fill="none" xmlns="http://www.w3.org/2000/svg">
<g clip-path="url(#clip0_25_2085)">
<path d="M26.4433 35.5354H27.4757L29.7208 38.5775L31.9638 35.5354H32.9955L30.2429 39.2649L33.2602 43.3686H32.2286L29.7208 39.972L27.2143 43.3686H26.1812L29.1972 39.2649L26.4433 35.5354Z" fill="#FBFBFB"/>
<path d="M18.4215 39.5613C18.2577 39.4221 18.0798 39.3143 17.9071 39.2347C18.4769 38.9261 18.8508 38.343 18.8508 37.6665C18.8508 37.1652 18.6655 35.5358 16.2983 35.5358H13.1097V38.9125H12.0474C11.9091 39.0916 11.5966 39.5217 11.4772 39.6985H13.1097V43.3679L16.2983 43.3682C18.0255 43.3682 19.0989 42.493 19.0989 41.0817C19.0989 40.465 18.8652 39.9407 18.4215 39.5613ZM13.9912 36.3528H16.2982C16.9232 36.3528 17.9685 36.5079 17.9685 37.5977C17.9685 38.4215 17.3591 38.9125 16.2982 38.9125H13.9912V36.3528ZM16.2983 42.5513H13.9912V39.6996H16.2983C17.1731 39.6996 18.2196 39.9407 18.2196 41.0648C18.2196 42.3572 17.0163 42.5513 16.2983 42.5513Z" fill="#FBFBFB"/>
<path d="M23.2463 35.3545C21.041 35.3545 19.4994 37.0376 19.4994 39.4469C19.4994 41.86 21.041 43.542 23.2463 43.542C25.4501 43.542 26.9869 41.86 26.9869 39.4469C26.9869 37.0376 25.4501 35.3545 23.2463 35.3545ZM23.2463 42.7135C21.566 42.7135 20.3891 41.3702 20.3891 39.4469C20.3891 37.5252 21.566 36.1822 23.2463 36.1822C24.9239 36.1822 26.095 37.5252 26.095 39.4469C26.095 41.3702 24.9239 42.7135 23.2463 42.7135Z" fill="#FBFBFB"/>
<path d="M6.89613 35.5356H5.86706L8.61963 39.2647L5.60156 43.3679H6.63544L9.14101 39.9722L11.6481 43.3679H12.6808L9.66239 39.2647L12.4168 35.5356H11.3848L9.13953 38.5785L6.89613 35.5356Z" fill="#FBFBFB"/>
<g clip-path="url(#clip1_25_2085)">
<path d="M37.01 35.6374C36.9425 35.5467 36.836 35.4958 36.7248 35.501C36.6345 35.4961 36.5465 35.5318 36.4847 35.5993C36.4146 35.6943 36.3695 35.8063 36.3535 35.9244L36.3324 36.0358C36.3228 36.1048 36.2996 36.171 36.2643 36.2306C36.2372 36.2666 36.1946 36.2868 36.1502 36.2845C36.1053 36.2864 36.0626 36.2642 36.0374 36.2261C36.0078 36.175 35.9938 36.1158 35.9973 36.0564C35.9914 35.9832 36.0093 35.9102 36.0477 35.8484C36.0875 35.8024 36.1454 35.776 36.2054 35.7765V35.5374H36.2036C36.0897 35.5363 35.9811 35.5868 35.9071 35.6755C35.8297 35.7873 35.7923 35.9233 35.8015 36.0602C35.7945 36.1844 35.8282 36.3074 35.8974 36.4098C35.9585 36.4923 36.0549 36.5393 36.1561 36.5361C36.249 36.5393 36.339 36.5016 36.4032 36.4328C36.4752 36.3445 36.5213 36.2372 36.5362 36.1231L36.5574 36.0155C36.5677 35.9434 36.5909 35.874 36.6257 35.8105C36.6507 35.7737 36.6926 35.7526 36.7364 35.7549C36.7889 35.752 36.8389 35.7767 36.8695 35.8205C36.9037 35.8778 36.9199 35.9446 36.9157 36.0115C36.9212 36.0937 36.9013 36.1756 36.8586 36.2453C36.8117 36.3021 36.7409 36.3323 36.6685 36.3264H36.6669V36.5691H36.6687C36.794 36.5751 36.9151 36.5216 36.9968 36.4237C37.1445 36.185 37.1497 35.8814 37.01 35.6374Z" fill="#FBFBFB"/>
<path d="M36.3526 42.8194C36.3686 42.7013 36.4137 42.5895 36.4838 42.4943C36.5458 42.426 36.6339 42.3887 36.7248 42.3934C36.836 42.3879 36.9427 42.439 37.01 42.5297C37.1497 42.7737 37.1445 43.0771 36.9968 43.316C36.9153 43.4139 36.7942 43.4675 36.6689 43.4614H36.6671V43.2201H36.6687C36.741 43.2259 36.8119 43.1957 36.8588 43.139C36.9015 43.0692 36.9214 42.9874 36.9158 42.9052C36.9201 42.8382 36.9039 42.7715 36.8697 42.7141C36.8391 42.6706 36.7891 42.6459 36.7364 42.6481C36.6926 42.6459 36.6507 42.6668 36.6257 42.7038C36.5909 42.7673 36.5679 42.8367 36.5574 42.9087L36.5362 43.0164C36.5213 43.1305 36.4752 43.2378 36.4032 43.326C36.339 43.3951 36.249 43.4326 36.1561 43.4296C36.0549 43.433 35.9585 43.3858 35.8974 43.3032C35.8282 43.201 35.7944 43.0779 35.8013 42.9536C35.792 42.8167 35.8293 42.6808 35.907 42.5689C35.9811 42.4803 36.0895 42.4298 36.2034 42.4309H36.2052V42.6713H36.2036C36.1438 42.671 36.0865 42.6974 36.047 42.7434C36.0083 42.8052 35.9907 42.8782 35.9964 42.9514C35.9929 43.0108 36.0069 43.07 36.0365 43.1211C36.0617 43.1592 36.1044 43.1814 36.1493 43.1795C36.1936 43.1818 36.2363 43.1616 36.2634 43.1256C36.2987 43.066 36.3219 42.9998 36.3315 42.9308L36.3526 42.8194Z" fill="#FBFBFB"/>
<path d="M37.0849 38.8528H35.8304V38.6066H37.0849V38.8528Z" fill="#FBFBFB"/>
<path d="M35.8304 37.0633H36.0464L36.0455 37.7646H36.341V37.1305H36.5484V37.7646H36.8687V37.0633H37.0849V38.0103H35.8304V37.0633Z" fill="#FBFBFB"/>
<path d="M35.8304 40.9537H36.0464L36.0455 41.6549H36.341V41.0208H36.5484V41.6549H36.8687V40.9537H37.0849V41.9007H35.8304V40.9537Z" fill="#FBFBFB"/>
<path d="M39.2924 43.4626H37.6285L39.7244 40.5103L40.5565 41.6823L39.2924 43.4626Z" fill="#FBFBFB"/>
<path d="M43.2548 35.5386H44.9187L43.0526 38.1668L42.2206 36.9951L43.2548 35.5386Z" fill="#FBFBFB"/>
<path d="M37.8581 35.5386H39.5222L45.1484 43.4614H43.4845L37.8581 35.5386Z" fill="#FBFBFB"/>
<path fill-rule="evenodd" clip-rule="evenodd" d="M37.0831 39.3686V39.6228C37.0367 39.6471 36.985 39.659 36.9329 39.6573L36.7961 39.6627C36.739 39.6597 36.6829 39.6784 36.6385 39.7152C36.6054 39.7578 36.5896 39.8115 36.5942 39.8658V40.18H37.084V40.4262H35.8295V39.8441C35.8295 39.8162 35.8308 39.7885 35.8335 39.7608V39.7872C35.8361 39.7003 35.861 39.6156 35.9051 39.5413L35.8948 39.5543C35.9037 39.539 35.9136 39.5243 35.9246 39.5106C35.9881 39.4314 36.0842 39.3872 36.1841 39.3914C36.3189 39.382 36.4424 39.4689 36.4825 39.6013C36.4972 39.5466 36.5302 39.4989 36.5754 39.4662C36.6284 39.4351 36.6884 39.4193 36.7493 39.42L36.9353 39.4093C36.9863 39.4104 37.0364 39.397 37.0801 39.3703L37.0831 39.3686ZM36.075 39.7037C36.109 39.6637 36.159 39.6422 36.2106 39.6452C36.2641 39.6412 36.3162 39.6608 36.3539 39.6999C36.3892 39.7442 36.4071 39.8006 36.4036 39.8577V40.1804H36.028V39.8686C36.0244 39.8096 36.0411 39.7514 36.075 39.7037Z" fill="#FBFBFB"/>
</g>
<g clip-path="url(#clip2_25_2085)">
<path d="M23.6413 30.6532C21.5324 30.4511 19.3974 29.6939 17.5634 28.4972C16.0266 27.4949 15.6798 27.0822 15.6798 26.2597C15.6798 24.6074 17.4966 21.7129 20.6052 18.414C22.3702 16.5399 24.8291 14.3445 25.0948 14.4036C25.6121 14.5191 29.7453 18.5508 31.293 20.4491C33.7398 23.4495 34.8642 25.9072 34.2928 27.0027C33.8585 27.8354 31.1628 29.4632 29.1828 30.0884C27.5505 30.6039 25.4069 30.8221 23.6413 30.6532ZM13.604 24.5419C12.3268 22.5825 11.6815 20.6537 11.3703 17.8639C11.2672 16.9427 11.3035 16.4161 11.6035 14.5249C11.9768 12.1703 13.3185 9.4435 14.9317 7.76668C15.6184 7.05395 15.6795 7.03486 16.5169 7.31804C17.5319 7.66168 18.6169 8.41132 20.3001 9.9335L21.2833 10.8225L20.7455 11.4811C18.2548 14.5389 15.626 18.8757 14.6365 21.558C14.0987 23.0152 13.8824 24.4789 14.1146 25.0882C14.2705 25.4999 14.1274 25.3465 13.6024 24.5428L13.604 24.5419ZM36.0208 24.875C36.1471 24.259 35.9874 23.1282 35.6136 21.9872C34.8038 19.5165 32.0964 14.9204 29.6104 11.7952L28.8277 10.8114L29.6747 10.034C30.78 9.01904 31.5475 8.41132 32.376 7.89491C33.0293 7.48764 33.9631 7.12714 34.3647 7.12714C34.6119 7.12714 35.4834 8.03395 36.1866 9.02032C37.276 10.5476 38.0772 12.4026 38.4832 14.3308C38.7457 15.578 38.7677 18.2444 38.5255 19.4885C38.3251 20.5092 37.9051 21.8322 37.4978 22.7298C37.1892 23.4021 36.4287 24.7083 36.0946 25.1334C35.9228 25.352 35.9228 25.3516 36.0183 24.8801L36.0208 24.875ZM23.8672 6.66068C22.7199 6.07841 20.9501 5.45318 19.9727 5.28454C19.6303 5.22568 19.0458 5.19227 18.6745 5.21136C17.8676 5.25209 17.9035 5.21009 19.1973 4.59886C20.2727 4.09073 21.17 3.79195 22.3886 3.53614C23.7584 3.24818 26.3341 3.245 27.6822 3.52914C29.1379 3.83618 30.8526 4.47414 31.8186 5.06914L32.1062 5.24541L31.4476 5.21232C30.138 5.14614 28.2295 5.67527 26.1804 6.67182C25.5625 6.97282 25.0254 7.21273 24.986 7.20636C24.9468 7.19873 24.4431 6.95341 23.866 6.66068H23.8672Z" fill="#FBFBFB"/>
</g>
</g>
<defs>
<clipPath id="clip0_25_2085">
<rect width="50" height="50" fill="white"/>
</clipPath>
<clipPath id="clip1_25_2085">
<rect width="18.4" height="8.28" fill="white" transform="translate(35.8 35.36)"/>
</clipPath>
<clipPath id="clip2_25_2085">
<rect width="28" height="28" fill="white" transform="translate(11 3)"/>
</clipPath>
</defs>
</svg>
