<svg width="50" height="50" viewBox="0 0 50 50" fill="none" xmlns="http://www.w3.org/2000/svg">
<g clip-path="url(#clip0_24_1901)">
<g clip-path="url(#clip1_24_1901)">
<path d="M48.2913 44.8112H48.1421V43.7131H47.8002V43.5595H48.6347V43.7131H48.2928L48.2913 44.8112ZM49.3255 44.5206L49.6449 43.5595H49.878V44.812H49.7226V43.7649L49.369 44.8112H49.2742L48.9222 43.7649V44.8112H48.7746V43.5586H49.0077L49.3255 44.5206ZM46.3037 34H32.0064V38.1652C32.0064 38.1652 31.9629 39.7734 33.8138 39.7734H42.553C42.8958 39.7704 43.2354 39.8447 43.5499 39.9914C44.0378 40.2252 44.5864 40.7012 44.5864 41.6614C44.5864 42.5232 44.1979 43.0125 43.8133 43.2864C43.4949 43.5075 43.1232 43.6236 42.7441 43.6204H32.0064V44.7895H43.9796C43.9796 44.7895 46.6992 44.6709 46.6992 41.6673C46.6992 40.14 45.8693 39.3835 45.1226 39.0127C44.6401 38.7745 44.115 38.6523 43.5841 38.6545H34.9226C34.7782 38.6565 34.6357 38.6201 34.5076 38.5484C34.3227 38.4407 34.1191 38.2269 34.1191 37.8061V35.1532H46.3037V34ZM14.0113 43.6163V44.7853H20.0799C20.8052 44.7936 21.5089 44.5198 22.0613 44.0146C22.3462 43.7547 22.5734 43.4297 22.7264 43.0633C22.8794 42.6969 22.9543 42.2984 22.9455 41.8969V36.9276C22.9424 36.6559 22.9967 36.3869 23.1044 36.141C23.2121 35.8951 23.3703 35.6787 23.5671 35.5081C23.8465 35.2731 24.1922 35.1478 24.547 35.1532H29.8377V34H23.5368C23.5368 34 20.8173 34.0468 20.8173 37.1381V41.7783C20.8221 42.1584 20.7267 42.5321 20.5422 42.8564C20.4087 43.0962 20.218 43.2933 19.9899 43.4273C19.7618 43.5613 19.5044 43.6274 19.2446 43.6188L14.0113 43.6163ZM0 34V35.1532H10.8162C11.117 35.1504 11.4147 35.2191 11.688 35.3544C12.1169 35.5707 12.5987 36.0158 12.5987 36.9184C12.5987 37.7952 12.1169 38.2336 11.688 38.4507C11.4102 38.5877 11.1078 38.6573 10.8022 38.6545H2.78019C2.30534 38.6497 1.83601 38.7641 1.40952 38.9885C0.742059 39.3484 0 40.196 0 41.5938V44.7669H2.08165V41.608C2.08027 41.4025 2.11479 41.1986 2.18344 41.0068C2.35516 40.5333 2.78952 39.7734 3.80509 39.7734H11.8939C12.166 39.775 12.4369 39.7359 12.6989 39.6574C13.4417 39.4302 14.6803 38.7739 14.6803 36.9184C14.6803 34.0351 12.0097 34 12.0097 34H0Z" fill="#FBFBFB"/>
</g>
<path d="M21.249 3C22.6735 3.28135 24.0736 3.68327 25.4669 4.1022C26.264 4.34747 27.0589 4.60125 27.8487 4.87152C29.0893 5.29019 30.3246 5.76425 31.4482 6.47122C31.9516 6.79508 32.435 7.16093 32.8481 7.60717C33.2958 8.07067 33.6622 8.62048 33.9312 9.21873C34.4211 10.3029 34.5889 11.5141 34.6385 12.7049C34.6619 13.4819 34.6604 14.2657 34.5235 15.0327C34.4097 15.6992 34.2074 16.3565 33.8709 16.9354C33.5737 17.4468 33.1606 17.8889 32.6592 18.1739C32.1782 18.4485 31.6274 18.5794 31.082 18.5678C30.2548 18.5771 29.4521 18.2975 28.7097 17.9314C28.6964 15.3156 28.7078 12.6992 28.7039 10.0836C28.6986 9.61034 28.7289 9.13216 28.639 8.66531C28.5758 8.30358 28.4364 7.93901 28.1685 7.69348C27.9907 7.52369 27.7604 7.42785 27.5289 7.37606C27.2948 7.32892 27.045 7.43429 26.9001 7.63345C26.6591 7.95241 26.5959 8.37598 26.585 8.773C26.583 15.776 26.5874 22.7792 26.583 29.7817C24.805 29.1848 23.0268 28.5873 21.2493 27.9885C21.2473 19.6589 21.2481 11.3296 21.249 3Z" fill="#FBFBFB"/>
<path d="M13.257 20.7214C15.575 19.8519 17.8907 18.9741 20.2097 18.1074C20.2134 19.0717 20.2097 20.0364 20.2112 21.0015C20.2097 21.1324 20.2177 21.2638 20.2022 21.3939C18.3692 22.0823 16.5399 22.7828 14.7087 23.4756C14.4548 23.5771 14.1944 23.6923 13.9986 23.8977C13.9074 23.994 13.8333 24.1362 13.8831 24.2743C13.9459 24.4369 14.1024 24.5253 14.2469 24.5923C14.6486 24.7654 15.0877 24.7899 15.5157 24.8107C15.9928 24.8028 16.4718 24.7649 16.9392 24.6556C17.2551 24.5899 17.559 24.4771 17.86 24.3573C18.6425 24.0571 19.425 23.7552 20.2087 23.4581C20.2146 24.2738 20.2097 25.09 20.2112 25.9065C20.2087 26.0696 20.2182 26.2337 20.2029 26.3963C19.2405 26.5795 18.2666 26.7039 17.2884 26.7201C15.3185 26.7673 13.344 26.4442 11.4729 25.7918C10.8591 25.6035 10.2493 25.3528 9.73695 24.9398C9.45489 24.7085 9.20248 24.4176 9.07409 24.0597C8.96661 23.7567 8.9744 23.4066 9.10838 23.1142C9.2375 22.8225 9.46315 22.5919 9.71166 22.4129C10.2867 21.9921 10.9209 21.6714 11.5636 21.3851C12.1173 21.1347 12.6916 20.9399 13.257 20.7214Z" fill="#FBFBFB"/>
<path d="M31.9084 19.6231C32.4341 19.5587 32.9633 19.5435 33.4917 19.5234C35.2305 19.5304 36.9781 19.7597 38.6414 20.3123C38.9677 20.4174 39.2838 20.5535 39.6089 20.6632C40.1884 20.8876 40.7685 21.1597 41.2325 21.601C41.5114 21.8705 41.7516 22.2336 41.755 22.6481C41.7716 22.9854 41.6274 23.309 41.4209 23.5578C41.028 24.0247 40.5086 24.3454 39.987 24.6252C39.4319 24.9251 38.8352 25.1186 38.253 25.3469C34.6999 26.6988 31.1466 28.0501 27.594 29.4035C27.5935 28.349 27.595 27.2947 27.5935 26.2407C27.5989 26.1987 27.577 26.1252 27.6331 26.1142C30.3366 25.0949 33.0394 24.0729 35.7424 23.0511C36.1078 22.9063 36.5015 22.8014 36.8118 22.5386C36.9387 22.433 37.063 22.265 37.0007 22.0839C36.9358 21.9254 36.7807 21.8376 36.6379 21.7721C36.2333 21.6023 35.7927 21.5693 35.3623 21.5567C34.6885 21.5616 34.0086 21.6497 33.3679 21.8785C31.4423 22.5935 29.5201 23.3172 27.594 24.0298C27.5942 22.8975 27.5935 21.7659 27.5945 20.6338C28.988 20.1157 30.4431 19.8017 31.9084 19.6231Z" fill="#FBFBFB"/>
<path d="M39.8069 27.4235C40.2273 27.3679 40.6665 27.5675 40.9184 27.9288C41.1934 28.3013 41.2437 28.8387 41.0494 29.2644C40.8535 29.706 40.4051 30.0154 39.9409 29.9992C39.5136 30.0092 39.0998 29.7456 38.8894 29.3553C38.6993 29.0114 38.6767 28.5711 38.8238 28.2052C38.9891 27.7829 39.3787 27.4745 39.8069 27.4235ZM39.7155 27.6613C39.4801 27.718 39.2663 27.8692 39.1258 28.0772C38.9568 28.3217 38.8928 28.6453 38.957 28.9413C39.011 29.2162 39.1751 29.4617 39.3967 29.614C39.7378 29.8515 40.2161 29.8384 40.5425 29.5774C40.8792 29.3254 41.0392 28.8413 40.9235 28.4221C40.852 28.1387 40.6609 27.8976 40.4201 27.7572C40.2062 27.6366 39.9508 27.6018 39.7155 27.6613Z" fill="#FBFBFB"/>
<path d="M39.424 27.9646C39.6431 27.9633 39.8629 27.9643 40.0822 27.9638C40.2062 27.9656 40.3429 27.9963 40.4307 28.097C40.5192 28.2029 40.5262 28.3567 40.5019 28.4894C40.4883 28.577 40.4154 28.6288 40.3626 28.6901C40.4086 28.7331 40.4672 28.7736 40.4781 28.8436C40.5034 28.9776 40.4766 29.1188 40.5173 29.2502C40.5428 29.2966 40.5688 29.3435 40.5707 29.3991C40.4798 29.4017 40.3891 29.3999 40.2982 29.4014C40.2369 29.2487 40.2826 29.0768 40.2444 28.9194C40.2293 28.8552 40.1666 28.8153 40.1068 28.8174C39.9585 28.8107 39.8096 28.8153 39.6618 28.815C39.6596 29.0103 39.6672 29.2064 39.6574 29.4014C39.5801 29.4002 39.5025 29.4002 39.4252 29.4017C39.4213 28.922 39.424 28.4435 39.424 27.9646ZM39.6618 28.1923C39.662 28.3245 39.662 28.4567 39.6618 28.5893C39.7943 28.5901 39.9271 28.5912 40.0601 28.5899C40.126 28.5893 40.2026 28.5762 40.2454 28.517C40.2904 28.4415 40.2894 28.341 40.2488 28.2642C40.2148 28.2037 40.1425 28.1977 40.0832 28.1939C39.9427 28.1895 39.8021 28.1921 39.6618 28.1923Z" fill="#FBFBFB"/>
</g>
<defs>
<clipPath id="clip0_24_1901">
<rect width="50" height="50" fill="white"/>
</clipPath>
<clipPath id="clip1_24_1901">
<rect width="77" height="18" fill="white" transform="translate(-27 31)"/>
</clipPath>
</defs>
</svg>
