<svg width="57" height="53" viewBox="0 0 57 53" fill="none" xmlns="http://www.w3.org/2000/svg">
<g filter="url(#filter0_d_24_1805)">
<path d="M24.249 3C25.6735 3.28135 27.0736 3.68327 28.4669 4.1022C29.264 4.34747 30.0589 4.60125 30.8487 4.87152C32.0893 5.29019 33.3246 5.76425 34.4482 6.47122C34.9516 6.79508 35.435 7.16093 35.8481 7.60717C36.2958 8.07067 36.6622 8.62048 36.9312 9.21873C37.4211 10.3029 37.5889 11.5141 37.6385 12.7049C37.6619 13.4819 37.6604 14.2657 37.5235 15.0327C37.4097 15.6992 37.2074 16.3565 36.8709 16.9354C36.5737 17.4468 36.1606 17.8889 35.6592 18.1739C35.1782 18.4485 34.6274 18.5794 34.082 18.5678C33.2548 18.5771 32.4521 18.2975 31.7097 17.9314C31.6964 15.3156 31.7078 12.6992 31.7039 10.0836C31.6986 9.61034 31.7289 9.13216 31.639 8.66531C31.5758 8.30358 31.4364 7.93901 31.1685 7.69348C30.9907 7.52369 30.7604 7.42785 30.5289 7.37606C30.2948 7.32892 30.045 7.43429 29.9001 7.63345C29.6591 7.95241 29.5959 8.37598 29.585 8.773C29.583 15.776 29.5874 22.7792 29.583 29.7817C27.805 29.1848 26.0268 28.5873 24.2493 27.9885C24.2473 19.6589 24.2481 11.3296 24.249 3Z" fill="#FBFBFB"/>
<path d="M16.257 20.7214C18.575 19.8519 20.8907 18.9741 23.2097 18.1074C23.2134 19.0717 23.2097 20.0364 23.2112 21.0015C23.2097 21.1324 23.2177 21.2638 23.2022 21.3939C21.3692 22.0823 19.5399 22.7828 17.7087 23.4756C17.4548 23.5771 17.1944 23.6923 16.9986 23.8977C16.9074 23.994 16.8333 24.1362 16.8831 24.2743C16.9459 24.4369 17.1024 24.5253 17.2469 24.5923C17.6486 24.7654 18.0877 24.7899 18.5157 24.8107C18.9928 24.8028 19.4718 24.7649 19.9392 24.6556C20.2551 24.5899 20.559 24.4771 20.86 24.3573C21.6425 24.0571 22.425 23.7552 23.2087 23.4581C23.2146 24.2738 23.2097 25.09 23.2112 25.9065C23.2087 26.0696 23.2182 26.2337 23.2029 26.3963C22.2405 26.5795 21.2666 26.7039 20.2884 26.7201C18.3185 26.7673 16.344 26.4442 14.4729 25.7918C13.8591 25.6035 13.2493 25.3528 12.737 24.9398C12.4549 24.7085 12.2025 24.4176 12.0741 24.0597C11.9666 23.7567 11.9744 23.4066 12.1084 23.1142C12.2375 22.8225 12.4632 22.5919 12.7117 22.4129C13.2867 21.9921 13.9209 21.6714 14.5636 21.3851C15.1173 21.1347 15.6916 20.9399 16.257 20.7214Z" fill="#FBFBFB"/>
<path d="M34.9084 19.6231C35.4341 19.5587 35.9633 19.5435 36.4917 19.5234C38.2305 19.5304 39.9781 19.7597 41.6414 20.3123C41.9677 20.4174 42.2838 20.5535 42.6089 20.6632C43.1884 20.8876 43.7685 21.1597 44.2325 21.601C44.5114 21.8705 44.7516 22.2336 44.755 22.6481C44.7716 22.9854 44.6274 23.309 44.4209 23.5578C44.028 24.0247 43.5086 24.3454 42.987 24.6252C42.4319 24.9251 41.8352 25.1186 41.253 25.3469C37.6999 26.6988 34.1466 28.0501 30.594 29.4035C30.5935 28.349 30.595 27.2947 30.5935 26.2407C30.5989 26.1987 30.577 26.1252 30.6331 26.1142C33.3366 25.0949 36.0394 24.0729 38.7424 23.0511C39.1078 22.9063 39.5015 22.8014 39.8118 22.5386C39.9387 22.433 40.063 22.265 40.0007 22.0839C39.9358 21.9254 39.7807 21.8376 39.6379 21.7721C39.2333 21.6023 38.7927 21.5693 38.3623 21.5567C37.6885 21.5616 37.0086 21.6497 36.3679 21.8785C34.4423 22.5935 32.5201 23.3172 30.594 24.0298C30.5942 22.8975 30.5935 21.7659 30.5945 20.6338C31.988 20.1157 33.4431 19.8017 34.9084 19.6231Z" fill="#FBFBFB"/>
<path d="M42.8069 27.4235C43.2274 27.3679 43.6665 27.5675 43.9184 27.9288C44.1935 28.3013 44.2438 28.8387 44.0495 29.2644C43.8535 29.706 43.4051 30.0154 42.9409 29.9992C42.5137 30.0092 42.0998 29.7456 41.8895 29.3553C41.6993 29.0114 41.6767 28.5711 41.8238 28.2052C41.9892 27.7829 42.3787 27.4745 42.8069 27.4235ZM42.7155 27.6613C42.4801 27.718 42.2664 27.8692 42.1258 28.0772C41.9568 28.3217 41.8929 28.6453 41.9571 28.9413C42.0111 29.2162 42.1752 29.4617 42.3967 29.614C42.7379 29.8515 43.2162 29.8384 43.5425 29.5774C43.8793 29.3254 44.0393 28.8413 43.9235 28.4221C43.8521 28.1387 43.6609 27.8976 43.4202 27.7572C43.2062 27.6366 42.9509 27.6018 42.7155 27.6613Z" fill="#FBFBFB"/>
<path d="M42.424 27.9646C42.6431 27.9633 42.8629 27.9643 43.0822 27.9638C43.2062 27.9656 43.3429 27.9963 43.4307 28.097C43.5192 28.2029 43.5262 28.3567 43.5019 28.4894C43.4883 28.577 43.4154 28.6288 43.3626 28.6901C43.4086 28.7331 43.4672 28.7736 43.4781 28.8436C43.5034 28.9776 43.4766 29.1188 43.5173 29.2502C43.5428 29.2966 43.5688 29.3435 43.5707 29.3991C43.4798 29.4017 43.3891 29.3999 43.2982 29.4014C43.2369 29.2487 43.2826 29.0768 43.2444 28.9194C43.2293 28.8552 43.1666 28.8153 43.1068 28.8174C42.9585 28.8107 42.8096 28.8153 42.6618 28.815C42.6596 29.0103 42.6672 29.2064 42.6574 29.4014C42.5801 29.4002 42.5025 29.4002 42.4252 29.4017C42.4213 28.922 42.424 28.4435 42.424 27.9646ZM42.6618 28.1923C42.662 28.3245 42.662 28.4567 42.6618 28.5893C42.7943 28.5901 42.9271 28.5912 43.0601 28.5899C43.126 28.5893 43.2026 28.5762 43.2454 28.517C43.2904 28.4415 43.2894 28.341 43.2488 28.2642C43.2148 28.2037 43.1425 28.1977 43.0832 28.1939C42.9427 28.1895 42.8021 28.1921 42.6618 28.1923Z" fill="#FBFBFB"/>
<path d="M50.944 44.3128H51.0922V43.2851H51.4432V43.1521H50.5928V43.2851H50.944V44.3128Z" fill="#FBFBFB"/>
<path d="M51.7276 43.3697L52.0228 44.3128H52.1695L52.4646 43.3697V44.3128H52.587V43.1521H52.4086L52.1012 44.1434L51.7837 43.1521H51.5793V44.3128H51.7276V43.3697Z" fill="#FBFBFB"/>
<path d="M27.3584 41.5321V36.7324C27.3584 35.7532 27.7897 35.052 28.7096 35.052H34.3839C34.4186 35.052 34.452 35.0155 34.452 34.9793V34.0243C34.452 34.016 34.4498 34.0078 34.4467 34H27.5087C26.0049 34.2026 25.2703 35.313 25.2703 36.7324V41.5319C25.2703 42.5111 24.8269 43.2125 23.9192 43.2125H17.9268C17.8928 43.2125 17.8586 43.2366 17.8586 43.285V44.2401C17.8586 44.2797 17.8816 44.3099 17.9085 44.32H24.712C26.4853 44.2707 27.3584 43.0712 27.3584 41.5321Z" fill="#FBFBFB"/>
<path d="M4.04673 44.3202H6.03902C6.06592 44.3101 6.08889 44.2798 6.08889 44.2403V41.1814C6.08889 40.2023 6.61087 39.5251 7.37133 39.5251H15.5776C17.4277 39.5251 18.3244 38.3162 18.3244 36.7324C18.3244 35.313 17.5904 34.2026 16.0858 34H4.00986C4.00638 34.008 4.00049 34.0143 4.00049 34.0243V34.9793C4.00049 35.0277 4.02316 35.052 4.0685 35.052H14.8851C15.8046 35.052 16.2359 35.7532 16.2359 36.7324C16.2359 37.7117 15.8046 38.4129 14.8851 38.4129H6.32721C4.99927 38.4129 4.00049 39.61 4.00049 41.1814V44.2403C4.00034 44.2798 4.01636 44.3099 4.04673 44.3202Z" fill="#FBFBFB"/>
<path d="M34.4189 43.2126H45.3151C45.3484 43.2126 45.3711 43.2368 45.3711 43.261V44.2403C45.3711 44.2886 45.4059 44.3128 45.4393 44.3128H47.4033C47.4381 44.3128 47.4712 44.2886 47.4712 44.2403V43.2851C47.4712 43.2488 47.5059 43.2126 47.5393 43.2126H49.4912C49.5367 43.2126 49.5594 43.1763 49.5594 43.1402V42.1729C49.5594 42.1366 49.5367 42.1004 49.4912 42.1004H47.5393C47.5059 42.1004 47.4712 42.064 47.4712 42.0278V35.052C47.4712 34.4828 47.2715 34.1203 46.9359 34H46.3676C46.1905 34.0482 45.998 34.1345 45.7916 34.266L34.0558 41.9431C33.6018 42.2453 33.4427 42.5836 33.5563 42.8376C33.647 43.0554 33.9074 43.2126 34.4189 43.2126ZM36.1211 41.9311L45.2123 35.9708C45.2696 35.9225 45.3832 35.9346 45.3832 36.0675V42.0278C45.3832 42.0642 45.3484 42.1004 45.3151 42.1004H36.1773C36.0985 42.1004 36.0636 42.0764 36.053 42.052C36.0408 42.0037 36.0635 41.9673 36.1211 41.9311Z" fill="#FBFBFB"/>
</g>
<defs>
<filter id="filter0_d_24_1805" x="-1" y="0" width="58" height="58" filterUnits="userSpaceOnUse" color-interpolation-filters="sRGB">
<feFlood flood-opacity="0" result="BackgroundImageFix"/>
<feColorMatrix in="SourceAlpha" type="matrix" values="0 0 0 0 0 0 0 0 0 0 0 0 0 0 0 0 0 0 127 0" result="hardAlpha"/>
<feOffset dy="4"/>
<feGaussianBlur stdDeviation="2"/>
<feComposite in2="hardAlpha" operator="out"/>
<feColorMatrix type="matrix" values="0 0 0 0 0 0 0 0 0 0 0 0 0 0 0 0 0 0 0.25 0"/>
<feBlend mode="normal" in2="BackgroundImageFix" result="effect1_dropShadow_24_1805"/>
<feBlend mode="normal" in="SourceGraphic" in2="effect1_dropShadow_24_1805" result="shape"/>
</filter>
</defs>
</svg>
