<svg width="58" height="57" viewBox="0 0 58 57" fill="none" xmlns="http://www.w3.org/2000/svg">
<g clip-path="url(#clip0_25_2015)" filter="url(#filter0_d_25_2015)">
<path d="M47.4978 41.9633L42.7514 35.5308L41.9734 35.5293V43.3553H42.846V37.0698L47.497 43.3605L48.3719 43.3612V35.5356H47.4978V41.9633Z" fill="#FBFBFB"/>
<path d="M37.4355 35.3539C35.2294 35.3539 33.6875 37.037 33.6875 39.4464C33.6875 41.8596 35.2294 43.5424 37.4355 43.5424C39.6393 43.5424 41.1761 41.8596 41.1761 39.4464C41.1761 37.037 39.6393 35.3539 37.4355 35.3539ZM37.4355 42.7132C35.7553 42.7132 34.5772 41.3698 34.5772 39.4464C34.5772 37.5247 35.7553 36.1811 37.4355 36.1811C39.1135 36.1811 40.2842 37.5247 40.2842 39.4464C40.2843 41.3698 39.1136 42.7132 37.4355 42.7132Z" fill="#FBFBFB"/>
<path d="M50.2334 36.296H54.8459V35.5304H49.3533V43.362H54.8999V42.5959H50.2334V39.7H54.5523V38.9339H50.2334V36.296Z" fill="#FBFBFB"/>
<path d="M25.4433 35.5354H26.4757L28.7208 38.5775L30.9638 35.5354H31.9955L29.2429 39.2649L32.2602 43.3686H31.2286L28.7208 39.972L26.2143 43.3686H25.1812L28.1972 39.2649L25.4433 35.5354Z" fill="#FBFBFB"/>
<path d="M17.4216 39.5613C17.2578 39.4221 17.0799 39.3143 16.9072 39.2347C17.4771 38.9261 17.8509 38.343 17.8509 37.6665C17.8509 37.1652 17.6656 35.5358 15.2984 35.5358H12.1098V38.9125H11.0475C10.9092 39.0916 10.5967 39.5217 10.4773 39.6985H12.1098V43.3679L15.2984 43.3682C17.0256 43.3682 18.099 42.493 18.099 41.0817C18.099 40.465 17.8653 39.9407 17.4216 39.5613ZM12.9914 36.3528H15.2984C15.9233 36.3528 16.9686 36.5079 16.9686 37.5977C16.9686 38.4215 16.3592 38.9125 15.2984 38.9125H12.9914V36.3528ZM15.2984 42.5513H12.9914V39.6996H15.2984C16.1733 39.6996 17.2197 39.9407 17.2197 41.0648C17.2197 42.3572 16.0165 42.5513 15.2984 42.5513Z" fill="#FBFBFB"/>
<path d="M22.2464 35.3545C20.0411 35.3545 18.4995 37.0376 18.4995 39.4469C18.4995 41.86 20.0411 43.542 22.2464 43.542C24.4502 43.542 25.987 41.86 25.987 39.4469C25.987 37.0376 24.4502 35.3545 22.2464 35.3545ZM22.2464 42.7135C20.5662 42.7135 19.3892 41.3702 19.3892 39.4469C19.3892 37.5252 20.5662 36.1822 22.2464 36.1822C23.9241 36.1822 25.0951 37.5252 25.0951 39.4469C25.0951 41.3702 23.9241 42.7135 22.2464 42.7135Z" fill="#FBFBFB"/>
<path d="M5.89613 35.5356H4.86706L7.61963 39.2647L4.60156 43.3679H5.63544L8.14101 39.9722L10.6481 43.3679H11.6808L8.66239 39.2647L11.4168 35.5356H10.3848L8.13953 38.5785L5.89613 35.5356Z" fill="#FBFBFB"/>
<g clip-path="url(#clip1_25_2015)">
<path d="M27.6414 30.6532C25.5325 30.4511 23.3975 29.6939 21.5635 28.4972C20.0267 27.4949 19.6799 27.0822 19.6799 26.2597C19.6799 24.6074 21.4967 21.7129 24.6054 18.414C26.3703 16.5399 28.8292 14.3445 29.0949 14.4036C29.6123 14.5191 33.7454 18.5508 35.2931 20.4491C37.7399 23.4495 38.8644 25.9072 38.2929 27.0027C37.8586 27.8354 35.1629 29.4632 33.1829 30.0884C31.5506 30.6039 29.407 30.8221 27.6414 30.6532ZM17.6041 24.5419C16.3269 22.5825 15.6816 20.6537 15.3704 17.8639C15.2674 16.9427 15.3036 16.4161 15.6037 14.5249C15.9769 12.1703 17.3187 9.4435 18.9319 7.76668C19.6185 7.05395 19.6796 7.03486 20.517 7.31804C21.532 7.66168 22.617 8.41132 24.3002 9.9335L25.2834 10.8225L24.7457 11.4811C22.2549 14.5389 19.6261 18.8757 18.6366 21.558C18.0989 23.0152 17.8825 24.4789 18.1148 25.0882C18.2707 25.4999 18.1275 25.3465 17.6025 24.5428L17.6041 24.5419ZM40.0209 24.875C40.1473 24.259 39.9875 23.1282 39.6137 21.9872C38.8039 19.5165 36.0965 14.9204 33.6105 11.7952L32.8278 10.8114L33.6748 10.034C34.7802 9.01904 35.5476 8.41132 36.3762 7.89491C37.0294 7.48764 37.9633 7.12714 38.3648 7.12714C38.612 7.12714 39.4835 8.03395 40.1867 9.02032C41.2762 10.5476 42.0774 12.4026 42.4834 14.3308C42.7459 15.578 42.7678 18.2444 42.5257 19.4885C42.3252 20.5092 41.9052 21.8322 41.4979 22.7298C41.1893 23.4021 40.4289 24.7083 40.0948 25.1334C39.9229 25.352 39.9229 25.3516 40.0184 24.8801L40.0209 24.875ZM27.8674 6.66068C26.72 6.07841 24.9503 5.45318 23.9728 5.28454C23.6304 5.22568 23.0459 5.19227 22.6746 5.21136C21.8677 5.25209 21.9037 5.21009 23.1974 4.59886C24.2729 4.09073 25.1701 3.79195 26.3888 3.53614C27.7585 3.24818 30.3342 3.245 31.6824 3.52914C33.138 3.83618 34.8527 4.47414 35.8187 5.06914L36.1064 5.24541L35.4477 5.21232C34.1381 5.14614 32.2296 5.67527 30.1805 6.67182C29.5626 6.97282 29.0255 7.21273 28.9861 7.20636C28.9469 7.19873 28.4433 6.95341 27.8661 6.66068H27.8674Z" fill="#FBFBFB"/>
</g>
</g>
<defs>
<filter id="filter0_d_25_2015" x="0" y="0" width="58" height="58" filterUnits="userSpaceOnUse" color-interpolation-filters="sRGB">
<feFlood flood-opacity="0" result="BackgroundImageFix"/>
<feColorMatrix in="SourceAlpha" type="matrix" values="0 0 0 0 0 0 0 0 0 0 0 0 0 0 0 0 0 0 127 0" result="hardAlpha"/>
<feOffset dy="4"/>
<feGaussianBlur stdDeviation="2"/>
<feComposite in2="hardAlpha" operator="out"/>
<feColorMatrix type="matrix" values="0 0 0 0 0 0 0 0 0 0 0 0 0 0 0 0 0 0 0.25 0"/>
<feBlend mode="normal" in2="BackgroundImageFix" result="effect1_dropShadow_25_2015"/>
<feBlend mode="normal" in="SourceGraphic" in2="effect1_dropShadow_25_2015" result="shape"/>
</filter>
<clipPath id="clip0_25_2015">
<rect width="50" height="50" fill="white" transform="translate(4)"/>
</clipPath>
<clipPath id="clip1_25_2015">
<rect width="28" height="28" fill="white" transform="translate(15 3)"/>
</clipPath>
</defs>
</svg>
