<svg width="50" height="50" viewBox="0 0 50 50" fill="none" xmlns="http://www.w3.org/2000/svg">
<g clip-path="url(#clip0_25_2015)">
<path d="M43.4978 41.9633L38.7514 35.5308L37.9734 35.5293V43.3553H38.846V37.0698L43.497 43.3605L44.3719 43.3612V35.5356H43.4978V41.9633Z" fill="#FBFBFB"/>
<path d="M33.4355 35.3539C31.2294 35.3539 29.6875 37.037 29.6875 39.4464C29.6875 41.8596 31.2294 43.5424 33.4355 43.5424C35.6393 43.5424 37.1761 41.8596 37.1761 39.4464C37.1761 37.037 35.6393 35.3539 33.4355 35.3539ZM33.4355 42.7132C31.7553 42.7132 30.5772 41.3698 30.5772 39.4464C30.5772 37.5247 31.7553 36.1811 33.4355 36.1811C35.1135 36.1811 36.2842 37.5247 36.2842 39.4464C36.2843 41.3698 35.1136 42.7132 33.4355 42.7132Z" fill="#FBFBFB"/>
<path d="M46.2334 36.296H50.8459V35.5304H45.3533V43.362H50.8999V42.5959H46.2334V39.7H50.5523V38.9339H46.2334V36.296Z" fill="#FBFBFB"/>
<path d="M21.4433 35.5354H22.4757L24.7208 38.5775L26.9638 35.5354H27.9955L25.2429 39.2649L28.2602 43.3686H27.2286L24.7208 39.972L22.2143 43.3686H21.1812L24.1972 39.2649L21.4433 35.5354Z" fill="#FBFBFB"/>
<path d="M13.4216 39.5613C13.2578 39.4221 13.0799 39.3143 12.9072 39.2347C13.4771 38.9261 13.8509 38.343 13.8509 37.6665C13.8509 37.1652 13.6656 35.5358 11.2984 35.5358H8.10984V38.9125H7.04748C6.90919 39.0916 6.59673 39.5217 6.47729 39.6985H8.10984V43.3679L11.2984 43.3682C13.0256 43.3682 14.099 42.493 14.099 41.0817C14.099 40.465 13.8653 39.9407 13.4216 39.5613ZM8.99137 36.3528H11.2984C11.9233 36.3528 12.9686 36.5079 12.9686 37.5977C12.9686 38.4215 12.3592 38.9125 11.2984 38.9125H8.99137V36.3528ZM11.2984 42.5513H8.99137V39.6996H11.2984C12.1733 39.6996 13.2197 39.9407 13.2197 41.0648C13.2197 42.3572 12.0165 42.5513 11.2984 42.5513Z" fill="#FBFBFB"/>
<path d="M18.2464 35.3545C16.0411 35.3545 14.4995 37.0376 14.4995 39.4469C14.4995 41.86 16.0411 43.542 18.2464 43.542C20.4502 43.542 21.987 41.86 21.987 39.4469C21.987 37.0376 20.4502 35.3545 18.2464 35.3545ZM18.2464 42.7135C16.5662 42.7135 15.3892 41.3702 15.3892 39.4469C15.3892 37.5252 16.5662 36.1822 18.2464 36.1822C19.9241 36.1822 21.0951 37.5252 21.0951 39.4469C21.0951 41.3702 19.9241 42.7135 18.2464 42.7135Z" fill="#FBFBFB"/>
<path d="M1.89613 35.5356H0.867058L3.61963 39.2647L0.601562 43.3679H1.63544L4.14101 39.9722L6.64806 43.3679H7.68083L4.66239 39.2647L7.41682 35.5356H6.38478L4.13953 38.5785L1.89613 35.5356Z" fill="#FBFBFB"/>
<g clip-path="url(#clip1_25_2015)">
<path d="M23.6414 30.6532C21.5325 30.4511 19.3975 29.6939 17.5635 28.4972C16.0267 27.4949 15.6799 27.0822 15.6799 26.2597C15.6799 24.6074 17.4967 21.7129 20.6054 18.414C22.3703 16.5399 24.8292 14.3445 25.0949 14.4036C25.6123 14.5191 29.7454 18.5508 31.2931 20.4491C33.7399 23.4495 34.8644 25.9072 34.2929 27.0027C33.8586 27.8354 31.1629 29.4632 29.1829 30.0884C27.5506 30.6039 25.407 30.8221 23.6414 30.6532ZM13.6041 24.5419C12.3269 22.5825 11.6816 20.6537 11.3704 17.8639C11.2674 16.9427 11.3036 16.4161 11.6037 14.5249C11.9769 12.1703 13.3187 9.4435 14.9319 7.76668C15.6185 7.05395 15.6796 7.03486 16.517 7.31804C17.532 7.66168 18.617 8.41132 20.3002 9.9335L21.2834 10.8225L20.7457 11.4811C18.2549 14.5389 15.6261 18.8757 14.6366 21.558C14.0989 23.0152 13.8825 24.4789 14.1148 25.0882C14.2707 25.4999 14.1275 25.3465 13.6025 24.5428L13.6041 24.5419ZM36.0209 24.875C36.1473 24.259 35.9875 23.1282 35.6137 21.9872C34.8039 19.5165 32.0965 14.9204 29.6105 11.7952L28.8278 10.8114L29.6748 10.034C30.7802 9.01904 31.5476 8.41132 32.3762 7.89491C33.0294 7.48764 33.9633 7.12714 34.3648 7.12714C34.612 7.12714 35.4835 8.03395 36.1867 9.02032C37.2762 10.5476 38.0774 12.4026 38.4834 14.3308C38.7459 15.578 38.7678 18.2444 38.5257 19.4885C38.3252 20.5092 37.9052 21.8322 37.4979 22.7298C37.1893 23.4021 36.4289 24.7083 36.0948 25.1334C35.9229 25.352 35.9229 25.3516 36.0184 24.8801L36.0209 24.875ZM23.8674 6.66068C22.72 6.07841 20.9503 5.45318 19.9728 5.28454C19.6304 5.22568 19.0459 5.19227 18.6746 5.21136C17.8677 5.25209 17.9037 5.21009 19.1974 4.59886C20.2729 4.09073 21.1701 3.79195 22.3888 3.53614C23.7585 3.24818 26.3342 3.245 27.6824 3.52914C29.138 3.83618 30.8527 4.47414 31.8187 5.06914L32.1064 5.24541L31.4477 5.21232C30.1381 5.14614 28.2296 5.67527 26.1805 6.67182C25.5626 6.97282 25.0255 7.21273 24.9861 7.20636C24.9469 7.19873 24.4433 6.95341 23.8661 6.66068H23.8674Z" fill="#FBFBFB"/>
</g>
</g>
<defs>
<clipPath id="clip0_25_2015">
<rect width="50" height="50" fill="white"/>
</clipPath>
<clipPath id="clip1_25_2015">
<rect width="28" height="28" fill="white" transform="translate(11 3)"/>
</clipPath>
</defs>
</svg>
