<svg width="50" height="50" viewBox="0 0 50 50" fill="none" xmlns="http://www.w3.org/2000/svg">
<g clip-path="url(#clip0_24_407)">
<mask id="mask0_24_407" style="mask-type:luminance" maskUnits="userSpaceOnUse" x="4" y="3" width="42" height="42">
<path d="M4 3H46V45H4V3Z" fill="white"/>
</mask>
<g mask="url(#mask0_24_407)">
<path fill-rule="evenodd" clip-rule="evenodd" d="M25.2909 5.46166C31.479 5.52437 36.4313 9.54846 36.3521 14.4498L13.9421 14.3362C13.9421 14.2984 13.9424 14.2605 13.943 14.2227C14.0222 9.3214 19.1028 5.39896 25.2909 5.46166ZM30.9719 10.1531C30.9719 9.53698 30.4651 9.03751 29.8399 9.03751C29.2147 9.03751 28.7079 9.53698 28.7079 10.1531C28.7079 10.7693 29.2147 11.2688 29.8399 11.2688C30.4651 11.2688 30.9719 10.7693 30.9719 10.1531ZM21.522 10.1531C21.522 9.53698 21.0078 9.03751 20.3735 9.03751C19.7393 9.03751 19.2251 9.53698 19.2251 10.1531C19.2251 10.7693 19.7393 11.2688 20.3735 11.2688C21.0078 11.2688 21.522 10.7693 21.522 10.1531Z" fill="#FBFBFB"/>
<path fill-rule="evenodd" clip-rule="evenodd" d="M32.4308 3.63685C32.539 3.48739 32.5055 3.27854 32.356 3.17038C32.2066 3.06221 31.9977 3.09569 31.8896 3.24515L29.538 6.4945C29.4298 6.64396 29.4633 6.85281 29.6127 6.96096C29.7622 7.06915 29.971 7.03568 30.0792 6.88622L32.4308 3.63685Z" fill="#FBFBFB"/>
<path fill-rule="evenodd" clip-rule="evenodd" d="M17.8168 3.63684C17.7087 3.48739 17.7421 3.27854 17.8916 3.17037C18.0411 3.06221 18.2499 3.09568 18.3581 3.24514L20.7097 6.49451C20.8178 6.64397 20.7844 6.85282 20.6349 6.96098C20.4855 7.06915 20.2766 7.03565 20.1684 6.88621L17.8168 3.63684Z" fill="#FBFBFB"/>
<path fill-rule="evenodd" clip-rule="evenodd" d="M16.0939 36.4688H34.2014C35.3898 36.4688 36.3531 35.5054 36.3531 34.317V16.1906H13.9422V34.317C13.9422 35.5054 14.9055 36.4688 16.0939 36.4688Z" fill="#FBFBFB"/>
<path fill-rule="evenodd" clip-rule="evenodd" d="M32.0219 34.4836C32.0219 33.1698 30.9568 32.1047 29.643 32.1047C28.3291 32.1047 27.2641 33.1698 27.2641 34.4836V42.6211C27.2641 43.9349 28.3291 45 29.643 45C30.9568 45 32.0219 43.9349 32.0219 42.6211V34.4836Z" fill="#FBFBFB"/>
<path fill-rule="evenodd" clip-rule="evenodd" d="M22.9 34.4836C22.9 33.1698 21.8349 32.1047 20.5211 32.1047C19.2072 32.1047 18.1422 33.1698 18.1422 34.4836V42.6211C18.1422 43.9349 19.2072 45 20.5211 45C21.8349 45 22.9 43.9349 22.9 42.6211V34.4836Z" fill="#FBFBFB"/>
<path fill-rule="evenodd" clip-rule="evenodd" d="M12.1703 18.5695C12.1703 17.2557 11.1052 16.1906 9.79141 16.1906C8.4776 16.1906 7.41251 17.2557 7.41251 18.5695V29.168C7.41251 30.4818 8.4776 31.5469 9.79141 31.5469C11.1052 31.5469 12.1703 30.4818 12.1703 29.168V18.5695Z" fill="#FBFBFB"/>
<path fill-rule="evenodd" clip-rule="evenodd" d="M42.7188 18.6352C42.7188 17.3213 41.6537 16.2563 40.3398 16.2563C39.026 16.2563 37.9609 17.3213 37.9609 18.6352L37.9609 29.2336C37.9609 30.5474 39.026 31.6125 40.3398 31.6125C41.6537 31.6125 42.7188 30.5474 42.7188 29.2336V18.6352Z" fill="#FBFBFB"/>
</g>
</g>
<defs>
<clipPath id="clip0_24_407">
<rect width="42" height="42" fill="white" transform="matrix(-1 0 0 1 46 3)"/>
</clipPath>
</defs>
</svg>
