<svg width="58" height="57" viewBox="0 0 58 57" fill="none" xmlns="http://www.w3.org/2000/svg">
<g clip-path="url(#clip0_24_1901)" filter="url(#filter0_d_24_1901)">
<g clip-path="url(#clip1_24_1901)">
<path d="M52.2913 44.8112H52.1421V43.7131H51.8002V43.5595H52.6347V43.7131H52.2928L52.2913 44.8112ZM53.3255 44.5206L53.6449 43.5595H53.878V44.812H53.7226V43.7649L53.369 44.8112H53.2742L52.9222 43.7649V44.8112H52.7746V43.5586H53.0077L53.3255 44.5206ZM50.3037 34H36.0064V38.1652C36.0064 38.1652 35.9629 39.7734 37.8138 39.7734H46.553C46.8958 39.7704 47.2354 39.8447 47.5499 39.9914C48.0378 40.2252 48.5864 40.7012 48.5864 41.6614C48.5864 42.5232 48.1979 43.0125 47.8133 43.2864C47.4949 43.5075 47.1232 43.6236 46.7441 43.6204H36.0064V44.7895H47.9796C47.9796 44.7895 50.6992 44.6709 50.6992 41.6673C50.6992 40.14 49.8693 39.3835 49.1226 39.0127C48.6401 38.7745 48.115 38.6523 47.5841 38.6545H38.9226C38.7782 38.6565 38.6357 38.6201 38.5076 38.5484C38.3227 38.4407 38.1191 38.2269 38.1191 37.8061V35.1532H50.3037V34ZM18.0113 43.6163V44.7853H24.0799C24.8052 44.7936 25.5089 44.5198 26.0613 44.0146C26.3462 43.7547 26.5734 43.4297 26.7264 43.0633C26.8794 42.6969 26.9543 42.2984 26.9455 41.8969V36.9276C26.9424 36.6559 26.9967 36.3869 27.1044 36.141C27.2121 35.8951 27.3703 35.6787 27.5671 35.5081C27.8465 35.2731 28.1922 35.1478 28.547 35.1532H33.8377V34H27.5368C27.5368 34 24.8173 34.0468 24.8173 37.1381V41.7783C24.8221 42.1584 24.7267 42.5321 24.5422 42.8564C24.4087 43.0962 24.218 43.2933 23.9899 43.4273C23.7618 43.5613 23.5044 43.6274 23.2446 43.6188L18.0113 43.6163ZM4 34V35.1532H14.8162C15.117 35.1504 15.4147 35.2191 15.688 35.3544C16.1169 35.5707 16.5987 36.0158 16.5987 36.9184C16.5987 37.7952 16.1169 38.2336 15.688 38.4507C15.4102 38.5877 15.1078 38.6573 14.8022 38.6545H6.78019C6.30534 38.6497 5.83601 38.7641 5.40952 38.9885C4.74206 39.3484 4 40.196 4 41.5938V44.7669H6.08165V41.608C6.08027 41.4025 6.11479 41.1986 6.18344 41.0068C6.35516 40.5333 6.78952 39.7734 7.80509 39.7734H15.8939C16.166 39.775 16.4369 39.7359 16.6989 39.6574C17.4417 39.4302 18.6803 38.7739 18.6803 36.9184C18.6803 34.0351 16.0097 34 16.0097 34H4Z" fill="#FBFBFB"/>
</g>
<path d="M25.249 3C26.6735 3.28135 28.0736 3.68327 29.4669 4.1022C30.264 4.34747 31.0589 4.60125 31.8487 4.87152C33.0893 5.29019 34.3246 5.76425 35.4482 6.47122C35.9516 6.79508 36.435 7.16093 36.8481 7.60717C37.2958 8.07067 37.6622 8.62048 37.9312 9.21873C38.4211 10.3029 38.5889 11.5141 38.6385 12.7049C38.6619 13.4819 38.6604 14.2657 38.5235 15.0327C38.4097 15.6992 38.2074 16.3565 37.8709 16.9354C37.5737 17.4468 37.1606 17.8889 36.6592 18.1739C36.1782 18.4485 35.6274 18.5794 35.082 18.5678C34.2548 18.5771 33.4521 18.2975 32.7097 17.9314C32.6964 15.3156 32.7078 12.6992 32.7039 10.0836C32.6986 9.61034 32.7289 9.13216 32.639 8.66531C32.5758 8.30358 32.4364 7.93901 32.1685 7.69348C31.9907 7.52369 31.7604 7.42785 31.5289 7.37606C31.2948 7.32892 31.045 7.43429 30.9001 7.63345C30.6591 7.95241 30.5959 8.37598 30.585 8.773C30.583 15.776 30.5874 22.7792 30.583 29.7817C28.805 29.1848 27.0268 28.5873 25.2493 27.9885C25.2473 19.6589 25.2481 11.3296 25.249 3Z" fill="#FBFBFB"/>
<path d="M17.257 20.7214C19.575 19.8519 21.8907 18.9741 24.2097 18.1074C24.2134 19.0717 24.2097 20.0364 24.2112 21.0015C24.2097 21.1324 24.2177 21.2638 24.2022 21.3939C22.3692 22.0823 20.5399 22.7828 18.7087 23.4756C18.4548 23.5771 18.1944 23.6923 17.9986 23.8977C17.9074 23.994 17.8333 24.1362 17.8831 24.2743C17.9459 24.4369 18.1024 24.5253 18.2469 24.5923C18.6486 24.7654 19.0877 24.7899 19.5157 24.8107C19.9928 24.8028 20.4718 24.7649 20.9392 24.6556C21.2551 24.5899 21.559 24.4771 21.86 24.3573C22.6425 24.0571 23.425 23.7552 24.2087 23.4581C24.2146 24.2738 24.2097 25.09 24.2112 25.9065C24.2087 26.0696 24.2182 26.2337 24.2029 26.3963C23.2405 26.5795 22.2666 26.7039 21.2884 26.7201C19.3185 26.7673 17.344 26.4442 15.4729 25.7918C14.8591 25.6035 14.2493 25.3528 13.737 24.9398C13.4549 24.7085 13.2025 24.4176 13.0741 24.0597C12.9666 23.7567 12.9744 23.4066 13.1084 23.1142C13.2375 22.8225 13.4632 22.5919 13.7117 22.4129C14.2867 21.9921 14.9209 21.6714 15.5636 21.3851C16.1173 21.1347 16.6916 20.9399 17.257 20.7214Z" fill="#FBFBFB"/>
<path d="M35.9084 19.6231C36.4341 19.5587 36.9633 19.5435 37.4917 19.5234C39.2305 19.5304 40.9781 19.7597 42.6414 20.3123C42.9677 20.4174 43.2838 20.5535 43.6089 20.6632C44.1884 20.8876 44.7685 21.1597 45.2325 21.601C45.5114 21.8705 45.7516 22.2336 45.755 22.6481C45.7716 22.9854 45.6274 23.309 45.4209 23.5578C45.028 24.0247 44.5086 24.3454 43.987 24.6252C43.4319 24.9251 42.8352 25.1186 42.253 25.3469C38.6999 26.6988 35.1466 28.0501 31.594 29.4035C31.5935 28.349 31.595 27.2947 31.5935 26.2407C31.5989 26.1987 31.577 26.1252 31.6331 26.1142C34.3366 25.0949 37.0394 24.0729 39.7424 23.0511C40.1078 22.9063 40.5015 22.8014 40.8118 22.5386C40.9387 22.433 41.063 22.265 41.0007 22.0839C40.9358 21.9254 40.7807 21.8376 40.6379 21.7721C40.2333 21.6023 39.7927 21.5693 39.3623 21.5567C38.6885 21.5616 38.0086 21.6497 37.3679 21.8785C35.4423 22.5935 33.5201 23.3172 31.594 24.0298C31.5942 22.8975 31.5935 21.7659 31.5945 20.6338C32.988 20.1157 34.4431 19.8017 35.9084 19.6231Z" fill="#FBFBFB"/>
<path d="M43.8069 27.4235C44.2274 27.3679 44.6665 27.5675 44.9184 27.9288C45.1935 28.3013 45.2438 28.8387 45.0495 29.2644C44.8535 29.706 44.4051 30.0154 43.9409 29.9992C43.5137 30.0092 43.0998 29.7456 42.8895 29.3553C42.6993 29.0114 42.6767 28.5711 42.8238 28.2052C42.9892 27.7829 43.3787 27.4745 43.8069 27.4235ZM43.7155 27.6613C43.4801 27.718 43.2664 27.8692 43.1258 28.0772C42.9568 28.3217 42.8929 28.6453 42.9571 28.9413C43.0111 29.2162 43.1752 29.4617 43.3967 29.614C43.7379 29.8515 44.2162 29.8384 44.5425 29.5774C44.8793 29.3254 45.0393 28.8413 44.9235 28.4221C44.8521 28.1387 44.6609 27.8976 44.4202 27.7572C44.2062 27.6366 43.9509 27.6018 43.7155 27.6613Z" fill="#FBFBFB"/>
<path d="M43.424 27.9646C43.6431 27.9633 43.8629 27.9643 44.0822 27.9638C44.2062 27.9656 44.3429 27.9963 44.4307 28.097C44.5192 28.2029 44.5262 28.3567 44.5019 28.4894C44.4883 28.577 44.4154 28.6288 44.3626 28.6901C44.4086 28.7331 44.4672 28.7736 44.4781 28.8436C44.5034 28.9776 44.4766 29.1188 44.5173 29.2502C44.5428 29.2966 44.5688 29.3435 44.5707 29.3991C44.4798 29.4017 44.3891 29.3999 44.2982 29.4014C44.2369 29.2487 44.2826 29.0768 44.2444 28.9194C44.2293 28.8552 44.1666 28.8153 44.1068 28.8174C43.9585 28.8107 43.8096 28.8153 43.6618 28.815C43.6596 29.0103 43.6672 29.2064 43.6574 29.4014C43.5801 29.4002 43.5025 29.4002 43.4252 29.4017C43.4213 28.922 43.424 28.4435 43.424 27.9646ZM43.6618 28.1923C43.662 28.3245 43.662 28.4567 43.6618 28.5893C43.7943 28.5901 43.9271 28.5912 44.0601 28.5899C44.126 28.5893 44.2026 28.5762 44.2454 28.517C44.2904 28.4415 44.2894 28.341 44.2488 28.2642C44.2148 28.2037 44.1425 28.1977 44.0832 28.1939C43.9427 28.1895 43.8021 28.1921 43.6618 28.1923Z" fill="#FBFBFB"/>
</g>
<defs>
<filter id="filter0_d_24_1901" x="0" y="0" width="58" height="58" filterUnits="userSpaceOnUse" color-interpolation-filters="sRGB">
<feFlood flood-opacity="0" result="BackgroundImageFix"/>
<feColorMatrix in="SourceAlpha" type="matrix" values="0 0 0 0 0 0 0 0 0 0 0 0 0 0 0 0 0 0 127 0" result="hardAlpha"/>
<feOffset dy="4"/>
<feGaussianBlur stdDeviation="2"/>
<feComposite in2="hardAlpha" operator="out"/>
<feColorMatrix type="matrix" values="0 0 0 0 0 0 0 0 0 0 0 0 0 0 0 0 0 0 0.25 0"/>
<feBlend mode="normal" in2="BackgroundImageFix" result="effect1_dropShadow_24_1901"/>
<feBlend mode="normal" in="SourceGraphic" in2="effect1_dropShadow_24_1901" result="shape"/>
</filter>
<clipPath id="clip0_24_1901">
<rect width="50" height="50" fill="white" transform="translate(4)"/>
</clipPath>
<clipPath id="clip1_24_1901">
<rect width="77" height="18" fill="white" transform="translate(-23 31)"/>
</clipPath>
</defs>
</svg>
