<svg width="50" height="53" viewBox="0 0 50 53" fill="none" xmlns="http://www.w3.org/2000/svg">
<g filter="url(#filter0_d_23_370)">
<path d="M12.8404 4.12962C8.72713 4.85991 5.41772 7.88293 4.37445 11.857C3.99818 13.2921 3.97253 14.1328 4.01529 25.2653C4.04094 35.4893 4.04949 35.727 4.22052 36.5168C5.16973 40.7711 8.21404 43.8026 12.5411 44.8046C13.1055 44.932 13.8238 44.9575 18.4501 44.9829C23.2389 45.0169 23.7349 45.0084 23.8632 44.881C23.9914 44.7537 24 43.1148 24 24.535C24 10.7616 23.9743 4.27398 23.9145 4.1551C23.829 4.00225 23.6836 3.99376 18.6725 4.00225C14.602 4.01074 13.3791 4.03622 12.8404 4.12962ZM20.5794 24.5096V41.7136L17.099 41.6712C13.8922 41.6372 13.5501 41.6202 12.9088 41.4589C10.1552 40.7541 8.11143 38.6482 7.53848 35.9054C7.35035 35.0477 7.35035 13.9205 7.52993 13.0798C8.04302 10.6937 9.71055 8.71511 11.9596 7.82349C13.0884 7.37343 13.61 7.32248 17.27 7.31399L20.5794 7.3055V24.5096Z" fill="#FBFBFB"/>
<path d="M13.578 12.0763C12.9515 12.1822 11.9969 12.6058 11.4897 13.0028C10.4455 13.8058 9.92842 14.944 10.008 16.2852C10.0478 16.9822 10.0975 17.1675 10.4157 17.7322C10.8831 18.5881 11.5891 19.2146 12.5538 19.6381C13.22 19.9293 13.3891 19.9646 14.2543 19.9911C15.0399 20.0175 15.3183 19.9911 15.8454 19.8322C18.0033 19.1881 19.306 17.3263 18.9381 15.4205C18.5105 13.1528 16.084 11.6352 13.578 12.0763Z" fill="#FBFBFB"/>
<path d="M28.0592 4.05943C28.0254 4.08489 28 13.2869 28 24.5094C28 43.0238 28.0085 44.8999 28.1353 44.9508C28.3637 45.0357 34.9268 45.0018 35.7388 44.9169C39.1726 44.5264 42.2004 42.4296 43.8497 39.3141C44.0611 38.9152 44.3402 38.2445 44.484 37.8286C45.0169 36.2326 44.9999 36.6571 44.9999 24.4584C44.9999 14.7216 44.983 13.27 44.8646 12.6503C44.0273 8.22751 40.6696 4.89134 36.2547 4.12733C35.6627 4.02547 34.7492 4 31.806 4C29.7761 4 28.0846 4.02547 28.0592 4.05943ZM37.092 22.5484C38.4114 22.8965 39.494 23.9067 39.9338 25.197C40.2129 25.9949 40.2044 27.1664 39.9253 27.8965C39.4094 29.2377 38.3945 30.18 37.092 30.5281C34.9776 31.0798 32.7278 29.798 32.1104 27.6927C31.9244 27.0476 31.9328 25.961 32.1443 25.2988C32.7786 23.219 34.9776 21.9966 37.092 22.5484Z" fill="#FBFBFB"/>
</g>
<defs>
<filter id="filter0_d_23_370" x="-4" y="0" width="58" height="58" filterUnits="userSpaceOnUse" color-interpolation-filters="sRGB">
<feFlood flood-opacity="0" result="BackgroundImageFix"/>
<feColorMatrix in="SourceAlpha" type="matrix" values="0 0 0 0 0 0 0 0 0 0 0 0 0 0 0 0 0 0 127 0" result="hardAlpha"/>
<feOffset dy="4"/>
<feGaussianBlur stdDeviation="2"/>
<feComposite in2="hardAlpha" operator="out"/>
<feColorMatrix type="matrix" values="0 0 0 0 0 0 0 0 0 0 0 0 0 0 0 0 0 0 0.25 0"/>
<feBlend mode="normal" in2="BackgroundImageFix" result="effect1_dropShadow_23_370"/>
<feBlend mode="normal" in="SourceGraphic" in2="effect1_dropShadow_23_370" result="shape"/>
</filter>
</defs>
</svg>
