<svg width="25" height="25" viewBox="0 0 25 25" fill="none" xmlns="http://www.w3.org/2000/svg">
<path fill-rule="evenodd" clip-rule="evenodd" d="M21.6925 2H16.3075H15.3697C14.4764 2 14.0313 3.08228 14.6663 3.71074L18 7.01026V8.5H1C0.447715 8.5 0 8.94771 0 9.5V13.5C0 14.0523 0.447716 14.5 1 14.5H18V16H11.5C10.9477 16 10.5 16.4477 10.5 17V21C10.5 21.5523 10.9477 22 11.5 22H18V25H20V22V16V14.5V8.5V8V7.01026L23.3337 3.71074C23.9687 3.08228 23.5236 2 22.6303 2H21.6925ZM23 14.5V8.5H24C24.5523 8.5 25 8.94771 25 9.5V13.5C25 14.0523 24.5523 14.5 24 14.5H23ZM23 22V16H24C24.5523 16 25 16.4477 25 17V21C25 21.5523 24.5523 22 24 22H23ZM0 17C0 16.4477 0.447715 16 1 16H8C8.55228 16 9 16.4477 9 17V21C9 21.5523 8.55228 22 8 22H1C0.447716 22 0 21.5523 0 21V17Z" fill="#FBFBFB"/>
</svg>
