<svg width="50" height="50" viewBox="0 0 50 50" fill="none" xmlns="http://www.w3.org/2000/svg">
<path d="M29.6875 43.0625L25.2914 45.5048C25.1102 45.6054 24.8898 45.6054 24.7086 45.5048L6.55861 35.4214C6.36813 35.3156 6.25 35.1148 6.25 34.8969L6.24996 14.7697C6.24996 14.5518 6.3681 14.351 6.55858 14.2452L24.7086 4.16187C24.8898 4.0612 25.1102 4.0612 25.2914 4.16187L43.4413 14.2452C43.6318 14.351 43.75 14.5518 43.75 14.7697L43.75 34.8969C43.75 35.1148 43.6319 35.3156 43.4414 35.4214L39.0625 37.8542" stroke="#FBFBFB" stroke-width="4" stroke-linecap="round" stroke-linejoin="round" stroke-dasharray="8 8"/>
<path d="M7.35089 15.0282L24.7086 24.6714C24.8898 24.7721 25.1102 24.7721 25.2914 24.6714L42.7083 14.9953" stroke="#FBFBFB" stroke-width="4" stroke-linecap="round" stroke-linejoin="round" stroke-dasharray="8 8"/>
<path d="M25 43.5833V24.8333" stroke="white" stroke-width="4" stroke-linecap="round" stroke-linejoin="round" stroke-dasharray="8 8"/>
</svg>
