<svg width="50" height="56" viewBox="0 0 50 56" fill="none" xmlns="http://www.w3.org/2000/svg">
<g filter="url(#filter0_d_1_254)">
<path d="M43.75 14.7697L43.75 34.8969C43.75 35.1148 43.6319 35.3156 43.4414 35.4214L34.375 40.4583L25.2914 45.5048C25.1102 45.6054 24.8898 45.6054 24.7086 45.5048L6.55861 35.4214C6.36813 35.3156 6.25 35.1148 6.25 34.8969L6.24996 14.7697C6.24996 14.5518 6.3681 14.351 6.55857 14.2452L24.7086 4.16187C24.8898 4.0612 25.1102 4.0612 25.2914 4.16187L43.4413 14.2452C43.6318 14.351 43.75 14.5518 43.75 14.7697Z" stroke="#3ECB4C" stroke-width="4" stroke-linecap="round" stroke-linejoin="round"/>
<path d="M34.5 19H36.5V17.8232L35.4713 17.2517L34.5 19ZM32.5 26C32.5 27.1046 33.3954 28 34.5 28C35.6046 28 36.5 27.1046 36.5 26H32.5ZM15.5287 10.7483L33.5287 20.7483L35.4713 17.2517L17.4713 7.25169L15.5287 10.7483ZM32.5 19V26H36.5V19H32.5Z" fill="#3ECB4C"/>
<path d="M32.5 30.5V26L36.5 21V27L32.5 30.5Z" fill="#3ECB4C"/>
<path d="M7.35089 15.0282L24.7086 24.6714C24.8898 24.7721 25.1102 24.7721 25.2914 24.6714L42.7083 14.9953" stroke="#3ECB4C" stroke-width="4" stroke-linecap="round" stroke-linejoin="round"/>
<path d="M25 43.5833V24.8333" stroke="#3ECB4C" stroke-width="4" stroke-linecap="round" stroke-linejoin="round"/>
</g>
<defs>
<filter id="filter0_d_1_254" x="-4" y="0" width="58" height="58" filterUnits="userSpaceOnUse" color-interpolation-filters="sRGB">
<feFlood flood-opacity="0" result="BackgroundImageFix"/>
<feColorMatrix in="SourceAlpha" type="matrix" values="0 0 0 0 0 0 0 0 0 0 0 0 0 0 0 0 0 0 127 0" result="hardAlpha"/>
<feOffset dy="4"/>
<feGaussianBlur stdDeviation="2"/>
<feComposite in2="hardAlpha" operator="out"/>
<feColorMatrix type="matrix" values="0 0 0 0 0 0 0 0 0 0 0 0 0 0 0 0 0 0 0.25 0"/>
<feBlend mode="normal" in2="BackgroundImageFix" result="effect1_dropShadow_1_254"/>
<feBlend mode="normal" in="SourceGraphic" in2="effect1_dropShadow_1_254" result="shape"/>
</filter>
</defs>
</svg>
