<svg width="50" height="50" viewBox="0 0 50 50" fill="none" xmlns="http://www.w3.org/2000/svg">
<path fill-rule="evenodd" clip-rule="evenodd" d="M20.4129 34.7446L22.606 34.7446L31.9894 16.514L14.0263 29.0338L14.4235 30.126C13.4029 29.9333 12.3291 29.9294 11.2481 30.145C10.9122 30.212 10.5851 30.2982 10.2677 30.4024L9.21618 27.5106L35.9029 8.91082L42.9183 4.02128L39.0049 11.6245L25.046 38.7446L21.2085 38.7446C21.2422 38.0712 21.1941 37.3828 21.0562 36.6915C20.9189 36.003 20.7005 35.3514 20.4129 34.7446Z" fill="#FBFBFB"/>
<path d="M37.4863 11L20.8196 28.8431M20.8196 28.8431L12.4863 27.8235M20.8196 28.8431L23.4238 37M20.8196 28.8431L18.2154 32.4118" stroke="#FBFBFB" stroke-width="2"/>
<circle cx="12.4863" cy="39" r="4" stroke="#FBFBFB" stroke-width="4"/>
</svg>
