<svg width="50" height="50" viewBox="0 0 50 50" fill="none" xmlns="http://www.w3.org/2000/svg">
<path d="M16.3814 48.052C14.2887 48.052 12.6834 47.5647 11.5654 46.59C10.4761 45.6153 9.9314 44.2393 9.9314 42.462V33.862C9.9314 32.658 9.70206 31.755 9.2434 31.153C8.78473 30.5223 8.0824 30.1497 7.1364 30.035C6.7064 29.9777 6.4914 29.7483 6.4914 29.347V24.359C6.4914 23.929 6.7064 23.6997 7.1364 23.671C8.0824 23.5563 8.78473 23.198 9.2434 22.596C9.70206 21.9653 9.9314 21.0623 9.9314 19.887V11.416C9.9314 9.63866 10.4761 8.26266 11.5654 7.288C12.6834 6.31333 14.2887 5.826 16.3814 5.826H21.0254C21.2261 5.826 21.3837 5.88333 21.4984 5.998C21.6131 6.11266 21.6704 6.27033 21.6704 6.471V12.104C21.6704 12.3047 21.6131 12.4623 21.4984 12.577C21.3837 12.6917 21.2261 12.749 21.0254 12.749H20.2514C19.6207 12.749 19.0904 12.9783 18.6604 13.437C18.2304 13.8957 18.0154 14.469 18.0154 15.157V21.134C18.0154 22.6247 17.7861 23.8143 17.3274 24.703C16.8974 25.5917 16.1951 26.2653 15.2204 26.724C15.0484 26.81 15.0484 26.896 15.2204 26.982C16.1951 27.4407 16.8974 28.1287 17.3274 29.046C17.7861 29.9347 18.0154 31.1243 18.0154 32.615V38.721C18.0154 39.409 18.2304 39.9823 18.6604 40.441C19.0904 40.8997 19.6207 41.129 20.2514 41.129H21.0254C21.2261 41.129 21.3837 41.1863 21.4984 41.301C21.6131 41.4157 21.6704 41.5733 21.6704 41.774V47.407C21.6704 47.6077 21.6131 47.7653 21.4984 47.88C21.3837 47.9947 21.2261 48.052 21.0254 48.052H16.3814ZM27.983 48.052C27.7823 48.052 27.6247 47.9947 27.51 47.88C27.3953 47.7653 27.338 47.6077 27.338 47.407V41.774C27.338 41.5733 27.3953 41.4157 27.51 41.301C27.6247 41.1863 27.7823 41.129 27.983 41.129H28.757C29.3877 41.129 29.918 40.8997 30.348 40.441C30.778 39.9823 30.993 39.409 30.993 38.721V32.615C30.993 31.1243 31.208 29.9347 31.638 29.046C32.0967 28.1287 32.8133 27.4407 33.788 26.982C33.96 26.896 33.96 26.81 33.788 26.724C32.8133 26.2653 32.0967 25.5917 31.638 24.703C31.208 23.8143 30.993 22.6247 30.993 21.134V15.157C30.993 14.469 30.778 13.8957 30.348 13.437C29.918 12.9783 29.3877 12.749 28.757 12.749H27.983C27.7823 12.749 27.6247 12.6917 27.51 12.577C27.3953 12.4623 27.338 12.3047 27.338 12.104V6.471C27.338 6.27033 27.3953 6.11266 27.51 5.998C27.6247 5.88333 27.7823 5.826 27.983 5.826H32.627C34.7197 5.826 36.3107 6.31333 37.4 7.288C38.518 8.26266 39.077 9.63866 39.077 11.416V19.887C39.077 21.0623 39.3063 21.9653 39.765 22.596C40.2237 23.198 40.926 23.5563 41.872 23.671C42.302 23.6997 42.517 23.929 42.517 24.359V29.347C42.517 29.7483 42.302 29.9777 41.872 30.035C40.926 30.1497 40.2237 30.5223 39.765 31.153C39.3063 31.755 39.077 32.658 39.077 33.862V42.462C39.077 44.2393 38.518 45.6153 37.4 46.59C36.3107 47.5647 34.7197 48.052 32.627 48.052H27.983Z" fill="#007CC1"/>
</svg>
