<svg width="50" height="50" viewBox="0 0 50 50" fill="none" xmlns="http://www.w3.org/2000/svg">
<path fill-rule="evenodd" clip-rule="evenodd" d="M9 25H8C5.23858 25 3 27.2386 3 30V38C3 40.7614 5.23858 43 8 43H9V25ZM12 42.9C14.2822 42.4367 16 40.419 16 38V30C16 27.581 14.2822 25.5633 12 25.1V42.9ZM34 30C34 27.581 35.7178 25.5633 38 25.1V42.9C35.7178 42.4367 34 40.419 34 38V30ZM42 43H41V25H42C44.7614 25 47 27.2386 47 30V38C47 40.7614 44.7614 43 42 43Z" fill="#F87C36"/>
<path d="M7.02314 29C7.02314 29 5.60383 8 24.9999 8C44.3961 8 42.9769 29 42.9769 29" stroke="#F87C36" stroke-width="4" stroke-linecap="round" stroke-linejoin="round"/>
</svg>
