<svg width="52" height="52" viewBox="0 0 52 52" fill="none" xmlns="http://www.w3.org/2000/svg">
<g filter="url(#filter0_d_1_1090)">
<path d="M35 16C35 16 37 19 37 24C37 29 35 32 35 32" stroke="#F87C36" stroke-width="4" stroke-linecap="round" stroke-linejoin="round"/>
<path d="M41 7C41 7 46 13.0714 46 24C46 34.9286 41 41 41 41" stroke="#F87C36" stroke-width="4" stroke-linecap="round" stroke-linejoin="round"/>
<rect x="4" y="16" width="20" height="18" rx="3" fill="#F87C36"/>
<path d="M7.59036 26.4691C6.73316 25.6773 6.73316 24.3227 7.59035 23.5309L25.1429 7.31655C26.4239 6.13325 28.5 7.04179 28.5 8.78566L28.5 41.2143C28.5 42.9582 26.4239 43.8668 25.1429 42.6835L7.59036 26.4691Z" fill="#F87C36"/>
</g>
<defs>
<filter id="filter0_d_1_1090" x="-3" y="0" width="58" height="58" filterUnits="userSpaceOnUse" color-interpolation-filters="sRGB">
<feFlood flood-opacity="0" result="BackgroundImageFix"/>
<feColorMatrix in="SourceAlpha" type="matrix" values="0 0 0 0 0 0 0 0 0 0 0 0 0 0 0 0 0 0 127 0" result="hardAlpha"/>
<feOffset dy="4"/>
<feGaussianBlur stdDeviation="2"/>
<feComposite in2="hardAlpha" operator="out"/>
<feColorMatrix type="matrix" values="0 0 0 0 0 0 0 0 0 0 0 0 0 0 0 0 0 0 0.25 0"/>
<feBlend mode="normal" in2="BackgroundImageFix" result="effect1_dropShadow_1_1090"/>
<feBlend mode="normal" in="SourceGraphic" in2="effect1_dropShadow_1_1090" result="shape"/>
</filter>
</defs>
</svg>
