<svg width="50" height="50" viewBox="0 0 50 50" fill="none" xmlns="http://www.w3.org/2000/svg">
<path d="M34 16C34 16 36 19 36 24C36 29 34 32 34 32" stroke="#F87C36" stroke-width="4" stroke-linecap="round" stroke-linejoin="round"/>
<path d="M40 7C40 7 45 13.0714 45 24C45 34.9286 40 41 40 41" stroke="#F87C36" stroke-width="4" stroke-linecap="round" stroke-linejoin="round"/>
<rect x="3" y="16" width="20" height="18" rx="3" fill="#F87C36"/>
<path d="M6.59036 26.4691C5.73316 25.6773 5.73316 24.3227 6.59035 23.5309L24.1429 7.31655C25.4239 6.13325 27.5 7.04179 27.5 8.78566L27.5 41.2143C27.5 42.9582 25.4239 43.8668 24.1429 42.6835L6.59036 26.4691Z" fill="#F87C36"/>
</svg>
