<svg width="58" height="58" viewBox="0 0 58 58" fill="none" xmlns="http://www.w3.org/2000/svg">
<g clip-path="url(#clip0_39_985)" filter="url(#filter0_d_39_985)">
<g filter="url(#filter1_d_39_985)">
<path d="M21 40H36" stroke="#FBFBFB" stroke-width="4" stroke-linecap="round" stroke-linejoin="round"/>
<path d="M23 46H34" stroke="#FBFBFB" stroke-width="4" stroke-linecap="round" stroke-linejoin="round"/>
<path d="M28.5 4C19.5009 4 14.8939 8.71319 15.0019 16.0833C15.0545 19.6766 16.1264 22.125 18.3764 24.5417C20.6264 26.9583 21.7513 28.1667 21.7509 33H35.2491C35.2494 28.1669 36.3742 26.9584 38.6234 24.5419L38.6236 24.5417C40.873 22.125 41.9455 19.6766 41.9981 16.0833C42.1061 8.71319 37.4991 4 28.5 4Z" fill="#FBFBFB" stroke="#FBFBFB" stroke-width="4" stroke-linecap="round" stroke-linejoin="round"/>
</g>
</g>
<defs>
<filter id="filter0_d_39_985" x="0" y="0" width="58" height="58" filterUnits="userSpaceOnUse" color-interpolation-filters="sRGB">
<feFlood flood-opacity="0" result="BackgroundImageFix"/>
<feColorMatrix in="SourceAlpha" type="matrix" values="0 0 0 0 0 0 0 0 0 0 0 0 0 0 0 0 0 0 127 0" result="hardAlpha"/>
<feOffset dy="4"/>
<feGaussianBlur stdDeviation="2"/>
<feComposite in2="hardAlpha" operator="out"/>
<feColorMatrix type="matrix" values="0 0 0 0 0 0 0 0 0 0 0 0 0 0 0 0 0 0 0.25 0"/>
<feBlend mode="normal" in2="BackgroundImageFix" result="effect1_dropShadow_39_985"/>
<feBlend mode="normal" in="SourceGraphic" in2="effect1_dropShadow_39_985" result="shape"/>
</filter>
<filter id="filter1_d_39_985" x="0" y="0" width="58" height="58" filterUnits="userSpaceOnUse" color-interpolation-filters="sRGB">
<feFlood flood-opacity="0" result="BackgroundImageFix"/>
<feColorMatrix in="SourceAlpha" type="matrix" values="0 0 0 0 0 0 0 0 0 0 0 0 0 0 0 0 0 0 127 0" result="hardAlpha"/>
<feOffset dy="4"/>
<feGaussianBlur stdDeviation="2"/>
<feComposite in2="hardAlpha" operator="out"/>
<feColorMatrix type="matrix" values="0 0 0 0 0 0 0 0 0 0 0 0 0 0 0 0 0 0 0.25 0"/>
<feBlend mode="normal" in2="BackgroundImageFix" result="effect1_dropShadow_39_985"/>
<feBlend mode="normal" in="SourceGraphic" in2="effect1_dropShadow_39_985" result="shape"/>
</filter>
<clipPath id="clip0_39_985">
<rect width="50" height="50" fill="white" transform="translate(4)"/>
</clipPath>
</defs>
</svg>
