<svg width="50" height="50" viewBox="0 0 50 50" fill="none" xmlns="http://www.w3.org/2000/svg">
<path fill-rule="evenodd" clip-rule="evenodd" d="M35.7322 4.65389C25.7765 -0.61346 13.2054 2.10429 6.3929 11.4809C-1.07347 21.7574 1.20465 36.1409 11.4812 43.6073C21.7578 51.0737 36.1413 48.7956 43.6077 38.519C48.9209 31.206 49.2995 21.8132 45.3726 14.3133C44.4036 14.4134 43.4482 14.5571 42.6546 14.7681C41.7871 14.9987 41.4137 15.2342 41.324 15.324C41.2275 15.4205 40.9872 15.803 40.749 16.6703C40.5301 17.4674 40.3773 18.4267 40.2714 19.3948C40.1665 20.3533 40.1132 21.2645 40.0775 21.9572L40.0637 22.2297L40.0637 22.2299C40.0523 22.4578 40.0419 22.6657 40.0318 22.822C40.0252 22.9252 40.0157 23.0583 40 23.1796C39.994 23.2265 39.9767 23.3588 39.9353 23.5107C39.9189 23.5708 39.8649 23.7657 39.7393 23.9865L39.7369 23.9908C39.6849 24.0832 39.1695 25 38 25C36.8305 25 36.3151 24.0832 36.2631 23.9908L36.2607 23.9865C36.1351 23.7657 36.0811 23.5708 36.0647 23.5107C36.0233 23.3588 36.006 23.2265 36 23.1796C35.9843 23.0583 35.9748 22.9252 35.9682 22.822C35.9581 22.6658 35.9477 22.4579 35.9363 22.2301L35.9363 22.2298L35.9225 21.9572C35.8868 21.2645 35.8335 20.3533 35.7286 19.3948C35.6227 18.4267 35.4699 17.4674 35.251 16.6703C35.0128 15.803 34.7725 15.4205 34.676 15.324C34.5742 15.2222 34.1845 14.978 33.3173 14.7338C32.5195 14.5091 31.56 14.3495 30.5951 14.2389C29.6401 14.1295 28.7323 14.0739 28.0539 14.0428C27.7595 14.0293 27.5124 14.0205 27.3189 14.0137L27.2347 14.0107C27.139 14.0073 27.0423 14.0037 26.9681 13.9997C26.9367 13.998 26.8738 13.9945 26.8066 13.9875L26.8054 13.9873C26.7809 13.9848 26.6908 13.9753 26.5817 13.952L26.5806 13.9517C26.5394 13.9429 26.3834 13.9095 26.1985 13.8289C26.1129 13.7916 25.8991 13.6931 25.6761 13.4966C25.4611 13.3072 25 12.8075 25 12C25 11.1925 25.4611 10.6928 25.676 10.5034C25.8991 10.3069 26.1129 10.2084 26.1985 10.1711C26.3834 10.0905 26.5393 10.0571 26.5805 10.0483L26.5817 10.048C26.6909 10.0247 26.781 10.0152 26.8054 10.0127L26.8066 10.0125C26.8738 10.0055 26.9367 10.002 26.9681 10.0003C27.0423 9.99631 27.139 9.99274 27.2347 9.98932L27.3191 9.98632L27.3191 9.98632C27.5126 9.97948 27.7596 9.97074 28.0539 9.95723C28.7323 9.9261 29.6401 9.8705 30.5951 9.76108C31.56 9.65053 32.5195 9.49087 33.3173 9.26622C34.1845 9.02205 34.5742 8.77779 34.676 8.67601C34.774 8.578 35.0155 8.19337 35.2554 7.32612C35.4721 6.543 35.6252 5.60353 35.7322 4.65389ZM33.166 40.2351C34.0022 40.4614 34.8245 40.6393 35.6222 40.7597C29.1887 45.0951 20.4727 45.1957 13.8324 40.3713C7.19208 35.5468 4.59436 27.2263 6.72948 19.7679C7.09054 20.4894 7.5138 21.2165 7.98742 21.9418C10.375 25.5979 14.2858 29.5761 19.1224 33.0901C23.9591 36.6041 28.9511 39.0942 33.166 40.2351Z" fill="#FBFBFB"/>
<g clip-path="url(#clip0_1_1004)">
<path d="M39.92 10.08C41.84 12 49.04 11.76 49.04 12C49.04 12.24 41.84 12 39.92 13.92C38 15.84 38.134 23.04 38 23.04C37.8659 23.04 38 15.84 36.08 13.92C34.16 12 26.96 12.0501 26.96 12C26.96 11.9498 34.16 12 36.08 10.08C38 8.15996 37.8902 0.959961 38 0.959961C38.1097 0.959961 38 8.15996 39.92 10.08Z" fill="#FFD233" stroke="#FFD233" stroke-width="1.92" stroke-linecap="round"/>
</g>
<defs>
<clipPath id="clip0_1_1004">
<rect width="24" height="24" fill="white" transform="translate(26)"/>
</clipPath>
</defs>
</svg>
