<svg width="50" height="50" viewBox="0 0 50 50" fill="none" xmlns="http://www.w3.org/2000/svg">
<path d="M4 25V25C4 16.7811 8.83776 9.31149 16.3261 5.92391V5.92391C21.828 3.43493 28.172 3.43494 33.6739 5.92391V5.92391C41.1622 9.31149 46 16.7811 46 25V25" stroke="#FFD233" stroke-width="4" stroke-linecap="round"/>
<path d="M12.1273 18.9878L5.71824 20.2817L9.03355 13.2277L12.1273 18.9878Z" fill="#FFD233"/>
<path d="M38.3362 19.2108L41.3887 13.4288L44.7543 20.4589L38.3362 19.2108Z" fill="#FFD233"/>
<path d="M25 11L21.1029 5.75L28.8971 5.75L25 11Z" fill="#FFD233"/>
<g clip-path="url(#clip0_1_879)">
<path d="M33.25 32.6964L33.25 41.1569C33.25 41.3748 33.1319 41.5756 32.9414 41.6814L29.125 43.8017L25.2914 45.9314C25.1102 46.0321 24.8898 46.0321 24.7086 45.9314L17.0586 41.6814C16.8681 41.5756 16.75 41.3748 16.75 41.1569L16.75 32.6964C16.75 32.4785 16.8681 32.2777 17.0586 32.1719L24.7086 27.9219C24.8898 27.8212 25.1102 27.8212 25.2914 27.9219L32.9414 32.1719C33.1318 32.2777 33.25 32.4785 33.25 32.6964Z" stroke="#FBFBFB" stroke-width="4" stroke-linecap="round" stroke-linejoin="round"/>
<path d="M17.2344 32.6124L24.7086 36.7648C24.8898 36.8655 25.1101 36.8655 25.2914 36.7648L32.7916 32.598" stroke="#FBFBFB" stroke-width="4" stroke-linecap="round" stroke-linejoin="round"/>
<path d="M25 45.1767V36.9267" stroke="white" stroke-width="4" stroke-linecap="round" stroke-linejoin="round"/>
</g>
<defs>
<clipPath id="clip0_1_879">
<rect width="22" height="22" fill="white" transform="translate(14 26)"/>
</clipPath>
</defs>
</svg>
