<svg width="58" height="58" viewBox="0 0 58 58" fill="none" xmlns="http://www.w3.org/2000/svg">
<g clip-path="url(#clip0_32_4601)" filter="url(#filter0_d_32_4601)">
<g filter="url(#filter1_d_32_4601)">
<path d="M29 46C18.5066 46 10 42.1944 10 37.5C10 32.8056 18.5066 29 29 29C39.4934 29 48 32.8056 48 37.5C48 42.1944 39.4934 46 29 46Z" stroke="#FBFBFB" stroke-width="4" stroke-linecap="round" stroke-linejoin="round"/>
<path d="M29.0038 13C25.6901 13.0028 23.0012 9.98308 22.998 6.25516L22.9961 4.00516L34.9961 3.99485L34.998 6.24485C35.0012 9.97277 32.3176 12.9972 29.0038 13Z" fill="#FBFBFB" stroke="#FBFBFB" stroke-width="4" stroke-linecap="round" stroke-linejoin="round"/>
<path d="M10 37L20 19" stroke="#FBFBFB" stroke-width="4" stroke-linecap="round" stroke-linejoin="round"/>
<path d="M47.5 35.5L38 19" stroke="#FBFBFB" stroke-width="4" stroke-linecap="round" stroke-linejoin="round"/>
</g>
</g>
<defs>
<filter id="filter0_d_32_4601" x="0" y="0" width="58" height="58" filterUnits="userSpaceOnUse" color-interpolation-filters="sRGB">
<feFlood flood-opacity="0" result="BackgroundImageFix"/>
<feColorMatrix in="SourceAlpha" type="matrix" values="0 0 0 0 0 0 0 0 0 0 0 0 0 0 0 0 0 0 127 0" result="hardAlpha"/>
<feOffset dy="4"/>
<feGaussianBlur stdDeviation="2"/>
<feComposite in2="hardAlpha" operator="out"/>
<feColorMatrix type="matrix" values="0 0 0 0 0 0 0 0 0 0 0 0 0 0 0 0 0 0 0.25 0"/>
<feBlend mode="normal" in2="BackgroundImageFix" result="effect1_dropShadow_32_4601"/>
<feBlend mode="normal" in="SourceGraphic" in2="effect1_dropShadow_32_4601" result="shape"/>
</filter>
<filter id="filter1_d_32_4601" x="0" y="0" width="58" height="58" filterUnits="userSpaceOnUse" color-interpolation-filters="sRGB">
<feFlood flood-opacity="0" result="BackgroundImageFix"/>
<feColorMatrix in="SourceAlpha" type="matrix" values="0 0 0 0 0 0 0 0 0 0 0 0 0 0 0 0 0 0 127 0" result="hardAlpha"/>
<feOffset dy="4"/>
<feGaussianBlur stdDeviation="2"/>
<feComposite in2="hardAlpha" operator="out"/>
<feColorMatrix type="matrix" values="0 0 0 0 0 0 0 0 0 0 0 0 0 0 0 0 0 0 0.25 0"/>
<feBlend mode="normal" in2="BackgroundImageFix" result="effect1_dropShadow_32_4601"/>
<feBlend mode="normal" in="SourceGraphic" in2="effect1_dropShadow_32_4601" result="shape"/>
</filter>
<clipPath id="clip0_32_4601">
<rect width="50" height="50" fill="white" transform="translate(4)"/>
</clipPath>
</defs>
</svg>
