<svg width="50" height="50" viewBox="0 0 50 50" fill="none" xmlns="http://www.w3.org/2000/svg">
<path fill-rule="evenodd" clip-rule="evenodd" d="M35.6222 40.7597C34.8245 40.6393 34.0021 40.4614 33.166 40.2351C28.951 39.0942 23.959 36.6041 19.1224 33.0901C14.2858 29.5761 10.3749 25.5979 7.98736 21.9418C7.51375 21.2165 7.09048 20.4894 6.72942 19.7679C4.5943 27.2263 7.19202 35.5468 13.8323 40.3713C20.4726 45.1957 29.1886 45.0951 35.6222 40.7597ZM11.4812 43.6073C1.20459 36.141 -1.07353 21.7575 6.39284 11.4809C13.8592 1.20429 28.2427 -1.07383 38.5193 6.39254C48.7959 13.8589 51.074 28.2424 43.6076 38.519C36.1413 48.7956 21.7578 51.0737 11.4812 43.6073Z" fill="#FBFBFB"/>
<g clip-path="url(#clip0_1_1004)">
<path d="M39.92 10.08C41.84 12 49.04 11.76 49.04 12C49.04 12.24 41.84 12 39.92 13.92C38 15.84 38.134 23.04 38 23.04C37.8659 23.04 38 15.84 36.08 13.92C34.16 12 26.96 12.0501 26.96 12C26.96 11.9498 34.16 12 36.08 10.08C38 8.15999 37.8902 0.959991 38 0.959991C38.1097 0.959991 38 8.15999 39.92 10.08Z" fill="#FFD233" stroke="#FFD233" stroke-width="1.92" stroke-linecap="round"/>
</g>
<defs>
<clipPath id="clip0_1_1004">
<rect width="24" height="24" fill="white" transform="translate(26)"/>
</clipPath>
</defs>
</svg>
