<svg width="50" height="56" viewBox="0 0 50 56" fill="none" xmlns="http://www.w3.org/2000/svg">
<g filter="url(#filter0_d_1_755)">
<path d="M25 46C14.5066 46 6 42.1944 6 37.5C6 32.8056 14.5066 29 25 29C35.4934 29 44 32.8056 44 37.5C44 42.1944 35.4934 46 25 46Z" stroke="#FFD233" stroke-width="4" stroke-linecap="round" stroke-linejoin="round"/>
<path d="M25.0039 13C21.6902 13.0028 19.0013 9.98308 18.9981 6.25516L18.9962 4.00516L30.9962 3.99485L30.9981 6.24485C31.0013 9.97277 28.3176 12.9972 25.0039 13Z" fill="#FFD233" stroke="#FFD233" stroke-width="4" stroke-linecap="round" stroke-linejoin="round"/>
<path d="M6 37L16 19" stroke="#FFD233" stroke-width="4" stroke-linecap="round" stroke-linejoin="round"/>
<path d="M43.5 35.5L34 19" stroke="#FFD233" stroke-width="4" stroke-linecap="round" stroke-linejoin="round"/>
</g>
<defs>
<filter id="filter0_d_1_755" x="-4" y="0" width="58" height="58" filterUnits="userSpaceOnUse" color-interpolation-filters="sRGB">
<feFlood flood-opacity="0" result="BackgroundImageFix"/>
<feColorMatrix in="SourceAlpha" type="matrix" values="0 0 0 0 0 0 0 0 0 0 0 0 0 0 0 0 0 0 127 0" result="hardAlpha"/>
<feOffset dy="4"/>
<feGaussianBlur stdDeviation="2"/>
<feComposite in2="hardAlpha" operator="out"/>
<feColorMatrix type="matrix" values="0 0 0 0 0 0 0 0 0 0 0 0 0 0 0 0 0 0 0.25 0"/>
<feBlend mode="normal" in2="BackgroundImageFix" result="effect1_dropShadow_1_755"/>
<feBlend mode="normal" in="SourceGraphic" in2="effect1_dropShadow_1_755" result="shape"/>
</filter>
</defs>
</svg>
