<svg width="50" height="50" viewBox="0 0 50 50" fill="none" xmlns="http://www.w3.org/2000/svg">
<path fill-rule="evenodd" clip-rule="evenodd" d="M34 7.48083C26.5674 7.67337 21.2556 8.41518 17.6348 9.54442C13.581 10.8087 10.7189 12.8961 10.6725 16.0966C10.6511 17.5743 11.2788 18.9053 12.0993 20C12.9269 21.1042 14.0526 22.1085 15.3008 22.9876C15.8354 23.3641 16.4045 23.726 17 24.0702V21C17 20.4745 17.1351 19.9806 17.3725 19.5511C16.4599 18.8833 15.7619 18.2171 15.3 17.601C14.7929 16.9244 14.6679 16.443 14.6721 16.1545C14.6769 15.8228 14.9786 14.5629 18.8258 13.363C21.941 12.3914 26.8072 11.6746 34 11.4823V7.48083ZM32 25.764V30C32 30.1505 31.9889 30.2985 31.9675 30.443C32.9553 31.1428 33.7012 31.8405 34.1804 32.4795C34.6835 33.1503 34.7874 33.6099 34.7764 33.8699C34.7681 34.0644 34.688 34.4325 34.0623 34.9524C33.3982 35.5042 32.2174 36.132 30.2651 36.7081C27.0631 37.6531 22.1549 38.3549 15 38.5757V42.5776C22.4006 42.3559 27.7263 41.6279 31.3973 40.5446C33.6199 39.8886 35.3734 39.0636 36.6186 38.029C37.9022 36.9625 38.7062 35.6107 38.7728 34.0392C38.8366 32.533 38.2059 31.1802 37.3805 30.0796C36.5483 28.9699 35.408 27.964 34.1479 27.0865C33.48 26.6213 32.7585 26.1784 32 25.764Z" fill="#FBFBFB"/>
<rect x="37" y="4" width="10" height="10" rx="3" fill="#FBFBFB"/>
<rect x="3" y="36" width="10" height="10" rx="3" fill="#FBFBFB"/>
<path d="M20 23C20 21.3431 21.3431 20 23 20H27C28.6569 20 30 21.3431 30 23V27C30 28.6569 28.6569 30 27 30H23C21.3431 30 20 28.6569 20 27V23Z" fill="#FBFBFB"/>
</svg>
