<svg width="52" height="54" viewBox="0 0 52 54" fill="none" xmlns="http://www.w3.org/2000/svg">
<g filter="url(#filter0_d_39_1710)">
<path fill-rule="evenodd" clip-rule="evenodd" d="M35 7.48083C27.5674 7.67337 22.2556 8.41518 18.6349 9.54442C14.581 10.8087 11.7189 12.8961 11.6726 16.0966C11.6512 17.5743 12.2788 18.9053 13.0994 20C13.927 21.1042 15.0526 22.1085 16.3008 22.9876C16.8354 23.3641 17.4046 23.726 18 24.0702V21C18 20.4745 18.1351 19.9806 18.3725 19.5511C17.4599 18.8833 16.7619 18.2171 16.3001 17.601C15.7929 16.9244 15.668 16.443 15.6721 16.1545C15.6769 15.8228 15.9786 14.5629 19.8258 13.363C22.9411 12.3914 27.8073 11.6746 35 11.4823V7.48083ZM33 25.764V30C33 30.1505 32.9889 30.2985 32.9675 30.443C33.9554 31.1428 34.7012 31.8405 35.1805 32.4795C35.6835 33.1503 35.7874 33.6099 35.7764 33.8699C35.7682 34.0644 35.688 34.4325 35.0623 34.9524C34.3982 35.5042 33.2175 36.132 31.2651 36.7081C28.0631 37.6531 23.155 38.3549 16 38.5757V42.5776C23.4006 42.3559 28.7264 41.6279 32.3973 40.5446C34.6199 39.8886 36.3734 39.0636 37.6186 38.029C38.9022 36.9625 39.7063 35.6107 39.7728 34.0392C39.8366 32.533 39.2059 31.1802 38.3806 30.0796C37.5483 28.9699 36.408 27.964 35.148 27.0865C34.4801 26.6213 33.7586 26.1784 33 25.764Z" fill="#FBFBFB"/>
<rect x="38" y="4" width="10" height="10" rx="3" fill="#FBFBFB"/>
<rect x="4" y="36" width="10" height="10" rx="3" fill="#FBFBFB"/>
<path d="M21 23C21 21.3431 22.3431 20 24 20H28C29.6569 20 31 21.3431 31 23V27C31 28.6569 29.6569 30 28 30H24C22.3431 30 21 28.6569 21 27V23Z" fill="#FBFBFB"/>
</g>
<defs>
<filter id="filter0_d_39_1710" x="-3" y="0" width="58" height="58" filterUnits="userSpaceOnUse" color-interpolation-filters="sRGB">
<feFlood flood-opacity="0" result="BackgroundImageFix"/>
<feColorMatrix in="SourceAlpha" type="matrix" values="0 0 0 0 0 0 0 0 0 0 0 0 0 0 0 0 0 0 127 0" result="hardAlpha"/>
<feOffset dy="4"/>
<feGaussianBlur stdDeviation="2"/>
<feComposite in2="hardAlpha" operator="out"/>
<feColorMatrix type="matrix" values="0 0 0 0 0 0 0 0 0 0 0 0 0 0 0 0 0 0 0.25 0"/>
<feBlend mode="normal" in2="BackgroundImageFix" result="effect1_dropShadow_39_1710"/>
<feBlend mode="normal" in="SourceGraphic" in2="effect1_dropShadow_39_1710" result="shape"/>
</filter>
</defs>
</svg>
