<svg width="55" height="50" viewBox="0 0 55 50" fill="none" xmlns="http://www.w3.org/2000/svg">
<g filter="url(#filter0_d_42_950)">
<path fill-rule="evenodd" clip-rule="evenodd" d="M26.3738 18.235H12.0785C11.1808 18.235 10.393 18.8332 10.152 19.698L4.6561 39.4131C4.48818 40.0154 4.61166 40.6617 4.98983 41.1597C5.368 41.6577 5.95732 41.9501 6.58264 41.9501H40.0357C41.1403 41.9501 42.0357 41.0547 42.0357 39.9501V23.4111L38.5676 27.3022C37.9482 27.9972 37.1079 28.452 36.1939 28.5936L26.152 37.9501H21.0121L30.2878 29.077L27.4413 29.3047C26.5698 29.3744 25.8054 28.8799 25.4668 28.1532L15.2255 37.9501H9.93041L25.6017 22.9589C25.6862 22.8781 25.762 22.7917 25.8292 22.7008L26.3738 18.235ZM13.5972 22.235L11.061 31.3331L20.5719 22.235H13.5972ZM38.0357 37.9501H32.0197L38.0357 32.3446V37.9501Z" fill="#CEF43A"/>
<g clip-path="url(#clip0_42_950)">
<path d="M41.5463 8.39359L46.3764 13.2236M41.5463 8.39359L44.1907 5.74923M41.5463 8.39359L30.2507 19.6893M46.3764 13.2236L35.0807 24.5193M46.3764 13.2236L49.0207 10.5792M49.0207 9.27817L45.4918 5.74923M49.0207 9.27817C49.38 9.63746 49.38 10.22 49.0207 10.5792M49.0207 9.27817V9.27817C49.38 9.63746 49.38 10.22 49.0207 10.5792V10.5792M45.4918 5.74923C45.1325 5.38995 44.55 5.38995 44.1907 5.74923M45.4918 5.74923V5.74923C45.1325 5.38995 44.55 5.38995 44.1907 5.74923V5.74923M30.2507 19.6893C30.0979 19.842 30.0038 20.0437 29.9848 20.2588M30.2507 19.6893V19.6893C30.0979 19.842 30.0038 20.0437 29.9848 20.2588V20.2588M29.9848 20.2588L29.5462 25.2238L34.5111 24.7852M34.5111 24.7852C34.7263 24.7662 34.9279 24.672 35.0807 24.5193M34.5111 24.7852V24.7852C34.7263 24.7662 34.9279 24.672 35.0807 24.5193V24.5193" stroke="#D9D9D9" stroke-width="3" stroke-linecap="round" stroke-linejoin="round"/>
<path d="M30.76 19.87C33.52 19.87 34.9 21.02 34.9 24.01" stroke="#D9D9D9" stroke-width="4" stroke-linecap="round"/>
</g>
</g>
<defs>
<filter id="filter0_d_42_950" x="-3" y="0" width="58" height="58" filterUnits="userSpaceOnUse" color-interpolation-filters="sRGB">
<feFlood flood-opacity="0" result="BackgroundImageFix"/>
<feColorMatrix in="SourceAlpha" type="matrix" values="0 0 0 0 0 0 0 0 0 0 0 0 0 0 0 0 0 0 127 0" result="hardAlpha"/>
<feOffset dy="4"/>
<feGaussianBlur stdDeviation="2"/>
<feComposite in2="hardAlpha" operator="out"/>
<feColorMatrix type="matrix" values="0 0 0 0 0 0 0 0 0 0 0 0 0 0 0 0 0 0 0.25 0"/>
<feBlend mode="normal" in2="BackgroundImageFix" result="effect1_dropShadow_42_950"/>
<feBlend mode="normal" in="SourceGraphic" in2="effect1_dropShadow_42_950" result="shape"/>
</filter>
<clipPath id="clip0_42_950">
<rect width="23" height="23" fill="white" transform="translate(28 4)"/>
</clipPath>
</defs>
</svg>
