<svg width="58" height="56" viewBox="0 0 58 56" fill="none" xmlns="http://www.w3.org/2000/svg">
<g clip-path="url(#clip0_42_366)" filter="url(#filter0_d_42_366)">
<path fill-rule="evenodd" clip-rule="evenodd" d="M31.9367 21H29H12.5714C11.6785 21 10.8937 21.592 10.6484 22.4506L6.08964 38.4061C6.08073 38.4348 6.07244 38.4638 6.0648 38.4931L4.07695 45.4506C3.90454 46.054 4.02538 46.7034 4.4033 47.2044C4.78123 47.7054 5.37242 48 6 48H29H52C52.6276 48 53.2188 47.7054 53.5967 47.2044C53.9746 46.7034 54.0955 46.054 53.923 45.4506L51.9352 38.4931C51.9312 38.4779 51.9271 38.4628 51.9228 38.4478C51.9188 38.4338 51.9146 38.4199 51.9103 38.4061L47.7386 23.8051C45.7902 26.3372 43.7599 28.5783 42.4127 30H45.3485L45.6343 31H41.4487C41.0688 31.3867 40.85 31.6 40.85 31.6C40.85 31.6 38.1339 28.9523 35.2316 25.4046L35.345 26H31V25H34.903C33.8897 23.7431 32.8654 22.3852 31.9367 21ZM49.3485 44H42.8455L42.2741 41H48.4914L49.3485 44ZM38.2021 41L38.7736 44H31V41H38.2021ZM47.3485 37H41.5121L41.1312 35H46.7771L47.3485 37ZM37.4402 37L37.0593 35H31V37H37.4402ZM36.2974 31L36.1069 30H31V31H36.2974ZM27 44V41H20.5917L20.1632 44H27ZM16.1226 44H8.65146L9.5086 41H16.5511L16.1226 44ZM21.1632 37H27V35H21.4489L21.1632 37ZM17.4083 35L17.1226 37H10.6515L11.2229 35H17.4083ZM22.0203 31H27V30H22.1632L22.0203 31ZM18.1226 30L17.9797 31H12.3657L12.6515 30H18.1226ZM22.7346 26H27V25H22.8774L22.7346 26ZM18.8368 25L18.694 26H13.7943L14.08 25H18.8368Z" fill="#CEF43A"/>
<path fill-rule="evenodd" clip-rule="evenodd" d="M40.75 26C40.75 26 49.6944 17.281 49.6944 12.2C49.6944 7.11898 45.6899 3 40.75 3C35.8101 3 31.8055 7.11898 31.8055 12.2C31.8055 17.281 40.75 26 40.75 26ZM45.0944 11.4333C45.0944 13.8327 43.1494 15.7778 40.75 15.7778C38.3506 15.7778 36.4055 13.8327 36.4055 11.4333C36.4055 9.03396 38.3506 7.08889 40.75 7.08889C43.1494 7.08889 45.0944 9.03396 45.0944 11.4333Z" fill="#FF4E36"/>
</g>
<defs>
<filter id="filter0_d_42_366" x="0" y="0" width="58" height="58" filterUnits="userSpaceOnUse" color-interpolation-filters="sRGB">
<feFlood flood-opacity="0" result="BackgroundImageFix"/>
<feColorMatrix in="SourceAlpha" type="matrix" values="0 0 0 0 0 0 0 0 0 0 0 0 0 0 0 0 0 0 127 0" result="hardAlpha"/>
<feOffset dy="4"/>
<feGaussianBlur stdDeviation="2"/>
<feComposite in2="hardAlpha" operator="out"/>
<feColorMatrix type="matrix" values="0 0 0 0 0 0 0 0 0 0 0 0 0 0 0 0 0 0 0.25 0"/>
<feBlend mode="normal" in2="BackgroundImageFix" result="effect1_dropShadow_42_366"/>
<feBlend mode="normal" in="SourceGraphic" in2="effect1_dropShadow_42_366" result="shape"/>
</filter>
<clipPath id="clip0_42_366">
<rect width="50" height="50" fill="white" transform="translate(4)"/>
</clipPath>
</defs>
</svg>
