<svg width="50" height="50" viewBox="0 0 50 50" fill="none" xmlns="http://www.w3.org/2000/svg">
<path fill-rule="evenodd" clip-rule="evenodd" d="M36.9713 16.0003H44.2147C45.3192 16.0003 46.2147 16.8957 46.2147 18.0003V28.5661C46.2147 29.6707 45.3192 30.5661 44.2147 30.5661H32.0001V26.5661H33.6502L33.9424 24.5941H31.651C31.147 23.6458 30.1489 23 29.0001 23H25.3496L26.9351 17.4508C27.1804 16.5922 27.9652 16.0003 28.8581 16.0003H36.9059C36.9276 15.9999 36.9494 15.9999 36.9713 16.0003ZM38.5786 20.5941L38.6666 20.0003H42.2147V20.5941H38.5786ZM34.5349 20.5941H30.1971L30.3667 20.0003H34.6229L34.5349 20.5941ZM37.6939 26.5661L37.986 24.5941H42.2147V26.5661H37.6939Z" fill="#CEF43A"/>
<path fill-rule="evenodd" clip-rule="evenodd" d="M27.4286 25.0834H18.9757C18.9544 25.0831 18.9332 25.0831 18.9121 25.0834H9.52042C8.61962 25.0834 7.82997 25.6856 7.59167 26.5543L4.07127 39.3878C3.90623 39.9895 4.03139 40.6336 4.40971 41.1297C4.78802 41.6258 5.37615 41.9169 6.00002 41.9169H27.4286C28.5331 41.9169 29.4286 41.0215 29.4286 39.9169V27.0834C29.4286 25.9788 28.5331 25.0834 27.4286 25.0834ZM20.682 29.0834L20.4573 30.6632H25.4286V29.0834H20.682ZM10.6123 30.6632H16.4171L16.6418 29.0834H11.0457L10.6123 30.6632ZM15.3853 37.9169L15.8481 34.6632H9.51506L8.62253 37.9169H15.3853ZM19.8884 34.6632L19.4256 37.9169H25.4286V34.6632H19.8884Z" fill="#CEF43A"/>
<path fill-rule="evenodd" clip-rule="evenodd" d="M22.3242 17.623C21.0275 20.2766 20.2379 24.4337 20.9795 30.7272C21.1734 32.3727 19.9966 33.8638 18.3512 34.0577C16.7057 34.2515 15.2146 33.0748 15.0207 31.4293C13.4572 18.1602 17.8979 9.84434 24.7875 7.84113C28.1201 6.87212 31.6129 7.61471 34.247 9.77639C35.3138 10.6519 36.2109 11.7335 36.9021 12.9841C36.8662 12.9748 36.83 12.9654 36.7934 12.956C36.5884 12.9029 36.3716 12.8468 36.1426 12.7884C35.3176 12.5782 34.3731 12.3495 33.3791 12.1702C31.4161 11.8161 29.1389 11.6302 27.1195 12.2429C25.0208 12.8797 23.2909 14.3535 22.4711 17.0807C22.4183 17.2564 22.3693 17.4372 22.3242 17.623ZM37.8634 15.2385C38.2783 16.5585 38.5001 18.0051 38.5001 19.549C38.5001 21.2058 37.157 22.549 35.5001 22.549C33.8433 22.549 32.5001 21.2059 32.5001 19.549C32.5001 16.974 31.5402 15.3168 30.4407 14.4145C30.1533 14.1786 29.8441 13.9831 29.5192 13.8298C30.6374 13.7664 31.843 13.891 33.0429 14.1074C33.963 14.2734 34.8505 14.4875 35.6603 14.6939C35.8629 14.7455 36.0635 14.7975 36.2598 14.8482L36.2599 14.8483C36.8287 14.9955 37.3609 15.1333 37.7991 15.2268C37.8205 15.2314 37.842 15.2353 37.8634 15.2385Z" fill="#FF4E36"/>
<path d="M18 37L11.0718 26.5H24.9282L18 37Z" fill="#FF4E36"/>
<path d="M35.5 25L29.8708 19H41.1292L35.5 25Z" fill="#FF4E36"/>
</svg>
