<svg width="50" height="50" viewBox="0 0 50 50" fill="none" xmlns="http://www.w3.org/2000/svg">
<path fill-rule="evenodd" clip-rule="evenodd" d="M25.3738 18.235H11.0785C10.1808 18.235 9.39302 18.8332 9.15196 19.6979L3.6561 39.4131C3.48818 40.0154 3.61166 40.6616 3.98983 41.1596C4.368 41.6576 4.95732 41.9501 5.58264 41.9501H39.0357C40.1403 41.9501 41.0357 41.0547 41.0357 39.9501V23.4111L37.5676 27.3021C36.9482 27.9972 36.1079 28.452 35.1939 28.5935L25.152 37.9501H20.0121L29.2878 29.0769L26.4413 29.3047C25.5698 29.3744 24.8054 28.8799 24.4668 28.1532L14.2255 37.9501H8.93041L24.6017 22.9589C24.6862 22.8781 24.762 22.7917 24.8292 22.7008L25.3738 18.235ZM12.5972 22.235L10.061 31.3331L19.5719 22.235H12.5972ZM37.0357 37.9501H31.0197L37.0357 32.3446V37.9501Z" fill="#CEF43A"/>
<g clip-path="url(#clip0_42_950)">
<path d="M40.3716 8.9518L44.9333 13.5134M40.3716 8.9518L42.8691 6.45439C43.2084 6.11508 43.7585 6.11508 44.0978 6.45439L47.4307 9.78723C47.77 10.1265 47.77 10.6767 47.4307 11.016L44.9333 13.5134M40.3716 8.9518L29.7037 19.6198M44.9333 13.5134L34.2653 24.1814M29.7037 19.6198C29.5594 19.764 29.4705 19.9544 29.4526 20.1577M29.7037 19.6198V19.6198C29.5594 19.764 29.4705 19.9544 29.4526 20.1577V20.1577M29.4526 20.1577L29.0384 24.8467L33.7274 24.4325M33.7274 24.4325C33.9306 24.4145 34.121 24.3256 34.2653 24.1814M33.7274 24.4325V24.4325C33.9306 24.4145 34.121 24.3256 34.2653 24.1814V24.1814" stroke="#D9D9D9" stroke-width="3" stroke-linecap="round" stroke-linejoin="round"/>
<path d="M30.22 19.64C32.6733 19.64 33.9 20.79 33.9 23.78" stroke="#D9D9D9" stroke-width="4" stroke-linecap="round"/>
</g>
<defs>
<clipPath id="clip0_42_950">
<rect width="23" height="23" fill="white" transform="translate(27 4)"/>
</clipPath>
</defs>
</svg>
