<svg width="50" height="50" viewBox="0 0 50 50" fill="none" xmlns="http://www.w3.org/2000/svg">
<path fill-rule="evenodd" clip-rule="evenodd" d="M25.3739 18.235H11.0786C10.1809 18.235 9.39315 18.8332 9.15208 19.698L3.65622 39.4131C3.4883 40.0154 3.61178 40.6617 3.98995 41.1597C4.36812 41.6577 4.95745 41.9501 5.58276 41.9501H39.0359C40.1404 41.9501 41.0359 41.0547 41.0359 39.9501V23.4111L37.5678 27.3022C36.9483 27.9972 36.108 28.452 35.194 28.5936L25.1521 37.9501H20.0122L29.2879 29.077L26.4414 29.3047C25.5699 29.3744 24.8056 28.8799 24.467 28.1532L14.2256 37.9501H8.93054L24.6018 22.9589C24.6863 22.8781 24.7621 22.7917 24.8293 22.7008L25.3739 18.235ZM12.5974 22.235L10.0611 31.3331L19.572 22.235H12.5974ZM37.0359 37.9501H31.0198L37.0359 32.3446V37.9501Z" fill="#CEF43A"/>
<g clip-path="url(#clip0_42_950)">
<path d="M40.3715 8.9518L44.9331 13.5134M40.3715 8.9518L42.8689 6.45439C43.2082 6.11508 43.7584 6.11508 44.0977 6.45439L47.4305 9.78723C47.7699 10.1265 47.7699 10.6767 47.4305 11.016L44.9331 13.5134M40.3715 8.9518L29.7036 19.6198M44.9331 13.5134L34.2652 24.1814M29.7036 19.6198C29.5593 19.764 29.4704 19.9544 29.4525 20.1577M29.7036 19.6198V19.6198C29.5593 19.764 29.4704 19.9544 29.4525 20.1577V20.1577M29.4525 20.1577L29.0382 24.8467L33.7272 24.4325M33.7272 24.4325C33.9305 24.4145 34.1209 24.3256 34.2652 24.1814M33.7272 24.4325V24.4325C33.9305 24.4145 34.1209 24.3256 34.2652 24.1814V24.1814" stroke="#D9D9D9" stroke-width="3" stroke-linecap="round" stroke-linejoin="round"/>
<path d="M30.22 19.64C32.6733 19.64 33.9 20.79 33.9 23.78" stroke="#D9D9D9" stroke-width="4" stroke-linecap="round"/>
</g>
<defs>
<clipPath id="clip0_42_950">
<rect width="23" height="23" fill="white" transform="translate(27 4)"/>
</clipPath>
</defs>
</svg>
