<svg width="50" height="50" viewBox="0 0 50 50" fill="none" xmlns="http://www.w3.org/2000/svg">
<path fill-rule="evenodd" clip-rule="evenodd" d="M36.9713 16.0003H44.2147C45.3192 16.0003 46.2147 16.8957 46.2147 18.0003V28.5661C46.2147 29.6707 45.3192 30.5661 44.2147 30.5661H32.0001V26.5661H33.6502L33.9424 24.5941H31.651C31.147 23.6458 30.1489 23 29.0001 23H25.3496L26.9351 17.4508C27.1804 16.5922 27.9652 16.0003 28.8581 16.0003H36.9059C36.9276 15.9999 36.9494 15.9999 36.9713 16.0003ZM38.5786 20.5941L38.6666 20.0003H42.2147V20.5941H38.5786ZM34.5349 20.5941H30.1971L30.3667 20.0003H34.6229L34.5349 20.5941ZM37.6939 26.5661L37.986 24.5941H42.2147V26.5661H37.6939Z" fill="#CEF43A"/>
<path fill-rule="evenodd" clip-rule="evenodd" d="M27.4286 25.0834H18.9757C18.9544 25.083 18.9332 25.083 18.9121 25.0834H9.52042C8.61962 25.0834 7.82997 25.6856 7.59167 26.5543L4.07127 39.3878C3.90623 39.9894 4.03139 40.6336 4.40971 41.1297C4.78802 41.6257 5.37615 41.9169 6.00002 41.9169H27.4286C28.5331 41.9169 29.4286 41.0214 29.4286 39.9169V27.0834C29.4286 25.9788 28.5331 25.0834 27.4286 25.0834ZM20.682 29.0834L20.4573 30.6632H25.4286V29.0834H20.682ZM10.6123 30.6632H16.4171L16.6418 29.0834H11.0457L10.6123 30.6632ZM15.3853 37.9169L15.8481 34.6632H9.51506L8.62253 37.9169H15.3853ZM19.8884 34.6632L19.4256 37.9169H25.4286V34.6632H19.8884Z" fill="#CEF43A"/>
<path fill-rule="evenodd" clip-rule="evenodd" d="M22.3241 17.6231C21.0274 20.2767 20.2378 24.4337 20.9794 30.7273C21.1733 32.3727 19.9965 33.8638 18.3511 34.0577C16.7056 34.2516 15.2145 33.0749 15.0206 31.4294C13.4571 18.1603 17.8978 9.8444 24.7874 7.84119C28.12 6.87218 31.6128 7.61477 34.2469 9.77645C35.3137 10.652 36.2108 11.7336 36.9019 12.9841C36.8661 12.9749 36.8299 12.9655 36.7933 12.956C36.5883 12.903 36.3715 12.8469 36.1425 12.7885C35.3175 12.5783 34.373 12.3496 33.379 12.1703C31.416 11.8162 29.1388 11.6303 27.1193 12.243C25.0207 12.8797 23.2908 14.3536 22.471 17.0808C22.4182 17.2565 22.3692 17.4372 22.3241 17.6231ZM37.8632 15.2386C38.2782 16.5585 38.5 18.0051 38.5 19.549C38.5 21.2059 37.1569 22.549 35.5 22.549C33.8432 22.5491 32.5 21.2059 32.5 19.5491C32.5 16.974 31.54 15.3169 30.4405 14.4146C30.1532 14.1787 29.844 13.9832 29.5191 13.8298C30.6373 13.7665 31.8429 13.891 33.0427 14.1075C33.9628 14.2734 34.8504 14.4876 35.6602 14.694C35.8628 14.7456 36.0634 14.7975 36.2597 14.8483L36.2597 14.8483C36.8286 14.9956 37.3608 15.1333 37.799 15.2269C37.8204 15.2315 37.8419 15.2354 37.8632 15.2386Z" fill="#FF4E36"/>
<path d="M18 37L11.0718 26.5H24.9282L18 37Z" fill="#FF4E36"/>
<path d="M35.5 25L29.8708 19H41.1292L35.5 25Z" fill="#FF4E36"/>
</svg>
