<svg width="50" height="50" viewBox="0 0 50 50" fill="none" xmlns="http://www.w3.org/2000/svg">
<path fill-rule="evenodd" clip-rule="evenodd" d="M25.3739 18.235H11.0786C10.1809 18.235 9.39315 18.8332 9.15208 19.698L3.65622 39.4131C3.4883 40.0154 3.61178 40.6617 3.98995 41.1597C4.36812 41.6577 4.95745 41.9501 5.58276 41.9501H39.0359C40.1404 41.9501 41.0359 41.0547 41.0359 39.9501V23.4111L37.5678 27.3022C36.9483 27.9972 36.108 28.452 35.194 28.5936L25.1521 37.9501H20.0122L29.2879 29.077L26.4414 29.3047C25.5699 29.3744 24.8056 28.8799 24.467 28.1532L14.2256 37.9501H8.93054L24.6018 22.9589C24.6863 22.8781 24.7621 22.7917 24.8293 22.7008L25.3739 18.235ZM12.5974 22.235L10.0611 31.3331L19.572 22.235H12.5974ZM37.0359 37.9501H31.0198L37.0359 32.3446V37.9501Z" fill="#CEF43A"/>
<g clip-path="url(#clip0_42_950)">
<path d="M40.5465 8.39359L45.3765 13.2236M40.5465 8.39359L43.1908 5.74923M40.5465 8.39359L29.2508 19.6893M45.3765 13.2236L34.0808 24.5193M45.3765 13.2236L48.0208 10.5792M48.0208 9.27817L44.4919 5.74923M48.0208 9.27817C48.3801 9.63746 48.3801 10.22 48.0208 10.5792M48.0208 9.27817V9.27817C48.3801 9.63746 48.3801 10.22 48.0208 10.5792V10.5792M44.4919 5.74923C44.1326 5.38995 43.5501 5.38995 43.1908 5.74923M44.4919 5.74923V5.74923C44.1326 5.38995 43.5501 5.38995 43.1908 5.74923V5.74923M29.2508 19.6893C29.098 19.842 29.0039 20.0437 28.9849 20.2588M29.2508 19.6893V19.6893C29.098 19.842 29.0039 20.0437 28.9849 20.2588V20.2588M28.9849 20.2588L28.5463 25.2238L33.5112 24.7852M33.5112 24.7852C33.7264 24.7662 33.9281 24.672 34.0808 24.5193M33.5112 24.7852V24.7852C33.7264 24.7662 33.9281 24.672 34.0808 24.5193V24.5193" stroke="#D9D9D9" stroke-width="3" stroke-linecap="round" stroke-linejoin="round"/>
<path d="M29.76 19.87C32.52 19.87 33.9 21.02 33.9 24.01" stroke="#D9D9D9" stroke-width="4" stroke-linecap="round"/>
</g>
<defs>
<clipPath id="clip0_42_950">
<rect width="23" height="23" fill="white" transform="translate(27 4)"/>
</clipPath>
</defs>
</svg>
