<svg width="50" height="50" viewBox="0 0 50 50" fill="none" xmlns="http://www.w3.org/2000/svg">
<g clip-path="url(#clip0_42_366)">
<path fill-rule="evenodd" clip-rule="evenodd" d="M27.9367 21H25H8.57143C7.67847 21 6.8937 21.592 6.64838 22.4506L2.08964 38.4061C2.08073 38.4348 2.07244 38.4638 2.0648 38.4931L0.0769521 45.4506C-0.0954578 46.054 0.025376 46.7034 0.403303 47.2044C0.781229 47.7054 1.37242 48 2 48H25H48C48.6276 48 49.2188 47.7054 49.5967 47.2044C49.9746 46.7034 50.0955 46.054 49.923 45.4506L47.9352 38.4931C47.9312 38.4779 47.9271 38.4628 47.9228 38.4478C47.9188 38.4338 47.9146 38.4199 47.9103 38.4061L43.7386 23.8051C41.7902 26.3372 39.7599 28.5783 38.4127 30H41.3485L41.6343 31H37.4487C37.0688 31.3867 36.85 31.6 36.85 31.6C36.85 31.6 34.1339 28.9523 31.2316 25.4046L31.345 26H27V25H30.903C29.8897 23.7431 28.8654 22.3852 27.9367 21ZM45.3485 44H38.8455L38.2741 41H44.4914L45.3485 44ZM34.2021 41L34.7736 44H27V41H34.2021ZM43.3485 37H37.5121L37.1312 35H42.7771L43.3485 37ZM33.4402 37L33.0593 35H27V37H33.4402ZM32.2974 31L32.1069 30H27V31H32.2974ZM23 44V41H16.5917L16.1632 44H23ZM12.1226 44H4.65146L5.5086 41H12.5511L12.1226 44ZM17.1632 37H23V35H17.4489L17.1632 37ZM13.4083 35L13.1226 37H6.65146L7.22289 35H13.4083ZM18.0203 31H23V30H18.1632L18.0203 31ZM14.1226 30L13.9797 31H8.36575L8.65146 30H14.1226ZM18.7346 26H23V25H18.8774L18.7346 26ZM14.8368 25L14.694 26H9.79432L10.08 25H14.8368Z" fill="#CEF43A"/>
<path fill-rule="evenodd" clip-rule="evenodd" d="M36.7501 26C36.7501 26 45.6946 17.281 45.6946 12.2C45.6946 7.11898 41.69 3 36.7501 3C31.8102 3 27.8057 7.11898 27.8057 12.2C27.8057 17.281 36.7501 26 36.7501 26ZM41.0946 11.4333C41.0946 13.8327 39.1495 15.7778 36.7501 15.7778C34.3507 15.7778 32.4057 13.8327 32.4057 11.4333C32.4057 9.03396 34.3507 7.08889 36.7501 7.08889C39.1495 7.08889 41.0946 9.03396 41.0946 11.4333Z" fill="#FF4E36"/>
</g>
<defs>
<clipPath id="clip0_42_366">
<rect width="50" height="50" fill="white"/>
</clipPath>
</defs>
</svg>
