<svg width="50" height="56" viewBox="0 0 50 56" fill="none" xmlns="http://www.w3.org/2000/svg">
<g filter="url(#filter0_d_39_1312)">
<path d="M43.75 14.7697L43.75 34.8969C43.75 35.1148 43.6319 35.3156 43.4414 35.4214L34.375 40.4583L25.2914 45.5048C25.1102 45.6054 24.8898 45.6054 24.7086 45.5048L6.55861 35.4214C6.36813 35.3156 6.25 35.1148 6.25 34.8969L6.24996 14.7697C6.24996 14.5518 6.3681 14.351 6.55857 14.2452L24.7086 4.16187C24.8898 4.0612 25.1102 4.0612 25.2914 4.16187L43.4413 14.2452C43.6318 14.351 43.75 14.5518 43.75 14.7697Z" stroke="#3CE3A7" stroke-width="4" stroke-linecap="round" stroke-linejoin="round"/>
<path d="M7.35089 15.0282L24.7086 24.6714C24.8898 24.7721 25.1102 24.7721 25.2914 24.6714L42.7083 14.9953" stroke="#3CE3A7" stroke-width="4" stroke-linecap="round" stroke-linejoin="round"/>
<path d="M25 45L25 25" stroke="#3CE3A7" stroke-width="4" stroke-linecap="round" stroke-linejoin="round"/>
<path d="M24.5 34.5L5.5 24.5" stroke="#3CE3A7" stroke-width="2" stroke-linecap="round" stroke-linejoin="round"/>
<path d="M44 25L25 35" stroke="#3CE3A7" stroke-width="2" stroke-linecap="round" stroke-linejoin="round"/>
<path d="M35 20L17 9" stroke="#3CE3A7" stroke-width="2" stroke-linecap="round" stroke-linejoin="round"/>
<path d="M15 20L34 9" stroke="#3CE3A7" stroke-width="2" stroke-linecap="round" stroke-linejoin="round"/>
<path d="M35 20L35 38" stroke="#3CE3A7" stroke-width="2" stroke-linecap="round" stroke-linejoin="round"/>
<path d="M15 19L15 39" stroke="#3CE3A7" stroke-width="2" stroke-linecap="round" stroke-linejoin="round"/>
</g>
<defs>
<filter id="filter0_d_39_1312" x="-4" y="0" width="58" height="58" filterUnits="userSpaceOnUse" color-interpolation-filters="sRGB">
<feFlood flood-opacity="0" result="BackgroundImageFix"/>
<feColorMatrix in="SourceAlpha" type="matrix" values="0 0 0 0 0 0 0 0 0 0 0 0 0 0 0 0 0 0 127 0" result="hardAlpha"/>
<feOffset dy="4"/>
<feGaussianBlur stdDeviation="2"/>
<feComposite in2="hardAlpha" operator="out"/>
<feColorMatrix type="matrix" values="0 0 0 0 0 0 0 0 0 0 0 0 0 0 0 0 0 0 0.25 0"/>
<feBlend mode="normal" in2="BackgroundImageFix" result="effect1_dropShadow_39_1312"/>
<feBlend mode="normal" in="SourceGraphic" in2="effect1_dropShadow_39_1312" result="shape"/>
</filter>
</defs>
</svg>
