<svg width="50" height="50" viewBox="0 0 50 50" fill="none" xmlns="http://www.w3.org/2000/svg">
<path fill-rule="evenodd" clip-rule="evenodd" d="M5.58737 37.3365L23.7374 47.4198C24.5226 47.8561 25.4774 47.8561 26.2627 47.4198L44.4127 37.3365C45.2381 36.8779 45.75 36.0079 45.75 35.0637L45.75 14.9364C45.75 13.9922 45.2381 13.1222 44.4127 12.6636L26.2627 2.58028C25.4775 2.14402 24.5226 2.14402 23.7374 2.58027L5.58733 12.6636C4.76191 13.1222 4.25 13.9922 4.25 14.9364L4.25004 35.0637C4.25004 36.0079 4.76196 36.8779 5.58737 37.3365ZM41.5025 31.8802L41.75 32.0176L41.75 17.9824L27 26.1769V42.4343L39.6318 35.4167L39.56 35.3768C38.5944 34.8404 38.2465 33.6227 38.7829 32.6572C39.3194 31.6916 40.537 31.3437 41.5025 31.8802ZM23 42.4343L10.3683 35.4167L10.4401 35.3768C11.4057 34.8404 11.7536 33.6228 11.2171 32.6572C10.6807 31.6916 9.46311 31.3437 8.49754 31.8802L8.25003 32.0177L8.25 17.9824L23 26.1768V42.4343ZM39.6318 14.5834L25.0001 22.7121L10.3683 14.5834L23 7.56574V8.37503C23 9.4796 23.8955 10.375 25 10.375C26.1046 10.375 27 9.4796 27 8.37503V7.56574L39.6318 14.5834ZM25 19.875C23.8955 19.875 23 18.9796 23 17.875V13.125C23 12.0205 23.8955 11.125 25 11.125C26.1046 11.125 27 12.0205 27 13.125V17.875C27 18.9796 26.1046 19.875 25 19.875ZM12.0748 32.1807C11.5383 31.2152 11.8862 29.9976 12.8518 29.4611L17.206 27.0421C18.1716 26.5057 19.3892 26.8536 19.9256 27.8191C20.4621 28.7847 20.1142 30.0023 19.1486 30.5387L14.7944 32.9578C13.8288 33.4942 12.6112 33.1463 12.0748 32.1807ZM37.9253 32.1807C37.3889 33.1463 36.1713 33.4942 35.2057 32.9578L30.8515 30.5387C29.8859 30.0023 29.5381 28.7847 30.0745 27.8191C30.6109 26.8536 31.8285 26.5057 32.7941 27.0421L37.1483 29.4611C38.1139 29.9976 38.4618 31.2152 37.9253 32.1807Z" fill="#3CE3A7"/>
</svg>
