<svg width="50" height="56" viewBox="0 0 50 56" fill="none" xmlns="http://www.w3.org/2000/svg">
<g clip-path="url(#clip0_107_363)" filter="url(#filter0_d_107_363)">
<path fill-rule="evenodd" clip-rule="evenodd" d="M37.7582 -0.857142H13.2418C14.3293 -6.0778 18.9566 -10 24.5 -10H26.5C32.0434 -10 36.6707 -6.0778 37.7582 -0.857142ZM29.1 6H38V18.5C38 24.8513 32.8513 30 26.5 30H24.5C18.1487 30 13 24.8513 13 18.5V6H23.1221L19.4 10.8951L26.6 13.4126L17 26L32.2 12.9091L25.8 9.38461L29.1 6Z" fill="#3CE3A7"/>
<path d="M26 22V46" stroke="#3CE3A7" stroke-width="5"/>
<rect x="14" y="44" width="24" height="4" rx="2" fill="#3CE3A7"/>
</g>
<defs>
<filter id="filter0_d_107_363" x="-4" y="0" width="58" height="58" filterUnits="userSpaceOnUse" color-interpolation-filters="sRGB">
<feFlood flood-opacity="0" result="BackgroundImageFix"/>
<feColorMatrix in="SourceAlpha" type="matrix" values="0 0 0 0 0 0 0 0 0 0 0 0 0 0 0 0 0 0 127 0" result="hardAlpha"/>
<feOffset dy="4"/>
<feGaussianBlur stdDeviation="2"/>
<feComposite in2="hardAlpha" operator="out"/>
<feColorMatrix type="matrix" values="0 0 0 0 0 0 0 0 0 0 0 0 0 0 0 0 0 0 0.25 0"/>
<feBlend mode="normal" in2="BackgroundImageFix" result="effect1_dropShadow_107_363"/>
<feBlend mode="normal" in="SourceGraphic" in2="effect1_dropShadow_107_363" result="shape"/>
</filter>
<clipPath id="clip0_107_363">
<rect width="50" height="50" fill="white"/>
</clipPath>
</defs>
</svg>
