<svg width="50" height="50" viewBox="0 0 50 50" fill="none" xmlns="http://www.w3.org/2000/svg">
<path d="M15.8942 9.05877L16.8655 10.8071L15.8942 9.05877ZM15.3558 9.35787L14.3845 7.60956L14.3845 7.60956L15.3558 9.35787ZM15.3558 40.3088L14.3845 42.0571L14.3845 42.0571L15.3558 40.3088ZM15.8942 40.6079L16.8655 38.8596L16.8655 38.8596L15.8942 40.6079ZM34.1058 40.6079L35.0771 42.3562H35.0771L34.1058 40.6079ZM34.375 40.4583L35.3463 42.2066L35.3463 42.2066L34.375 40.4583ZM34.6442 40.3088L33.6729 38.5605L33.6729 38.5605L34.6442 40.3088ZM27.7761 8.93066C28.8654 9.1136 29.8968 8.37883 30.0797 7.28952C30.2627 6.2002 29.5279 5.16884 28.4386 4.9859L27.7761 8.93066ZM6.25 24.8334L4.25 24.8334L6.25 24.8334ZM45.75 24.8333C45.75 23.7288 44.8546 22.8333 43.75 22.8333C42.6454 22.8333 41.75 23.7288 41.75 24.8333L45.75 24.8333ZM14.9229 7.31045L14.3845 7.60956L16.3271 11.1062L16.8655 10.8071L14.9229 7.31045ZM14.3845 42.0571L14.9229 42.3562L16.8655 38.8596L16.3271 38.5604L14.3845 42.0571ZM35.0771 42.3562L35.3463 42.2066L33.4037 38.71L33.1345 38.8596L35.0771 42.3562ZM35.3463 42.2066L35.6155 42.0571L33.6729 38.5605L33.4037 38.71L35.3463 42.2066ZM14.9229 42.3562C21.1899 45.8378 28.8101 45.8378 35.0771 42.3562L33.1346 38.8596C28.0757 41.67 21.9244 41.67 16.8655 38.8596L14.9229 42.3562ZM16.8655 10.8071C20.2328 8.93634 24.0843 8.31065 27.7761 8.93066L28.4386 4.9859C23.8665 4.21806 19.0949 4.9927 14.9229 7.31045L16.8655 10.8071ZM4.25 24.8334C4.25001 31.9889 8.12942 38.582 14.3845 42.0571L16.3271 38.5604C11.3419 35.7909 8.25001 30.5362 8.25 24.8333L4.25 24.8334ZM8.25 24.8333C8.24999 19.1304 11.3418 13.8758 16.3271 11.1062L14.3845 7.60956C8.12941 11.0846 4.24999 17.6778 4.25 24.8334L8.25 24.8333ZM35.6155 42.0571C41.8706 38.582 45.75 31.9889 45.75 24.8333L41.75 24.8333C41.75 30.5362 38.6582 35.7909 33.6729 38.5605L35.6155 42.0571Z" fill="#FBFBFB"/>
<circle cx="25.5" cy="24.5" r="7.5" fill="#FBFBFB"/>
<g clip-path="url(#clip0_14_3246)">
<path d="M40.76 11.24C42.52 13 49.12 12.78 49.12 13C49.12 13.22 42.52 13 40.76 14.76C39 16.52 39.1229 23.12 39 23.12C38.8771 23.12 39 16.52 37.24 14.76C35.48 13 28.88 13.046 28.88 13C28.88 12.954 35.48 13 37.24 11.24C39 9.48 38.8994 2.88 39 2.88C39.1006 2.88 39 9.48 40.76 11.24Z" fill="#9C1C9C" stroke="#9C1C9C" stroke-width="1.76" stroke-linecap="round"/>
</g>
<defs>
<clipPath id="clip0_14_3246">
<rect width="22" height="22" fill="white" transform="translate(28 2)"/>
</clipPath>
</defs>
</svg>
