<svg width="50" height="50" viewBox="0 0 50 50" fill="none" xmlns="http://www.w3.org/2000/svg">
<path d="M33.5 17C36 19.1114 44 18.4223 44 18.7059C44 18.9895 36.2892 18.3449 33.5 20.5C31.6545 21.9258 31.4385 25.6235 31.462 27.9626C31.4706 28.2262 31.475 28.4728 31.477 28.6971C31.5009 29.489 31.5379 30 31.5 30C31.4635 30 31.4844 29.4874 31.477 28.6971C31.4703 28.473 31.4646 28.2265 31.462 27.9626C31.3813 25.4961 30.9293 21.5423 28.5 20.5C24.8961 18.9538 19.1868 18.76 19.1868 18.7059C19.1868 18.6518 24.6535 18.5798 28.5 17C30.9978 15.9741 31.467 11.8526 31.5212 9.08873C31.5076 8.45712 31.5093 7.89739 31.5126 7.46142C31.4966 6.86541 31.4761 6.5 31.5 6.5C31.5245 6.5 31.5171 6.86481 31.5126 7.46142C31.5243 7.89786 31.5335 8.45794 31.5212 9.08873C31.5779 11.7376 31.9023 15.6507 33.5 17Z" fill="#FBFBFB" stroke="#FBFBFB" stroke-width="2" stroke-linecap="round"/>
<path d="M10.9091 22.2381C12.033 23.3257 15 22.6935 15 22.8235C15 22.9535 12.2857 22.8235 11 23.7941C9.71429 24.7647 10.0575 28 10 28C9.9425 28 10.1558 24.1793 8.71429 23.4706C7.27273 22.7619 5 22.8483 5 22.8235C5 22.7987 7.15013 22.9006 8.6887 22.1765C10.2273 21.4524 9.95292 17 10 17C10.0471 17 9.78519 21.1505 10.9091 22.2381Z" fill="#FBFBFB" stroke="#FBFBFB" stroke-width="2" stroke-linecap="round"/>
<path d="M21.2 35C22.9 36.4956 28 35.7991 28 36C28 36.2009 23.3857 36 21.2 37.5C19.0143 39 19.5978 44 19.5 44C19.4022 44 19.7649 38.0952 17.3143 37C16.0433 36.432 14.3924 36.1945 13.0974 36.0921C12.2143 36.0992 11.4829 36.035 11.1673 36.009C11.0591 36.0068 11 36.0047 11 36C11 35.9956 11.0593 36.0001 11.1673 36.009C11.4803 36.0151 12.2042 36.0215 13.0974 36.0921C14.545 36.0804 16.4004 35.8771 17.5 35C19.5 33.4048 19.42 27 19.5 27C19.58 27 19.5 33.5044 21.2 35Z" fill="#FBFBFB" stroke="#FBFBFB" stroke-width="2" stroke-linecap="round"/>
</svg>
