<svg width="50" height="50" viewBox="0 0 50 50" fill="none" xmlns="http://www.w3.org/2000/svg">
<path d="M2 36.4V13.6C2 13.2686 2.26863 13 2.6 13H32.0667C32.398 13 32.6667 13.2686 32.6667 13.6V25L47.0302 13.759C47.4241 13.4507 48 13.7313 48 14.2315V35.7685C48 36.2687 47.4241 36.5493 47.0302 36.241L32.6667 25V36.4C32.6667 36.7314 32.398 37 32.0667 37H2.6C2.26863 37 2 36.7314 2 36.4Z" fill="#FBFBFB"/>
<path d="M32.6667 25V36.4C32.6667 36.7314 32.398 37 32.0667 37H2.6C2.26863 37 2 36.7314 2 36.4V13.6C2 13.2686 2.26863 13 2.6 13H32.0667C32.398 13 32.6667 13.2686 32.6667 13.6V25ZM32.6667 25L47.0302 13.759C47.4241 13.4507 48 13.7313 48 14.2315V35.7685C48 36.2687 47.4241 36.5493 47.0302 36.241L32.6667 25Z" stroke="#FBFBFB" stroke-width="4" stroke-linecap="round" stroke-linejoin="round"/>
</svg>
