<svg width="50" height="56" viewBox="0 0 50 56" fill="none" xmlns="http://www.w3.org/2000/svg">
<g filter="url(#filter0_d_16_315)">
<path fill-rule="evenodd" clip-rule="evenodd" d="M28.3663 20.2594C31.1026 18.9884 33 16.2158 33 13C33 8.58172 29.4183 5 25 5C20.5817 5 17 8.58172 17 13C17 16.2158 18.8974 18.9884 21.6337 20.2594C22.8594 26.4787 18.6848 31.826 15 35.1983V39H35V35.1983C31.3152 31.826 27.1406 26.4787 28.3663 20.2594Z" fill="#FBFBFB"/>
<path d="M8 40C8 37.2386 10.2386 35 13 35H38C40.2091 35 42 36.7909 42 39V42H8V40Z" fill="#FBFBFB"/>
<path fill-rule="evenodd" clip-rule="evenodd" d="M11 44C9.89543 44 9 44.8954 9 46V48H41V46C41 44.8954 40.1046 44 39 44H11Z" fill="#FBFBFB"/>
</g>
<defs>
<filter id="filter0_d_16_315" x="-4" y="0" width="58" height="58" filterUnits="userSpaceOnUse" color-interpolation-filters="sRGB">
<feFlood flood-opacity="0" result="BackgroundImageFix"/>
<feColorMatrix in="SourceAlpha" type="matrix" values="0 0 0 0 0 0 0 0 0 0 0 0 0 0 0 0 0 0 127 0" result="hardAlpha"/>
<feOffset dy="4"/>
<feGaussianBlur stdDeviation="2"/>
<feComposite in2="hardAlpha" operator="out"/>
<feColorMatrix type="matrix" values="0 0 0 0 0 0 0 0 0 0 0 0 0 0 0 0 0 0 0.25 0"/>
<feBlend mode="normal" in2="BackgroundImageFix" result="effect1_dropShadow_16_315"/>
<feBlend mode="normal" in="SourceGraphic" in2="effect1_dropShadow_16_315" result="shape"/>
</filter>
</defs>
</svg>
