<svg width="50" height="50" viewBox="0 0 50 50" fill="none" xmlns="http://www.w3.org/2000/svg">
<path d="M33.7727 17.4286C36.5825 19.8016 44 18.4223 44 18.7059C44 18.9895 37.2143 18.7059 34 20.8235C30.7857 22.9412 31.6438 30 31.5 30C31.3562 30 31.8896 21.6639 28.2857 20.1176C24.6818 18.5714 19 18.76 19 18.7059C19 18.6518 24.3753 18.874 28.2217 17.2941C32.0682 15.7143 31.3823 6 31.5 6C31.6177 6 30.963 15.0556 33.7727 17.4286Z" fill="#FBFBFB" stroke="#FBFBFB" stroke-width="2" stroke-linecap="round"/>
<path d="M10.9091 22.2381C12.033 23.3257 15 22.6935 15 22.8235C15 22.9535 12.2857 22.8235 11 23.7941C9.71429 24.7647 10.0575 28 10 28C9.9425 28 10.1558 24.1793 8.71429 23.4706C7.27273 22.7619 5 22.8483 5 22.8235C5 22.7987 7.15013 22.9006 8.6887 22.1765C10.2273 21.4524 9.95292 17 10 17C10.0471 17 9.78519 21.1505 10.9091 22.2381Z" fill="#FBFBFB" stroke="#FBFBFB" stroke-width="2" stroke-linecap="round"/>
<path d="M21.0455 35.0952C22.9561 36.7761 28 35.7991 28 36C28 36.2009 23.3857 36 21.2 37.5C19.0143 39 19.5978 44 19.5 44C19.4022 44 19.7649 38.0952 17.3143 37C14.8636 35.9048 11 36.0383 11 36C11 35.9617 14.6552 36.119 17.2708 35C19.8864 33.881 19.42 27 19.5 27C19.58 27 19.1348 33.4144 21.0455 35.0952Z" fill="#FBFBFB" stroke="#FBFBFB" stroke-width="2" stroke-linecap="round"/>
</svg>
