<svg width="50" height="50" viewBox="0 0 50 50" fill="none" xmlns="http://www.w3.org/2000/svg">
<g clip-path="url(#clip0_16_458)">
<path fill-rule="evenodd" clip-rule="evenodd" d="M37.9947 42H12C5.37258 42 -9.53674e-07 36.6274 -1.43051e-06 30C-1.43051e-06 23.3726 5.37258 18 12 18C12.7451 18 13.4743 18.0679 14.1817 18.1979C15.2847 11.2838 21.2753 6 28.5 6C36.0207 6 42.2041 11.7257 42.929 19.0558C47.0981 20.9364 50 25.1293 50 30C50 35.946 45.6754 40.8819 40 41.8341V42H38.0053C38.0035 42 38.0018 42 38 42C37.9982 42 37.9965 42 37.9947 42Z" fill="#FBFBFB"/>
</g>
<defs>
<clipPath id="clip0_16_458">
<rect width="50" height="50" fill="white"/>
</clipPath>
</defs>
</svg>
