<svg width="50" height="50" viewBox="0 0 50 50" fill="none" xmlns="http://www.w3.org/2000/svg">
<g clip-path="url(#clip0_18_130)">
<path fill-rule="evenodd" clip-rule="evenodd" d="M32.3603 33.5978L16.9411 33.5978C13.0107 33.5978 9.82456 30.4116 9.82456 26.4813C9.82456 22.5509 13.0107 19.3647 16.9411 19.3647C17.383 19.3647 17.8154 19.405 18.235 19.4821C18.8891 15.3817 22.4418 12.2482 26.7263 12.2482C31.1865 12.2482 34.8535 15.6438 35.2834 19.9908C37.7559 21.1061 39.4768 23.5927 39.4768 26.4813C39.4768 30.0075 36.9122 32.9347 33.5464 33.4994L33.5464 33.5978L32.3603 33.5978Z" fill="#FBFBFB"/>
<path d="M43.75 14.7697L43.75 34.897C43.75 35.1149 43.6319 35.3157 43.4414 35.4215L34.375 40.4584L25.2914 45.5048C25.1102 45.6055 24.8898 45.6055 24.7086 45.5048L6.55861 35.4215C6.36813 35.3157 6.25 35.1149 6.25 34.897L6.24996 14.7697C6.24996 14.5518 6.3681 14.3511 6.55857 14.2452L24.7086 4.1619C24.8898 4.06123 25.1102 4.06123 25.2914 4.1619L43.4413 14.2452C43.6318 14.3511 43.75 14.5518 43.75 14.7697Z" stroke="#FBFBFB" stroke-width="4" stroke-linecap="round" stroke-linejoin="round"/>
</g>
<defs>
<clipPath id="clip0_18_130">
<rect width="50" height="50" fill="white"/>
</clipPath>
</defs>
</svg>
