<svg width="50" height="50" viewBox="0 0 50 50" fill="none" xmlns="http://www.w3.org/2000/svg">
<path fill-rule="evenodd" clip-rule="evenodd" d="M4 38V12H46V38H34.6177L36.2647 42H47C48.6569 42 50 40.6569 50 39V11C50 9.34315 48.6569 8 47 8H3C1.34315 8 0 9.34315 0 11V39C0 40.6569 1.34315 42 3 42H14V38H4Z" fill="#00A1FC"/>
<g clip-path="url(#clip0_39_1748)">
<path d="M35.8868 34.9281H29.2566L32.746 43.162C32.9891 43.7328 32.7113 44.3729 32.1557 44.6151L29.0829 45.9124C28.5101 46.1546 27.8677 45.8778 27.6247 45.3243L24.3089 37.5055L18.8924 42.9025C18.1706 43.6216 17 43.0673 17 42.1241V16.1085C17 15.1155 18.2451 14.6314 18.8923 15.3301L36.6681 33.0426C37.3851 33.7194 36.856 34.9281 35.8868 34.9281Z" fill="#FBFBFB"/>
</g>
<defs>
<clipPath id="clip0_39_1748">
<rect width="20" height="31" fill="white" transform="translate(17 15)"/>
</clipPath>
</defs>
</svg>
