<svg width="50" height="50" viewBox="0 0 50 50" fill="none" xmlns="http://www.w3.org/2000/svg">
<path fill-rule="evenodd" clip-rule="evenodd" d="M0 39V35.5H2H4V38H6.66667V40V42H3C1.34315 42 0 40.6569 0 39ZM2 28.5H0V21.5H2H4V28.5H2ZM2 14.5H0V11C0 9.34315 1.34315 8 3 8H6.66667V10V12H4V14.5H2ZM14 10V8H21.3333V10V12H14V10ZM28.6667 10V8H36V10V12H28.6667V10ZM43.3333 10V8H47C48.6569 8 50 9.34315 50 11V14.5H48H46V12H43.3333V10ZM48 21.5H50V28.5H48H46V21.5H48ZM48 35.5H50V38.8386C49.888 38.6922 49.7708 38.5479 49.6484 38.4061L47.1393 35.5H48ZM33.5064 38H28.6667V40V42H33.6028L33.5064 38ZM21.3333 40V42H14V40V38H21.3333V40Z" fill="#00A1FC"/>
<g clip-path="url(#clip0_39_1500)">
<path d="M47.3321 41.2139H43.3539L45.4476 46.2605C45.5934 46.6104 45.4268 47.0027 45.0934 47.1511L43.2498 47.9462C42.9061 48.0947 42.5206 47.9251 42.3748 47.5858L40.3853 42.7936L37.1354 46.1015C36.7023 46.5422 36 46.2024 36 45.6244V29.6793C36 29.0707 36.747 28.774 37.1354 29.2022L47.8008 40.0583C48.231 40.4731 47.9136 41.2139 47.3321 41.2139Z" fill="#FBFBFB"/>
</g>
<defs>
<clipPath id="clip0_39_1500">
<rect width="12" height="19" fill="white" transform="translate(36 29)"/>
</clipPath>
</defs>
</svg>
