<svg width="50" height="50" viewBox="0 0 50 50" fill="none" xmlns="http://www.w3.org/2000/svg">
<path fill-rule="evenodd" clip-rule="evenodd" d="M12.9564 11.9563C12.4041 11.9563 11.9564 12.404 11.9564 12.9563V23.0375H14.355C15.4596 23.0375 16.355 23.933 16.355 25.0375C16.355 26.1421 15.4596 27.0375 14.355 27.0375H11.9564V37.1189C11.9564 37.6712 12.4041 38.1189 12.9564 38.1189H23.0375V36.3486C23.0375 35.244 23.933 34.3486 25.0375 34.3486C26.1421 34.3486 27.0375 35.244 27.0375 36.3486V38.1189H37.119C37.6713 38.1189 38.119 37.6712 38.119 37.1189V27.0375H35.7202C34.6156 27.0375 33.7202 26.1421 33.7202 25.0375C33.7202 23.933 34.6156 23.0375 35.7202 23.0375H38.119V12.9563C38.119 12.404 37.6713 11.9563 37.119 11.9563H27.0375V13.7266C27.0375 14.8312 26.1421 15.7266 25.0375 15.7266C23.933 15.7266 23.0375 14.8312 23.0375 13.7266V11.9563H12.9564ZM25.0375 7.9563H12.9564C10.195 7.9563 7.95642 10.1949 7.95642 12.9563V37.1189C7.95642 39.8803 10.195 42.1189 12.9564 42.1189H25.0336C25.0349 42.1189 25.0362 42.1189 25.0375 42.1189C25.0389 42.1189 25.0402 42.1189 25.0415 42.1189H37.119C39.8804 42.1189 42.119 39.8803 42.119 37.1189V12.9563C42.119 10.1949 39.8804 7.9563 37.119 7.9563H25.0375ZM19.4767 25.0375C19.4767 23.933 20.3722 23.0375 21.4767 23.0375H23.0375V21.2673C23.0375 20.1627 23.933 19.2673 25.0375 19.2673C26.1421 19.2673 27.0375 20.1627 27.0375 21.2673V23.0375H28.5985C29.703 23.0375 30.5985 23.933 30.5985 25.0375C30.5985 26.1421 29.703 27.0375 28.5985 27.0375H27.0375V28.8079C27.0375 29.9125 26.1421 30.8079 25.0375 30.8079C23.933 30.8079 23.0375 29.9125 23.0375 28.8079V27.0375H21.4767C20.3722 27.0375 19.4767 26.1421 19.4767 25.0375Z" fill="#00A1FC"/>
</svg>
