<svg width="50" height="50" viewBox="0 0 50 50" fill="none" xmlns="http://www.w3.org/2000/svg">
<path fill-rule="evenodd" clip-rule="evenodd" d="M12.0636 13.0636C12.0636 12.5113 12.5113 12.0636 13.0636 12.0636H23.0375V13.8071C23.0375 14.9117 23.933 15.8071 25.0375 15.8071C26.1421 15.8071 27.0375 14.9117 27.0375 13.8071V12.0636H37.0118C37.564 12.0636 38.0118 12.5113 38.0118 13.0636V37.0118C38.0118 37.564 37.564 38.0118 37.0118 38.0118H27.0375V36.2682C27.0375 35.1637 26.1421 34.2682 25.0375 34.2682C23.933 34.2682 23.0375 35.1637 23.0375 36.2682V38.0118H13.0636C12.5113 38.0118 12.0636 37.564 12.0636 37.0118V13.0636ZM25.0375 42.0118H13.0636C10.3022 42.0118 8.0636 39.7732 8.0636 37.0118V13.0636C8.0636 10.3022 10.3022 8.0636 13.0636 8.0636H25.0375H37.0118C39.7732 8.0636 42.0118 10.3022 42.0118 13.0636L42.0118 37.0118C42.0118 39.7732 39.7732 42.0118 37.0118 42.0118H25.0375ZM27.0375 21.2942C27.0375 20.1896 26.1421 19.2942 25.0375 19.2942C23.933 19.2942 23.0375 20.1896 23.0375 21.2942V28.7812C23.0375 29.8858 23.933 30.7812 25.0375 30.7812C26.1421 30.7812 27.0375 29.8858 27.0375 28.7812V21.2942Z" fill="#00A1FC"/>
</svg>
