<svg width="50" height="50" viewBox="0 0 50 50" fill="none" xmlns="http://www.w3.org/2000/svg">
<path fill-rule="evenodd" clip-rule="evenodd" d="M12.0636 13.0635C12.0636 12.5113 12.5113 12.0635 13.0636 12.0635H23.0375V13.8071C23.0375 14.9116 23.933 15.8071 25.0375 15.8071C26.1421 15.8071 27.0375 14.9116 27.0375 13.8071V12.0635H37.0118C37.564 12.0635 38.0118 12.5113 38.0118 13.0635V37.0117C38.0118 37.564 37.564 38.0117 37.0118 38.0117H27.0375V36.2682C27.0375 35.1636 26.1421 34.2682 25.0375 34.2682C23.933 34.2682 23.0375 35.1636 23.0375 36.2682V38.0117H13.0636C12.5113 38.0117 12.0636 37.564 12.0636 37.0117V13.0635ZM25.0375 42.0117H13.0636C10.3022 42.0117 8.0636 39.7731 8.0636 37.0117V13.0635C8.0636 10.3021 10.3022 8.06354 13.0636 8.06354H25.0375H37.0118C39.7732 8.06354 42.0118 10.3021 42.0118 13.0635L42.0118 37.0117C42.0118 39.7731 39.7732 42.0117 37.0118 42.0117H25.0375ZM27.0375 21.2941C27.0375 20.1895 26.1421 19.2941 25.0375 19.2941C23.933 19.2941 23.0375 20.1895 23.0375 21.2941V28.7811C23.0375 29.8857 23.933 30.7811 25.0375 30.7811C26.1421 30.7811 27.0375 29.8857 27.0375 28.7811V21.2941Z" fill="#00A1FC"/>
</svg>
