<svg width="50" height="50" viewBox="0 0 50 50" fill="none" xmlns="http://www.w3.org/2000/svg">
<g clip-path="url(#clip0_39_1609)">
<path d="M12.652 20.3568L1.95625 37.47C1.53997 38.136 2.01881 39 2.80425 39H24.1958C24.9812 39 25.46 38.136 25.0438 37.47L14.348 20.3568C13.9563 19.7301 13.0437 19.7301 12.652 20.3568Z" fill="#FBFBFB" stroke="#FBFBFB" stroke-width="4" stroke-linecap="round"/>
<path d="M24.6338 27.5014L18.8652 37.5003C18.4806 38.1669 18.9618 39 19.7314 39H31.2686C32.0382 39 32.5194 38.1669 32.1348 37.5003L26.3662 27.5014C25.9814 26.8344 25.0186 26.8344 24.6338 27.5014Z" fill="#FBFBFB" stroke="#FBFBFB" stroke-width="4" stroke-linecap="round"/>
<mask id="path-3-inside-1_39_1609" fill="white">
<rect y="8" width="50" height="34" rx="3"/>
</mask>
<rect y="8" width="50" height="34" rx="3" stroke="#00A1FC" stroke-width="8" mask="url(#path-3-inside-1_39_1609)"/>
<circle cx="38" cy="21" r="5" fill="#FBFBFB"/>
</g>
<defs>
<clipPath id="clip0_39_1609">
<rect width="50" height="50" fill="white"/>
</clipPath>
</defs>
</svg>
