<svg width="50" height="50" viewBox="0 0 50 50" fill="none" xmlns="http://www.w3.org/2000/svg">
<path fill-rule="evenodd" clip-rule="evenodd" d="M11.9564 12.9563C11.9564 12.404 12.4041 11.9563 12.9564 11.9563L37.119 11.9563C37.6713 11.9563 38.119 12.404 38.119 12.9563V23.0375H35.7202C34.6156 23.0375 33.7202 23.933 33.7202 25.0375C33.7202 26.1421 34.6156 27.0375 35.7202 27.0375H38.119V37.1189C38.119 37.6712 37.6713 38.1189 37.119 38.1189H12.9564C12.4041 38.1189 11.9564 37.6712 11.9564 37.1189V27.0375H14.355C15.4596 27.0375 16.355 26.1421 16.355 25.0375C16.355 23.933 15.4596 23.0375 14.355 23.0375H11.9564V12.9563ZM12.9564 7.9563C10.195 7.9563 7.95642 10.1949 7.95642 12.9563V37.1189C7.95642 39.8803 10.195 42.1189 12.9564 42.1189H37.119C39.8804 42.1189 42.119 39.8803 42.119 37.1189V12.9563C42.119 10.1949 39.8804 7.9563 37.119 7.9563H12.9564ZM21.4767 23.0375C20.3722 23.0375 19.4767 23.933 19.4767 25.0375C19.4767 26.1421 20.3722 27.0375 21.4767 27.0375H28.5985C29.703 27.0375 30.5985 26.1421 30.5985 25.0375C30.5985 23.933 29.703 23.0375 28.5985 23.0375H21.4767Z" fill="#00A1FC"/>
</svg>
