<svg width="50" height="50" viewBox="0 0 50 50" fill="none" xmlns="http://www.w3.org/2000/svg">
<g clip-path="url(#clip0_165_774)">
<path d="M43.75 35.25L43.75 14.4167L25 3.99998M43.75 35.25L39.0625 37.8541M43.75 35.25L25 45.6666M6.24997 14.4167L6.25001 35.25L25 45.6666M6.24997 14.4167L25 3.99998M6.24997 14.4167L10.9375 11.8125M25 3.99998L24.8915 3.99997L20.3125 6.60414M25 45.6666H25.1085L29.6875 43.0625" stroke="#FBFBFB" stroke-width="3" stroke-linecap="round" stroke-linejoin="round" stroke-dasharray="8 8"/>
<path d="M19.9008 16.0729L19.2791 14.954L19.2791 14.954L19.9008 16.0729ZM19.5993 16.2404L20.2209 17.3593L20.2209 17.3593L19.5993 16.2404ZM19.5992 33.5729L18.9776 34.6918L19.5992 33.5729ZM19.9008 33.7404L20.5224 32.6215L19.9008 33.7404ZM30.0993 33.7404L29.4776 32.6215H29.4776L30.0993 33.7404ZM30.25 33.6567L30.8716 34.7756L30.8716 34.7756L30.25 33.6567ZM30.4008 33.5729L29.7791 32.454L29.7791 32.454L30.4008 33.5729ZM26.5281 16.159C27.2253 16.276 27.8854 15.8058 28.0024 15.1086C28.1195 14.4115 27.6493 13.7514 26.9521 13.6343L26.5281 16.159ZM14.5 24.9067L13.22 24.9067L14.5 24.9067ZM36.78 24.9066C36.78 24.1997 36.2069 23.6266 35.5 23.6267C34.7931 23.6267 34.22 24.1997 34.22 24.9067L36.78 24.9066ZM19.2791 14.954L18.9776 15.1215L20.2209 17.3593L20.5224 17.1918L19.2791 14.954ZM18.9776 34.6918L19.2791 34.8593L20.5224 32.6215L20.2209 32.454L18.9776 34.6918ZM30.7209 34.8593L30.8716 34.7756L29.6284 32.5377L29.4776 32.6215L30.7209 34.8593ZM30.8716 34.7756L31.0224 34.6918L29.7791 32.454L29.6284 32.5377L30.8716 34.7756ZM19.2791 34.8593C22.837 36.8359 27.1631 36.8359 30.7209 34.8593L29.4776 32.6215C26.693 34.1685 23.307 34.1685 20.5224 32.6215L19.2791 34.8593ZM20.5224 17.1918C22.3759 16.1621 24.4959 15.8177 26.5281 16.159L26.9521 13.6343C24.3565 13.1984 21.6476 13.6382 19.2791 14.954L20.5224 17.1918ZM13.22 24.9067C13.22 28.9719 15.424 32.7176 18.9776 34.6918L20.2209 32.454C17.4799 30.9312 15.78 28.0422 15.78 24.9067L13.22 24.9067ZM15.78 24.9067C15.78 21.7711 17.4799 18.8821 20.2209 17.3593L18.9776 15.1215C15.424 17.0957 13.22 20.8414 13.22 24.9067L15.78 24.9067ZM31.0224 34.6918C34.576 32.7176 36.78 28.9719 36.78 24.9066L34.22 24.9067C34.22 28.0422 32.5201 30.9312 29.7791 32.454L31.0224 34.6918Z" fill="#FBFBFB"/>
<circle cx="25.28" cy="24.72" r="4.2" fill="#FBFBFB"/>
<g clip-path="url(#clip1_165_774)">
<path d="M33.9956 17.0044C34.9911 18 38.7245 17.8755 38.7245 18C38.7245 18.1244 34.9911 18 33.9956 18.9955C33 19.9911 33.0695 23.7244 33 23.7244C32.9305 23.7244 33 19.9911 32.0045 18.9955C31.0089 18 27.2756 18.026 27.2756 18C27.2756 17.974 31.0089 18 32.0045 17.0044C33 16.0089 32.9431 12.2755 33 12.2755C33.0569 12.2755 33 16.0089 33.9956 17.0044Z" fill="#9C1C9C" stroke="#9C1C9C" stroke-linecap="round"/>
</g>
</g>
<defs>
<clipPath id="clip0_165_774">
<rect width="50" height="50" fill="white"/>
</clipPath>
<clipPath id="clip1_165_774">
<rect width="14" height="14" fill="white" transform="translate(26 11)"/>
</clipPath>
</defs>
</svg>
