<svg width="50" height="50" viewBox="0 0 50 50" fill="none" xmlns="http://www.w3.org/2000/svg">
<g clip-path="url(#clip0_165_847)">
<path d="M43.75 35.25L43.75 14.4167L25 4.00001M43.75 35.25L39.0625 37.8542M43.75 35.25L25 45.6667M6.25 14.4167L6.25004 35.25L25 45.6667M6.25 14.4167L25 4.00001M6.25 14.4167L10.9375 11.8125M25 4.00001L24.8915 4L20.3125 6.60417M25 45.6667H25.1086L29.6875 43.0625" stroke="#FBFBFB" stroke-width="3" stroke-linecap="round" stroke-linejoin="round" stroke-dasharray="8 8"/>
<path d="M29.6801 20.32C29.6801 20.32 30.7201 21.88 30.7201 24.48C30.7201 27.08 29.6801 28.64 29.6801 28.64" stroke="#F87C36" stroke-width="2.08" stroke-linecap="round" stroke-linejoin="round"/>
<path d="M32.8 15.64C32.8 15.64 35.4 18.7972 35.4 24.48C35.4 30.1629 32.8 33.32 32.8 33.32" stroke="#F87C36" stroke-width="2.08" stroke-linecap="round" stroke-linejoin="round"/>
<rect x="13.5601" y="20.32" width="10.4" height="9.36" rx="1.56" fill="#F87C36"/>
<path d="M15.427 25.7639C14.9812 25.3522 14.9812 24.6478 15.427 24.236L24.5543 15.8046C25.2204 15.1893 26.3 15.6617 26.3 16.5685L26.3 33.4314C26.3 34.3382 25.2204 34.8107 24.5543 34.1954L15.427 25.7639Z" fill="#F87C36"/>
</g>
<defs>
<clipPath id="clip0_165_847">
<rect width="50" height="50" fill="white"/>
</clipPath>
</defs>
</svg>
