<svg width="50" height="50" viewBox="0 0 50 50" fill="none" xmlns="http://www.w3.org/2000/svg">
<g clip-path="url(#clip0_39_777)">
<path d="M43.75 35.25L43.75 14.4167L25 4.00001M43.75 35.25L39.0625 37.8542M43.75 35.25L25 45.6667M6.25 14.4167L6.25004 35.25L25 45.6667M6.25 14.4167L25 4.00001M6.25 14.4167L10.9375 11.8125M25 4.00001L24.8915 4L20.3125 6.60417M25 45.6667H25.1086L29.6875 43.0625" stroke="#FBFBFB" stroke-width="3" stroke-linecap="round" stroke-linejoin="round" stroke-dasharray="8 8"/>
<path fill-rule="evenodd" clip-rule="evenodd" d="M36.3367 25.8402H12.4452C12.4417 25.7582 12.4399 25.6758 12.4399 25.593C12.4399 22.4248 15.0083 19.8565 18.1764 19.8565C18.5326 19.8565 18.8812 19.8889 19.2194 19.9511C19.7466 16.6459 22.6104 14.12 26.0641 14.12C29.6593 14.12 32.6152 16.8571 32.9617 20.3612C34.9547 21.2602 36.3419 23.2646 36.3419 25.593C36.3419 25.6758 36.3402 25.7582 36.3367 25.8402Z" fill="#FBFBFB"/>
<path d="M12.1378 29.1934L31.4045 29.1934" stroke="#FBFBFB" stroke-width="2.56889" stroke-linecap="round"/>
<path d="M28.1934 33.6889L34.6156 33.6889" stroke="#FBFBFB" stroke-width="2.56889" stroke-linecap="round"/>
<path d="M17.9177 33.6889L24.3399 33.6889" stroke="#FBFBFB" stroke-width="2.56889" stroke-linecap="round"/>
</g>
<defs>
<clipPath id="clip0_39_777">
<rect width="50" height="50" fill="white"/>
</clipPath>
</defs>
</svg>
