<svg width="25" height="25" viewBox="0 0 25 25" fill="none" xmlns="http://www.w3.org/2000/svg">
<g clip-path="url(#clip0_194_1218)">
<path fill-rule="evenodd" clip-rule="evenodd" d="M20.6559 7.18099L22.0279 10.4942L25 11.25L24.9998 13.7215L22.0173 14.4975L20.6449 17.8118L22.5 20L20 22.5C20 22.5 18.3711 21.0391 17.8189 20.6444L14.5057 22.0165L13.75 25H11.25L10.4963 22.0154L7.23895 20.6754L5 22.5L2.5 20L4.39469 17.8747L3.00139 14.5694L0 13.75V11.25L2.96563 10.5579L4.31671 7.23606L2.5 5L5 2.5L7.13051 4.39495L10.4364 3.00141L11.2262 0H13.6692L14.4472 2.96217L17.8309 4.35369L20 2.5L22.5 5L20.6559 7.18099ZM18 12.5C18 15.5376 15.5376 18 12.5 18C9.46243 18 7 15.5376 7 12.5C7 9.46243 9.46243 7 12.5 7C15.5376 7 18 9.46243 18 12.5Z" fill="#FBFBFB"/>
</g>
<defs>
<clipPath id="clip0_194_1218">
<rect width="25" height="25" fill="white"/>
</clipPath>
</defs>
</svg>
