<svg width="25" height="25" viewBox="0 0 25 25" fill="none" xmlns="http://www.w3.org/2000/svg">
<mask id="path-1-inside-1_194_829" fill="white">
<path fill-rule="evenodd" clip-rule="evenodd" d="M3.84 0C2.8238 0 2 0.823796 2 1.84V23.16C2 24.1762 2.8238 25 3.84 25H21.16C22.1762 25 23 24.1762 23 23.16V1.84C23 0.823796 22.1762 0 21.16 0H3.84ZM20 6.5L5 6.5V3.5H20V6.5ZM14 11.5H5V8.5H14V11.5ZM5 16.5H18V13.5H5V16.5ZM13 21.5H5V18.5H13V21.5Z"/>
</mask>
<path fill-rule="evenodd" clip-rule="evenodd" d="M3.84 0C2.8238 0 2 0.823796 2 1.84V23.16C2 24.1762 2.8238 25 3.84 25H21.16C22.1762 25 23 24.1762 23 23.16V1.84C23 0.823796 22.1762 0 21.16 0H3.84ZM20 6.5L5 6.5V3.5H20V6.5ZM14 11.5H5V8.5H14V11.5ZM5 16.5H18V13.5H5V16.5ZM13 21.5H5V18.5H13V21.5Z" fill="#FBFBFB"/>
<path d="M5 6.5H2V9.5H5L5 6.5ZM20 6.5V9.5H23V6.5H20ZM5 3.5V0.499997H2V3.5H5ZM20 3.5H23V0.499997H20V3.5ZM5 11.5H2V14.5H5V11.5ZM14 11.5V14.5H17V11.5H14ZM5 8.5V5.5H2V8.5H5ZM14 8.5H17V5.5H14V8.5ZM18 16.5V19.5H21V16.5H18ZM5 16.5H2V19.5H5V16.5ZM18 13.5H21V10.5H18V13.5ZM5 13.5V10.5H2V13.5H5ZM5 21.5H2V24.5H5V21.5ZM13 21.5V24.5H16V21.5H13ZM5 18.5V15.5H2V18.5H5ZM13 18.5H16V15.5H13V18.5ZM5 1.84C5 2.48065 4.48065 3 3.84 3V-3C1.16694 -3 -1 -0.833059 -1 1.84H5ZM5 23.16V1.84H-1V23.16H5ZM3.84 22C4.48065 22 5 22.5193 5 23.16H-1C-1 25.8331 1.16694 28 3.84 28V22ZM21.16 22H3.84V28H21.16V22ZM20 23.16C20 22.5194 20.5194 22 21.16 22V28C23.8331 28 26 25.8331 26 23.16H20ZM20 1.84V23.16H26V1.84H20ZM21.16 3C20.5194 3 20 2.48065 20 1.84H26C26 -0.833059 23.8331 -3 21.16 -3V3ZM3.84 3H21.16V-3H3.84V3ZM5 9.5L20 9.5V3.5L5 3.5L5 9.5ZM2 3.5V6.5H8V3.5H2ZM20 0.499997H5V6.5H20V0.499997ZM23 6.5V3.5H17V6.5H23ZM5 14.5H14V8.5H5V14.5ZM2 8.5V11.5H8V8.5H2ZM14 5.5H5V11.5H14V5.5ZM17 11.5V8.5H11V11.5H17ZM18 13.5H5V19.5H18V13.5ZM15 13.5V16.5H21V13.5H15ZM5 16.5H18V10.5H5V16.5ZM8 16.5V13.5H2V16.5H8ZM5 24.5H13V18.5H5V24.5ZM2 18.5V21.5H8V18.5H2ZM13 15.5H5V21.5H13V15.5ZM16 21.5V18.5H10V21.5H16Z" fill="#FBFBFB" mask="url(#path-1-inside-1_194_829)"/>
</svg>
