<svg width="25" height="25" viewBox="0 0 25 25" fill="none" xmlns="http://www.w3.org/2000/svg">
<g clip-path="url(#clip0_248_1142)">
<rect x="2.5" y="2.5" width="20" height="20" rx="10" stroke="#FBFBFB" stroke-width="3"/>
<path d="M10.4742 15.1818V14.858C10.4742 14.1158 10.5326 13.5243 10.6496 13.0835C10.7665 12.6426 10.9397 12.2895 11.1691 12.0241C11.3985 11.7543 11.6797 11.5114 12.0125 11.2955C12.3004 11.1065 12.5568 10.9244 12.7817 10.7489C13.0111 10.5735 13.191 10.3868 13.3215 10.1889C13.4564 9.991 13.5239 9.7661 13.5239 9.5142C13.5239 9.2893 13.4699 9.09138 13.3619 8.92045C13.254 8.74953 13.1078 8.61683 12.9234 8.52237C12.739 8.42791 12.5343 8.38068 12.3094 8.38068C12.0665 8.38068 11.8416 8.43691 11.6347 8.54936C11.4323 8.66181 11.2681 8.817 11.1421 9.01491C11.0207 9.21283 10.96 9.44223 10.96 9.70312H7.50542C7.51441 8.71354 7.73932 7.91063 8.18013 7.29439C8.62095 6.67365 9.2057 6.21934 9.93439 5.93146C10.6631 5.63909 11.4637 5.4929 12.3364 5.4929C13.299 5.4929 14.1581 5.63459 14.9138 5.91797C15.6695 6.19685 16.2655 6.61967 16.7018 7.18643C17.1381 7.7487 17.3563 8.45265 17.3563 9.2983C17.3563 9.84257 17.2618 10.3216 17.0729 10.7354C16.8885 11.1448 16.6298 11.5069 16.297 11.8217C15.9686 12.1321 15.584 12.4155 15.1432 12.6719C14.8193 12.8608 14.5472 13.0565 14.3268 13.2589C14.1064 13.4568 13.94 13.6839 13.8275 13.9403C13.7151 14.1922 13.6588 14.4981 13.6588 14.858V15.1818H10.4742ZM12.1205 19.7159C11.5987 19.7159 11.1511 19.5337 10.7778 19.1694C10.4089 18.8005 10.2268 18.353 10.2313 17.8267C10.2268 17.3139 10.4089 16.8754 10.7778 16.511C11.1511 16.1467 11.5987 15.9645 12.1205 15.9645C12.6153 15.9645 13.0516 16.1467 13.4294 16.511C13.8118 16.8754 14.0052 17.3139 14.0097 17.8267C14.0052 18.1776 13.913 18.4969 13.733 18.7848C13.5576 19.0682 13.3282 19.2953 13.0448 19.4663C12.7615 19.6327 12.4533 19.7159 12.1205 19.7159Z" fill="#FBFBFB"/>
</g>
<defs>
<clipPath id="clip0_248_1142">
<rect width="25" height="25" fill="white"/>
</clipPath>
</defs>
</svg>
