<svg width="25" height="25" viewBox="0 0 25 25" fill="none" xmlns="http://www.w3.org/2000/svg">
<path d="M2.22195 1.85986H21.7773C22.4522 1.85986 22.9994 2.41563 22.9995 3.10126L22.9998 5.07014C22.9998 5.39949 22.871 5.71536 22.6418 5.94824L14.8019 13.9118C14.5727 14.1446 14.444 14.4604 14.444 14.7897L14.4439 22.6177C14.4439 23.4254 13.6967 24.0181 12.9253 23.8222L10.4809 23.2014C9.93684 23.0632 9.55515 22.5666 9.55515 21.9969L9.55515 14.7897C9.55515 14.4604 9.42639 14.1446 9.19718 13.9118L1.35773 5.94817C1.12852 5.71533 0.999756 5.39954 0.999756 5.07026V3.10142C0.999756 2.41573 1.54695 1.85986 2.22195 1.85986Z" fill="#FBFBFB"/>
</svg>
