<svg width="25" height="25" viewBox="0 0 25 25" fill="none" xmlns="http://www.w3.org/2000/svg">
<mask id="path-1-outside-1_194_739" maskUnits="userSpaceOnUse" x="5" y="8" width="9" height="12" fill="black">
<rect fill="white" x="5" y="8" width="9" height="12"/>
<path d="M6.68204 18.247V15.933L9.71104 14.178L6.68204 12.436V10.135L12.246 13.346V15.023L6.68204 18.247Z"/>
</mask>
<path d="M6.68204 18.247V15.933L9.71104 14.178L6.68204 12.436V10.135L12.246 13.346V15.023L6.68204 18.247Z" fill="#FBFBFB"/>
<path d="M6.68204 18.247H5.68204V19.9822L7.18339 19.1122L6.68204 18.247ZM6.68204 15.933L6.18071 15.0677L5.68204 15.3567V15.933H6.68204ZM9.71104 14.178L10.2124 15.0433L11.7113 14.1748L10.2096 13.3111L9.71104 14.178ZM6.68204 12.436H5.68204V13.0145L6.1835 13.3029L6.68204 12.436ZM6.68204 10.135L7.18188 9.26888L5.68204 8.40332V10.135H6.68204ZM12.246 13.346H13.246V12.7685L12.7459 12.4799L12.246 13.346ZM12.246 15.023L12.7474 15.8882L13.246 15.5993V15.023H12.246ZM7.68204 18.247V15.933H5.68204V18.247H7.68204ZM7.18337 16.7983L10.2124 15.0433L9.20971 13.3127L6.18071 15.0677L7.18337 16.7983ZM10.2096 13.3111L7.18058 11.5691L6.1835 13.3029L9.2125 15.0449L10.2096 13.3111ZM7.68204 12.436V10.135H5.68204V12.436H7.68204ZM6.1822 11.0011L11.7462 14.2121L12.7459 12.4799L7.18188 9.26888L6.1822 11.0011ZM11.246 13.346V15.023H13.246V13.346H11.246ZM11.7447 14.1578L6.18068 17.3818L7.18339 19.1122L12.7474 15.8882L11.7447 14.1578Z" fill="black" mask="url(#path-1-outside-1_194_739)"/>
<path d="M18 17C15.931 17 13.8046 17 13 17" stroke="#FBFBFB" stroke-width="2"/>
<mask id="path-4-inside-2_194_739" fill="white">
<rect y="2" width="25" height="21" rx="1.78571"/>
</mask>
<rect y="2" width="25" height="21" rx="1.78571" stroke="#FBFBFB" stroke-width="6" mask="url(#path-4-inside-2_194_739)"/>
<rect x="3" y="5" width="20" height="3.33333" fill="#FBFBFB"/>
</svg>
