<svg width="25" height="25" viewBox="0 0 25 25" fill="none" xmlns="http://www.w3.org/2000/svg">
<g clip-path="url(#clip0_196_903)">
<path d="M9.75 4C13.2602 4 16 6.74386 16 10C16 13.2561 13.2602 16 9.75 16C6.23976 16 3.5 13.2561 3.5 10C3.5 6.74386 6.23976 4 9.75 4Z" stroke="#FBFBFB" stroke-width="4"/>
<path d="M19.5857 22.7926C20.3667 23.5736 21.6331 23.5736 22.4141 22.7926C23.1952 22.0115 23.1952 20.7452 22.4141 19.9642L19.5857 22.7926ZM14.5466 14.9251L13.1324 16.3393L19.5857 22.7926L20.9999 21.3784L22.4141 19.9642L15.9608 13.5109L14.5466 14.9251Z" fill="white"/>
</g>
<defs>
<clipPath id="clip0_196_903">
<rect width="25" height="25" fill="white"/>
</clipPath>
</defs>
</svg>
