<svg width="25" height="25" viewBox="0 0 25 25" fill="none" xmlns="http://www.w3.org/2000/svg">
<mask id="path-1-outside-1_194_739" maskUnits="userSpaceOnUse" x="6" y="9" width="7" height="11" fill="black">
<rect fill="white" x="6" y="9" width="7" height="11"/>
<path d="M6.68204 18.247V15.933L9.71104 14.178L6.68204 12.436V10.135L12.246 13.346V15.023L6.68204 18.247Z"/>
</mask>
<path d="M6.68204 18.247V15.933L9.71104 14.178L6.68204 12.436V10.135L12.246 13.346V15.023L6.68204 18.247Z" fill="#FBFBFB"/>
<path d="M6.68204 18.247H6.18204V19.1146L6.93272 18.6796L6.68204 18.247ZM6.68204 15.933L6.43137 15.5004L6.18204 15.6448V15.933H6.68204ZM9.71104 14.178L9.9617 14.6106L10.7112 14.1764L9.96031 13.7446L9.71104 14.178ZM6.68204 12.436H6.18204V12.7252L6.43277 12.8694L6.68204 12.436ZM6.68204 10.135L6.93196 9.70194L6.18204 9.26916V10.135H6.68204ZM12.246 13.346H12.746V13.0573L12.496 12.9129L12.246 13.346ZM12.246 15.023L12.4967 15.4556L12.746 15.3112V15.023H12.246ZM7.18204 18.247V15.933H6.18204V18.247H7.18204ZM6.9327 16.3656L9.9617 14.6106L9.46037 13.7454L6.43137 15.5004L6.9327 16.3656ZM9.96031 13.7446L6.93131 12.0026L6.43277 12.8694L9.46177 14.6114L9.96031 13.7446ZM7.18204 12.436V10.135H6.18204V12.436H7.18204ZM6.43212 10.5681L11.9961 13.7791L12.496 12.9129L6.93196 9.70194L6.43212 10.5681ZM11.746 13.346V15.023H12.746V13.346H11.746ZM11.9954 14.5904L6.43136 17.8144L6.93272 18.6796L12.4967 15.4556L11.9954 14.5904Z" fill="#FBFBFB" mask="url(#path-1-outside-1_194_739)"/>
<path d="M19 17C16.931 17 14.8046 17 14 17" stroke="#FBFBFB" stroke-width="3"/>
<mask id="path-4-inside-2_194_739" fill="white">
<rect y="2" width="25" height="21" rx="1.78571"/>
</mask>
<rect y="2" width="25" height="21" rx="1.78571" stroke="#FBFBFB" stroke-width="6" mask="url(#path-4-inside-2_194_739)"/>
<rect x="3" y="5" width="20" height="3.33333" fill="#FBFBFB"/>
</svg>
