<svg width="25" height="25" viewBox="0 0 25 25" fill="none" xmlns="http://www.w3.org/2000/svg">
<g clip-path="url(#clip0_196_509)">
<g clip-path="url(#clip1_196_509)">
<g clip-path="url(#clip2_196_509)">
<mask id="path-1-inside-1_196_509" fill="white">
<path fill-rule="evenodd" clip-rule="evenodd" d="M17.2375 9.77752L14.1892 7.46125L13.8997 7.84229L11.9845 6.38704C11.8702 6.3002 11.723 6.26924 11.5834 6.3027L6.17175 7.60009C5.77915 7.69421 5.67233 8.20225 5.99379 8.44651L11.0958 12.3233L2.40981 23.7545C2.09 24.1754 2.17193 24.7759 2.59282 25.0957L3.35491 25.6748C3.77579 25.9946 4.37625 25.9126 4.69606 25.4918L13.3821 14.0605L16.4304 16.3768C16.6409 16.5367 16.9411 16.4957 17.101 16.2853L19.7068 12.8559C19.8667 12.6454 19.8258 12.3452 19.6153 12.1853L16.948 10.1586L17.2375 9.77752Z"/>
</mask>
<path d="M14.1892 7.46125L18.4363 1.87178L12.8469 -2.37536L8.59973 3.21411L14.1892 7.46125ZM17.2375 9.77752L22.827 14.0247L27.0741 8.4352L21.4847 4.18805L17.2375 9.77752ZM13.8997 7.84229L9.65252 13.4318L15.242 17.6789L19.4891 12.0894L13.8997 7.84229ZM11.5834 6.3027L13.22 13.1293L13.22 13.1293L11.5834 6.3027ZM6.17175 7.60009L7.80835 14.4266L7.80835 14.4266L6.17175 7.60009ZM5.99379 8.44651L1.74664 14.036L5.99379 8.44651ZM11.0958 12.3233L16.6853 16.5704L20.9324 10.981L15.343 6.73381L11.0958 12.3233ZM4.69606 25.4918L-0.89341 21.2446L4.69606 25.4918ZM13.3821 14.0605L17.6292 8.47102L12.0398 4.22387L7.79261 9.81334L13.3821 14.0605ZM16.4304 16.3768L12.1833 21.9662L16.4304 16.3768ZM17.101 16.2853L11.5116 12.0381L17.101 16.2853ZM19.7068 12.8559L25.2963 17.103L19.7068 12.8559ZM19.6153 12.1853L23.8625 6.59585L19.6153 12.1853ZM16.948 10.1586L11.3585 5.91141L7.11139 11.5009L12.7009 15.748L16.948 10.1586ZM9.94205 13.0507L12.9904 15.367L21.4847 4.18805L18.4363 1.87178L9.94205 13.0507ZM19.4891 12.0894L19.7787 11.7084L8.59973 3.21411L8.3102 3.59514L19.4891 12.0894ZM18.1468 2.25282L16.2316 0.797568L7.73733 11.9765L9.65252 13.4318L18.1468 2.25282ZM16.2316 0.797568C14.4409 -0.563143 12.1339 -1.0482 9.94677 -0.523858L13.22 13.1293C11.312 13.5867 9.29953 13.1635 7.73733 11.9765L16.2316 0.797568ZM9.94677 -0.523858L4.53515 0.773527L7.80835 14.4266L13.22 13.1293L9.94677 -0.523858ZM4.53515 0.773527C-1.6165 2.24833 -3.29022 10.2087 1.74664 14.036L10.2409 2.85704C14.6349 6.19577 13.1748 13.1401 7.80835 14.4266L4.53515 0.773527ZM1.74664 14.036L6.84868 17.9128L15.343 6.73381L10.2409 2.85704L1.74664 14.036ZM5.50636 8.07614L-3.17966 19.5074L7.99927 28.0017L16.6853 16.5704L5.50636 8.07614ZM-3.17966 19.5074C-5.84511 23.0153 -5.16219 28.0197 -1.65432 30.6852L6.83997 19.5062C9.50606 21.5321 10.0251 25.3356 7.99927 28.0017L-3.17966 19.5074ZM-1.65432 30.6852L-0.892238 31.2642L7.60205 20.0853L6.83997 19.5062L-1.65432 30.6852ZM-0.892238 31.2642C2.61563 33.9297 7.62008 33.2468 10.2855 29.7389L-0.89341 21.2446C1.13241 18.5785 4.93596 18.0595 7.60205 20.0853L-0.892238 31.2642ZM10.2855 29.7389L18.9716 18.3076L7.79261 9.81334L-0.89341 21.2446L10.2855 29.7389ZM9.13494 19.65L12.1833 21.9662L20.6776 10.7873L17.6292 8.47102L9.13494 19.65ZM12.1833 21.9662C15.4807 24.4718 20.1849 23.8298 22.6905 20.5324L11.5116 12.0381C13.6973 9.16159 17.8011 8.60159 20.6776 10.7873L12.1833 21.9662ZM22.6905 20.5324L25.2963 17.103L14.1174 8.60875L11.5116 12.0381L22.6905 20.5324ZM25.2963 17.103C27.8018 13.8056 27.1599 9.1014 23.8625 6.59585L15.3682 17.7748C12.4916 15.589 11.9316 11.4853 14.1174 8.60875L25.2963 17.103ZM23.8625 6.59585L21.1951 4.56909L12.7009 15.748L15.3682 17.7748L23.8625 6.59585ZM11.6481 5.53038L11.3585 5.91141L22.5375 14.4057L22.827 14.0247L11.6481 5.53038Z" fill="white" mask="url(#path-1-inside-1_196_509)"/>
</g>
<mask id="path-3-inside-2_196_509" fill="white">
<path fill-rule="evenodd" clip-rule="evenodd" d="M4.24009 15.1132L4.24009 4.23998L20.7601 4.23998L20.7601 20.76L12.9565 20.76L9.91715 24.76L20.898 24.76C23.031 24.76 24.7601 23.0309 24.7601 20.8979L24.7601 4.10205C24.7601 1.96909 23.031 0.239981 20.898 0.239981L4.10216 0.239981C1.9692 0.239981 0.240092 1.96909 0.240092 4.10205L0.240091 20.3774L4.24009 15.1132Z"/>
</mask>
<path d="M4.24009 4.23998L4.24009 -11.42L-11.4199 -11.42L-11.4199 4.23998L4.24009 4.23998ZM4.24009 15.1132L16.7089 24.5876L19.9001 20.3878L19.9001 15.1132L4.24009 15.1132ZM20.7601 4.23998L36.4201 4.23998L36.4201 -11.42L20.7601 -11.42L20.7601 4.23998ZM20.7601 20.76L20.7601 36.42L36.4201 36.42L36.4201 20.76L20.7601 20.76ZM12.9565 20.76L12.9565 5.09998L5.18784 5.09998L0.487727 11.2856L12.9565 20.76ZM9.91715 24.76L-2.55166 15.2856L-21.65 40.42L9.91715 40.42L9.91715 24.76ZM20.898 24.76L20.898 40.42L20.898 40.42L20.898 24.76ZM24.7601 20.8979L40.4201 20.8979L40.4201 20.8979L24.7601 20.8979ZM24.7601 4.10205L40.4201 4.10205L40.4201 4.10205L24.7601 4.10205ZM20.898 0.239981L20.898 15.9L20.898 15.9L20.898 0.239981ZM4.10216 0.239981L4.10216 15.9L4.10216 15.9L4.10216 0.239981ZM0.240092 4.10205L15.9001 4.10205L15.9001 4.10205L0.240092 4.10205ZM0.240091 20.3774L-15.4199 20.3774L-15.4199 66.8708L12.7089 29.8518L0.240091 20.3774ZM-11.4199 4.23998L-11.4199 15.1132L19.9001 15.1132L19.9001 4.23998L-11.4199 4.23998ZM20.7601 -11.42L4.24009 -11.42L4.24009 19.9L20.7601 19.9L20.7601 -11.42ZM36.4201 20.76L36.4201 4.23998L5.10009 4.23998L5.10009 20.76L36.4201 20.76ZM12.9565 36.42L20.7601 36.42L20.7601 5.09998L12.9565 5.09998L12.9565 36.42ZM0.487727 11.2856L-2.55166 15.2856L22.386 34.2344L25.4254 30.2344L0.487727 11.2856ZM20.898 9.09998L9.91715 9.09998L9.91715 40.42L20.898 40.42L20.898 9.09998ZM9.10009 20.8979C9.10009 14.3821 14.3822 9.09998 20.898 9.09998L20.898 40.42C31.6798 40.42 40.4201 31.6797 40.4201 20.8979L9.10009 20.8979ZM9.10009 4.10205L9.10009 20.8979L40.4201 20.8979L40.4201 4.10205L9.10009 4.10205ZM20.898 15.9C14.3822 15.9 9.10009 10.6179 9.10009 4.10205L40.4201 4.10205C40.4201 -6.67969 31.6798 -15.42 20.898 -15.42L20.898 15.9ZM4.10216 15.9L20.898 15.9L20.898 -15.42L4.10216 -15.42L4.10216 15.9ZM15.9001 4.10205C15.9001 10.6179 10.618 15.9 4.10216 15.9L4.10216 -15.42C-6.67959 -15.42 -15.4199 -6.67968 -15.4199 4.10205L15.9001 4.10205ZM15.9001 20.3774L15.9001 4.10205L-15.4199 4.10205L-15.4199 20.3774L15.9001 20.3774ZM12.7089 29.8518L16.7089 24.5876L-8.22872 5.63878L-12.2287 10.903L12.7089 29.8518Z" fill="white" mask="url(#path-3-inside-2_196_509)"/>
</g>
</g>
<defs>
<clipPath id="clip0_196_509">
<rect width="25" height="25" fill="white"/>
</clipPath>
<clipPath id="clip1_196_509">
<rect width="27" height="27" fill="white" transform="translate(-1 -1)"/>
</clipPath>
<clipPath id="clip2_196_509">
<rect width="23.9282" height="23.9282" fill="white" transform="translate(6.47681 1) rotate(37.2293)"/>
</clipPath>
</defs>
</svg>
