<svg width="25" height="25" viewBox="0 0 25 25" fill="none" xmlns="http://www.w3.org/2000/svg">
<path d="M1.91992 11.465V4.82C1.91992 4.48863 2.18855 4.22 2.51992 4.22H9.10766C9.24865 4.22 9.38513 4.26965 9.49317 4.36024L12.8617 7.18476C12.9697 7.27535 13.1062 7.325 13.2472 7.325H22.4799C22.8113 7.325 23.0799 7.59363 23.0799 7.925V11.465M1.91992 11.465V20.18C1.91992 20.5114 2.18855 20.78 2.51992 20.78H22.4799C22.8113 20.78 23.0799 20.5114 23.0799 20.18V11.465M1.91992 11.465H23.0799" stroke="#FBFBFB" stroke-width="3" stroke-linecap="round" stroke-linejoin="round"/>
<rect x="3" y="8" width="19" height="12" fill="#FBFBFB"/>
<rect x="3" y="5" width="9" height="15" fill="#FBFBFB"/>
</svg>
