<svg width="50" height="50" viewBox="0 0 50 50" fill="none" xmlns="http://www.w3.org/2000/svg">
<path d="M5 44H45" stroke="#FBFBFB" stroke-width="4"/>
<path d="M33 32V43.0023C33 43.5546 33.4477 44 34 44H38C38.5523 44 39.0001 43.5524 38.998 43.0001C38.9867 39.9119 38.9325 36.5797 39 35.5C39.4379 28.4936 41.5377 24.811 42.2764 22.101C42.4339 21.5235 41.9746 21.0828 41.4574 21.3842C38.6601 23.0142 33 29.3938 33 32Z" stroke="#FBFBFB" stroke-width="4"/>
<path d="M25 24.5V43.0055C25 43.5578 25.4477 44 26 44H31.5C32.0523 44 32.5 43.5526 32.5 43.0003V31C32.5 22.5033 34.7282 18.463 38.7639 12.989C39.1407 12.478 38.9549 11.7401 38.3418 11.5749C31.295 9.67658 25 20.2944 25 24.5Z" stroke="#FBFBFB" stroke-width="4"/>
<path d="M18 34.1991V43.0021C18 43.5544 17.5523 44 17 44H13.2459C12.6936 44 12.2467 43.5522 12.2287 43.0002C12.149 40.5614 11.8197 38.065 11.8197 37.0937C11.8197 32.7324 9.5245 30.2838 6.37203 27.511C5.7803 26.9906 5.99908 26.0503 6.78611 26.0101C12.5666 25.7148 18 31.977 18 34.1991Z" stroke="#FBFBFB" stroke-width="4"/>
<path d="M25 23.5C25 19.1008 19.4754 8.11352 13.0158 10.1737C12.4538 10.353 12.282 11.0311 12.6066 11.5237C16.4415 17.3426 19.3443 22.0273 19.3443 30.9548C19.3443 33.042 19.8033 38.8575 19.8033 44" stroke="#FBFBFB" stroke-width="4"/>
</svg>
