<svg width="50" height="50" viewBox="0 0 50 50" fill="none" xmlns="http://www.w3.org/2000/svg">
<mask id="path-1-inside-1_289_585" fill="white">
<path fill-rule="evenodd" clip-rule="evenodd" d="M4.94108 23L5.00731 30.7499L5.07353 38.4999L5.10665 42.3749C5.12498 44.5204 6.86938 46.2499 9.0149 46.2499H15.0735H25.0073H40.8749C43.084 46.2499 44.8749 44.4591 44.8749 42.2499V30.7499V23H4.94108ZM4.91545 20H44.8749V18.6488C44.8749 16.6889 43.4548 15.0176 41.5206 14.7012L25.9695 12.1574C25.3322 12.0532 24.6823 12.0525 24.0448 12.1554L8.26662 14.7024C6.31585 15.0173 4.88733 16.7095 4.90422 18.6855L4.91545 20Z"/>
</mask>
<path d="M5.00731 30.7499L9.00716 30.7157L5.00731 30.7499ZM4.94108 23V19H0.906758L0.941231 23.0342L4.94108 23ZM5.07353 38.4999L9.07339 38.4657L5.07353 38.4999ZM5.10665 42.3749L1.10679 42.4091L5.10665 42.3749ZM44.8749 23H48.8749V19H44.8749V23ZM4.91545 20L0.915595 20.0342L0.949484 24H4.91545V20ZM44.8749 20V24H48.8749V20H44.8749ZM41.5206 14.7012L42.1663 10.7537L41.5206 14.7012ZM25.9695 12.1574L25.3238 16.1049L25.9695 12.1574ZM24.0448 12.1554L23.4073 8.2065L24.0448 12.1554ZM8.26662 14.7024L7.62916 10.7535L7.62916 10.7535L8.26662 14.7024ZM4.90422 18.6855L8.90407 18.6513L4.90422 18.6855ZM9.00716 30.7157L8.94094 22.9658L0.941231 23.0342L1.00746 30.7841L9.00716 30.7157ZM9.07339 38.4657L9.00716 30.7157L1.00746 30.7841L1.07368 38.5341L9.07339 38.4657ZM9.1065 42.3407L9.07339 38.4657L1.07368 38.5341L1.10679 42.4091L9.1065 42.3407ZM9.0149 42.2499C9.02029 42.2499 9.03524 42.2518 9.05157 42.2586C9.0653 42.2644 9.07396 42.2711 9.0794 42.2765C9.08484 42.2819 9.09159 42.2905 9.09748 42.3041C9.10448 42.3204 9.10645 42.3353 9.1065 42.3407L1.10679 42.4091C1.14389 46.7503 4.67358 50.2499 9.0149 50.2499V42.2499ZM15.0735 42.2499H9.0149V50.2499H15.0735V42.2499ZM25.0073 42.2499H15.0735V50.2499H25.0073V42.2499ZM40.8749 42.2499H25.0073V50.2499H40.8749V42.2499ZM40.8749 42.2499V50.2499C45.2931 50.2499 48.8749 46.6682 48.8749 42.2499H40.8749ZM40.8749 30.7499V42.2499H48.8749V30.7499H40.8749ZM40.8749 23V30.7499H48.8749V23H40.8749ZM44.8749 19H4.94108V27H44.8749V19ZM4.91545 24H44.8749V16H4.91545V24ZM40.8749 18.6488V20H48.8749V18.6488H40.8749ZM40.8749 18.6488V18.6488H48.8749C48.8749 14.729 46.0347 11.3865 42.1663 10.7537L40.8749 18.6488ZM25.3238 16.1049L40.8749 18.6488L42.1663 10.7537L26.6153 8.20987L25.3238 16.1049ZM24.6822 16.1043C24.8947 16.07 25.1114 16.0702 25.3238 16.1049L26.6153 8.20987C25.5531 8.03612 24.4698 8.03498 23.4073 8.2065L24.6822 16.1043ZM8.90407 18.6513L24.6822 16.1043L23.4073 8.2065L7.62916 10.7535L8.90407 18.6513ZM8.90407 18.6513L8.90407 18.6513L7.62916 10.7535C3.72762 11.3833 0.870593 14.7677 0.904362 18.7196L8.90407 18.6513ZM8.9153 19.9658L8.90407 18.6513L0.904362 18.7196L0.915595 20.0342L8.9153 19.9658Z" fill="#FBFBFB" mask="url(#path-1-inside-1_289_585)"/>
<path d="M8.92078 24.7499L40.8749 24.7499C42.2556 24.7499 43.3749 25.8692 43.3749 27.2499L43.3749 42.2499C43.3749 43.6306 42.2556 44.7499 40.8749 44.7499L8.01453 44.7499C7.29153 44.7497 6.69443 44.2044 6.61511 43.5009L6.60632 43.3573L6.57312 40.4823L6.50769 34.7323L6.42175 27.2782C6.40598 25.8867 7.52916 24.7501 8.92078 24.7499Z" stroke="#FBFBFB" stroke-width="3" stroke-linecap="round"/>
<rect x="1.5" y="26.5" width="6" height="6" rx="3" stroke="#FBFBFB" stroke-width="3"/>
<rect x="30.5" y="8.5" width="6" height="11" rx="3" transform="rotate(90 30.5 8.5)" stroke="#FBFBFB" stroke-width="3"/>
<rect x="42.5" y="26.5" width="6" height="6" rx="3" stroke="#FBFBFB" stroke-width="3"/>
</svg>
