<svg width="58" height="58" viewBox="0 0 58 58" fill="none" xmlns="http://www.w3.org/2000/svg">
<g clip-path="url(#clip0_2_1321)" filter="url(#filter0_d_2_1321)">
<g clip-path="url(#clip1_2_1321)">
<mask id="path-1-inside-1_2_1321" fill="white">
<path fill-rule="evenodd" clip-rule="evenodd" d="M38.7359 18.2547L33.0908 13.9653L32.5546 14.6709L29.008 11.976C28.7964 11.8152 28.5237 11.7578 28.2652 11.8198L18.2437 14.2224C17.5166 14.3967 17.3188 15.3375 17.9141 15.7898L27.3624 22.969L11.2771 44.138C10.6849 44.9175 10.8366 46.0294 11.616 46.6217L13.0273 47.694C13.8067 48.2862 14.9187 48.1345 15.5109 47.3551L31.5962 26.1861L37.2413 30.4755C37.631 30.7716 38.187 30.6958 38.4831 30.306L43.3086 23.9553C43.6048 23.5656 43.5289 23.0097 43.1392 22.7135L38.1997 18.9603L38.7359 18.2547Z"/>
</mask>
<path d="M33.0908 13.9653L40.9559 3.6144L30.605 -4.25068L22.7399 6.10019L33.0908 13.9653ZM38.7359 18.2547L49.0867 26.1197L56.9518 15.7689L46.601 7.90379L38.7359 18.2547ZM32.5546 14.6709L24.6896 25.0218L35.0404 32.8868L42.9055 22.536L32.5546 14.6709ZM28.2652 11.8198L31.296 24.4616L31.296 24.4616L28.2652 11.8198ZM18.2437 14.2224L15.2129 1.58059L15.2129 1.5806L18.2437 14.2224ZM27.3624 22.969L37.7132 30.8341L45.5783 20.4832L35.2274 12.6182L27.3624 22.969ZM11.616 46.6217L19.4811 36.2708L11.616 46.6217ZM13.0273 47.694L5.16223 58.0449L13.0273 47.694ZM31.5962 26.1861L39.4612 15.8352L29.1104 7.97012L21.2453 18.321L31.5962 26.1861ZM38.1997 18.9603L27.8488 11.0952L19.9838 21.4461L30.3346 29.3112L38.1997 18.9603ZM25.2257 24.3161L30.8708 28.6055L46.601 7.90379L40.9559 3.6144L25.2257 24.3161ZM42.9055 22.536L43.4417 21.8304L22.7399 6.10019L22.2038 6.80581L42.9055 22.536ZM40.4197 4.32002L36.8731 1.62512L21.1429 22.3269L24.6896 25.0218L40.4197 4.32002ZM36.8731 1.62512C33.5569 -0.894713 29.2847 -1.79297 25.2345 -0.821966L31.296 24.4616C27.7627 25.3087 24.0359 24.525 21.1429 22.3269L36.8731 1.62512ZM25.2345 -0.821969L15.2129 1.58059L21.2744 26.8642L31.296 24.4616L25.2345 -0.821969ZM15.2129 1.5806C3.821 4.31171 0.721518 19.0532 10.049 26.1407L25.7792 5.43895C33.9162 11.6218 31.2123 24.4816 21.2744 26.8642L15.2129 1.5806ZM10.049 26.1407L19.4973 33.3199L35.2274 12.6182L25.7792 5.43895L10.049 26.1407ZM17.0115 15.1039L0.926259 36.273L21.628 52.0031L37.7132 30.8341L17.0115 15.1039ZM0.926259 36.273C-4.00976 42.769 -2.74508 52.0365 3.75096 56.9725L19.4811 36.2708C24.4183 40.0223 25.3795 47.0659 21.628 52.0031L0.926259 36.273ZM3.75096 56.9725L5.16223 58.0449L20.8924 37.3431L19.4811 36.2708L3.75096 56.9725ZM5.16223 58.0449C11.6583 62.9809 20.9258 61.7162 25.8618 55.2202L5.16006 39.49C8.91157 34.5528 15.9552 33.5916 20.8924 37.3431L5.16223 58.0449ZM25.8618 55.2202L41.947 34.0512L21.2453 18.321L5.16006 39.49L25.8618 55.2202ZM23.7311 36.5369L29.3762 40.8264L45.1064 20.1246L39.4612 15.8352L23.7311 36.5369ZM29.3762 40.8264C35.4825 45.4663 44.1941 44.2775 48.834 38.1711L28.1322 22.441C32.1798 17.1141 39.7794 16.077 45.1064 20.1246L29.3762 40.8264ZM48.834 38.1711L53.6595 31.8204L32.9578 16.0903L28.1322 22.441L48.834 38.1711ZM53.6595 31.8204C58.2994 25.7141 57.1106 17.0026 51.0043 12.3627L35.2741 33.0644C29.9472 29.0168 28.9101 21.4172 32.9578 16.0903L53.6595 31.8204ZM51.0043 12.3627L46.0648 8.60942L30.3346 29.3112L35.2741 33.0644L51.0043 12.3627ZM28.385 10.3896L27.8488 11.0952L48.5506 26.8254L49.0867 26.1197L28.385 10.3896Z" fill="white" mask="url(#path-1-inside-1_2_1321)"/>
</g>
<path fill-rule="evenodd" clip-rule="evenodd" d="M17.5179 19H12.5714C11.6785 19 10.8937 19.592 10.6484 20.4506L6.08964 36.4061C6.08073 36.4348 6.07244 36.4638 6.0648 36.4931L4.07695 43.4506C3.90454 44.054 4.02538 44.7034 4.4033 45.2044C4.78123 45.7054 5.37242 46 6 46H7.19724L9.89451 42H8.65146L9.5086 39H11.9175L14.6147 35H10.6515L11.2229 33H15.9634L22.6712 23.0524L17.5179 19ZM21.1179 46H29H52C52.6276 46 53.2188 45.7054 53.5967 45.2044C53.9746 44.7034 54.0955 44.054 53.923 43.4506L51.9352 36.4931C51.9276 36.4638 51.9193 36.4348 51.9103 36.4061L47.3516 20.4506C47.1063 19.592 46.3215 19 45.4286 19H43.9422L46.6441 20.9893C47.5317 21.6427 47.7233 22.8911 47.0726 23.7806L43.9862 28H45.3485L45.6343 29H43.2547L39.7227 33.8285C39.1655 34.5903 38.1742 34.8402 37.3444 34.4967L37.4402 35H31V33.3077L26.5681 39H27V42H24.2323L21.1179 46ZM31.2396 33H35.3209L32.7895 31.0093L31.2396 33ZM49.3485 42H42.8455L42.2741 39H48.4914L49.3485 42ZM38.2021 39L38.7736 42H31V39H38.2021ZM47.3485 35H41.5121L41.1312 33H46.7771L47.3485 35ZM18.1226 28L17.9797 29H12.3657L12.6515 28H18.1226ZM18.8368 23L18.694 24H13.7943L14.08 23H18.8368Z" fill="#FBFBFB"/>
</g>
<defs>
<filter id="filter0_d_2_1321" x="0" y="0" width="58" height="58" filterUnits="userSpaceOnUse" color-interpolation-filters="sRGB">
<feFlood flood-opacity="0" result="BackgroundImageFix"/>
<feColorMatrix in="SourceAlpha" type="matrix" values="0 0 0 0 0 0 0 0 0 0 0 0 0 0 0 0 0 0 127 0" result="hardAlpha"/>
<feOffset dy="4"/>
<feGaussianBlur stdDeviation="2"/>
<feComposite in2="hardAlpha" operator="out"/>
<feColorMatrix type="matrix" values="0 0 0 0 0 0 0 0 0 0 0 0 0 0 0 0 0 0 0.25 0"/>
<feBlend mode="normal" in2="BackgroundImageFix" result="effect1_dropShadow_2_1321"/>
<feBlend mode="normal" in="SourceGraphic" in2="effect1_dropShadow_2_1321" result="shape"/>
</filter>
<clipPath id="clip0_2_1321">
<rect width="50" height="50" fill="white" transform="translate(4)"/>
</clipPath>
<clipPath id="clip1_2_1321">
<rect width="44.3114" height="44.3114" fill="white" transform="translate(18.8087 2) rotate(37.2293)"/>
</clipPath>
</defs>
</svg>
