<svg width="50" height="50" viewBox="0 0 50 50" fill="none" xmlns="http://www.w3.org/2000/svg">
<g clip-path="url(#clip0_1_87)">
<g clip-path="url(#clip1_1_87)">
<mask id="path-1-inside-1_1_87" fill="white">
<path fill-rule="evenodd" clip-rule="evenodd" d="M34.7359 18.2547L29.0908 13.9653L28.5546 14.6709L25.008 11.976C24.7964 11.8152 24.5237 11.7578 24.2652 11.8198L14.2437 14.2224C13.5166 14.3967 13.3188 15.3375 13.9141 15.7898L23.3624 22.969L7.27713 44.138C6.68488 44.9175 6.83662 46.0294 7.61604 46.6217L9.02731 47.694C9.80673 48.2862 10.9187 48.1345 11.5109 47.3551L27.5962 26.1861L33.2413 30.4755C33.631 30.7716 34.187 30.6958 34.4831 30.306L39.3086 23.9553C39.6048 23.5656 39.5289 23.0097 39.1392 22.7135L34.1997 18.9603L34.7359 18.2547Z"/>
</mask>
<path d="M29.0908 13.9653L36.9559 3.6144L26.605 -4.25068L18.7399 6.10019L29.0908 13.9653ZM34.7359 18.2547L45.0867 26.1197L52.9518 15.7689L42.601 7.90379L34.7359 18.2547ZM28.5546 14.6709L20.6896 25.0218L31.0404 32.8868L38.9055 22.536L28.5546 14.6709ZM25.008 11.976L17.1429 22.3269L25.008 11.976ZM24.2652 11.8198L21.2345 -0.821971L21.2345 -0.821969L24.2652 11.8198ZM14.2437 14.2224L17.2744 26.8642L17.2744 26.8642L14.2437 14.2224ZM23.3624 22.969L33.7132 30.8341L41.5783 20.4832L31.2274 12.6182L23.3624 22.969ZM27.5962 26.1861L35.4612 15.8352L25.1104 7.97012L17.2453 18.321L27.5962 26.1861ZM33.2413 30.4755L25.3762 40.8264L33.2413 30.4755ZM34.4831 30.306L24.1322 22.441L34.4831 30.306ZM39.3086 23.9553L49.6595 31.8204L39.3086 23.9553ZM39.1392 22.7135L47.0043 12.3627L39.1392 22.7135ZM34.1997 18.9603L23.8488 11.0952L15.9838 21.4461L26.3346 29.3112L34.1997 18.9603ZM21.2257 24.3161L26.8708 28.6055L42.601 7.90379L36.9559 3.6144L21.2257 24.3161ZM38.9055 22.536L39.4417 21.8304L18.7399 6.10019L18.2038 6.80581L38.9055 22.536ZM36.4197 4.32002L32.8731 1.62512L17.1429 22.3269L20.6896 25.0218L36.4197 4.32002ZM32.8731 1.62512C29.5569 -0.894716 25.2847 -1.79297 21.2345 -0.821971L27.296 24.4616C23.7627 25.3086 20.0359 24.5251 17.1429 22.3269L32.8731 1.62512ZM21.2345 -0.821969L11.2129 1.5806L17.2744 26.8642L27.296 24.4616L21.2345 -0.821969ZM11.213 1.58059C-0.179003 4.3117 -3.27848 19.0532 6.04904 26.1407L21.7792 5.43895C29.9162 11.6218 27.2123 24.4817 17.2744 26.8642L11.213 1.58059ZM6.04904 26.1407L15.4973 33.3199L31.2274 12.6182L21.7792 5.43895L6.04904 26.1407ZM13.0115 15.1039L-3.07374 36.273L17.628 52.0031L33.7132 30.8341L13.0115 15.1039ZM-3.07374 36.273C-8.00976 42.769 -6.74508 52.0365 -0.249039 56.9725L15.4811 36.2708C20.4183 40.0223 21.3795 47.0659 17.628 52.0031L-3.07374 36.273ZM-0.249039 56.9725L1.16223 58.0449L16.8924 37.3431L15.4811 36.2708L-0.249039 56.9725ZM1.16223 58.0449C7.6583 62.9809 16.9258 61.7162 21.8618 55.2202L1.16006 39.49C4.91157 34.5528 11.9552 33.5916 16.8924 37.3431L1.16223 58.0449ZM21.8618 55.2202L37.947 34.0512L17.2453 18.321L1.16006 39.49L21.8618 55.2202ZM19.7311 36.5369L25.3762 40.8264L41.1064 20.1246L35.4612 15.8352L19.7311 36.5369ZM25.3762 40.8264C31.4825 45.4663 40.1941 44.2775 44.834 38.1711L24.1322 22.441C28.1799 17.114 35.7794 16.077 41.1064 20.1246L25.3762 40.8264ZM44.834 38.1711L49.6595 31.8204L28.9578 16.0903L24.1322 22.441L44.834 38.1711ZM49.6595 31.8204C54.2994 25.7141 53.1106 17.0025 47.0043 12.3627L31.2741 33.0644C25.9472 29.0168 24.9101 21.4172 28.9578 16.0903L49.6595 31.8204ZM47.0043 12.3627L42.0648 8.60942L26.3346 29.3112L31.2741 33.0644L47.0043 12.3627ZM24.385 10.3896L23.8488 11.0952L44.5506 26.8254L45.0867 26.1197L24.385 10.3896Z" fill="white" mask="url(#path-1-inside-1_1_87)"/>
</g>
<mask id="path-3-inside-2_1_87" fill="white">
<path fill-rule="evenodd" clip-rule="evenodd" d="M6.00006 3.99997C4.89549 3.99997 4.00006 4.8954 4.00006 5.99997L4.00006 41.2048L8.00006 35.9406L8.00006 7.99997L42.0001 7.99997L42.0001 42L21.6187 42L18.5793 46L44.0001 46C45.1046 46 46.0001 45.1045 46.0001 44L46.0001 5.99997C46.0001 4.8954 45.1046 3.99997 44.0001 3.99997L6.00006 3.99997Z"/>
</mask>
<path d="M4.00006 5.99997L33.0001 5.99997L33.0001 5.99996L4.00006 5.99997ZM6.00006 3.99997L6.00006 -25L6.00005 -25L6.00006 3.99997ZM4.00006 41.2048L-24.9999 41.2048L-24.9999 127.304L27.0905 58.75L4.00006 41.2048ZM8.00006 35.9406L31.0905 53.4858L37.0001 45.7084L37.0001 35.9406L8.00006 35.9406ZM8.00006 7.99997L8.00006 -21L-20.9999 -21L-20.9999 7.99997L8.00006 7.99997ZM42.0001 7.99997L71.0001 7.99997L71.0001 -21L42.0001 -21L42.0001 7.99997ZM42.0001 42L42.0001 71L71.0001 71L71.0001 42L42.0001 42ZM21.6187 42L21.6187 13L7.2322 13L-1.47172 24.4548L21.6187 42ZM18.5793 46L-4.51111 28.4548L-39.8784 75L18.5793 75L18.5793 46ZM44.0001 46L44.0001 75L44.0001 75L44.0001 46ZM46.0001 44L17.0001 44L17.0001 44L46.0001 44ZM46.0001 5.99997L17.0001 5.99994L17.0001 5.99997L46.0001 5.99997ZM44.0001 3.99997L44.0001 -25L44.0001 -25L44.0001 3.99997ZM33.0001 5.99996C33.0001 20.9117 20.9117 33 6.00007 33L6.00005 -25C-11.1208 -25 -24.9999 -11.1209 -24.9999 5.99998L33.0001 5.99996ZM33.0001 41.2048L33.0001 5.99997L-24.9999 5.99997L-24.9999 41.2048L33.0001 41.2048ZM27.0905 58.75L31.0905 53.4858L-15.0903 18.3954L-19.0903 23.6596L27.0905 58.75ZM-20.9999 7.99997L-20.9999 35.9406L37.0001 35.9406L37.0001 7.99997L-20.9999 7.99997ZM42.0001 -21L8.00006 -21L8.00006 37L42.0001 37L42.0001 -21ZM71.0001 42L71.0001 7.99997L13.0001 7.99997L13.0001 42L71.0001 42ZM21.6187 71L42.0001 71L42.0001 13L21.6187 13L21.6187 71ZM-1.47172 24.4548L-4.51111 28.4548L41.6697 63.5452L44.7091 59.5452L-1.47172 24.4548ZM44.0001 17L18.5793 17L18.5793 75L44.0001 75L44.0001 17ZM17.0001 44C17 29.0882 29.0885 17 44 17L44.0001 75C61.1208 74.9999 75.0001 61.1209 75.0001 43.9999L17.0001 44ZM17.0001 5.99997L17.0001 44L75.0001 44L75.0001 5.99997L17.0001 5.99997ZM44.0001 33C29.0884 33 17 20.9117 17.0001 5.99994L75.0001 6C75.0001 -11.1209 61.1209 -25 44.0001 -25L44.0001 33ZM6.00006 33L44.0001 33L44.0001 -25L6.00006 -25L6.00006 33Z" fill="white" mask="url(#path-3-inside-2_1_87)"/>
</g>
<defs>
<clipPath id="clip0_1_87">
<rect width="50" height="50" fill="white"/>
</clipPath>
<clipPath id="clip1_1_87">
<rect width="44.3114" height="44.3114" fill="white" transform="translate(14.8087 2) rotate(37.2293)"/>
</clipPath>
</defs>
</svg>
