<svg width="58" height="58" viewBox="0 0 58 58" fill="none" xmlns="http://www.w3.org/2000/svg">
<g clip-path="url(#clip0_1_603)" filter="url(#filter0_d_1_603)">
<g clip-path="url(#clip1_1_603)">
<mask id="path-1-inside-1_1_603" fill="white">
<path fill-rule="evenodd" clip-rule="evenodd" d="M38.7359 18.2547L33.0908 13.9653L32.5546 14.6709L29.008 11.976C28.7964 11.8152 28.5237 11.7578 28.2652 11.8198L18.2437 14.2224C17.5166 14.3967 17.3188 15.3375 17.9141 15.7898L27.3624 22.969L11.2771 44.138C10.6849 44.9175 10.8366 46.0294 11.616 46.6217L13.0273 47.694C13.8067 48.2862 14.9187 48.1345 15.5109 47.3551L31.5962 26.1861L37.2413 30.4755C37.631 30.7716 38.187 30.6958 38.4831 30.306L43.3086 23.9553C43.6048 23.5656 43.5289 23.0097 43.1392 22.7135L38.1997 18.9603L38.7359 18.2547Z"/>
</mask>
<path d="M33.0908 13.9653L40.9559 3.6144L30.605 -4.25068L22.7399 6.10019L33.0908 13.9653ZM38.7359 18.2547L49.0867 26.1197L56.9518 15.7689L46.601 7.90379L38.7359 18.2547ZM32.5546 14.6709L24.6896 25.0218L35.0404 32.8868L42.9055 22.536L32.5546 14.6709ZM28.2652 11.8198L31.296 24.4616L31.296 24.4616L28.2652 11.8198ZM18.2437 14.2224L15.2129 1.58059L15.2129 1.5806L18.2437 14.2224ZM27.3624 22.969L37.7132 30.8341L45.5783 20.4832L35.2274 12.6182L27.3624 22.969ZM11.616 46.6217L19.4811 36.2708L11.616 46.6217ZM13.0273 47.694L5.16223 58.0449L13.0273 47.694ZM31.5962 26.1861L39.4612 15.8352L29.1104 7.97012L21.2453 18.321L31.5962 26.1861ZM43.1392 22.7135L35.2741 33.0644L43.1392 22.7135ZM38.1997 18.9603L27.8488 11.0952L19.9838 21.4461L30.3346 29.3112L38.1997 18.9603ZM25.2257 24.3161L30.8708 28.6055L46.601 7.90379L40.9559 3.6144L25.2257 24.3161ZM42.9055 22.536L43.4417 21.8304L22.7399 6.10019L22.2038 6.80581L42.9055 22.536ZM40.4197 4.32002L36.8731 1.62512L21.1429 22.3269L24.6896 25.0218L40.4197 4.32002ZM36.8731 1.62512C33.5569 -0.894713 29.2847 -1.79297 25.2345 -0.821966L31.296 24.4616C27.7627 25.3087 24.0359 24.525 21.1429 22.3269L36.8731 1.62512ZM25.2345 -0.821969L15.2129 1.58059L21.2744 26.8642L31.296 24.4616L25.2345 -0.821969ZM15.2129 1.5806C3.821 4.31171 0.721518 19.0532 10.049 26.1407L25.7792 5.43895C33.9162 11.6218 31.2123 24.4816 21.2744 26.8642L15.2129 1.5806ZM10.049 26.1407L19.4973 33.3199L35.2274 12.6182L25.7792 5.43895L10.049 26.1407ZM17.0115 15.1039L0.926259 36.273L21.628 52.0031L37.7132 30.8341L17.0115 15.1039ZM0.926259 36.273C-4.00976 42.769 -2.74508 52.0365 3.75096 56.9725L19.4811 36.2708C24.4183 40.0223 25.3795 47.0659 21.628 52.0031L0.926259 36.273ZM3.75096 56.9725L5.16223 58.0449L20.8924 37.3431L19.4811 36.2708L3.75096 56.9725ZM5.16223 58.0449C11.6583 62.9809 20.9258 61.7162 25.8618 55.2202L5.16006 39.49C8.91157 34.5528 15.9552 33.5916 20.8924 37.3431L5.16223 58.0449ZM25.8618 55.2202L41.947 34.0512L21.2453 18.321L5.16006 39.49L25.8618 55.2202ZM23.7311 36.5369L29.3762 40.8264L45.1064 20.1246L39.4612 15.8352L23.7311 36.5369ZM29.3762 40.8264C35.4825 45.4663 44.1941 44.2775 48.834 38.1711L28.1322 22.441C32.1798 17.1141 39.7794 16.077 45.1064 20.1246L29.3762 40.8264ZM48.834 38.1711L53.6595 31.8204L32.9578 16.0903L28.1322 22.441L48.834 38.1711ZM53.6595 31.8204C58.2994 25.7141 57.1106 17.0026 51.0043 12.3627L35.2741 33.0644C29.9472 29.0168 28.9101 21.4172 32.9578 16.0903L53.6595 31.8204ZM51.0043 12.3627L46.0648 8.60942L30.3346 29.3112L35.2741 33.0644L51.0043 12.3627ZM28.385 10.3896L27.8488 11.0952L48.5506 26.8254L49.0867 26.1197L28.385 10.3896Z" fill="white" mask="url(#path-1-inside-1_1_603)"/>
</g>
<path fill-rule="evenodd" clip-rule="evenodd" d="M10 3.99997C8.89543 3.99997 8 4.8954 8 5.99997V15.998V16V16.0019V24.9983V25V25.0016V33.9982V34V34.0017V41.3624L12 36.0982V36H12.0746L15.114 32H12L12 27H18V28.2019L22 22.9377V22.5246L18 19.3791V23H12L12 18L16.2463 18L13.5942 15.9144C12.966 15.4204 12.7415 14.6798 12.86 14H12L12 7.99997H18L18 11.3652L22 10.2316V7.99997L27 7.99997V8.81456L28.302 8.44557C28.8965 8.27708 29.5355 8.39286 30.0331 8.75923L31 9.47111V7.99997L36 7.99997V12.0595L40.7886 15.6981L40.3111 16.3265L42.584 18H46V20.515L46.6441 20.9893C47.5317 21.6427 47.7233 22.8911 47.0726 23.7806L44.7177 27H46V32H41.0603L39.7227 33.8285C39.0545 34.7421 37.7619 34.9195 36.8722 34.2199L34.0493 32L32.198 32L27 38.8408L27 42H24.5995L21.5601 46H29L37.9998 46L38 46H38.0002H48C49.1046 46 50 45.1045 50 44V34.0027V34V33.9973V25.003V25V24.9969V16.0038V16V15.9961L50 5.99997C50 4.8954 49.1046 3.99997 48 3.99997H38.0012H38H37.9988H29.0013H29H28.9987H20.0002H20H19.9998H10ZM31 42V36L36 36L36 42H31ZM46 42L40 42V36H46V42ZM46 14H40V7.99997L46 7.99997V14Z" fill="#FBFBFB"/>
</g>
<defs>
<filter id="filter0_d_1_603" x="0" y="0" width="58" height="58" filterUnits="userSpaceOnUse" color-interpolation-filters="sRGB">
<feFlood flood-opacity="0" result="BackgroundImageFix"/>
<feColorMatrix in="SourceAlpha" type="matrix" values="0 0 0 0 0 0 0 0 0 0 0 0 0 0 0 0 0 0 127 0" result="hardAlpha"/>
<feOffset dy="4"/>
<feGaussianBlur stdDeviation="2"/>
<feComposite in2="hardAlpha" operator="out"/>
<feColorMatrix type="matrix" values="0 0 0 0 0 0 0 0 0 0 0 0 0 0 0 0 0 0 0.25 0"/>
<feBlend mode="normal" in2="BackgroundImageFix" result="effect1_dropShadow_1_603"/>
<feBlend mode="normal" in="SourceGraphic" in2="effect1_dropShadow_1_603" result="shape"/>
</filter>
<clipPath id="clip0_1_603">
<rect width="50" height="50" fill="white" transform="translate(4)"/>
</clipPath>
<clipPath id="clip1_1_603">
<rect width="44.3114" height="44.3114" fill="white" transform="translate(18.8087 2) rotate(37.2293)"/>
</clipPath>
</defs>
</svg>
