<svg width="50" height="50" viewBox="0 0 50 50" fill="none" xmlns="http://www.w3.org/2000/svg">
<path d="M42 27C43.1046 27 44 26.1046 44 25C44 23.8954 43.1046 23 42 23L42 27ZM6.58579 23.5858C5.80474 24.3668 5.80474 25.6332 6.58579 26.4142L19.3137 39.1421C20.0948 39.9232 21.3611 39.9232 22.1421 39.1421C22.9232 38.3611 22.9232 37.0948 22.1421 36.3137L10.8284 25L22.1421 13.6863C22.9232 12.9052 22.9232 11.6389 22.1421 10.8579C21.3611 10.0768 20.0948 10.0768 19.3137 10.8579L6.58579 23.5858ZM42 23L8 23L8 27L42 27L42 23Z" fill="#FBFBFB"/>
</svg>
