<svg width="50" height="54" viewBox="0 0 50 54" fill="none" xmlns="http://www.w3.org/2000/svg">
<g clip-path="url(#clip0_1_445)" filter="url(#filter0_d_1_445)">
<mask id="path-1-inside-1_1_445" fill="white">
<path fill-rule="evenodd" clip-rule="evenodd" d="M32.7625 8.24998L28 8.24998L24.875 8.24998L13 8.24998L8.01342 8.24998L8.12499 24.9867L8.18749 34.3616L8.21874 39.0491L8.23675 41.75L15.625 41.75L25 41.75L41.75 41.75L41.75 25L41.75 15.9223L32.7625 8.24998ZM28 4.24998L32.7625 4.24998C33.7146 4.24998 34.6354 4.58958 35.3595 5.20773L44.3471 12.8801C45.2373 13.64 45.75 14.7518 45.75 15.9223L45.75 25L45.75 41.75C45.75 43.9591 43.9592 45.75 41.75 45.75L25 45.75L15.625 45.75L8.23675 45.75C6.03802 45.75 4.2515 43.9753 4.23684 41.7767L4.21883 39.0758L4.18758 34.3883L4.12508 25.0133L4.01351 8.27665C3.99871 6.05714 5.79386 4.24998 8.01342 4.24998L13 4.24998L24.875 4.24998L28 4.24998Z"/>
</mask>
<path d="M28 8.24998L28 -20.75L28 8.24998ZM32.7625 8.24998L51.5911 -13.8064L43.4571 -20.75L32.7625 -20.75L32.7625 8.24998ZM24.875 8.24998L24.875 -20.75L24.875 8.24998ZM13 8.24998L13 37.25L13 8.24998ZM8.01342 8.24998L8.01342 -20.75L-21.1806 -20.75L-20.9859 8.44331L8.01342 8.24998ZM8.12499 24.9867L37.1243 24.7933L8.12499 24.9867ZM8.18749 34.3616L37.1868 34.1683L8.18749 34.3616ZM8.21874 39.0491L37.2181 38.8558L37.2181 38.8558L8.21874 39.0491ZM8.23675 41.75L-20.7626 41.9433L-20.5706 70.75L8.23675 70.75L8.23675 41.75ZM15.625 41.75L15.625 12.75L15.625 41.75ZM25 41.75L25 70.75L25 41.75ZM41.75 41.75L41.75 70.75L70.75 70.75L70.75 41.75L41.75 41.75ZM41.75 25L70.75 25L41.75 25ZM41.75 15.9223L70.75 15.9223L70.75 2.54887L60.5787 -6.13402L41.75 15.9223ZM32.7625 4.24998L32.7625 -24.75L32.7625 -24.75L32.7625 4.24998ZM28 4.24998L28 33.25L28 33.25L28 4.24998ZM35.3595 5.20773L54.1882 -16.8486L54.1882 -16.8486L35.3595 5.20773ZM44.3471 12.8801L25.5184 34.9364L25.5185 34.9364L44.3471 12.8801ZM45.75 15.9223L74.75 15.9223L45.75 15.9223ZM45.75 25L16.75 25L16.75 25L45.75 25ZM41.75 45.75L41.75 16.75L41.75 45.75ZM25 45.75L25 74.75L25 45.75ZM15.625 45.75L15.625 16.75L15.625 45.75ZM8.23675 45.75L8.23675 16.75L8.23675 45.75ZM4.23684 41.7767L-24.7625 41.97L-24.7625 41.97L4.23684 41.7767ZM4.21883 39.0758L33.2182 38.8825L4.21883 39.0758ZM4.18758 34.3883L33.1869 34.195L4.18758 34.3883ZM4.12508 25.0133L-24.8743 25.2066L4.12508 25.0133ZM4.01351 8.27665L33.0129 8.08332L33.0129 8.08332L4.01351 8.27665ZM8.01342 4.24998L8.01342 -24.75L8.01341 -24.75L8.01342 4.24998ZM13 4.24998L13 33.25L13 4.24998ZM24.875 4.24998L24.875 -24.75L24.875 4.24998ZM28 37.25L32.7625 37.25L32.7625 -20.75L28 -20.75L28 37.25ZM24.875 37.25L28 37.25L28 -20.75L24.875 -20.75L24.875 37.25ZM13 37.25L24.875 37.25L24.875 -20.75L13 -20.75L13 37.25ZM8.01342 37.25L13 37.25L13 -20.75L8.01342 -20.75L8.01342 37.25ZM37.1243 24.7933L37.0128 8.05665L-20.9859 8.44331L-20.8744 25.18L37.1243 24.7933ZM37.1868 34.1683L37.1243 24.7933L-20.8744 25.18L-20.8119 34.555L37.1868 34.1683ZM37.2181 38.8558L37.1868 34.1683L-20.8119 34.555L-20.7806 39.2425L37.2181 38.8558ZM37.2361 41.5567L37.2181 38.8558L-20.7806 39.2425L-20.7626 41.9433L37.2361 41.5567ZM15.625 12.75L8.23675 12.75L8.23675 70.75L15.625 70.75L15.625 12.75ZM25 12.75L15.625 12.75L15.625 70.75L25 70.75L25 12.75ZM41.75 12.75L25 12.75L25 70.75L41.75 70.75L41.75 12.75ZM12.75 25L12.75 41.75L70.75 41.75L70.75 25L12.75 25ZM12.75 15.9223L12.75 25L70.75 25L70.75 15.9223L12.75 15.9223ZM13.9338 30.3063L22.9214 37.9787L60.5787 -6.13402L51.5911 -13.8064L13.9338 30.3063ZM32.7625 -24.75L28 -24.75L28 33.25L32.7625 33.25L32.7625 -24.75ZM54.1882 -16.8486C48.2142 -21.9483 40.6171 -24.75 32.7625 -24.75L32.7625 33.25C26.812 33.25 21.0566 31.1275 16.5309 27.2641L54.1882 -16.8486ZM63.1757 -9.17627L54.1882 -16.8486L16.5309 27.2641L25.5184 34.9364L63.1757 -9.17627ZM74.75 15.9223C74.75 6.26563 70.5203 -2.90654 63.1757 -9.17629L25.5185 34.9364C19.9544 30.1866 16.75 23.238 16.75 15.9223L74.75 15.9223ZM74.75 25L74.75 15.9223L16.75 15.9223L16.75 25L74.75 25ZM74.75 41.75L74.75 25L16.75 25L16.75 41.75L74.75 41.75ZM41.75 74.75C59.9754 74.75 74.75 59.9754 74.75 41.75L16.75 41.75C16.75 27.9428 27.9429 16.75 41.75 16.75L41.75 74.75ZM25 74.75L41.75 74.75L41.75 16.75L25 16.75L25 74.75ZM15.625 74.75L25 74.75L25 16.75L15.625 16.75L15.625 74.75ZM8.23675 74.75L15.625 74.75L15.625 16.75L8.23675 16.75L8.23675 74.75ZM-24.7625 41.97C-24.6416 60.1091 -9.90276 74.75 8.23675 74.75L8.23675 16.75C21.9788 16.75 33.1446 27.8415 33.2362 41.5833L-24.7625 41.97ZM-24.7805 39.2691L-24.7625 41.97L33.2362 41.5833L33.2182 38.8825L-24.7805 39.2691ZM-24.8118 34.5816L-24.7805 39.2691L33.2182 38.8825L33.1869 34.195L-24.8118 34.5816ZM-24.8743 25.2066L-24.8118 34.5816L33.1869 34.195L33.1244 24.82L-24.8743 25.2066ZM-24.9858 8.46998L-24.8743 25.2066L33.1244 24.82L33.0129 8.08332L-24.9858 8.46998ZM8.01341 -24.75C-10.298 -24.75 -25.1079 -9.84098 -24.9858 8.46998L33.0129 8.08332C33.1053 21.9553 21.8857 33.25 8.01342 33.25L8.01341 -24.75ZM13 -24.75L8.01342 -24.75L8.01341 33.25L13 33.25L13 -24.75ZM24.875 -24.75L13 -24.75L13 33.25L24.875 33.25L24.875 -24.75ZM28 -24.75L24.875 -24.75L24.875 33.25L28 33.25L28 -24.75Z" fill="white" mask="url(#path-1-inside-1_1_445)"/>
<path d="M16 7V15C16 16.1046 16.8954 17 18 17H32C33.1046 17 34 16.1046 34 15V7.4" stroke="#FBFBFB" stroke-width="4"/>
<path d="M14 44V29C14 27.8954 14.8954 27 16 27H34C35.1046 27 36 27.8954 36 29V43.32" stroke="#FBFBFB" stroke-width="4"/>
</g>
<defs>
<filter id="filter0_d_1_445" x="-4" y="0" width="58" height="58" filterUnits="userSpaceOnUse" color-interpolation-filters="sRGB">
<feFlood flood-opacity="0" result="BackgroundImageFix"/>
<feColorMatrix in="SourceAlpha" type="matrix" values="0 0 0 0 0 0 0 0 0 0 0 0 0 0 0 0 0 0 127 0" result="hardAlpha"/>
<feOffset dy="4"/>
<feGaussianBlur stdDeviation="2"/>
<feComposite in2="hardAlpha" operator="out"/>
<feColorMatrix type="matrix" values="0 0 0 0 0 0 0 0 0 0 0 0 0 0 0 0 0 0 0.25 0"/>
<feBlend mode="normal" in2="BackgroundImageFix" result="effect1_dropShadow_1_445"/>
<feBlend mode="normal" in="SourceGraphic" in2="effect1_dropShadow_1_445" result="shape"/>
</filter>
<clipPath id="clip0_1_445">
<rect width="50" height="50" fill="white"/>
</clipPath>
</defs>
</svg>
