<svg width="50" height="50" viewBox="0 0 50 50" fill="none" xmlns="http://www.w3.org/2000/svg">
<path d="M23 42C23 43.1046 23.8954 44 25 44C26.1046 44 27 43.1046 27 42H23ZM26.4142 6.58579C25.6332 5.80474 24.3668 5.80474 23.5858 6.58579L10.8579 19.3137C10.0768 20.0948 10.0768 21.3611 10.8579 22.1421C11.6389 22.9232 12.9052 22.9232 13.6863 22.1421L25 10.8284L36.3137 22.1421C37.0948 22.9232 38.3611 22.9232 39.1421 22.1421C39.9232 21.3611 39.9232 20.0948 39.1421 19.3137L26.4142 6.58579ZM27 42L27 8H23L23 42H27Z" fill="#FBFBFB"/>
</svg>
