<svg width="50" height="54" viewBox="0 0 50 54" fill="none" xmlns="http://www.w3.org/2000/svg">
<g clip-path="url(#clip0_1_407)" filter="url(#filter0_d_1_407)">
<mask id="path-1-inside-1_1_407" fill="white">
<path fill-rule="evenodd" clip-rule="evenodd" d="M34.3125 4.25L41.75 4.25C43.9591 4.25 45.75 6.04086 45.75 8.25L45.75 25L45.75 41.75C45.75 43.9591 43.9591 45.75 41.75 45.75L25 45.75L15.625 45.75L8.23668 45.75C6.03795 45.75 4.25143 43.9753 4.23677 41.7767L4.21877 39.0758L4.18752 34.3883L4.12502 25.0133L4.01344 8.27666C3.99864 6.05715 5.79379 4.25 8.01335 4.25L15.4375 4.25C16.542 4.25 17.4375 5.14543 17.4375 6.25C17.4375 7.35457 16.542 8.25 15.4375 8.25L8.01335 8.25L8.12493 24.9867L8.18743 34.3617L8.21868 39.0492L8.23668 41.75L15.625 41.75L25 41.75L41.75 41.75L41.75 25L41.75 8.25L34.3125 8.25C33.2079 8.25 32.3125 7.35457 32.3125 6.25C32.3125 5.14543 33.2079 4.25 34.3125 4.25Z"/>
</mask>
<path d="M41.75 4.25L41.75 -24.75L41.75 4.25ZM34.3125 4.25L34.3125 33.25L34.3125 4.25ZM45.75 8.25L74.75 8.25L45.75 8.25ZM45.75 25L74.75 25L45.75 25ZM45.75 41.75L16.75 41.75L45.75 41.75ZM41.75 45.75L41.75 16.75L41.75 45.75ZM25 45.75L25 74.75L25 45.75ZM15.625 45.75L15.625 16.75L15.625 45.75ZM8.23668 45.75L8.23668 74.75L8.23668 45.75ZM4.23677 41.7767L-24.7626 41.97L-24.7626 41.97L4.23677 41.7767ZM4.21877 39.0758L33.2181 38.8825L33.2181 38.8825L4.21877 39.0758ZM4.18752 34.3883L33.1869 34.195L4.18752 34.3883ZM4.12502 25.0133L-24.8743 25.2067L4.12502 25.0133ZM4.01344 8.27666L33.0128 8.08333L33.0128 8.08333L4.01344 8.27666ZM8.01335 4.25L8.01335 33.25L8.01335 4.25ZM15.4375 4.25L15.4375 33.25L15.4375 33.25L15.4375 4.25ZM15.4375 8.25L15.4375 -20.75L15.4375 8.25ZM8.01335 8.25L8.01335 -20.75L-21.1806 -20.75L-20.986 8.44333L8.01335 8.25ZM8.12493 24.9867L37.1243 24.7933L8.12493 24.9867ZM8.18743 34.3617L-20.8119 34.555L8.18743 34.3617ZM8.21868 39.0492L37.218 38.8558L37.218 38.8558L8.21868 39.0492ZM8.23668 41.75L-20.7627 41.9433L-20.5706 70.75L8.23669 70.75L8.23668 41.75ZM15.625 41.75L15.625 12.75L15.625 41.75ZM25 41.75L25 12.75L25 41.75ZM41.75 41.75L41.75 70.75L70.75 70.75L70.75 41.75L41.75 41.75ZM41.75 25L70.75 25L41.75 25ZM41.75 8.25L70.75 8.25L70.75 -20.75L41.75 -20.75L41.75 8.25ZM34.3125 8.25L34.3125 37.25L34.3125 8.25ZM41.75 -24.75L34.3125 -24.75L34.3125 33.25L41.75 33.25L41.75 -24.75ZM74.75 8.25C74.75 -9.97538 59.9754 -24.75 41.75 -24.75L41.75 33.25C27.9428 33.25 16.75 22.0571 16.75 8.25L74.75 8.25ZM74.75 25L74.75 8.25L16.75 8.25L16.75 25L74.75 25ZM74.75 41.75L74.75 25L16.75 25L16.75 41.75L74.75 41.75ZM41.75 74.75C59.9753 74.75 74.75 59.9754 74.75 41.75L16.75 41.75C16.75 27.9429 27.9429 16.75 41.75 16.75L41.75 74.75ZM25 74.75L41.75 74.75L41.75 16.75L25 16.75L25 74.75ZM15.625 74.75L25 74.75L25 16.75L15.625 16.75L15.625 74.75ZM8.23668 74.75L15.625 74.75L15.625 16.75L8.23669 16.75L8.23668 74.75ZM-24.7626 41.97C-24.6417 60.1092 -9.90282 74.75 8.23668 74.75L8.23669 16.75C21.9787 16.75 33.1445 27.8415 33.2361 41.5833L-24.7626 41.97ZM-24.7806 39.2692L-24.7626 41.97L33.2361 41.5833L33.2181 38.8825L-24.7806 39.2692ZM-24.8118 34.5817L-24.7806 39.2692L33.2181 38.8825L33.1869 34.195L-24.8118 34.5817ZM-24.8743 25.2067L-24.8118 34.5817L33.1869 34.195L33.1244 24.82L-24.8743 25.2067ZM-24.9859 8.46999L-24.8743 25.2067L33.1244 24.82L33.0128 8.08333L-24.9859 8.46999ZM8.01335 -24.75C-10.298 -24.75 -25.108 -9.84097 -24.9859 8.46999L33.0128 8.08333C33.1053 21.9553 21.8856 33.25 8.01335 33.25L8.01335 -24.75ZM15.4375 -24.75L8.01335 -24.75L8.01335 33.25L15.4375 33.25L15.4375 -24.75ZM46.4375 6.25C46.4375 -10.8708 32.5583 -24.75 15.4375 -24.75L15.4375 33.25C0.525785 33.25 -11.5625 21.1617 -11.5625 6.25L46.4375 6.25ZM15.4375 37.25C32.5583 37.25 46.4375 23.3708 46.4375 6.25L-11.5625 6.25C-11.5625 -8.66169 0.525789 -20.75 15.4375 -20.75L15.4375 37.25ZM8.01335 37.25L15.4375 37.25L15.4375 -20.75L8.01335 -20.75L8.01335 37.25ZM37.1243 24.7933L37.0127 8.05667L-20.986 8.44333L-20.8744 25.18L37.1243 24.7933ZM37.1868 34.1683L37.1243 24.7933L-20.8744 25.18L-20.8119 34.555L37.1868 34.1683ZM37.218 38.8558L37.1868 34.1683L-20.8119 34.555L-20.7807 39.2425L37.218 38.8558ZM37.236 41.5567L37.218 38.8558L-20.7807 39.2425L-20.7627 41.9433L37.236 41.5567ZM15.625 12.75L8.23668 12.75L8.23669 70.75L15.625 70.75L15.625 12.75ZM25 12.75L15.625 12.75L15.625 70.75L25 70.75L25 12.75ZM41.75 12.75L25 12.75L25 70.75L41.75 70.75L41.75 12.75ZM12.75 25L12.75 41.75L70.75 41.75L70.75 25L12.75 25ZM12.75 8.25L12.75 25L70.75 25L70.75 8.25L12.75 8.25ZM34.3125 37.25L41.75 37.25L41.75 -20.75L34.3125 -20.75L34.3125 37.25ZM3.31248 6.25C3.31248 23.3708 17.1916 37.25 34.3125 37.25L34.3125 -20.75C49.2242 -20.75 61.3125 -8.66169 61.3125 6.25L3.31248 6.25ZM34.3125 -24.75C17.1916 -24.75 3.31248 -10.8708 3.31248 6.25L61.3125 6.25C61.3125 21.1617 49.2242 33.25 34.3125 33.25L34.3125 -24.75Z" fill="white" mask="url(#path-1-inside-1_1_407)"/>
<path d="M24.6777 4.5L24.6776 35.3554M24.6776 35.3554L16.3587 27.0365M24.6776 35.3554L32.9965 27.0365" stroke="#FBFBFB" stroke-width="5" stroke-linecap="round" stroke-linejoin="round"/>
</g>
<defs>
<filter id="filter0_d_1_407" x="-4" y="0" width="58" height="58" filterUnits="userSpaceOnUse" color-interpolation-filters="sRGB">
<feFlood flood-opacity="0" result="BackgroundImageFix"/>
<feColorMatrix in="SourceAlpha" type="matrix" values="0 0 0 0 0 0 0 0 0 0 0 0 0 0 0 0 0 0 127 0" result="hardAlpha"/>
<feOffset dy="4"/>
<feGaussianBlur stdDeviation="2"/>
<feComposite in2="hardAlpha" operator="out"/>
<feColorMatrix type="matrix" values="0 0 0 0 0 0 0 0 0 0 0 0 0 0 0 0 0 0 0.25 0"/>
<feBlend mode="normal" in2="BackgroundImageFix" result="effect1_dropShadow_1_407"/>
<feBlend mode="normal" in="SourceGraphic" in2="effect1_dropShadow_1_407" result="shape"/>
</filter>
<clipPath id="clip0_1_407">
<rect width="50" height="50" fill="white"/>
</clipPath>
</defs>
</svg>
