<svg width="58" height="58" viewBox="0 0 58 58" fill="none" xmlns="http://www.w3.org/2000/svg">
<g clip-path="url(#clip0_1_87)" filter="url(#filter0_d_1_87)">
<g clip-path="url(#clip1_1_87)">
<mask id="path-1-inside-1_1_87" fill="white">
<path fill-rule="evenodd" clip-rule="evenodd" d="M38.7359 18.2547L33.0908 13.9653L32.5546 14.6709L29.008 11.976C28.7964 11.8152 28.5237 11.7578 28.2652 11.8198L18.2437 14.2224C17.5166 14.3967 17.3188 15.3375 17.9141 15.7898L27.3624 22.969L11.2771 44.138C10.6849 44.9175 10.8366 46.0294 11.616 46.6217L13.0273 47.694C13.8067 48.2862 14.9187 48.1345 15.5109 47.3551L31.5962 26.1861L37.2413 30.4755C37.631 30.7716 38.187 30.6958 38.4831 30.306L43.3086 23.9553C43.6048 23.5656 43.5289 23.0097 43.1392 22.7135L38.1997 18.9603L38.7359 18.2547Z"/>
</mask>
<path d="M33.0908 13.9653L40.9559 3.6144L30.605 -4.25068L22.7399 6.10019L33.0908 13.9653ZM38.7359 18.2547L49.0867 26.1197L56.9518 15.7689L46.601 7.90379L38.7359 18.2547ZM32.5546 14.6709L24.6896 25.0218L35.0404 32.8868L42.9055 22.536L32.5546 14.6709ZM28.2652 11.8198L31.296 24.4616L31.296 24.4616L28.2652 11.8198ZM18.2437 14.2224L15.2129 1.58059L15.2129 1.5806L18.2437 14.2224ZM17.9141 15.7898L25.7792 5.43895L17.9141 15.7898ZM27.3624 22.969L37.7132 30.8341L45.5783 20.4832L35.2274 12.6182L27.3624 22.969ZM31.5962 26.1861L39.4612 15.8352L29.1104 7.97012L21.2453 18.321L31.5962 26.1861ZM38.1997 18.9603L27.8488 11.0952L19.9838 21.4461L30.3346 29.3112L38.1997 18.9603ZM25.2257 24.3161L30.8708 28.6055L46.601 7.90379L40.9559 3.6144L25.2257 24.3161ZM42.9055 22.536L43.4417 21.8304L22.7399 6.10019L22.2038 6.80581L42.9055 22.536ZM40.4197 4.32002L36.8731 1.62512L21.1429 22.3269L24.6896 25.0218L40.4197 4.32002ZM36.8731 1.62512C33.5569 -0.894713 29.2847 -1.79297 25.2345 -0.821966L31.296 24.4616C27.7627 25.3087 24.0359 24.525 21.1429 22.3269L36.8731 1.62512ZM25.2345 -0.821969L15.2129 1.58059L21.2744 26.8642L31.296 24.4616L25.2345 -0.821969ZM15.2129 1.5806C3.821 4.31171 0.721518 19.0532 10.049 26.1407L25.7792 5.43895C33.9162 11.6218 31.2123 24.4816 21.2744 26.8642L15.2129 1.5806ZM10.049 26.1407L19.4973 33.3199L35.2274 12.6182L25.7792 5.43895L10.049 26.1407ZM17.0115 15.1039L0.926259 36.273L21.628 52.0031L37.7132 30.8341L17.0115 15.1039ZM0.926259 36.273C-4.00976 42.769 -2.74508 52.0365 3.75096 56.9725L19.4811 36.2708C24.4183 40.0223 25.3795 47.0659 21.628 52.0031L0.926259 36.273ZM3.75096 56.9725L5.16223 58.0449L20.8924 37.3431L19.4811 36.2708L3.75096 56.9725ZM5.16223 58.0449C11.6583 62.9809 20.9258 61.7162 25.8618 55.2202L5.16006 39.49C8.91157 34.5528 15.9552 33.5916 20.8924 37.3431L5.16223 58.0449ZM25.8618 55.2202L41.947 34.0512L21.2453 18.321L5.16006 39.49L25.8618 55.2202ZM23.7311 36.5369L29.3762 40.8264L45.1064 20.1246L39.4612 15.8352L23.7311 36.5369ZM29.3762 40.8264C35.4825 45.4663 44.1941 44.2775 48.834 38.1711L28.1322 22.441C32.1798 17.1141 39.7794 16.077 45.1064 20.1246L29.3762 40.8264ZM48.834 38.1711L53.6595 31.8204L32.9578 16.0903L28.1322 22.441L48.834 38.1711ZM53.6595 31.8204C58.2994 25.7141 57.1106 17.0026 51.0043 12.3627L35.2741 33.0644C29.9472 29.0168 28.9101 21.4172 32.9578 16.0903L53.6595 31.8204ZM51.0043 12.3627L46.0648 8.60942L30.3346 29.3112L35.2741 33.0644L51.0043 12.3627ZM28.385 10.3896L27.8488 11.0952L48.5506 26.8254L49.0867 26.1197L28.385 10.3896Z" fill="white" mask="url(#path-1-inside-1_1_87)"/>
</g>
<mask id="path-3-inside-2_1_87" fill="white">
<path fill-rule="evenodd" clip-rule="evenodd" d="M12.0134 4.25C9.79379 4.25 7.99864 6.05715 8.01344 8.27666L8.12502 25.0133L8.18752 34.3883L8.21877 39.0758L8.23093 40.9009L12.1962 35.6824L12.1874 34.3617L12.1249 24.9867L12.0134 8.25L26.9166 8.25C28.0212 8.25 28.9166 7.35457 28.9166 6.25C28.9166 5.14543 28.0212 4.25 26.9166 4.25L12.0134 4.25ZM25.8086 41.75L22.7692 45.75L29 45.75L45.75 45.75C47.9591 45.75 49.75 43.9591 49.75 41.75L49.75 27.0833C49.75 25.9788 48.8545 25.0833 47.75 25.0833C46.6454 25.0833 45.75 25.9788 45.75 27.0833L45.75 41.75L29 41.75L25.8086 41.75Z"/>
</mask>
<path d="M8.01344 8.27666L-20.9859 8.46999L-20.9859 8.46999L8.01344 8.27666ZM12.0134 4.25L12.0134 -24.75L12.0133 -24.75L12.0134 4.25ZM8.12502 25.0133L-20.8743 25.2067L-20.8743 25.2067L8.12502 25.0133ZM8.18752 34.3883L37.1869 34.195L37.1869 34.195L8.18752 34.3883ZM8.21877 39.0758L37.2181 38.8825L37.2181 38.8825L8.21877 39.0758ZM8.23093 40.9009L-20.7684 41.0942L-20.2008 126.252L31.3213 58.4461L8.23093 40.9009ZM12.1962 35.6824L35.2866 53.2275L41.2614 45.3644L41.1956 35.489L12.1962 35.6824ZM12.1874 34.3617L41.1868 34.1683L41.1868 34.1683L12.1874 34.3617ZM12.1249 24.9867L-16.8744 25.18L-16.8744 25.18L12.1249 24.9867ZM12.0134 8.25L12.0134 -20.75L-17.1806 -20.75L-16.986 8.44332L12.0134 8.25ZM26.9166 8.25L26.9166 -20.75L26.9166 -20.75L26.9166 8.25ZM28.9166 6.25L-0.0833569 6.25L28.9166 6.25ZM26.9166 4.25L26.9166 33.25L26.9166 33.25L26.9166 4.25ZM25.8086 41.75L25.8086 12.75L11.4221 12.75L2.71817 24.2048L25.8086 41.75ZM22.7692 45.75L-0.321225 28.2048L-35.6885 74.75L22.7692 74.75L22.7692 45.75ZM29 45.75L29 16.75L29 16.75L29 45.75ZM45.75 45.75L45.75 74.75L45.75 74.75L45.75 45.75ZM49.75 41.75L78.75 41.75L78.75 41.75L49.75 41.75ZM49.75 27.0833L20.75 27.0833L20.75 27.0833L49.75 27.0833ZM47.75 25.0833L47.7499 54.0833L47.75 54.0833L47.75 25.0833ZM45.75 27.0833L16.75 27.0833L16.75 27.0833L45.75 27.0833ZM45.75 41.75L45.75 70.75L74.75 70.75L74.75 41.75L45.75 41.75ZM29 41.75L29 12.75L29 12.75L29 41.75ZM37.0128 8.08334C37.1053 21.9553 25.8856 33.25 12.0134 33.25L12.0133 -24.75C-6.29803 -24.75 -21.108 -9.84095 -20.9859 8.46999L37.0128 8.08334ZM37.1244 24.82L37.0128 8.08333L-20.9859 8.46999L-20.8743 25.2067L37.1244 24.82ZM37.1869 34.195L37.1244 24.82L-20.8743 25.2067L-20.8118 34.5817L37.1869 34.195ZM37.2181 38.8825L37.1869 34.195L-20.8118 34.5817L-20.7806 39.2692L37.2181 38.8825ZM37.2303 40.7076L37.2181 38.8825L-20.7806 39.2691L-20.7684 41.0942L37.2303 40.7076ZM31.3213 58.4461L35.2866 53.2275L-10.8942 18.1372L-14.8595 23.3557L31.3213 58.4461ZM-16.8119 34.555L-16.8031 35.8757L41.1956 35.489L41.1868 34.1683L-16.8119 34.555ZM-16.8744 25.18L-16.8119 34.555L41.1868 34.1683L41.1243 24.7933L-16.8744 25.18ZM-16.986 8.44332L-16.8744 25.18L41.1243 24.7933L41.0127 8.05667L-16.986 8.44332ZM26.9166 -20.75L12.0134 -20.75L12.0134 37.25L26.9166 37.25L26.9166 -20.75ZM-0.0833569 6.25C-0.0833609 -8.6617 12.005 -20.75 26.9166 -20.75L26.9166 37.25C44.0375 37.25 57.9166 23.3708 57.9166 6.24999L-0.0833569 6.25ZM26.9166 33.25C12.0049 33.25 -0.0833534 21.1617 -0.0833569 6.25L57.9166 6.24999C57.9166 -10.8708 44.0375 -24.75 26.9166 -24.75L26.9166 33.25ZM12.0134 33.25L26.9166 33.25L26.9166 -24.75L12.0134 -24.75L12.0134 33.25ZM2.71817 24.2048L-0.321225 28.2048L45.8596 63.2952L48.899 59.2952L2.71817 24.2048ZM29 16.75L22.7692 16.75L22.7692 74.75L29 74.75L29 16.75ZM45.75 16.75L29 16.75L29 74.75L45.75 74.75L45.75 16.75ZM20.75 41.75C20.75 27.9429 31.9429 16.75 45.7499 16.75L45.75 74.75C63.9754 74.75 78.75 59.9754 78.75 41.75L20.75 41.75ZM20.75 27.0833L20.75 41.75L78.75 41.75L78.75 27.0833L20.75 27.0833ZM47.75 54.0833C32.8383 54.0833 20.75 41.995 20.75 27.0833L78.75 27.0834C78.75 9.96249 64.8708 -3.91668 47.75 -3.91667L47.75 54.0833ZM74.75 27.0834C74.7499 41.995 62.6617 54.0833 47.7499 54.0833L47.75 -3.91667C30.6292 -3.91669 16.75 9.9625 16.75 27.0833L74.75 27.0834ZM74.75 41.75L74.75 27.0833L16.75 27.0833L16.75 41.75L74.75 41.75ZM29 70.75L45.75 70.75L45.75 12.75L29 12.75L29 70.75ZM25.8086 70.75L29 70.75L29 12.75L25.8086 12.75L25.8086 70.75Z" fill="white" mask="url(#path-3-inside-2_1_87)"/>
</g>
<defs>
<filter id="filter0_d_1_87" x="0" y="0" width="58" height="58" filterUnits="userSpaceOnUse" color-interpolation-filters="sRGB">
<feFlood flood-opacity="0" result="BackgroundImageFix"/>
<feColorMatrix in="SourceAlpha" type="matrix" values="0 0 0 0 0 0 0 0 0 0 0 0 0 0 0 0 0 0 127 0" result="hardAlpha"/>
<feOffset dy="4"/>
<feGaussianBlur stdDeviation="2"/>
<feComposite in2="hardAlpha" operator="out"/>
<feColorMatrix type="matrix" values="0 0 0 0 0 0 0 0 0 0 0 0 0 0 0 0 0 0 0.25 0"/>
<feBlend mode="normal" in2="BackgroundImageFix" result="effect1_dropShadow_1_87"/>
<feBlend mode="normal" in="SourceGraphic" in2="effect1_dropShadow_1_87" result="shape"/>
</filter>
<clipPath id="clip0_1_87">
<rect width="50" height="50" fill="white" transform="translate(4)"/>
</clipPath>
<clipPath id="clip1_1_87">
<rect width="44.3114" height="44.3114" fill="white" transform="translate(18.8087 2) rotate(37.2293)"/>
</clipPath>
</defs>
</svg>
