<svg width="50" height="50" viewBox="0 0 50 50" fill="none" xmlns="http://www.w3.org/2000/svg">
<path d="M27 8C27 6.89543 26.1046 6 25 6C23.8954 6 23 6.89543 23 8H27ZM23.5858 43.4142C24.3668 44.1953 25.6332 44.1953 26.4142 43.4142L39.1421 30.6863C39.9232 29.9052 39.9232 28.6389 39.1421 27.8579C38.3611 27.0768 37.0948 27.0768 36.3137 27.8579L25 39.1716L13.6863 27.8579C12.9052 27.0768 11.6389 27.0768 10.8579 27.8579C10.0768 28.6389 10.0768 29.9052 10.8579 30.6863L23.5858 43.4142ZM23 8L23 42H27L27 8H23Z" fill="#FBFBFB"/>
</svg>
