<svg width="50" height="50" viewBox="0 0 50 50" fill="none" xmlns="http://www.w3.org/2000/svg">
<path d="M27.5 9C22.3327 9 18 13.3961 18 19C18 24.6039 22.3327 29 27.5 29C32.6673 29 37 24.6039 37 19C37 13.3961 32.6673 9 27.5 9Z" stroke="#FBFBFB" stroke-width="4"/>
<circle cx="3" cy="3" r="3" transform="matrix(-1 0 0 1 33 13)" fill="#FBFBFB"/>
<path d="M16.154 44.0513C15.63 45.6231 16.4795 47.3221 18.0513 47.8461C19.6231 48.37 21.3221 47.5205 21.8461 45.9487L16.154 44.0513ZM21.154 29.0513L16.154 44.0513L21.8461 45.9487L26.846 30.9487L21.154 29.0513Z" fill="white"/>
</svg>
