<svg width="50" height="50" viewBox="0 0 50 50" fill="none" xmlns="http://www.w3.org/2000/svg">
<path d="M8 23C6.89543 23 6 23.8954 6 25C6 26.1046 6.89543 27 8 27L8 23ZM43.4142 26.4142C44.1953 25.6332 44.1953 24.3668 43.4142 23.5858L30.6863 10.8579C29.9052 10.0768 28.6389 10.0768 27.8579 10.8579C27.0768 11.6389 27.0768 12.9052 27.8579 13.6863L39.1716 25L27.8579 36.3137C27.0768 37.0948 27.0768 38.3611 27.8579 39.1421C28.6389 39.9232 29.9052 39.9232 30.6863 39.1421L43.4142 26.4142ZM8 27L42 27L42 23L8 23L8 27Z" fill="#FBFBFB"/>
</svg>
