<svg width="50" height="50" viewBox="0 0 50 50" fill="none" xmlns="http://www.w3.org/2000/svg">
<path d="M25 10.4004C34.9992 10.4005 43.1731 18.2069 43.7637 28.0576C43.3916 28.02 43.0131 28 42.6289 28H39.751C39.1401 20.3876 32.7696 14.4005 25 14.4004C16.8263 14.4005 10.2002 21.0264 10.2002 29.2002C10.2003 37.3739 16.8263 43.9999 25 44C27.8906 44 30.5864 43.1692 32.8652 41.7363C33.7406 42.8196 34.2152 44.1904 34.1729 45.6113C31.4593 47.1313 28.3314 48 25 48C14.6172 47.9999 6.2003 39.583 6.2002 29.2002C6.2002 18.8173 14.6171 10.4005 25 10.4004ZM25 18.7998C26.1044 18.7999 26.9999 19.6954 27 20.7998V29.2002C26.9999 30.3046 26.1044 31.2001 25 31.2002C23.8956 31.2001 23.0001 30.3046 23 29.2002V20.7998C23.0001 19.6954 23.8956 18.7999 25 18.7998ZM31.5049 2.01074C32.5132 2.11339 33.2998 2.96463 33.2998 4C33.2998 5.03537 32.5132 5.88661 31.5049 5.98926L31.2998 6H18.7002C17.5956 6 16.7002 5.10457 16.7002 4C16.7002 2.89543 17.5956 2 18.7002 2H31.2998L31.5049 2.01074Z" fill="#FBFBFB"/>
<path d="M31.3775 31.0879H47.0218C47.5617 31.0879 47.9995 31.5325 47.9996 32.081L47.9998 33.6561C47.9998 33.9196 47.8968 34.1723 47.7134 34.3586L41.4415 40.7294C41.2581 40.9157 41.1551 41.1683 41.1551 41.4318L41.1551 47.6942C41.1551 48.3403 40.5573 48.8145 39.9402 48.6577L37.9847 48.1611C37.5494 48.0506 37.2441 47.6533 37.2441 47.1975L37.2441 41.4317C37.2441 41.1683 37.1411 40.9157 36.9577 40.7294L30.6861 34.3585C30.5028 34.1723 30.3998 33.9196 30.3998 33.6562V32.0811C30.3998 31.5326 30.8375 31.0879 31.3775 31.0879Z" fill="#9C1C9C"/>
</svg>
